# Blender 5.1.1
# www.blender.org
mtllib Doug_HAIR.mtl
o Doug_HAIR
v 15.398071 16.707930 -22.916620
v 15.465261 16.777033 -22.780460
v 15.428065 16.797890 -22.919699
v 15.431829 16.655012 -22.953529
v 15.484601 16.641506 -22.812212
v 15.455093 16.689388 -22.783691
v 15.580742 16.685318 -22.702112
v 15.600621 16.776743 -22.717463
v 15.720379 16.777906 -22.687254
v 15.717619 16.676199 -22.662355
v 15.807189 16.763699 -22.670269
v 15.846269 16.661055 -22.659534
v 15.881258 16.739058 -22.664076
v 15.933651 16.638723 -22.676987
v 15.967071 16.672977 -22.673368
v 16.004808 16.603516 -22.696936
v 15.942397 16.606714 -22.736910
v 15.865640 16.613232 -22.723896
v 15.767960 16.638876 -22.720201
v 15.620252 16.634827 -22.734718
v 15.605513 16.230125 -23.252258
v 15.603258 16.406479 -23.169174
v 15.589058 16.330528 -23.418596
v 15.602339 16.474226 -23.340515
v 15.604020 16.405678 -23.169237
v 15.606012 16.229259 -23.252514
v 15.678744 16.360876 -23.007612
v 15.717266 16.163481 -23.064974
v 15.887206 16.180134 -22.916578
v 15.826621 16.363098 -22.901577
v 16.058125 16.248068 -22.857887
v 16.001450 16.401350 -22.861403
v 15.748423 16.146406 -23.295488
v 15.692447 16.275469 -23.246691
v 15.733253 16.205116 -23.402262
v 15.680989 16.333668 -23.297342
v 15.646830 16.405050 -23.351360
v 15.635359 16.431086 -23.416309
v 15.728279 16.272306 -23.518169
v 15.719665 16.562143 -23.655306
v 15.785174 16.437447 -23.663105
v 16.341171 16.350622 -22.987654
v 16.338360 16.465532 -22.905710
v 16.167927 16.203049 -22.983158
v 16.071402 16.361628 -22.885923
v 16.048487 16.154806 -23.017338
v 16.006504 16.346951 -22.912079
v 15.951608 16.289740 -22.965134
v 15.899122 16.242716 -22.993038
v 15.942953 16.116758 -23.057508
v 15.786069 16.259680 -23.015472
v 15.807418 16.098402 -23.148603
v 15.724068 16.273663 -23.058081
v 15.692420 16.278690 -23.126711
v 15.745610 16.153385 -23.292225
v 15.689593 16.285069 -23.243420
v 15.499953 16.668739 -23.290535
v 15.465776 16.688341 -23.369255
v 15.558176 16.557259 -23.325802
v 15.529077 16.591690 -23.425022
v 15.591001 16.457371 -23.359873
v 15.559328 16.496384 -23.462225
v 15.597707 16.350306 -23.398430
v 15.568546 16.393003 -23.499798
v 15.574633 16.456940 -23.597935
v 15.569576 16.548393 -23.557030
v 15.536392 16.637991 -23.505411
v 15.481499 16.723621 -23.450832
v 15.955312 16.593979 -22.741766
v 15.985683 16.486752 -22.810692
v 16.028461 16.596136 -22.691471
v 16.083277 16.500521 -22.757961
v 16.116316 16.619671 -22.686378
v 16.169518 16.534039 -22.743519
v 16.216558 16.442284 -22.780149
v 16.115549 16.405060 -22.794424
v 16.247309 16.347042 -22.791885
v 16.141960 16.299276 -22.812632
v 16.041344 16.277443 -22.865768
v 16.014177 16.387491 -22.850496
v 15.434637 16.806227 -22.918751
v 15.427498 16.822161 -23.035465
v 15.405078 16.717192 -22.915018
v 15.390181 16.724916 -23.050539
v 15.438828 16.664427 -22.951626
v 15.452204 16.685768 -23.094110
v 15.408801 16.726412 -23.178644
v 15.469838 16.673716 -23.194620
v 15.438853 16.714939 -23.267090
v 15.495523 16.676504 -23.270433
v 15.467042 16.687416 -23.339773
v 15.445468 16.753309 -23.296167
v 15.428901 16.806837 -23.201813
v 15.424698 16.819479 -23.123049
v 16.466084 17.193224 -22.577595
v 16.414993 17.071594 -22.603395
v 16.513535 16.990105 -22.659498
v 16.361435 16.893957 -22.652306
v 16.322147 16.769209 -22.684309
v 16.503036 16.776638 -22.741659
v 16.234516 16.542662 -22.766720
v 16.474022 16.595268 -22.831377
v 16.284666 16.435694 -22.888136
v 16.445261 16.465185 -22.948294
v 16.344671 16.404480 -23.029167
v 16.485914 16.434179 -23.076828
v 16.625605 16.528591 -23.009422
v 16.676886 16.686310 -22.918943
v 16.657650 16.925638 -22.786364
v 16.613228 17.141562 -22.689604
v 15.522840 17.218616 -23.689699
v 15.525708 17.348274 -23.722887
v 15.585921 17.142555 -23.788092
v 15.657588 17.298887 -23.852980
v 15.729772 17.077902 -23.914761
v 15.632975 16.918877 -23.798494
v 15.828472 16.824791 -23.949343
v 15.688737 16.722998 -23.784334
v 15.883847 16.648790 -23.909834
v 15.778630 16.572989 -23.757376
v 15.907861 16.527250 -23.778610
v 15.828433 16.487823 -23.655746
v 15.683120 16.533386 -23.617918
v 15.569414 16.650986 -23.573654
v 15.538942 16.897266 -23.635754
v 15.533790 17.029863 -23.659023
v 15.270256 17.342033 -22.849672
v 15.284355 17.371214 -22.884413
v 15.189148 17.361038 -22.888458
v 15.224330 17.377134 -22.921953
v 15.190121 17.378075 -22.985792
v 15.147984 17.359364 -22.969191
v 15.145056 17.350439 -23.069315
v 15.185096 17.380697 -23.055403
v 15.191000 17.383820 -23.116343
v 15.159087 17.364025 -23.139032
v 15.349530 17.357616 -22.871065
v 15.343089 17.320190 -22.835262
v 15.355766 17.386820 -22.894226
v 15.301406 17.408503 -22.915279
v 15.257695 17.409008 -22.944729
v 15.231791 17.414963 -22.998013
v 15.218043 17.410841 -23.045542
v 15.222091 17.410976 -23.096823
v 15.236542 17.410862 -23.146395
v 15.212020 17.400852 -23.174015
v 15.190461 17.391283 -23.204086
v 15.829255 17.256744 -22.328596
v 15.816368 17.284330 -22.360619
v 15.756799 17.252775 -22.329899
v 15.755620 17.290504 -22.366625
v 15.687502 17.298288 -22.383884
v 15.660647 17.277298 -22.349174
v 15.589762 17.297291 -22.403990
v 15.630595 17.311285 -22.429020
v 15.605291 17.319162 -22.494905
v 15.564518 17.294388 -22.492632
v 15.879025 17.294382 -22.367542
v 15.902502 17.277403 -22.342861
v 15.858307 17.311647 -22.394571
v 15.806978 17.317690 -22.389574
v 15.756264 17.325327 -22.395086
v 15.711768 17.337315 -22.415918
v 15.663766 17.342991 -22.451693
v 15.643932 17.352806 -22.499363
v 15.631533 17.342073 -22.559473
v 15.603642 17.316460 -22.562689
v 15.562168 17.284784 -22.569471
v 17.286192 17.391642 -23.461193
v 17.203201 17.608263 -23.140821
v 17.238274 17.328495 -23.241220
v 16.632961 17.210861 -24.382147
v 16.310194 17.189283 -24.314766
v 16.352036 17.475197 -24.322292
v 16.352093 17.475174 -24.322409
v 16.072798 17.243795 -24.197645
v 16.310345 17.189253 -24.314997
v 16.072596 17.426708 -24.189484
v 17.129221 17.209242 -24.081562
v 16.890770 17.234549 -24.305531
v 17.105740 17.509207 -24.018303
v 16.883833 17.523338 -24.211100
v 16.883833 17.523336 -24.211100
v 16.584761 17.507883 -24.316315
v 16.584761 17.507883 -24.316315
v 16.286858 17.759884 -24.258329
v 16.352057 17.475189 -24.322336
v 16.072573 17.426701 -24.189457
v 16.025614 17.608809 -24.141613
v 16.104843 17.950951 -24.176544
v 16.025719 17.608841 -24.141733
v 15.968647 17.768305 -24.097633
v 15.969997 18.074121 -24.103638
v 15.887296 17.943439 -24.021175
v 15.824054 18.023970 -23.944183
v 17.105740 17.509207 -24.018303
v 17.248503 17.462866 -23.765865
v 17.300388 17.166628 -23.805418
v 17.248503 17.462866 -23.765865
v 17.285753 17.391647 -23.460459
v 17.317333 17.097380 -23.546581
v 17.181644 17.045069 -23.252201
v 17.043859 17.265999 -23.004774
v 17.025732 17.086124 -23.035297
v 17.013672 17.445410 -22.936792
v 17.238413 17.328524 -23.241411
v 17.043911 17.266022 -23.004829
v 17.112881 17.784252 -22.947323
v 16.981676 17.600779 -22.862265
v 16.915337 17.773453 -22.767561
v 17.031376 17.898636 -22.809393
v 16.838749 17.856184 -22.706810
v 16.352064 17.475185 -24.322351
v 17.181482 17.045017 -23.252010
v 17.238386 17.328518 -23.241373
v 17.203211 17.608265 -23.140833
vn -0.9645 -0.1231 0.2336
vn -0.7402 0.1758 0.6490
vn -0.9278 0.3157 0.1986
vn -0.7369 -0.6751 0.0358
vn -0.6000 -0.6674 0.4411
vn -0.7433 -0.3167 0.5893
vn -0.4048 -0.2106 0.8898
vn -0.3252 0.2248 0.9185
vn -0.2152 0.2298 0.9491
vn -0.1635 -0.3493 0.9226
vn -0.0706 0.1408 0.9875
vn -0.0505 -0.4512 0.8910
vn 0.0476 -0.0188 0.9987
vn -0.0089 -0.5596 0.8287
vn 0.0811 -0.1827 0.9798
vn -0.0996 -0.6316 0.7689
vn -0.1540 -0.8807 0.4479
vn -0.0931 -0.8407 0.5335
vn -0.1111 -0.8519 0.5119
vn -0.2188 -0.7483 0.6263
vn -0.9397 -0.1762 0.2933
vn -0.9851 -0.0546 0.1633
vn -0.9985 0.0140 0.0526
vn -0.9967 0.0734 0.0344
vn -0.9862 -0.0507 0.1577
vn -0.9416 -0.1754 0.2874
vn -0.7602 -0.2718 0.5901
vn -0.7485 -0.3156 0.5833
vn -0.4805 -0.2493 0.8408
vn -0.3553 -0.1642 0.9202
vn -0.2369 -0.1101 0.9653
vn -0.2119 -0.0560 0.9757
vn -0.8942 -0.4462 0.0363
vn -0.9325 -0.3563 -0.0587
vn -0.9248 -0.3743 -0.0684
vn -0.9365 -0.3484 -0.0408
vn -0.9157 -0.4012 0.0217
vn -0.9126 -0.3489 -0.2133
vn -0.8384 -0.3287 -0.4347
vn -0.7908 -0.2808 -0.5439
vn -0.6943 -0.3246 -0.6424
vn 0.4535 -0.5101 0.7309
vn 0.3424 -0.4634 0.8173
vn 0.2235 -0.4954 0.8394
vn -0.0081 -0.4910 0.8711
vn -0.1537 -0.4935 0.8561
vn -0.2418 -0.5062 0.8278
vn -0.1812 -0.4662 0.8659
vn -0.1658 -0.4758 0.8638
vn -0.2546 -0.5418 0.8010
vn -0.3956 -0.5758 0.7155
vn -0.6563 -0.5934 0.4659
vn -0.6786 -0.5651 0.4692
vn -0.8549 -0.4955 0.1535
vn -0.8999 -0.4357 0.0192
vn -0.9361 -0.3441 -0.0728
vn -0.8295 -0.5072 0.2338
vn -0.8662 -0.4993 -0.0183
vn -0.8657 -0.4795 0.1433
vn -0.9264 -0.3612 -0.1059
vn -0.9415 -0.2830 0.1829
vn -0.9861 -0.1635 0.0280
vn -0.9620 -0.1543 0.2254
vn -0.9924 -0.1093 0.0572
vn -0.9942 -0.0295 -0.1036
vn -0.9721 -0.1479 -0.1823
vn -0.9179 -0.3020 -0.2574
vn -0.8721 -0.3758 -0.3134
vn -0.4544 -0.5692 0.6853
vn -0.3765 -0.5576 0.7398
vn -0.2236 -0.6034 0.7655
vn -0.1320 -0.4869 0.8634
vn 0.0784 -0.5293 0.8448
vn 0.0264 -0.4521 0.8916
vn -0.0320 -0.2919 0.9559
vn -0.2387 -0.2786 0.9303
vn -0.0943 -0.1713 0.9807
vn -0.2577 -0.2264 0.9393
vn -0.4251 -0.2407 0.8726
vn -0.4002 -0.3688 0.8389
vn -0.9290 0.3160 0.1927
vn -0.9375 0.3382 0.0816
vn -0.9665 -0.1184 0.2279
vn -0.9705 -0.2379 -0.0401
vn -0.7428 -0.6687 0.0326
vn -0.6146 -0.7827 -0.0985
vn -0.9315 -0.3280 -0.1575
vn -0.6301 -0.7663 -0.1254
vn -0.8765 -0.4346 -0.2071
vn -0.5627 -0.8244 -0.0617
vn -0.8431 -0.5224 -0.1276
vn -0.9647 -0.0317 -0.2615
vn -0.9700 0.1301 -0.2054
vn -0.9591 0.2743 -0.0694
vn 0.4124 -0.2561 0.8742
vn 0.2584 -0.3161 0.9129
vn 0.3946 -0.2974 0.8694
vn 0.2450 -0.3191 0.9155
vn 0.2756 -0.3644 0.8896
vn 0.4260 -0.3999 0.8116
vn 0.3164 -0.5118 0.7987
vn 0.4211 -0.5727 0.7033
vn 0.3338 -0.7522 0.5681
vn 0.3670 -0.8103 0.4569
vn 0.2909 -0.9030 0.3161
vn 0.3536 -0.8777 0.3235
vn 0.4682 -0.6949 0.5458
vn 0.5377 -0.4537 0.7107
vn 0.5635 -0.3072 0.7669
vn 0.5661 -0.2144 0.7960
vn -0.8742 -0.1147 -0.4719
vn -0.7949 -0.0408 -0.6054
vn -0.8002 -0.0855 -0.5936
vn -0.6805 0.0078 -0.7327
vn -0.6665 -0.0899 -0.7401
vn -0.7524 -0.1937 -0.6296
vn -0.6385 -0.2485 -0.7284
vn -0.6727 -0.3839 -0.6326
vn -0.5258 -0.5240 -0.6700
vn -0.4765 -0.6674 -0.5722
vn -0.3578 -0.7578 -0.5457
vn -0.3674 -0.7936 -0.4850
vn -0.5843 -0.5960 -0.5508
vn -0.7782 -0.3235 -0.5383
vn -0.8542 -0.1676 -0.4923
vn -0.8791 -0.1213 -0.4609
vn -0.0068 0.7457 0.6662
vn -0.1023 0.7569 0.6455
vn -0.2165 0.9206 0.3250
vn -0.3704 0.8378 0.4011
vn -0.5213 0.8444 0.1231
vn -0.3902 0.9196 0.0460
vn -0.5526 0.8334 0.0098
vn -0.6442 0.7648 0.0115
vn -0.5693 0.8221 -0.0042
vn -0.5405 0.8386 0.0678
vn 0.0193 0.6925 0.7212
vn 0.0615 0.6844 0.7265
vn -0.0330 0.6359 0.7710
vn -0.2475 0.7094 0.6599
vn -0.4412 0.7795 0.4446
vn -0.5804 0.7715 0.2606
vn -0.6656 0.7447 0.0487
vn -0.6351 0.7681 -0.0818
vn -0.5299 0.8471 -0.0412
vn -0.5126 0.8549 0.0797
vn -0.5209 0.8473 0.1038
vn -0.0658 0.7568 0.6503
vn -0.0012 0.7146 0.6995
vn -0.0158 0.7412 0.6711
vn -0.0593 0.6645 0.7449
vn -0.1168 0.7785 0.6167
vn -0.0045 0.8573 0.5148
vn -0.2337 0.9282 0.2894
vn -0.3501 0.8406 0.4134
vn -0.5437 0.8332 0.1013
vn -0.5459 0.8379 0.0025
vn -0.0701 0.7801 0.6218
vn -0.0968 0.7746 0.6249
vn 0.0415 0.7535 0.6562
vn 0.0829 0.6663 0.7411
vn -0.0675 0.6517 0.7555
vn -0.2726 0.7201 0.6381
vn -0.4183 0.7757 0.4726
vn -0.5937 0.7696 0.2351
vn -0.6663 0.7457 -0.0061
vn -0.5988 0.8000 -0.0386
vn -0.5965 0.7985 -0.0816
vn 0.9863 0.0821 0.1433
vn 0.8723 -0.0936 0.4800
vn 0.9506 0.1249 -0.2842
vn -0.4350 -0.0787 -0.8970
vn -0.3211 0.0216 -0.9468
vn 0.4930 0.2075 -0.8449
vn 0.4909 0.2083 -0.8460
vn 0.4362 -0.0287 0.8994
vn 0.5242 -0.1050 -0.8451
vn -0.3972 0.0289 -0.9173
vn 0.4910 0.2087 -0.8458
vn -0.7680 -0.2321 0.5970
vn 0.5389 0.1732 -0.8244
vn 0.7683 0.2349 -0.5954
vn -0.4824 -0.2311 0.8449
vn -0.5005 -0.2200 0.8373
vn -0.4378 -0.0777 -0.8957
vn 0.4922 0.2314 -0.8391
vn 0.0767 0.2449 -0.9665
vn 0.0806 0.2462 -0.9658
vn -0.2932 0.1155 -0.9490
vn -0.2924 0.1155 -0.9493
vn 0.4908 0.2086 -0.8459
vn -0.4461 0.0666 -0.8925
vn -0.5120 -0.0588 -0.8570
vn -0.5287 -0.0059 -0.8488
vn -0.2953 0.1141 -0.9486
vn -0.5113 -0.0599 -0.8573
vn -0.5607 0.0614 -0.8258
vn -0.6651 -0.0493 -0.7451
vn -0.6395 -0.0041 -0.7688
vn -0.7447 0.0514 -0.6654
vn 0.7657 0.2362 -0.5983
vn -0.7039 -0.3101 0.6390
vn -0.9499 -0.1518 0.2731
vn 0.9481 0.1504 -0.2802
vn 0.9474 0.1502 -0.2825
vn -0.9498 -0.1496 0.2750
vn 0.9863 0.0964 0.1338
vn 0.7644 -0.2906 0.5755
vn 0.7632 -0.2934 0.5756
vn 0.7090 -0.2370 -0.6642
vn 0.9520 0.1243 -0.2797
vn 0.7656 -0.2461 0.5944
vn -0.7830 0.1784 -0.5959
vn 0.7107 -0.2786 0.6460
vn 0.8699 -0.0953 0.4840
vn 0.9521 0.1238 -0.2798
vn 0.7770 -0.1537 0.6104
vn 0.8701 -0.0963 0.4834
vn 0.7065 -0.2282 0.6699
vn 0.7110 -0.2801 0.6450
vn 0.6873 -0.1634 0.7077
vn 0.6064 -0.2281 0.7618
vn 0.5716 -0.2710 0.7745
vn 0.4922 -0.1711 0.8535
vn 0.4907 0.2086 -0.8460
vn 0.8501 -0.1892 0.4915
vn 0.9520 0.1240 -0.2798
vn 0.8698 -0.0953 0.4841
vn 0.9520 0.1237 -0.2800
vt 0.760753 1.958189
vt 0.817165 1.998539
vt 0.757209 1.991449
vt 0.761871 1.922489
vt 0.817209 1.928999
vt 0.817165 1.963679
vt 0.877941 1.958189
vt 0.874397 1.991449
vt 0.916819 1.984339
vt 0.926979 1.943489
vt 0.945264 1.968459
vt 0.964427 1.928799
vt 0.969087 1.951879
vt 0.984201 1.904379
vt 0.992910 1.915819
vt 0.999095 1.879949
vt 0.968086 1.881869
vt 0.958485 1.891889
vt 0.925282 1.907509
vt 0.879058 1.922489
vt 0.664865 1.897099
vt 0.664865 1.994749
vt 0.746897 1.897099
vt 0.746897 1.994749
vt 0.504709 1.994749
vt 0.504709 1.897099
vt 0.582834 1.994749
vt 0.582834 1.897099
vt 0.684397 1.799439
vt 0.680490 1.877569
vt 0.727365 1.803349
vt 0.715647 1.877569
vt 0.742990 1.877569
vt 0.770334 1.877569
vt 0.770334 1.803349
vt 0.852365 1.877569
vt 0.852365 1.807249
vt 0.641428 1.877569
vt 0.594553 1.803349
vt 0.594553 1.877569
vt 0.547678 1.877569
vt 0.504709 1.799439
vt 0.504709 1.877569
vt 0.531774 1.782979
vt 0.586740 1.787719
vt 0.508615 1.736939
vt 0.586740 1.736939
vt 0.508615 1.686159
vt 0.586740 1.686159
vt 0.508615 1.635379
vt 0.586740 1.635379
vt 0.660959 1.635379
vt 0.660959 1.686159
vt 0.660959 1.736939
vt 0.660959 1.787719
vt 0.909006 1.865849
vt 0.891428 1.818969
vt 0.934397 1.772099
vt 0.864084 1.783819
vt 0.793772 1.764289
vt 0.891428 1.721319
vt 0.707834 1.756469
vt 0.825022 1.697879
vt 0.676584 1.709599
vt 0.735178 1.674439
vt 0.680490 1.654909
vt 0.730295 1.635379
vt 0.821115 1.633429
vt 0.914865 1.650999
vt 0.989084 1.717409
vt 0.992990 1.826789
vt 0.278147 1.858039
vt 0.231272 1.858039
vt 0.278147 1.822879
vt 0.231272 1.822879
vt 0.231272 1.787719
vt 0.278147 1.787719
vt 0.278147 1.756469
vt 0.231272 1.756469
vt 0.231272 1.725219
vt 0.278147 1.725219
vt 0.231272 1.897099
vt 0.278147 1.897099
vt 0.200022 1.897099
vt 0.200022 1.858039
vt 0.200022 1.822879
vt 0.200022 1.787719
vt 0.200022 1.756469
vt 0.200022 1.725219
vt 0.200022 1.693969
vt 0.231272 1.693969
vt 0.278147 1.693969
vt 0.253968 1.098139
vt 0.167575 1.171359
vt 0.153635 1.113649
vt 0.250681 1.009399
vt 0.113962 1.060429
vt 0.004221 1.100219
vt 0.046229 1.157869
vt 0.522287 1.010379
vt 0.403147 1.010379
vt 0.522287 1.084919
vt 0.403472 1.085569
vt 0.253958 1.098269
vt 0.167738 1.171339
vt 0.055490 1.213499
vt 0.127986 1.255669
vt 0.057903 1.282319
vt 0.102086 1.357759
vt 0.039307 1.395419
vt 0.027310 1.466569
vt 0.403434 1.085539
vt 0.250679 1.009439
vt 0.113968 1.060439
vt 0.046299 1.158009
vt 0.004297 1.100349
vt 0.127969 1.255569
vt 0.057967 1.282179
vt 0.039298 1.395269
vt 0.102301 1.357579
vt 0.027632 1.466229
s 1
usemtl Doug:hair_002
f 1/1/1 2/2/2 3/3/3
f 4/4/4 5/5/5 1/1/1
f 1/1/1 6/6/6 2/2/2
f 1/1/1 5/5/5 6/6/6
f 2/2/2 6/6/6 7/7/7
f 5/5/5 7/7/7 6/6/6
f 2/2/2 7/7/7 8/8/8
f 8/8/8 7/7/7 9/9/9
f 9/9/9 7/7/7 10/10/10
f 9/9/9 10/10/10 11/11/11
f 11/11/11 10/10/10 12/12/12
f 11/11/11 12/12/12 13/13/13
f 13/13/13 12/12/12 14/14/14
f 13/13/13 14/14/14 15/15/15
f 15/15/15 14/14/14 16/16/16
f 16/16/16 14/14/14 17/17/17
f 18/18/18 14/14/14 12/12/12
f 17/17/17 14/14/14 18/18/18
f 18/18/18 12/12/12 19/19/19
f 19/19/19 12/12/12 10/10/10
f 20/20/20 7/7/7 5/5/5
f 20/20/20 10/10/10 7/7/7
f 19/19/19 10/10/10 20/20/20
f 21/21/21 22/22/22 23/23/23
f 23/23/23 22/22/22 24/24/24
f 25/25/25 26/26/26 27/27/27
f 27/27/27 26/26/26 28/28/28
f 27/27/27 28/28/28 29/21/29
f 27/27/27 29/21/29 30/22/30
f 30/22/30 29/21/29 31/23/31
f 30/22/30 31/23/31 32/24/32
f 33/29/33 34/30/34 35/31/35
f 35/31/35 34/30/34 36/32/36
f 35/31/35 36/32/36 37/33/37
f 35/31/35 37/33/37 38/34/38
f 35/31/35 38/34/38 39/35/39
f 39/35/39 38/34/38 40/36/40
f 39/35/39 40/36/40 41/37/41
f 42/37/42 43/36/43 44/35/44
f 44/35/44 43/36/43 45/34/45
f 44/35/44 45/34/45 46/31/46
f 46/31/46 45/34/45 47/33/47
f 46/31/46 47/33/47 48/32/48
f 46/31/46 48/32/48 49/30/49
f 46/31/46 49/30/49 50/29/50
f 50/29/50 49/30/49 51/38/51
f 50/29/50 51/38/51 52/39/52
f 52/39/52 51/38/51 53/40/53
f 52/39/52 53/40/53 54/41/54
f 52/39/52 54/41/54 55/42/55
f 55/42/55 54/41/54 56/43/56
f 57/44/57 58/45/58 59/46/59
f 59/46/59 58/45/58 60/47/60
f 59/46/59 60/47/60 61/48/61
f 61/48/61 60/47/60 62/49/62
f 61/48/61 62/49/62 63/50/63
f 63/50/63 62/49/62 64/51/64
f 64/51/64 62/49/62 65/52/65
f 66/53/66 62/49/62 60/47/60
f 65/52/65 62/49/62 66/53/66
f 66/53/66 60/47/60 67/54/67
f 68/55/68 60/47/60 58/45/58
f 67/54/67 60/47/60 68/55/68
f 69/44/69 70/46/70 71/45/71
f 71/45/71 70/46/70 72/47/72
f 71/45/71 72/47/72 73/55/73
f 73/55/73 72/47/72 74/54/74
f 74/54/74 72/47/72 75/53/75
f 75/53/75 72/47/72 76/49/76
f 75/53/75 76/49/76 77/52/77
f 77/52/77 76/49/76 78/51/78
f 78/51/78 76/49/76 79/50/79
f 79/50/79 76/49/76 80/48/80
f 80/48/80 76/49/76 72/47/72
f 80/48/80 72/47/72 70/46/70
f 81/8/81 82/9/82 83/7/83
f 83/7/83 82/9/82 84/10/84
f 83/7/83 84/10/84 85/20/85
f 85/20/85 84/10/84 86/19/86
f 86/19/86 84/10/84 87/12/87
f 86/19/86 87/12/87 88/18/88
f 88/18/88 87/12/87 89/14/89
f 88/18/88 89/14/89 90/17/90
f 90/17/90 89/14/89 91/16/91
f 91/16/91 89/14/89 92/15/92
f 92/15/92 89/14/89 93/13/93
f 93/13/93 89/14/89 87/12/87
f 94/11/94 87/12/87 84/10/84
f 94/11/94 84/10/84 82/9/82
f 93/13/93 87/12/87 94/11/94
f 95/56/95 96/57/96 97/58/97
f 97/58/97 96/57/96 98/59/98
f 97/58/97 98/59/98 99/60/99
f 97/58/97 99/60/99 100/61/100
f 100/61/100 99/60/99 101/62/101
f 100/61/100 101/62/101 102/63/102
f 102/63/102 101/62/101 103/64/103
f 102/63/102 103/64/103 104/65/104
f 104/65/104 103/64/103 105/66/105
f 104/65/104 105/66/105 106/67/106
f 104/65/104 107/68/107 102/63/102
f 104/65/104 106/67/106 107/68/107
f 102/63/102 107/68/107 108/69/108
f 102/63/102 108/69/108 100/61/100
f 100/61/100 109/70/109 97/58/97
f 100/61/100 108/69/108 109/70/109
f 97/58/97 110/71/110 95/56/95
f 97/58/97 109/70/109 110/71/110
f 111/57/111 112/56/112 113/58/113
f 113/58/113 112/56/112 114/71/114
f 113/58/113 114/71/114 115/70/115
f 113/58/113 115/70/115 116/61/116
f 116/61/116 115/70/115 117/69/117
f 116/61/116 117/69/117 118/63/118
f 118/63/118 117/69/117 119/68/119
f 118/63/118 119/68/119 120/65/120
f 120/65/120 119/68/119 121/67/121
f 120/65/120 121/67/121 122/66/122
f 120/65/120 123/64/123 118/63/118
f 120/65/120 122/66/122 123/64/123
f 118/63/118 123/64/123 124/62/124
f 118/63/118 124/62/124 116/61/116
f 116/61/116 125/60/125 113/58/113
f 116/61/116 124/62/124 125/60/125
f 113/58/113 126/59/126 111/57/111
f 113/58/113 125/60/125 126/59/126
f 127/72/127 128/73/128 129/74/129
f 129/74/129 128/73/128 130/75/130
f 129/74/129 130/75/130 131/76/131
f 129/74/129 131/76/131 132/77/132
f 132/77/132 131/76/131 133/78/133
f 133/78/133 131/76/131 134/79/134
f 133/78/133 134/79/134 135/80/135
f 133/78/133 135/80/135 136/81/136
f 127/72/127 137/82/137 128/73/128
f 127/72/127 138/83/138 137/82/137
f 128/73/128 137/82/137 139/84/139
f 128/73/128 139/84/139 140/85/140
f 128/73/128 140/85/140 130/75/130
f 130/75/130 140/85/140 141/86/141
f 130/75/130 142/87/142 131/76/131
f 130/75/130 141/86/141 142/87/142
f 131/76/131 143/88/143 134/79/134
f 131/76/131 142/87/142 143/88/143
f 134/79/134 143/88/143 144/89/144
f 134/79/134 144/89/144 135/80/135
f 135/80/135 144/89/144 145/90/145
f 135/80/135 146/91/146 136/81/136
f 135/80/135 145/90/145 146/91/146
f 136/81/136 146/91/146 147/92/147
f 148/81/148 149/80/149 150/78/150
f 150/78/150 149/80/149 151/79/151
f 150/78/150 151/79/151 152/76/152
f 150/78/150 152/76/152 153/77/153
f 153/77/153 152/76/152 154/74/154
f 154/74/154 152/76/152 155/75/155
f 154/74/154 155/75/155 156/73/156
f 154/74/154 156/73/156 157/72/157
f 148/81/148 158/91/158 149/80/149
f 148/81/148 159/92/159 158/91/158
f 149/80/149 158/91/158 160/90/160
f 149/80/149 160/90/160 161/89/161
f 149/80/149 162/88/162 151/79/151
f 151/79/151 162/88/162 152/76/152
f 149/80/149 161/89/161 162/88/162
f 152/76/152 162/88/162 163/87/163
f 152/76/152 163/87/163 155/75/155
f 155/75/155 163/87/163 164/86/164
f 155/75/155 165/85/165 156/73/156
f 155/75/155 164/86/164 165/85/165
f 156/73/156 165/85/165 166/84/166
f 156/73/156 166/84/166 167/82/167
f 156/73/156 167/82/167 157/72/157
f 157/72/157 167/82/167 168/83/168
f 169/93/169 170/94/170 171/95/171
f 172/96/172 173/97/173 174/95/174
f 175/95/175 176/98/176 177/97/177
f 175/95/175 178/99/178 176/98/176
f 177/97/177 176/98/176 178/99/178
f 177/97/177 178/99/178 174/95/179
f 179/100/180 180/101/181 181/102/182
f 181/102/182 180/101/181 182/103/183
f 179/100/180 182/103/183 180/101/181
f 181/102/182 182/103/183 179/100/180
f 183/103/184 172/96/185 180/101/186
f 180/101/186 184/104/187 183/103/184
f 183/103/184 184/104/187 172/96/185
f 180/101/186 172/96/185 184/104/187
f 185/104/188 172/96/172 174/95/174
f 185/104/188 174/95/174 186/105/189
f 186/105/190 187/95/191 188/99/192
f 186/105/190 188/99/192 189/106/193
f 190/107/194 186/105/195 191/106/196
f 190/107/194 191/106/196 192/108/197
f 193/109/198 190/107/194 194/110/199
f 190/107/194 192/108/197 194/110/199
f 193/109/198 194/110/199 195/111/200
f 196/102/201 179/100/202 197/112/203
f 196/102/201 198/101/204 179/100/202
f 179/100/202 198/101/204 197/112/203
f 196/102/201 197/112/203 198/101/204
f 198/101/205 199/112/206 200/93/207
f 199/112/206 201/113/208 200/93/207
f 199/112/206 198/101/205 201/113/208
f 198/101/205 200/93/207 201/113/208
f 169/93/169 171/95/171 201/113/209
f 202/114/210 171/95/211 203/115/212
f 202/114/210 203/115/212 204/116/213
f 205/106/214 170/94/215 206/95/216
f 207/115/217 205/106/214 206/95/216
f 170/94/218 208/117/219 205/106/220
f 208/117/219 209/118/221 205/106/220
f 209/118/221 208/117/219 210/119/222
f 208/117/219 211/120/223 210/119/222
f 210/119/222 211/120/223 212/121/224
f 213/95/225 186/105/190 189/106/193
f 213/95/225 189/106/193 188/99/192
f 171/95/171 214/114/226 201/113/209
f 215/95/227 204/116/213 203/115/212
f 215/95/227 202/114/210 204/116/213
f 216/94/228 205/106/214 207/115/217
f 215/95/229 216/94/228 207/115/217
