# Blender 5.1.1
# www.blender.org
mtllib Room12.mtl
o Room12
v 13.490949 26.260714 -24.580425
v 17.283735 26.258764 -24.575069
v 13.485364 26.264034 -20.624533
v 17.278141 26.262085 -20.619177
v 21.886400 14.595627 -30.949051
v 21.886532 14.842012 -30.949251
v 21.655066 14.842135 -30.949587
v 22.681999 14.595214 -30.947927
v 22.681147 12.948584 -30.946539
v 22.907660 13.230457 -30.946459
v 22.907509 12.948469 -30.946222
v 22.908361 14.595099 -30.947601
v 8.667427 0.174144 -21.873999
v 8.679819 0.166767 -30.645895
v 22.908493 14.841485 -30.947811
v 22.682131 14.841609 -30.948128
v 21.654232 13.231098 -30.948235
v 21.654091 12.949119 -30.947996
v 21.885696 13.230984 -30.947899
v 21.885548 12.948996 -30.947662
v 22.681295 13.230571 -30.946775
v 21.654934 14.595749 -30.949375
v -12.667572 0.226075 26.888159
v -9.454096 0.221904 23.885229
v -12.663321 0.223555 23.880688
v -12.651764 0.216678 15.698937
v -34.962585 22.473007 12.065911
v -34.958836 22.470776 9.410254
v -34.960541 26.446138 12.062573
v -34.956791 26.443909 9.406925
v -28.786200 26.456142 27.773411
v -26.320230 26.454878 27.776899
v -28.788244 22.483011 27.776749
v -26.322277 22.481737 27.780226
v -34.984779 22.486200 27.767994
v -34.982723 26.459339 27.764656
v -24.172529 26.311237 12.471627
v -20.379753 26.309288 12.476994
v -24.178116 26.314569 16.427521
v -20.385338 26.312611 16.432878
v -24.575533 0.229685 23.863853
v -21.292593 0.221122 15.686731
v -24.563976 0.222808 15.682102
v -24.554018 0.216888 8.638280
v -21.282640 0.215202 8.642900
v -21.277004 0.211856 4.655207
v -25.665995 0.230238 23.862318
v -25.670237 0.232767 26.869787
v -1.993218 0.208756 12.809945
v -7.967937 0.211830 12.801505
v -34.529400 9.307043 26.128899
v -34.531693 8.217618 27.356279
v -34.531132 9.308080 27.355366
v -16.946543 0.228280 26.882109
v -21.792915 12.846346 -5.717365
v -20.170795 12.845511 -5.715074
v -21.791758 15.096488 -5.719253
v -20.169638 15.095645 -5.716962
v -25.654428 0.223370 15.680566
v -9.458337 0.224424 26.892691
v -8.388592 0.223880 26.894201
v -8.384350 0.221350 23.886740
v -9.432580 0.209107 8.659655
v -8.362835 0.208554 8.661166
v -9.426950 0.205752 4.671954
v -8.357205 0.205208 4.673473
v -24.548388 0.213542 4.650588
v -25.638849 0.214095 4.649042
v -25.644487 0.217450 8.636743
v -21.308397 0.230519 26.875944
v -16.942301 0.225750 23.874647
v -16.915157 0.209608 4.661372
v -16.920786 0.212963 8.649073
v -9.442530 0.215027 15.703478
v -8.372793 0.214474 15.704988
v -12.641814 0.210758 8.655115
v -16.930735 0.218882 15.692896
v -12.636176 0.207412 4.667423
v -21.304148 0.227998 23.868481
v -34.525669 0.115010 20.146830
v -34.529961 8.216591 26.129812
v -34.535862 0.121070 27.363077
v -34.534134 0.120033 26.136608
v -34.521496 8.211559 20.140022
v -34.523788 0.113886 18.814758
v -34.519615 8.210434 18.807962
v -34.519054 9.300895 18.807049
v -34.520935 9.302020 20.139111
v -24.579782 0.232205 26.871323
v -7.980285 0.219172 21.539759
v -7.987969 0.223739 26.979553
v -6.910390 26.289625 -2.668674
v -4.687823 26.288485 -2.665530
v -6.913736 26.291611 -0.304041
v -4.691161 26.290470 -0.300897
v 9.233879 26.294044 12.508309
v 13.026666 26.292095 12.513666
v 9.228294 26.297365 16.464193
v 13.021070 26.295416 16.469559
v 5.301715 0.207439 15.724318
v 8.573110 0.205753 15.728937
v 5.285908 0.216846 26.913530
v 8.557293 0.215159 26.918159
v 8.561543 0.212630 23.910688
v 5.290158 0.214316 23.906069
v 4.199697 0.214878 23.904524
v 4.195446 0.217399 26.911993
v 12.919147 0.212911 26.924322
v 5.311674 0.201520 8.680486
v 5.317303 0.198173 4.692794
v 8.588688 0.196487 4.697422
v 3.969154 0.213025 21.556656
v 3.981501 0.205683 12.818394
v 17.213926 0.201309 15.741144
v 8.583059 0.199834 8.685114
v 12.950543 0.194248 4.703587
v 17.229515 0.192044 4.709629
v 12.944905 0.197594 8.691278
v 12.934956 0.203514 15.735102
v 12.923390 0.210391 23.916851
v 4.226842 0.198736 4.691257
v 4.221212 0.202082 8.678949
v 21.477100 0.208512 26.936417
v 20.411604 0.206535 23.927444
v 21.481342 0.205982 23.928946
v 20.423162 0.199658 15.745685
v 21.492908 0.199105 15.747195
v 4.211254 0.208001 15.722772
v -2.013250 0.220666 26.988001
v 3.961469 0.217592 26.996449
v -2.005566 0.216099 21.548206
v 17.198120 0.210716 26.930367
v 20.407354 0.209065 26.934904
v 17.202370 0.208186 23.922903
v 20.438749 0.190393 4.714169
v 17.223885 0.195390 8.697330
v 20.433111 0.193739 8.701860
v 21.502857 0.193194 8.703372
v 21.508493 0.189839 4.715680
v -7.095259 6.415254 -28.675644
v -7.101696 6.419083 -24.116817
v -7.674357 6.415544 -28.676460
v -7.673005 6.414744 -29.631186
v 1.560286 6.414622 -24.104567
v 1.559584 6.415043 -23.607273
v -7.680794 6.419382 -24.117634
v -7.681497 6.419795 -23.620331
v -7.102398 6.419496 -23.619505
v 1.566732 6.410792 -28.663401
v 1.568076 6.409993 -29.618130
v -7.093906 6.414445 -29.630369
v -5.799493 0.186799 -15.678204
v -10.286798 0.194642 -9.100298
v -11.332603 0.194581 -9.813725
v -11.095596 0.196056 -7.914684
v -12.252582 0.186439 -20.080359
v -11.536388 0.185183 -21.130222
v -13.412675 0.186369 -20.871752
v -12.696482 0.185122 -21.921606
v -17.548685 0.195687 -12.316848
v -12.141402 0.195995 -8.628110
v -18.708780 0.195617 -13.108232
v -5.083300 0.185552 -16.728058
v -6.129106 0.185491 -17.441484
v -18.251486 20.264252 -16.435982
v -18.257967 20.268106 -11.851820
v -18.257748 20.686945 -11.852171
v -18.254911 14.783692 -16.009846
v -18.255245 14.140205 -16.009310
v -18.254313 14.783340 -16.431379
v -18.254648 14.139845 -16.430843
v -17.531315 0.200974 -6.008793
v -13.812305 0.199060 -6.003541
v -17.547167 0.197865 -9.711819
v -13.828157 0.195959 -9.706568
v -1.457529 0.171983 -30.660227
v -11.594876 0.177200 -30.674551
v -1.469920 0.179361 -21.888332
v -11.607267 0.184577 -21.902653
v -17.899981 0.194203 -14.293846
v -16.739887 0.194273 -13.502453
v -6.845298 0.186747 -16.391630
v -18.251266 20.683088 -16.436333
v -18.252083 20.264610 -16.014448
v -18.251863 20.683449 -16.014799
v -18.257185 20.686604 -12.252627
v -18.257397 20.267775 -12.252275
v -18.260223 14.786854 -12.247674
v -18.260796 14.787189 -11.847217
v -18.261120 14.143701 -11.846673
v -18.260559 14.143367 -12.247129
vn -0.0005 -1.0000 0.0008
vn -0.0014 0.0008 1.0000
vn -0.0014 0.0009 1.0000
vn 0.0005 1.0000 -0.0008
vn -0.0015 0.0008 1.0000
vn 1.0000 -0.0005 0.0014
vn 0.0014 -0.0008 -1.0000
vn 0.8950 -0.0008 -0.4460
vn 0.4486 -0.0010 -0.8937
vt 0.999000 0.802000
vt 0.812000 0.802000
vt 0.999000 0.999000
vt 0.812000 0.999000
vt 0.906000 0.731000
vt 0.906000 0.626000
vt 0.813000 0.731000
vt 0.813000 0.626000
vt 0.952000 0.731000
vt 0.952000 0.626000
vt 0.923000 0.719000
vt 0.923000 0.812000
vt 0.999000 0.719000
vt 0.999000 0.812000
vt 0.923000 0.672000
vt 0.999000 0.672000
vt 0.656000 0.999000
vt 0.656000 0.819000
vt 0.812000 0.819000
vt 0.999000 0.731000
vt 0.999000 0.626000
vt 0.923000 0.731000
vt 0.923000 0.626000
vt 0.813000 0.719000
vt 0.813000 0.812000
vt 0.906000 0.719000
vt 0.906000 0.812000
vt 0.952000 0.719000
vt 0.952000 0.812000
vt 0.813000 0.672000
vt 0.906000 0.672000
vt 0.952000 0.672000
vt 0.860000 0.626000
vt 0.843000 0.626000
vt 0.860000 0.725000
vt 0.843000 0.725000
vt 0.860000 0.781000
vt 0.843000 0.781000
vt 0.890000 0.808000
vt 0.796000 0.808000
vt 0.890000 0.620000
vt 0.796000 0.620000
vt 0.935000 0.620000
vt 0.935000 0.808000
vt 0.966000 0.808000
vt 0.966000 0.620000
vt 0.968000 0.781000
vt 0.953000 0.781000
vt 0.968000 0.756000
vt 0.953000 0.756000
vt 0.968000 0.626000
vt 0.953000 0.626000
vt 0.813000 0.725000
vt 0.656000 0.563000
vt 0.501000 0.563000
vt 0.656000 0.781000
vt 0.501000 0.781000
vt 0.862000 0.688000
vt 0.813000 0.688000
vt 0.862000 0.626000
vt 0.906000 0.781000
vt 0.906000 0.725000
vt 0.813000 0.781000
vt 0.999000 0.781000
vt 0.999000 0.756000
vt 0.906000 0.756000
vt 0.953000 0.725000
vt 0.872000 0.688000
vt 0.862000 0.752000
vt 0.872000 0.752000
vt 0.813000 0.752000
vt 0.879000 0.626000
vt 0.879000 0.688000
vt 0.501000 0.999000
vt 0.999000 0.815000
vt 0.815000 0.815000
vt 0.815000 0.999000
vt 0.812000 0.781000
vt 0.812000 0.563000
vt 0.905000 0.677000
vt 0.905000 0.722000
vt 0.812000 0.677000
vt 0.812000 0.722000
vt 0.999000 0.677000
vt 0.999000 0.722000
vt 0.905000 0.632000
vt 0.999000 0.632000
vt 0.905000 0.812000
vt 0.812000 0.812000
vt 0.812000 0.632000
vt 0.922000 0.671000
vt 0.922000 0.717000
vt 0.999000 0.671000
vt 0.999000 0.717000
vt 0.922000 0.808000
vt 0.999000 0.808000
vt 0.954000 0.703000
vt 0.954000 0.626000
vt 0.908000 0.703000
vt 0.908000 0.626000
vt 0.817000 0.703000
vt 0.817000 0.626000
vt 0.908000 0.717000
vt 0.908000 0.808000
vt 0.954000 0.717000
vt 0.954000 0.808000
vt 0.817000 0.717000
vt 0.817000 0.808000
vt 0.999000 0.703000
vt 0.922000 0.703000
vt 0.922000 0.626000
vt 0.874000 0.667000
vt 0.874000 0.745000
vt 0.813000 0.667000
vt 0.813000 0.745000
vt 0.951000 0.667000
vt 0.951000 0.620000
vt 0.997000 0.667000
vt 0.997000 0.620000
vt 0.951000 0.745000
vt 0.951000 0.808000
vt 0.874000 0.808000
vt 0.813000 0.808000
vt 0.999000 0.819000
vt 0.501000 0.819000
vt 0.817000 0.671000
vt 0.908000 0.671000
vt 0.954000 0.671000
vt 0.813000 0.620000
vt 0.874000 0.620000
vt 0.997000 0.745000
vt 0.997000 0.808000
s 1
usemtl RefRep.26_SH_initial_loader.002
f 1/1/1 2/2/1 3/3/1
f 3/3/1 2/2/1 4/4/1
f 5/5/2 6/6/2 22/7/2
f 22/7/2 6/6/2 7/8/3
f 8/9/2 16/10/2 5/5/2
f 5/5/2 16/10/2 6/6/2
f 21/11/2 9/12/2 10/13/2
f 10/13/2 9/12/2 11/14/2
f 8/15/2 21/11/2 12/16/2
f 12/16/2 21/11/2 10/13/2
f 178/17/4 13/4/4 176/18/4
f 176/18/4 13/4/4 14/19/4
f 12/20/2 15/21/2 8/22/2
f 8/22/2 15/21/2 16/23/2
f 17/24/2 18/25/5 19/26/2
f 19/26/2 18/25/5 20/27/2
f 19/26/2 20/27/2 21/28/2
f 21/28/2 20/27/2 9/29/2
f 22/30/2 17/24/2 5/31/2
f 5/31/2 17/24/2 19/26/2
f 5/31/2 19/26/2 8/32/2
f 8/32/2 19/26/2 21/28/2
f 23/33/4 60/34/4 25/35/4
f 25/35/4 60/34/4 24/36/4
f 25/35/4 24/36/4 26/37/4
f 26/37/4 24/36/4 74/38/4
f 27/39/6 28/40/6 29/41/6
f 29/41/6 28/40/6 30/42/6
f 31/41/7 32/42/7 33/39/7
f 33/39/7 32/42/7 34/40/7
f 29/41/6 36/43/8 27/39/6
f 27/39/6 36/43/8 35/44/9
f 33/39/7 35/45/9 31/41/7
f 31/41/7 35/45/9 36/46/8
f 37/1/1 38/2/1 39/3/1
f 39/3/1 38/2/1 40/4/1
f 41/36/4 79/35/4 43/38/4
f 43/38/4 79/35/4 42/37/4
f 43/47/4 42/48/4 44/49/4
f 44/49/4 42/48/4 45/50/4
f 44/49/4 45/50/4 67/51/4
f 67/51/4 45/50/4 46/52/4
f 41/36/4 47/53/4 89/34/4
f 89/34/4 47/53/4 48/8/4
f 49/54/4 50/55/4 131/56/4
f 131/56/4 50/55/4 90/57/4
f 81/58/6 51/59/6 52/60/6
f 52/60/6 51/59/6 53/8/6
f 26/37/4 77/61/4 25/35/4
f 25/35/4 77/61/4 71/62/4
f 25/35/4 71/62/4 23/33/4
f 23/33/4 71/62/4 54/6/4
f 55/25/2 56/14/2 57/8/2
f 57/8/2 56/14/2 58/21/2
f 43/38/4 59/63/4 41/36/4
f 41/36/4 59/63/4 47/53/4
f 60/34/4 61/8/4 24/36/4
f 24/36/4 61/8/4 62/53/4
f 74/47/4 75/64/4 63/49/4
f 63/49/4 75/64/4 64/65/4
f 63/49/4 64/65/4 65/51/4
f 65/51/4 64/65/4 66/21/4
f 67/51/4 68/21/4 44/49/4
f 44/49/4 68/21/4 69/65/4
f 44/49/4 69/65/4 43/47/4
f 43/47/4 69/65/4 59/64/4
f 70/33/4 54/6/4 79/35/4
f 79/35/4 54/6/4 71/62/4
f 42/48/4 77/61/4 45/50/4
f 45/50/4 77/61/4 73/66/4
f 45/50/4 73/66/4 46/52/4
f 46/52/4 73/66/4 72/6/4
f 78/52/4 72/6/4 76/50/4
f 76/50/4 72/6/4 73/66/4
f 24/36/4 62/53/4 74/38/4
f 74/38/4 62/53/4 75/63/4
f 76/50/4 73/66/4 26/48/4
f 26/48/4 73/66/4 77/61/4
f 26/48/4 74/47/4 76/50/4
f 76/50/4 74/47/4 63/49/4
f 76/50/4 63/49/4 78/52/4
f 78/52/4 63/49/4 65/51/4
f 79/67/4 71/62/4 42/48/4
f 42/48/4 71/62/4 77/61/4
f 81/58/6 83/68/6 84/69/6
f 84/69/6 83/68/6 80/70/6
f 84/69/6 88/71/6 81/58/6
f 81/58/6 88/71/6 51/59/6
f 52/60/6 82/72/6 81/58/6
f 81/58/6 82/72/6 83/73/6
f 84/73/6 80/58/6 86/72/6
f 86/72/6 80/58/6 85/60/6
f 86/60/6 87/8/6 84/58/6
f 84/58/6 87/8/6 88/59/6
f 89/34/4 70/33/4 41/36/4
f 41/36/4 70/33/4 79/35/4
f 131/56/4 90/57/4 129/17/4
f 129/17/4 90/57/4 91/74/4
f 92/75/1 93/76/1 94/3/1
f 94/3/1 93/76/1 95/77/1
f 96/1/1 97/2/1 98/3/1
f 98/3/1 97/2/1 99/4/1
f 100/47/4 101/48/4 109/49/4
f 109/49/4 101/48/4 115/50/4
f 105/36/4 104/35/4 100/38/4
f 100/38/4 104/35/4 101/37/4
f 102/34/4 103/33/4 105/36/4
f 105/36/4 103/33/4 104/35/4
f 104/67/4 120/62/4 101/48/4
f 101/48/4 120/62/4 119/61/4
f 105/36/4 106/53/4 102/34/4
f 102/34/4 106/53/4 107/8/4
f 134/35/4 120/62/4 132/33/4
f 132/33/4 120/62/4 108/6/4
f 109/49/4 115/50/4 110/51/4
f 110/51/4 115/50/4 111/52/4
f 131/56/4 112/78/4 49/54/4
f 49/54/4 112/78/4 113/79/4
f 114/37/4 119/61/4 134/35/4
f 134/35/4 119/61/4 120/62/4
f 101/48/4 119/61/4 115/50/4
f 115/50/4 119/61/4 118/66/4
f 115/50/4 118/66/4 111/52/4
f 111/52/4 118/66/4 116/6/4
f 117/52/4 116/6/4 136/50/4
f 136/50/4 116/6/4 118/66/4
f 136/50/4 118/66/4 114/48/4
f 114/48/4 118/66/4 119/61/4
f 103/33/4 108/6/4 104/35/4
f 104/35/4 108/6/4 120/62/4
f 110/51/4 121/21/4 109/49/4
f 109/49/4 121/21/4 122/65/4
f 109/49/4 122/65/4 100/47/4
f 100/47/4 122/65/4 128/64/4
f 133/34/4 123/8/4 124/36/4
f 124/36/4 123/8/4 125/53/4
f 124/36/4 125/53/4 126/38/4
f 126/38/4 125/53/4 127/63/4
f 100/38/4 128/63/4 105/36/4
f 105/36/4 128/63/4 106/53/4
f 129/17/4 130/4/4 131/56/4
f 131/56/4 130/4/4 112/78/4
f 132/33/4 133/34/4 134/35/4
f 134/35/4 133/34/4 124/36/4
f 134/35/4 124/36/4 114/37/4
f 114/37/4 124/36/4 126/38/4
f 136/50/4 137/49/4 117/52/4
f 117/52/4 137/49/4 135/51/4
f 114/48/4 126/47/4 136/50/4
f 136/50/4 126/47/4 137/49/4
f 126/47/4 127/64/4 137/49/4
f 137/49/4 127/64/4 138/65/4
f 137/49/4 138/65/4 135/51/4
f 135/51/4 138/65/4 139/21/4
f 140/80/4 141/81/4 149/82/4
f 149/82/4 141/81/4 144/83/4
f 142/84/4 146/85/4 140/80/4
f 140/80/4 146/85/4 141/81/4
f 140/80/4 151/86/4 142/84/4
f 142/84/4 151/86/4 143/87/4
f 141/81/4 148/88/4 144/83/4
f 144/83/4 148/88/4 145/89/4
f 146/85/4 147/14/4 141/81/4
f 141/81/4 147/14/4 148/88/4
f 149/82/4 150/90/4 140/80/4
f 140/80/4 150/90/4 151/86/4
f 182/91/4 154/92/4 152/93/4
f 152/93/4 154/92/4 153/94/4
f 154/92/4 161/95/4 153/94/4
f 153/94/4 161/95/4 155/96/4
f 182/97/4 164/98/4 156/99/4
f 156/99/4 164/98/4 157/100/4
f 156/99/4 157/100/4 158/101/4
f 158/101/4 157/100/4 159/102/4
f 181/103/4 160/104/4 154/105/4
f 154/105/4 160/104/4 161/106/4
f 180/107/4 162/108/4 181/103/4
f 181/103/4 162/108/4 160/104/4
f 152/109/4 163/21/4 182/110/4
f 182/110/4 163/21/4 164/111/4
f 184/112/6 168/113/6 165/114/6
f 165/114/6 168/113/6 170/115/6
f 187/116/6 186/117/6 166/118/6
f 166/118/6 186/117/6 167/119/6
f 188/120/6 191/121/6 168/113/6
f 168/113/6 191/121/6 169/122/6
f 168/113/6 169/122/6 170/115/6
f 170/115/6 169/122/6 171/123/6
f 172/3/4 173/4/4 174/124/4
f 174/124/4 173/4/4 175/19/4
f 176/18/4 177/125/4 178/17/4
f 178/17/4 177/125/4 179/74/4
f 158/126/4 180/107/4 156/127/4
f 156/127/4 180/107/4 181/103/4
f 156/127/4 181/103/4 182/128/4
f 182/128/4 181/103/4 154/105/4
f 165/114/6 183/129/6 184/112/6
f 184/112/6 183/129/6 185/130/6
f 184/112/6 185/130/6 187/116/6
f 187/116/6 185/130/6 186/117/6
f 187/116/6 188/120/6 184/112/6
f 184/112/6 188/120/6 168/113/6
f 166/118/6 189/131/6 187/116/6
f 187/116/6 189/131/6 188/120/6
f 189/131/6 190/132/6 188/120/6
f 188/120/6 190/132/6 191/121/6
