# Blender 5.1.1
# www.blender.org
mtllib Room11.mtl
o Room11
v -9.958661 18.013496 27.964989
v -9.959750 15.905833 27.966763
v -7.859700 1.151103 27.982124
v -5.752036 1.150023 27.985109
v -9.960839 13.798169 27.968527
v 2.678613 1.145684 27.997019
v 2.682960 9.576333 27.989941
v 2.685138 13.791662 27.986408
v 0.575296 9.577422 27.986954
v 0.579643 18.008080 27.979883
v 23.757408 5.350167 28.023270
v 23.755230 1.134839 28.026808
v 15.324582 1.139177 28.014889
v 0.577474 13.792750 27.983423
v -1.530191 13.793831 27.980446
v 0.574216 7.469758 27.988739
v 0.576385 11.685086 27.985189
v -1.531271 11.686167 27.982212
v 2.681871 7.468677 27.991713
v 6.900458 13.789493 27.992353
v 23.761755 13.780816 28.016188
v 15.332187 15.892819 28.002504
v 6.901547 15.897157 27.990589
v 6.902627 18.004820 27.988825
v 15.331106 13.785154 28.004280
v 23.762836 15.888481 28.014423
v 23.763924 17.996143 28.012657
v 15.337631 26.436726 27.993664
v 6.906983 26.441053 27.981745
v 23.768280 26.432388 28.005569
v 15.333275 18.000483 28.000740
v 6.899369 11.681828 27.994129
v 6.898280 9.574172 27.995895
v 2.684049 11.683997 27.988174
v 0.573127 5.362093 27.990503
v 0.570949 1.146765 27.994041
v 6.893933 1.143515 28.002983
v 2.680782 5.361013 27.993481
v 6.897191 7.466508 27.997667
v 2.686218 15.899325 27.984634
v 0.578563 15.900406 27.981657
v 2.687307 18.006990 27.982870
v 0.583990 26.444315 27.972805
v 2.691654 26.443224 27.975782
v 23.758497 7.457831 28.021503
v 15.326759 5.354506 28.011360
v 6.896111 5.358844 27.999441
v 15.327848 7.462170 28.009586
v 15.328929 9.569834 28.007812
v 23.760666 11.673161 28.017954
v 23.759579 9.565495 28.019728
v 15.330017 11.677499 28.006048
v -5.744421 15.903664 27.972717
v -7.853175 13.797090 27.971504
v -5.748777 7.473007 27.979797
v -5.749857 5.365351 27.981571
v -7.857522 5.366431 27.978586
v -3.641113 7.471927 27.982775
v -1.533449 7.470846 27.985762
v -1.532360 9.578503 27.983986
v -7.856441 7.474096 27.976820
v -3.642193 5.364262 27.984549
v -3.644371 1.148934 27.988087
v -1.536716 1.147854 27.991064
v -3.638935 11.687256 27.979244
v -3.640024 9.579591 27.981010
v -7.854264 11.689425 27.973282
v -7.855353 9.581760 27.975056
v -9.961919 11.690505 27.970304
v -9.954314 26.449730 27.957912
v -1.523666 26.445402 27.969828
v -3.637855 13.794920 27.977459
v -1.529102 15.901495 27.978680
v -3.636766 15.902575 27.975695
v -9.967356 1.152192 27.979147
v -9.965186 5.367520 27.975609
v -1.534538 5.363182 27.987526
v -7.852086 15.904744 27.969740
v -5.745519 13.796000 27.974482
v -1.528013 18.009159 27.976906
v -7.846650 26.448650 27.960888
v -7.851006 18.012409 27.967966
v -5.743341 18.011328 27.970943
v -3.635677 18.010239 27.973928
v -3.631321 26.446484 27.966841
v -5.738986 26.447573 27.963865
v -5.747688 9.580671 27.978033
v -9.964098 7.475176 27.973843
v -9.963009 9.582841 27.972069
v -5.746600 11.688336 27.976257
vn 0.0014 -0.0008 -1.0000
vn 0.0014 0.7066 -0.7076
vn 0.0014 0.7065 -0.7077
vn -0.2662 0.8014 -0.5356
vn -0.7062 -0.0002 -0.7080
vn 0.0013 0.7066 -0.7076
vn 0.0012 0.8316 -0.5554
vn -0.0010 -0.0008 -1.0000
vn 0.0014 0.5994 -0.8004
vt 0.249000 0.625000
vt 0.249000 0.749000
vt 0.499000 0.625000
vt 0.499000 0.749000
vt 0.624000 0.563000
vt 0.624000 0.501000
vt 0.499000 0.563000
vt 0.499000 0.501000
vt 0.499000 0.315000
vt 0.499000 0.377000
vt 0.624000 0.315000
vt 0.624000 0.377000
vt 0.749000 0.563000
vt 0.749000 0.501000
vt 0.687000 0.563000
vt 0.687000 0.501000
vt 0.624000 0.439000
vt 0.687000 0.439000
vt 0.749000 0.315000
vt 0.749000 0.253000
vt 0.687000 0.315000
vt 0.687000 0.253000
vt 0.001000 0.625000
vt 0.001000 0.749000
vt 0.687000 0.377000
vt 0.749000 0.377000
vt 0.687000 0.625000
vt 0.749000 0.625000
vt 0.749000 0.439000
vt 0.499000 0.439000
vt 0.249000 0.439000
vt 0.249000 0.377000
vt 0.001000 0.439000
vt 0.001000 0.377000
vt 0.249000 0.315000
vt 0.499000 0.253000
vt 0.249000 0.253000
vt 0.001000 0.315000
vt 0.001000 0.253000
vt 0.687000 0.003000
vt 0.749000 0.003000
vt 0.249000 0.003000
vt 0.499000 0.003000
vt 0.001000 0.003000
vt 0.624000 0.625000
vt 0.687000 0.749000
vt 0.624000 0.749000
vt 0.749000 0.749000
vt 0.624000 0.253000
vt 0.624000 0.003000
vt 0.001000 0.563000
vt 0.249000 0.563000
vt 0.249000 0.501000
vt 0.001000 0.501000
vt 0.874000 0.315000
vt 0.874000 0.377000
vt 0.937000 0.315000
vt 0.937000 0.377000
vt 0.874000 0.563000
vt 0.874000 0.625000
vt 0.937000 0.563000
vt 0.937000 0.625000
vt 0.812000 0.749000
vt 0.874000 0.749000
vt 0.812000 0.625000
vt 0.812000 0.563000
vt 0.812000 0.501000
vt 0.937000 0.501000
vt 0.874000 0.501000
vt 0.999000 0.563000
vt 0.999000 0.625000
vt 0.937000 0.749000
vt 0.812000 0.439000
vt 0.812000 0.377000
vt 0.874000 0.439000
vt 0.937000 0.439000
vt 0.999000 0.439000
vt 0.999000 0.501000
vt 0.999000 0.315000
vt 0.999000 0.377000
vt 0.937000 0.253000
vt 0.999000 0.253000
vt 0.937000 0.003000
vt 0.999000 0.003000
vt 0.812000 0.003000
vt 0.812000 0.253000
vt 0.812000 0.315000
vt 0.999000 0.749000
vt 0.874000 0.253000
vt 0.874000 0.003000
s 1
usemtl RefRep.24_SH_initial_loader.002
f 46/1/1 13/2/2 47/3/1
f 47/3/1 13/2/2 37/4/3
f 19/5/1 7/6/1 39/7/1
f 39/7/1 7/6/1 33/8/1
f 23/9/1 20/10/1 40/11/1
f 40/11/1 20/10/1 8/12/1
f 59/13/1 60/14/1 16/15/1
f 16/15/1 60/14/1 9/16/1
f 34/17/1 7/6/1 17/18/1
f 17/18/1 7/6/1 9/16/1
f 73/19/1 80/20/1 41/21/1
f 41/21/1 80/20/1 10/22/1
f 11/23/1 12/24/4 46/1/1
f 46/1/1 12/24/4 13/2/2
f 41/21/1 14/25/1 73/19/1
f 73/19/1 14/25/1 15/26/1
f 16/15/1 35/27/1 59/13/1
f 59/13/1 35/27/1 77/28/1
f 17/18/1 9/16/1 18/29/1
f 18/29/1 9/16/1 60/14/1
f 16/15/1 9/16/1 19/5/1
f 19/5/1 9/16/1 7/6/1
f 18/29/1 15/26/1 17/18/1
f 17/18/1 15/26/1 14/25/1
f 40/11/1 8/12/1 41/21/1
f 41/21/1 8/12/1 14/25/1
f 17/18/1 14/25/1 34/17/1
f 34/17/1 14/25/1 8/12/1
f 34/17/1 8/12/1 32/30/1
f 32/30/1 8/12/1 20/10/1
f 32/30/1 20/10/1 52/31/1
f 52/31/1 20/10/1 25/32/1
f 52/31/1 25/32/1 50/33/1
f 50/33/1 25/32/1 21/34/1
f 22/35/1 25/32/1 23/9/1
f 23/9/1 25/32/1 20/10/1
f 23/9/1 24/36/1 22/35/1
f 22/35/1 24/36/1 31/37/1
f 26/38/1 21/34/1 22/35/1
f 22/35/1 21/34/1 25/32/1
f 22/35/1 31/37/1 26/38/1
f 26/38/1 31/37/1 27/39/5
f 10/22/1 80/20/1 43/40/1
f 43/40/1 80/20/1 71/41/1
f 28/42/1 31/37/1 29/43/1
f 29/43/1 31/37/1 24/36/1
f 30/44/1 27/39/5 28/42/1
f 28/42/1 27/39/5 31/37/1
f 32/30/1 33/8/1 34/17/1
f 34/17/1 33/8/1 7/6/1
f 19/5/1 38/45/1 16/15/1
f 16/15/1 38/45/1 35/27/1
f 35/27/1 38/45/1 36/46/6
f 36/46/6 38/45/1 6/47/7
f 47/3/1 37/4/3 38/45/1
f 38/45/1 37/4/3 6/47/7
f 36/46/6 64/48/2 35/27/1
f 35/27/1 64/48/2 77/28/1
f 39/7/1 47/3/1 19/5/1
f 19/5/1 47/3/1 38/45/1
f 40/11/1 42/49/1 23/9/1
f 23/9/1 42/49/1 24/36/1
f 41/21/1 10/22/1 40/11/1
f 40/11/1 10/22/1 42/49/1
f 43/40/1 44/50/1 10/22/1
f 10/22/1 44/50/1 42/49/1
f 44/50/1 29/43/1 42/49/1
f 42/49/1 29/43/1 24/36/1
f 45/51/1 11/23/1 48/52/1
f 48/52/1 11/23/1 46/1/1
f 48/52/1 46/1/1 39/7/1
f 39/7/1 46/1/1 47/3/1
f 39/7/1 33/8/1 48/52/1
f 48/52/1 33/8/1 49/53/1
f 48/52/1 49/53/1 45/51/1
f 45/51/1 49/53/1 51/54/5
f 52/31/1 49/53/1 32/30/1
f 32/30/1 49/53/1 33/8/1
f 50/33/1 51/54/5 52/31/1
f 52/31/1 51/54/5 49/53/1
f 53/55/1 79/56/1 78/57/1
f 78/57/1 79/56/1 54/58/1
f 55/59/1 56/60/1 61/61/1
f 61/61/1 56/60/1 57/62/1
f 63/63/6 4/64/2 62/65/1
f 62/65/1 4/64/2 56/60/1
f 58/66/1 66/67/1 59/13/1
f 59/13/1 66/67/1 60/14/1
f 58/66/1 62/65/1 55/59/1
f 55/59/1 62/65/1 56/60/1
f 61/61/1 68/68/1 55/59/1
f 55/59/1 68/68/1 87/69/1
f 61/61/1 57/62/1 88/70/1
f 88/70/1 57/62/1 76/71/1
f 57/62/1 56/60/1 3/72/6
f 3/72/6 56/60/1 4/64/2
f 62/65/1 77/28/1 63/63/6
f 63/63/6 77/28/1 64/48/2
f 65/73/1 72/74/1 18/29/1
f 18/29/1 72/74/1 15/26/1
f 65/73/1 66/67/1 90/75/1
f 90/75/1 66/67/1 87/69/1
f 67/76/1 54/58/1 90/75/1
f 90/75/1 54/58/1 79/56/1
f 67/76/1 68/68/1 69/77/1
f 69/77/1 68/68/1 89/78/1
f 78/57/1 54/58/1 2/79/8
f 2/79/8 54/58/1 5/80/1
f 82/81/1 1/82/1 81/83/1
f 81/83/1 1/82/1 70/84/1
f 85/85/1 71/41/1 84/86/1
f 84/86/1 71/41/1 80/20/1
f 90/75/1 79/56/1 65/73/1
f 65/73/1 79/56/1 72/74/1
f 73/19/1 15/26/1 74/87/1
f 74/87/1 15/26/1 72/74/1
f 69/77/1 5/80/1 67/76/1
f 67/76/1 5/80/1 54/58/1
f 3/72/6 75/88/9 57/62/1
f 57/62/1 75/88/9 76/71/1
f 59/13/1 77/28/1 58/66/1
f 58/66/1 77/28/1 62/65/1
f 2/79/8 1/82/1 78/57/1
f 78/57/1 1/82/1 82/81/1
f 78/57/1 82/81/1 53/55/1
f 53/55/1 82/81/1 83/89/1
f 53/55/1 83/89/1 74/87/1
f 74/87/1 83/89/1 84/86/1
f 74/87/1 72/74/1 53/55/1
f 53/55/1 72/74/1 79/56/1
f 74/87/1 84/86/1 73/19/1
f 73/19/1 84/86/1 80/20/1
f 81/83/1 86/90/1 82/81/1
f 82/81/1 86/90/1 83/89/1
f 84/86/1 83/89/1 85/85/1
f 85/85/1 83/89/1 86/90/1
f 18/29/1 60/14/1 65/73/1
f 65/73/1 60/14/1 66/67/1
f 55/59/1 87/69/1 58/66/1
f 58/66/1 87/69/1 66/67/1
f 88/70/1 89/78/1 61/61/1
f 61/61/1 89/78/1 68/68/1
f 90/75/1 87/69/1 67/76/1
f 67/76/1 87/69/1 68/68/1
