# Blender 5.1.1
# www.blender.org
mtllib Room4.mtl
o Room4
v 23.816053 26.609238 -5.717182
v 23.804138 26.616314 2.713458
v 23.839870 26.595068 -22.578470
v 23.835419 17.953646 -22.571226
v 23.827963 26.602156 -14.147830
v 23.823502 17.960732 -14.140575
v 23.811594 17.967812 -5.709928
v 23.851780 26.587980 -31.009119
v 23.799675 17.974899 2.720712
v 23.807245 9.537164 -5.702849
v 23.814808 1.099427 -14.126418
v 23.831062 9.522997 -22.564144
v 23.819155 9.530076 -14.133497
v 23.838614 1.085260 -30.987707
v 23.795338 9.544242 2.727791
v 23.790981 1.113593 2.734870
v 23.802898 1.106506 -5.695770
v 23.826715 1.092339 -22.557068
v 23.847309 17.946566 -31.001863
v 23.842962 9.515909 -30.994795
vn -1.0000 0.0005 -0.0014
vn -0.8328 0.0009 0.5536
vn -0.7067 0.7075 -0.0016
vn -0.7996 0.6005 -0.0016
vn -0.7081 0.0009 0.7061
vn -0.4854 0.7282 0.4838
vn -0.5543 0.8323 -0.0015
vt 0.749000 0.253000
vt 0.999000 0.253000
vt 0.749000 0.003000
vt 0.999000 0.003000
vt 0.249000 0.003000
vt 0.249000 0.253000
vt 0.499000 0.003000
vt 0.499000 0.253000
vt 0.001000 0.003000
vt 0.001000 0.253000
vt 0.749000 0.749000
vt 0.999000 0.749000
vt 0.749000 0.501000
vt 0.999000 0.501000
vt 0.001000 0.501000
vt 0.249000 0.501000
vt 0.499000 0.501000
vt 0.249000 0.749000
vt 0.001000 0.749000
vt 0.499000 0.749000
s 1
usemtl RefRep.17_SH_initial_loader.002
f 7/1/1 9/2/1 1/3/1
f 1/3/1 9/2/1 2/4/1
f 3/5/1 4/6/1 5/7/1
f 5/7/1 4/6/1 6/8/1
f 5/7/1 6/8/1 1/3/1
f 1/3/1 6/8/1 7/1/1
f 8/9/1 19/10/2 3/5/1
f 3/5/1 19/10/2 4/6/1
f 17/11/3 16/12/4 10/13/1
f 10/13/1 16/12/4 15/14/1
f 10/13/1 15/14/1 7/1/1
f 7/1/1 15/14/1 9/2/1
f 19/10/2 20/15/5 4/6/1
f 4/6/1 20/15/5 12/16/1
f 4/6/1 12/16/1 6/8/1
f 6/8/1 12/16/1 13/17/1
f 6/8/1 13/17/1 7/1/1
f 7/1/1 13/17/1 10/13/1
f 18/18/3 12/16/1 14/19/6
f 14/19/6 12/16/1 20/15/5
f 11/20/7 13/17/1 18/18/3
f 18/18/3 13/17/1 12/16/1
f 10/13/1 13/17/1 17/11/3
f 17/11/3 13/17/1 11/20/7
