# Blender 5.1.1
# www.blender.org
mtllib Room9.mtl
o Room9
v 23.838614 1.085260 -30.987707
v -1.453331 1.098266 -31.023458
v -16.199060 1.105854 -31.044296
v -14.094039 1.104774 -31.041319
v -9.883979 1.102605 -31.035376
v -18.291584 25.349958 -31.067623
v -18.301922 5.322263 -31.050814
v -18.304090 1.106934 -31.047274
v 6.981665 9.524586 -31.018620
v 6.989814 25.336952 -31.031891
v -1.440290 26.395817 -31.044695
v 6.979486 5.309257 -31.015081
v 10.140983 5.307632 -31.010618
v 10.138805 1.092303 -31.007071
v 10.143152 9.522961 -31.014149
v 10.144241 11.630626 -31.015923
v 6.982753 11.632251 -31.020384
v 6.983834 13.739915 -31.022160
v 6.977317 1.093937 -31.011539
v 10.145329 13.738281 -31.017689
v 10.147499 17.953609 -31.021231
v 6.986012 17.955235 -31.025700
v 6.988181 22.173372 -31.029238
v 7.780206 25.362190 -31.030792
v 20.719273 1.086859 -30.992117
v 10.151319 25.360970 -31.027447
v 10.149730 22.274323 -31.024857
v 18.000771 22.270281 -31.013765
v 20.732313 26.384407 -31.013361
v 10.151855 26.389853 -31.028307
v 6.990358 26.391478 -31.032778
v 12.784309 22.272970 -31.021133
v 12.786427 26.388493 -31.024584
v 20.730196 22.268877 -31.009901
v 20.727966 17.948166 -31.006273
v 23.851656 26.382801 -31.008944
v 23.847309 17.946566 -31.001863
v 20.723619 9.517516 -30.999193
v 23.842962 9.515909 -30.994795
v 18.002897 26.385813 -31.017216
v 15.421007 26.387140 -31.020861
v 15.418881 22.271608 -31.017408
v -1.187704 25.938496 -30.823469
v -1.027838 25.938435 -30.807987
v -1.852444 10.949130 -30.818707
v -0.922367 25.938435 -30.738741
v -1.769665 10.949007 -30.916363
v -0.866882 25.938478 -30.655390
v -1.535091 10.948875 -30.929455
v -0.677280 25.938400 -30.624565
v -1.299911 10.948752 -30.929888
v -0.506314 25.938259 -30.692627
v -1.057424 10.948647 -30.904314
v -0.400324 25.938135 -30.777548
v -0.806471 10.948524 -30.897463
v -0.250874 25.938057 -30.774702
v -0.559137 10.948400 -30.898596
v -0.168288 25.938074 -30.708145
v -0.422086 10.948383 -30.832592
v -0.406287 10.948453 -30.735640
v -1.281240 10.949059 -30.558016
v -1.256563 10.948945 -30.672417
v 0.916439 25.937443 -30.792503
v 1.016966 25.937460 -30.711420
v 0.488653 10.947839 -30.916248
v 1.140808 25.937460 -30.634201
v 0.719592 10.947717 -30.928648
v 1.295616 25.937424 -30.574394
v 0.909712 10.947655 -30.878616
v 1.501860 25.937302 -30.595234
v 1.048572 10.947655 -30.795216
v 1.655035 25.937170 -30.663506
v 1.078492 10.947734 -30.682518
v 1.809992 25.937046 -30.709507
v 1.217677 10.947742 -30.587875
v 1.923823 25.937031 -30.661821
v 1.468348 10.947637 -30.562065
v 2.084225 25.936995 -30.609489
v 1.712302 10.947461 -30.620409
v -1.292824 25.938700 -30.651396
v -1.288336 25.938610 -30.757641
v -1.504451 10.949025 -30.727736
v -1.772985 10.949174 -30.719534
v -0.183841 25.938154 -30.615540
v 0.012760 25.938084 -30.584976
v -0.386932 10.948515 -30.650524
v 0.209976 25.937979 -30.590960
v -0.282155 10.948550 -30.546089
v 0.382497 25.937838 -30.651432
v -0.083288 10.948462 -30.527576
v 0.493606 25.937706 -30.739971
v 0.181918 10.948304 -30.550455
v 0.621015 25.937582 -30.812395
v 0.392877 10.948129 -30.631424
v 0.776613 25.937468 -30.847496
v 0.477825 10.947989 -30.753071
v 0.342873 10.947963 -30.863741
v -1.539341 10.949200 -30.545765
v -1.390997 25.938803 -30.581078
v -1.901552 25.939005 -30.658079
v -2.027529 10.949385 -30.623571
v -1.745963 25.938971 -30.600908
v -1.792858 10.949314 -30.567024
v -1.588424 25.938936 -30.547831
v -1.390857 25.938732 -30.665464
v -1.256440 10.948875 -30.756804
v -0.183727 25.938084 -30.699924
v 0.012874 25.938013 -30.669365
v -0.386809 10.948445 -30.734919
v 0.210099 25.937899 -30.675344
v -0.282041 10.948481 -30.630474
v 0.382638 25.937767 -30.735825
v -0.083165 10.948393 -30.611963
v 0.493729 25.937635 -30.824356
v 0.182032 10.948235 -30.634840
v 0.621155 25.937504 -30.896780
v 0.393000 10.948059 -30.715809
v 0.776727 25.937399 -30.931890
v 0.477939 10.947918 -30.837458
v 0.916553 25.937372 -30.876888
v 0.342996 10.947891 -30.948126
v -1.588309 25.938864 -30.632217
v -1.539219 10.949130 -30.630150
v -1.281117 10.948981 -30.642408
v -1.292710 25.938627 -30.735790
v -1.288213 25.938532 -30.842026
v -1.504337 10.948963 -30.812120
v -1.772862 10.949103 -30.803919
v 1.923946 25.936958 -30.746206
v 2.084348 25.936924 -30.693882
v 1.712425 10.947391 -30.704798
v -0.406164 10.948383 -30.820024
v -0.250759 25.937986 -30.859087
v -0.168165 25.937996 -30.792540
v -0.421937 10.948313 -30.916985
v -0.400184 25.938057 -30.861933
v -0.559014 10.948322 -30.982983
v -1.057301 10.948577 -30.988699
v -0.806349 10.948453 -30.981848
v -0.506191 25.938189 -30.777020
v -0.866759 25.938400 -30.739777
v -0.677140 25.938339 -30.708952
v -1.299797 10.948682 -31.014273
v -1.901438 25.938936 -30.742464
v -2.027415 10.949314 -30.707956
v -1.745840 25.938900 -30.685293
v -1.792718 10.949244 -30.651421
v -1.187590 25.938427 -30.907854
v -1.027723 25.938356 -30.892372
v -1.852330 10.949059 -30.903093
v -0.922244 25.938364 -30.823135
v -1.769551 10.948937 -31.000748
v -1.534968 10.948805 -31.013842
v 1.810115 25.936977 -30.793892
v 1.468462 10.947567 -30.646450
v 1.655158 25.937099 -30.747892
v 1.217791 10.947672 -30.672260
v 1.078615 10.947663 -30.766903
v 1.295739 25.937355 -30.658781
v 0.909835 10.947584 -30.963013
v 1.501983 25.937231 -30.679630
v 1.048695 10.947584 -30.879601
v 1.140931 25.937389 -30.718603
v 1.017089 25.937389 -30.795815
v 0.488794 10.947768 -31.000633
v 0.719706 10.947646 -31.013042
v -16.188189 22.185291 -31.061996
v -16.190365 17.967161 -31.058447
v -18.295395 17.968241 -31.061424
v -18.293217 22.186378 -31.064962
v -16.186563 25.348877 -31.064646
v -14.080990 26.402313 -31.062557
v -18.298653 11.645256 -31.056118
v -16.196892 5.321183 -31.047836
v -1.451162 5.313595 -31.026997
v -9.881810 5.317933 -31.038906
v -9.879633 9.533262 -31.042444
v -14.091862 5.320102 -31.044861
v -16.193624 11.644176 -31.053141
v -18.299744 9.537593 -31.054354
v -9.878544 11.640927 -31.044218
v -1.447895 11.636589 -31.032301
v -1.448984 9.528924 -31.030537
v -16.192545 13.751841 -31.054916
v -18.297575 13.752920 -31.057886
v -16.186020 26.403402 -31.065535
v -18.291040 26.404482 -31.068512
v -9.871474 25.345629 -31.055725
v -14.081534 25.347790 -31.061680
v -16.194714 9.536512 -31.051376
v -14.089683 9.535423 -31.048399
v -14.088604 11.643086 -31.050173
v -1.440834 25.341290 -31.043806
v -9.870938 26.400154 -31.056612
vn -0.0014 0.0008 1.0000
vn -0.0007 0.7077 0.7065
vn -0.0006 0.7077 0.7065
vn -0.0006 0.7078 0.7065
vn -0.0002 0.8948 0.4466
vn -0.4854 0.7282 0.4838
vn -0.7082 0.0010 0.7061
vn -0.8328 0.0009 0.5536
vn 0.4507 -0.0014 0.8927
vn 0.7194 -0.0413 -0.6933
vn 0.1110 -0.0018 0.9938
vn 0.7562 -0.0484 0.6526
vn -0.2908 0.0091 0.9567
vn -0.0065 -0.0141 0.9999
vn -0.3462 0.0032 0.9382
vn -0.0344 -0.0174 0.9993
vn 0.0721 -0.0224 0.9971
vn 0.0907 -0.0221 0.9956
vn 0.3126 -0.0275 0.9495
vn 0.1747 -0.0182 0.9845
vn 0.2039 -0.0172 0.9788
vn -0.0139 -0.0077 0.9999
vn -0.2252 -0.0033 0.9743
vn -0.3667 -0.0007 0.9303
vn -0.8041 0.0096 0.5944
vn -0.9370 0.0122 0.3490
vn -0.9076 0.0101 0.4198
vn -0.8392 0.0182 0.5436
vn 0.2737 0.0033 0.9618
vn 0.6221 0.0037 0.7829
vn 0.9231 0.0036 0.3846
vn 0.9497 -0.0003 -0.3130
vn -0.3588 0.0129 0.9333
vn 0.3428 -0.0249 0.9391
vn -0.3038 0.0009 0.9527
vn -0.0488 -0.0139 0.9987
vn -0.2881 -0.0076 0.9576
vn -0.1900 -0.0143 0.9817
vn -0.1749 -0.0150 0.9845
vn -0.2310 -0.0109 0.9729
vn -0.0025 -0.0156 0.9999
vn -0.4682 0.0072 0.8836
vn -0.1279 0.0001 0.9918
vn -0.5202 0.0224 0.8538
vn -0.2380 0.0142 0.9712
vn -0.3576 0.0209 0.9336
vn -0.2683 0.0162 0.9632
vn -0.0614 0.0065 0.9981
vn -0.0404 0.0048 0.9992
vn 0.2326 -0.0065 0.9726
vn 0.9985 -0.0051 -0.0548
vn 0.5421 -0.0126 -0.8402
vn -0.4450 0.0057 0.8955
vn -0.6501 0.0178 0.7597
vn -0.1288 0.0045 0.9917
vn -0.1741 0.0105 0.9847
vn 0.3019 -0.0034 0.9533
vn 0.2168 0.0032 0.9762
vn 0.4139 -0.0005 0.9103
vn 0.3177 0.0059 0.9482
vn 0.3599 0.0049 0.9330
vn 0.4910 0.0005 0.8712
vn 0.2623 0.0034 0.9650
vn 0.8302 -0.0154 0.5573
vn -0.0805 0.0013 0.9968
vn 0.0435 0.0008 0.9991
vn -0.3449 0.0051 0.9386
vn -0.2900 0.0040 0.9570
vn -0.2998 0.0037 0.9540
vn -0.2134 0.0020 0.9770
vn 0.6222 0.0037 0.7829
vn 0.9231 0.0036 0.3845
vn 0.9497 -0.0003 -0.3131
vn -0.9076 0.0100 0.4197
vn -0.8392 0.0182 0.5435
vn 0.3600 0.0050 0.9329
vn 0.4910 0.0005 0.8711
vn 0.2622 0.0034 0.9650
vn -0.3589 0.0129 0.9333
vn 0.3427 -0.0249 0.9391
vn -0.0804 0.0013 0.9968
vn -0.8041 0.0096 0.5945
vn -0.9371 0.0122 0.3490
vn 0.2038 -0.0172 0.9789
vn -0.0138 -0.0077 0.9999
vn 0.0722 -0.0224 0.9971
vn -0.3462 0.0033 0.9381
vn -0.0345 -0.0174 0.9993
vn -0.3448 0.0051 0.9386
vn -0.0026 -0.0156 0.9999
vn -0.4683 0.0072 0.8836
vn -0.3037 0.0010 0.9528
vn 0.7062 0.0003 0.7081
vn 0.7061 0.0003 0.7081
vn 0.7061 0.0002 0.7081
vn 0.7062 0.0002 0.7081
vn 0.4081 0.8166 0.4083
vn -0.0008 0.6008 0.7994
vn 0.4460 0.0005 0.8950
vt 0.255000 0.625000
vt 0.255000 0.501000
vt 0.503000 0.625000
vt 0.503000 0.501000
vt 0.255000 0.034000
vt 0.255000 0.003000
vt 0.503000 0.034000
vt 0.503000 0.003000
vt 0.230000 0.034000
vt 0.157000 0.625000
vt 0.255000 0.749000
vt 0.157000 0.749000
vt 0.157000 0.501000
vt 0.157000 0.439000
vt 0.255000 0.439000
vt 0.157000 0.377000
vt 0.255000 0.377000
vt 0.503000 0.749000
vt 0.157000 0.253000
vt 0.255000 0.253000
vt 0.157000 0.126000
vt 0.255000 0.128000
vt 0.229000 0.034000
vt 0.093000 0.501000
vt 0.093000 0.749000
vt 0.001000 0.749000
vt 0.001000 0.501000
vt 0.157000 0.034000
vt 0.029000 0.003000
vt 0.028000 0.126000
vt 0.029000 0.126000
vt 0.157000 0.003000
vt 0.093000 0.126000
vt 0.001000 0.003000
vt 0.093000 0.003000
vt 0.093000 0.253000
vt 0.001000 0.253000
vt 0.503000 0.439000
vt 0.346000 0.051000
vt 0.346000 0.435000
vt 0.353000 0.051000
vt 0.353000 0.435000
vt 0.360000 0.051000
vt 0.360000 0.435000
vt 0.367000 0.051000
vt 0.367000 0.435000
vt 0.374000 0.051000
vt 0.374000 0.435000
vt 0.381000 0.051000
vt 0.381000 0.435000
vt 0.389000 0.051000
vt 0.389000 0.435000
vt 0.396000 0.051000
vt 0.396000 0.435000
vt 0.403000 0.051000
vt 0.403000 0.435000
vt 0.410000 0.051000
vt 0.410000 0.435000
vt 0.324000 0.051000
vt 0.324000 0.435000
vt 0.331000 0.051000
vt 0.331000 0.435000
vt 0.460000 0.051000
vt 0.460000 0.435000
vt 0.467000 0.051000
vt 0.467000 0.435000
vt 0.475000 0.051000
vt 0.475000 0.435000
vt 0.482000 0.051000
vt 0.482000 0.435000
vt 0.489000 0.051000
vt 0.489000 0.435000
vt 0.496000 0.051000
vt 0.496000 0.435000
vt 0.503000 0.051000
vt 0.503000 0.435000
vt 0.510000 0.051000
vt 0.510000 0.435000
vt 0.518000 0.051000
vt 0.518000 0.435000
vt 0.338000 0.051000
vt 0.338000 0.435000
vt 0.417000 0.051000
vt 0.417000 0.435000
vt 0.424000 0.051000
vt 0.424000 0.435000
vt 0.432000 0.051000
vt 0.432000 0.435000
vt 0.439000 0.051000
vt 0.439000 0.435000
vt 0.446000 0.051000
vt 0.446000 0.435000
vt 0.453000 0.051000
vt 0.453000 0.435000
vt 0.317000 0.051000
vt 0.317000 0.435000
vt 0.303000 0.051000
vt 0.303000 0.435000
vt 0.310000 0.051000
vt 0.310000 0.435000
vt 0.637000 0.051000
vt 0.637000 0.435000
vt 0.644000 0.051000
vt 0.644000 0.435000
vt 0.723000 0.051000
vt 0.723000 0.435000
vt 0.730000 0.051000
vt 0.730000 0.435000
vt 0.737000 0.051000
vt 0.737000 0.435000
vt 0.744000 0.051000
vt 0.744000 0.435000
vt 0.751000 0.051000
vt 0.751000 0.435000
vt 0.758000 0.051000
vt 0.758000 0.435000
vt 0.766000 0.051000
vt 0.766000 0.435000
vt 0.773000 0.051000
vt 0.773000 0.435000
vt 0.629000 0.051000
vt 0.629000 0.435000
vt 0.622000 0.051000
vt 0.622000 0.435000
vt 0.651000 0.051000
vt 0.651000 0.435000
vt 0.658000 0.051000
vt 0.658000 0.435000
vt 0.823000 0.051000
vt 0.823000 0.435000
vt 0.830000 0.051000
vt 0.830000 0.435000
vt 0.715000 0.051000
vt 0.715000 0.435000
vt 0.708000 0.051000
vt 0.708000 0.435000
vt 0.701000 0.051000
vt 0.701000 0.435000
vt 0.694000 0.051000
vt 0.694000 0.435000
vt 0.687000 0.051000
vt 0.687000 0.435000
vt 0.680000 0.051000
vt 0.680000 0.435000
vt 0.615000 0.051000
vt 0.615000 0.435000
vt 0.665000 0.051000
vt 0.665000 0.435000
vt 0.672000 0.051000
vt 0.672000 0.435000
vt 0.816000 0.051000
vt 0.816000 0.435000
vt 0.809000 0.051000
vt 0.809000 0.435000
vt 0.801000 0.051000
vt 0.801000 0.435000
vt 0.794000 0.051000
vt 0.794000 0.435000
vt 0.787000 0.051000
vt 0.787000 0.435000
vt 0.780000 0.051000
vt 0.780000 0.435000
vt 0.937000 0.128000
vt 0.999000 0.128000
vt 0.937000 0.253000
vt 0.999000 0.253000
vt 0.937000 0.034000
vt 0.999000 0.034000
vt 0.875000 0.034000
vt 0.937000 0.003000
vt 0.875000 0.003000
vt 0.937000 0.377000
vt 0.999000 0.377000
vt 0.937000 0.439000
vt 0.999000 0.439000
vt 0.937000 0.625000
vt 0.999000 0.625000
vt 0.937000 0.749000
vt 0.999000 0.749000
vt 0.875000 0.749000
vt 0.875000 0.625000
vt 0.751000 0.625000
vt 0.751000 0.501000
vt 0.751000 0.749000
vt 0.937000 0.501000
vt 0.999000 0.501000
vt 0.751000 0.439000
vt 0.875000 0.439000
vt 0.875000 0.501000
vt 0.999000 0.003000
vt 0.751000 0.034000
vt 0.751000 0.003000
s 1
usemtl RefRep.22_SH_initial_loader.002
f 12/1/1 9/2/1 175/3/1
f 175/3/1 9/2/1 183/4/1
f 10/5/1 31/6/1 193/7/1
f 193/7/1 31/6/1 11/8/1
f 24/9/1 31/6/1 10/5/1
f 13/10/1 12/1/1 19/11/2
f 13/10/1 19/11/2 14/12/3
f 12/1/1 13/10/1 15/13/1
f 12/1/1 15/13/1 9/2/1
f 9/2/1 15/13/1 16/14/1
f 9/2/1 16/14/1 17/15/1
f 17/15/1 16/14/1 20/16/1
f 17/15/1 20/16/1 18/17/1
f 12/1/1 175/3/1 2/18/4
f 12/1/1 2/18/4 19/11/2
f 18/17/1 20/16/1 21/19/1
f 18/17/1 21/19/1 22/20/1
f 22/20/1 21/19/1 27/21/1
f 22/20/1 27/21/1 23/22/1
f 23/22/1 27/21/1 24/23/1
f 23/22/1 24/23/1 10/5/1
f 38/24/1 25/25/5 1/26/6
f 38/24/1 1/26/6 39/27/7
f 26/28/1 24/9/1 27/21/1
f 26/28/1 27/21/1 33/29/1
f 33/29/1 27/21/1 32/30/1
f 28/31/1 34/21/1 40/29/1
f 40/29/1 34/21/1 29/32/1
f 33/29/1 30/32/1 26/28/1
f 26/28/1 30/32/1 31/6/1
f 26/28/1 31/6/1 24/9/1
f 34/33/1 36/34/1 29/35/1
f 32/31/1 42/21/1 33/29/1
f 33/29/1 42/21/1 41/32/1
f 34/33/1 35/36/1 36/34/1
f 36/34/1 35/36/1 37/37/8
f 38/24/1 39/27/7 35/36/1
f 35/36/1 39/27/7 37/37/8
f 40/29/1 41/32/1 28/31/1
f 28/31/1 41/32/1 42/21/1
f 182/38/1 183/4/1 17/15/1
f 17/15/1 183/4/1 9/2/1
f 43/39/9 83/40/10 44/41/11
f 44/41/11 83/40/10 45/42/12
f 44/41/11 45/42/12 46/43/13
f 46/43/13 45/42/12 47/44/14
f 46/43/13 47/44/14 48/45/15
f 48/45/15 47/44/14 49/46/16
f 48/45/15 49/46/16 50/47/17
f 50/47/17 49/46/16 51/48/18
f 50/47/17 51/48/18 52/49/19
f 52/49/19 51/48/18 53/50/20
f 52/49/19 53/50/20 54/51/21
f 54/51/21 53/50/20 55/52/22
f 54/51/21 55/52/22 56/53/23
f 56/53/23 55/52/22 57/54/24
f 56/53/23 57/54/24 58/55/25
f 58/55/25 57/54/24 59/56/26
f 58/55/25 59/56/26 84/57/27
f 84/57/27 59/56/26 60/58/28
f 99/59/29 61/60/30 80/61/31
f 80/61/31 61/60/30 62/62/32
f 63/63/33 97/64/34 64/65/35
f 64/65/35 97/64/34 65/66/36
f 64/65/35 65/66/36 66/67/37
f 66/67/37 65/66/36 67/68/38
f 66/67/37 67/68/38 68/69/39
f 68/69/39 67/68/38 69/70/40
f 68/69/39 69/70/40 70/71/41
f 70/71/41 69/70/40 71/72/42
f 70/71/41 71/72/42 72/73/43
f 72/73/43 71/72/42 73/74/44
f 72/73/43 73/74/44 74/75/45
f 74/75/45 73/74/44 75/76/46
f 74/75/45 75/76/46 76/77/47
f 76/77/47 75/76/46 77/78/48
f 76/77/47 77/78/48 78/79/49
f 78/79/49 77/78/48 79/80/50
f 80/61/31 62/62/32 81/81/51
f 81/81/51 62/62/32 82/82/52
f 81/81/51 82/82/52 43/39/9
f 43/39/9 82/82/52 83/40/10
f 84/57/27 60/58/28 85/83/53
f 85/83/53 60/58/28 86/84/54
f 85/83/53 86/84/54 87/85/55
f 87/85/55 86/84/54 88/86/56
f 87/85/55 88/86/56 89/87/57
f 89/87/57 88/86/56 90/88/58
f 89/87/57 90/88/58 91/89/59
f 91/89/59 90/88/58 92/90/60
f 91/89/59 92/90/60 93/91/61
f 93/91/61 92/90/60 94/92/62
f 93/91/61 94/92/62 95/93/63
f 95/93/63 94/92/62 96/94/64
f 95/93/63 96/94/64 63/63/33
f 63/63/33 96/94/64 97/64/34
f 104/95/65 98/96/66 99/59/29
f 99/59/29 98/96/66 61/60/30
f 100/97/67 101/98/68 102/99/69
f 102/99/69 101/98/68 103/100/70
f 102/99/69 103/100/70 104/95/65
f 104/95/65 103/100/70 98/96/66
f 105/101/29 124/102/71 125/103/72
f 125/103/72 124/102/71 106/104/73
f 107/105/74 132/106/75 108/107/53
f 108/107/53 132/106/75 109/108/54
f 108/107/53 109/108/54 110/109/55
f 110/109/55 109/108/54 111/110/56
f 110/109/55 111/110/56 112/111/57
f 112/111/57 111/110/56 113/112/58
f 112/111/57 113/112/58 114/113/59
f 114/113/59 113/112/58 115/114/60
f 114/113/59 115/114/60 116/115/76
f 116/115/76 115/114/60 117/116/77
f 116/115/76 117/116/77 118/117/78
f 118/117/78 117/116/77 119/118/64
f 118/117/78 119/118/64 120/119/79
f 120/119/79 119/118/64 121/120/80
f 122/121/81 123/122/66 105/101/29
f 105/101/29 123/122/66 124/102/71
f 146/123/69 147/124/70 122/121/81
f 122/121/81 147/124/70 123/122/66
f 125/103/72 106/104/73 126/125/51
f 126/125/51 106/104/73 127/126/52
f 126/125/51 127/126/52 148/127/9
f 148/127/9 127/126/52 128/128/10
f 129/129/47 155/130/48 130/131/49
f 130/131/49 155/130/48 131/132/50
f 134/133/82 135/134/83 107/105/74
f 107/105/74 135/134/83 132/106/75
f 133/135/23 137/136/24 134/133/82
f 134/133/82 137/136/24 135/134/83
f 136/137/84 139/138/85 133/135/23
f 133/135/23 139/138/85 137/136/24
f 140/139/19 138/140/20 136/137/84
f 136/137/84 138/140/20 139/138/85
f 142/141/86 143/142/18 140/139/19
f 140/139/19 143/142/18 138/140/20
f 141/143/87 153/144/88 142/141/86
f 142/141/86 153/144/88 143/142/18
f 144/145/89 145/146/68 146/123/69
f 146/123/69 145/146/68 147/124/70
f 148/127/9 128/128/10 149/147/11
f 149/147/11 128/128/10 150/148/12
f 149/147/11 150/148/12 151/149/13
f 151/149/13 150/148/12 152/150/14
f 151/149/13 152/150/14 141/143/87
f 141/143/87 152/150/14 153/144/88
f 154/151/45 157/152/46 129/129/47
f 129/129/47 157/152/46 155/130/48
f 156/153/43 158/154/44 154/151/45
f 154/151/45 158/154/44 157/152/46
f 161/155/90 162/156/91 156/153/43
f 156/153/43 162/156/91 158/154/44
f 159/157/39 160/158/40 161/155/90
f 161/155/90 160/158/40 162/156/91
f 163/159/37 166/160/38 159/157/39
f 159/157/39 166/160/38 160/158/40
f 120/119/79 121/120/80 164/161/92
f 164/161/92 121/120/80 165/162/36
f 164/161/92 165/162/36 163/159/37
f 163/159/37 165/162/36 166/160/38
f 167/163/1 170/164/93 168/165/1
f 168/165/1 170/164/93 169/166/93
f 171/167/1 6/168/94 167/163/1
f 167/163/1 6/168/94 170/164/93
f 171/167/1 189/169/1 186/170/1
f 186/170/1 189/169/1 172/171/1
f 184/172/1 185/173/95 179/174/1
f 179/174/1 185/173/95 173/175/94
f 174/176/1 7/177/96 3/178/4
f 3/178/4 7/177/96 8/179/97
f 3/178/4 4/180/98 174/176/1
f 174/176/1 4/180/98 178/181/1
f 175/3/1 183/4/1 176/182/1
f 176/182/1 183/4/1 177/183/1
f 176/182/1 5/184/3 175/3/1
f 175/3/1 5/184/3 2/18/4
f 178/181/1 4/180/98 176/182/1
f 176/182/1 4/180/98 5/184/3
f 190/185/1 180/186/93 174/176/1
f 174/176/1 180/186/93 7/177/96
f 179/174/1 173/175/94 190/185/1
f 190/185/1 173/175/94 180/186/93
f 181/187/1 177/183/1 182/38/1
f 182/38/1 177/183/1 183/4/1
f 192/188/1 191/189/1 181/187/1
f 181/187/1 191/189/1 177/183/1
f 168/165/1 169/166/93 184/172/1
f 184/172/1 169/166/93 185/173/95
f 186/170/1 187/190/99 171/167/1
f 171/167/1 187/190/99 6/168/94
f 188/191/1 194/192/1 189/169/1
f 189/169/1 194/192/1 172/171/1
f 174/176/1 178/181/1 190/185/1
f 190/185/1 178/181/1 191/189/1
f 176/182/1 177/183/1 178/181/1
f 178/181/1 177/183/1 191/189/1
f 190/185/1 191/189/1 179/174/1
f 179/174/1 191/189/1 192/188/1
f 193/191/1 11/192/1 188/7/1
f 188/7/1 11/192/1 194/8/1
