# Blender 5.1.1
# www.blender.org
mtllib Room10.mtl
o Room10
v -35.218948 1.141212 -0.615412
v -35.226246 1.145551 4.548357
v -26.828651 1.160860 27.955313
v -35.211685 1.136882 -5.758104
v -35.259300 1.165198 27.943405
v -35.198643 26.434431 -5.779340
v -35.200771 22.318901 -5.775889
v -35.207340 9.567540 -5.765183
v -35.202988 17.998198 -5.772262
v -26.823217 11.699182 27.946480
v -26.822136 13.806845 27.944695
v -35.244129 7.481112 19.507442
v -35.236469 22.340137 19.494980
v -35.234341 26.455669 19.491520
v -35.256042 7.488191 27.938091
v -35.254951 9.595856 27.936327
v -26.824305 9.591517 27.948235
v -35.248386 22.347218 27.925619
v -35.246258 26.462755 27.922161
v -26.815613 26.458406 27.934076
v -26.819960 18.022175 27.941164
v -35.250607 18.026505 27.929245
v -35.223183 26.449018 11.587787
v -35.205910 26.438753 -0.636648
v -35.208023 22.323221 -0.633197
v -35.213203 26.443089 4.527121
v -35.225296 22.333496 11.591248
v -26.825394 7.483852 27.950010
v -35.257130 5.380526 27.939865
v -35.245216 5.373448 19.509218
v -26.826483 5.376197 27.951775
v -35.247395 1.158119 19.512756
v -35.238689 18.019424 19.498608
v -35.241959 11.696432 19.503904
v -35.240871 13.804097 19.502136
v -35.252773 13.811183 27.932787
v -35.253864 11.703519 27.934563
v -35.243046 9.588768 19.505678
v -35.214611 9.571861 -0.622491
v -35.215328 22.327560 4.530581
v -35.217552 18.006847 4.534199
v -35.210262 18.002510 -0.629570
v -35.221901 9.576200 4.541287
vn 0.7081 -0.0010 -0.7061
vn 0.0014 -0.0008 -1.0000
vn 1.0000 -0.0005 0.0014
vn 0.7075 0.7068 0.0004
vn 0.4478 0.8941 -0.0000
vn 0.7061 0.0003 0.7082
vn 0.7061 0.0002 0.7081
vn 0.0014 0.7066 -0.7076
vn 0.5354 0.8012 -0.2671
vn 0.5768 0.5776 0.5777
vn 0.7061 0.0003 0.7081
vt 0.562000 0.564000
vt 0.562000 0.502000
vt 0.313000 0.564000
vt 0.313000 0.502000
vt 0.249000 0.563000
vt 0.249000 0.501000
vt 0.001000 0.563000
vt 0.001000 0.501000
vt 0.249000 0.126000
vt 0.249000 0.003000
vt 0.001000 0.126000
vt 0.001000 0.003000
vt 0.851000 0.497000
vt 0.688000 0.497000
vt 0.851000 0.749000
vt 0.688000 0.749000
vt 0.562000 0.688000
vt 0.562000 0.626000
vt 0.313000 0.688000
vt 0.313000 0.626000
vt 0.562000 0.235000
vt 0.562000 0.130000
vt 0.313000 0.130000
vt 0.313000 0.378000
vt 0.562000 0.378000
vt 0.001000 0.253000
vt 0.249000 0.253000
vt 0.470000 0.126000
vt 0.688000 0.126000
vt 0.688000 0.003000
vt 0.470000 0.003000
vt 0.851000 0.126000
vt 0.851000 0.003000
vt 0.997000 0.126000
vt 0.997000 0.003000
vt 0.313000 0.750000
vt 0.562000 0.750000
vt 0.001000 0.625000
vt 0.249000 0.625000
vt 0.313000 0.874000
vt 0.562000 0.874000
vt 0.001000 0.749000
vt 0.249000 0.749000
vt 0.001000 0.377000
vt 0.249000 0.377000
vt 0.001000 0.439000
vt 0.249000 0.439000
vt 0.997000 0.749000
vt 0.997000 0.497000
vt 0.851000 0.249000
vt 0.688000 0.249000
vt 0.997000 0.249000
s 1
usemtl RefRep.23_SH_initial_loader.002
f 37/1/1 36/2/1 10/3/2
f 10/3/2 36/2/1 11/4/2
f 12/5/3 38/6/3 15/7/1
f 15/7/1 38/6/3 16/8/1
f 13/9/3 14/10/3 18/11/1
f 18/11/1 14/10/3 19/12/1
f 39/13/3 43/14/3 1/15/4
f 1/15/4 43/14/3 2/16/5
f 15/17/1 16/18/1 28/19/2
f 28/19/2 16/18/1 17/20/2
f 18/21/1 19/22/1 20/23/2
f 18/21/1 20/23/2 21/24/2
f 18/21/1 21/24/2 22/25/1
f 22/25/1 21/24/2 11/4/2
f 22/25/1 11/4/2 36/2/1
f 13/9/3 18/11/1 22/26/1
f 13/9/3 22/26/1 33/27/3
f 27/28/3 40/29/3 26/30/3
f 27/28/3 26/30/3 23/31/3
f 25/32/3 24/33/3 26/30/3
f 25/32/3 26/30/3 40/29/3
f 13/9/3 27/28/3 23/31/3
f 13/9/3 23/31/3 14/10/3
f 24/33/3 25/32/3 7/34/6
f 24/33/3 7/34/6 6/35/7
f 15/17/1 28/19/2 31/36/2
f 15/17/1 31/36/2 29/37/1
f 12/5/3 15/7/1 29/38/1
f 12/5/3 29/38/1 30/39/3
f 29/37/1 31/36/2 3/40/8
f 29/37/1 3/40/8 5/41/9
f 30/39/3 29/38/1 5/42/9
f 30/39/3 5/42/9 32/43/4
f 36/44/1 35/45/3 33/27/3
f 36/44/1 33/27/3 22/26/1
f 37/46/1 34/47/3 35/45/3
f 37/46/1 35/45/3 36/44/1
f 37/1/1 10/3/2 17/20/2
f 37/1/1 17/20/2 16/18/1
f 34/47/3 37/46/1 16/8/1
f 34/47/3 16/8/1 38/6/3
f 39/13/3 1/15/4 4/48/10
f 39/13/3 4/48/10 8/49/7
f 42/50/3 25/32/3 40/29/3
f 42/50/3 40/29/3 41/51/3
f 25/32/3 42/50/3 9/52/11
f 25/32/3 9/52/11 7/34/6
f 42/50/3 39/13/3 8/49/7
f 42/50/3 8/49/7 9/52/11
f 39/13/3 42/50/3 41/51/3
f 39/13/3 41/51/3 43/14/3
