# Blender 5.1.1
# www.blender.org
mtllib Room6.mtl
o Room6
v 15.383596 0.049933 -14.137448
v 15.395513 0.042845 -22.568098
v 23.826153 0.038507 -22.556179
v 23.838060 0.031419 -30.986830
v 6.952948 0.054263 -14.149365
v 23.802328 0.052674 -5.694891
v 23.814245 0.045586 -14.125540
v 15.407421 0.035766 -30.998737
v 6.964865 0.047184 -22.580013
v -1.453876 0.044434 -31.022570
v 6.976773 0.040096 -31.010654
v -1.489609 0.065688 -5.730634
v 6.941040 0.061350 -5.718717
v -5.108047 24.981400 -1.435962
v -5.703085 25.340202 -1.379143
v -5.703761 24.029823 -1.378045
v -5.803226 25.340107 -1.553175
v -5.803902 24.029736 -1.552068
v -5.904534 24.029928 -1.378326
v -5.903857 25.340307 -1.379433
v -5.802839 24.035006 -2.303249
v -5.804078 25.336550 -0.953536
v -6.145905 25.336601 -1.095698
v -5.803885 26.417992 -0.696251
v -6.287101 25.336390 -1.437930
v -6.544728 26.417755 -1.439203
v -6.328174 26.418079 -0.914298
v -5.461845 25.336250 -1.094732
v -5.278979 26.417536 -0.912814
v -6.144939 25.336031 -1.779757
v -6.326690 26.417202 -1.963493
v -5.312702 24.494749 -0.944016
v -6.463829 23.353008 -1.650865
v -6.212937 23.353537 -0.874972
v -6.628701 23.353045 -1.704690
v -5.319684 25.335890 -1.436560
v -5.060941 26.416990 -1.437104
v -5.277495 26.416658 -1.962009
v -5.802707 25.335733 -1.920954
v -5.803392 25.336138 -1.437245
v -5.460879 25.335670 -1.778792
v -5.801785 26.416746 -2.180047
v -5.397482 23.353113 -0.873813
v -4.979374 23.352200 -1.702362
v -5.803436 23.352262 -2.129252
v -5.803190 23.352123 -2.302669
v -5.802848 24.494001 -2.132071
v -5.311305 24.493921 -1.927672
v -5.108302 24.494230 -1.435558
v -5.804806 24.495171 -0.741013
v -6.296340 24.495258 -0.945412
v -6.499352 24.494949 -1.437526
v -6.294952 24.494432 -1.929059
v -5.803832 24.494589 -1.436533
v -6.499106 24.982119 -1.437930
v -5.397623 23.078081 -0.873585
v -6.213078 23.078505 -0.874744
v -5.144536 23.077299 -1.648766
v -5.804560 23.077818 -1.435348
v -6.463978 23.077976 -1.650628
v -5.803576 23.077240 -2.129024
v -5.144396 23.352324 -1.648995
v -6.628350 24.035927 -1.705269
v -5.295735 23.353176 -0.733364
v -5.295383 24.036058 -0.733943
v -4.979023 24.035084 -1.702933
v -6.315080 23.353701 -0.734804
v -6.314729 24.036587 -0.735383
v -5.312447 24.981916 -0.944429
v -5.311059 24.981091 -1.928076
v -5.804560 24.982347 -0.741417
v -6.296094 24.982428 -0.945816
v -5.802593 24.981171 -2.132475
v -5.803576 24.981760 -1.436946
v -6.294706 24.981592 -1.929463
v -33.706944 24.222376 10.652125
v -35.405792 24.223236 10.633542
v -35.405018 24.382980 10.567204
v -30.985044 24.382904 13.187522
v -30.918926 24.223072 13.187750
v -31.090858 24.381681 11.673710
v -31.025908 24.221840 11.661591
v -35.401638 24.382710 10.247602
v -32.109062 24.447536 10.628510
v -32.065670 24.381180 10.474782
v -31.476061 24.447573 11.056955
v -31.341417 24.381224 10.970997
v -31.304672 24.383060 13.187074
v -31.144815 24.449190 13.187250
v -31.247862 24.447992 11.703235
v -31.610785 24.381504 11.143025
v -32.152515 24.381489 10.782351
v -32.858295 24.447809 10.494770
v -27.920046 22.820835 27.224602
v -34.777409 22.824354 27.214907
v -28.970821 24.188744 13.822395
v -35.205116 23.337406 27.699713
v -35.183197 23.324371 12.188103
v -27.471262 23.320402 12.199011
v -27.493174 23.333435 27.710611
v -27.899231 23.321026 12.684237
v -27.919783 23.333242 27.224171
v -34.777138 23.336773 27.214485
v -34.756859 22.812140 12.674973
v -34.756596 23.324558 12.674552
v -27.899504 22.808609 12.684669
v -33.704803 24.448185 10.425955
v -35.403278 24.449045 10.407372
v -35.203789 25.904892 27.697554
v -34.669777 26.262781 12.769387
v -34.690041 26.274832 27.114967
v -34.325737 24.763353 10.878830
v -34.729267 24.951679 10.422987
v -34.325001 24.951479 10.423557
v -34.728725 24.762791 9.968056
v -34.324455 24.762589 9.968637
v -27.489811 25.416378 26.082634
v -28.987507 25.417150 26.080517
v -27.473307 23.811357 13.824819
v -27.469944 25.887886 12.196850
v -27.490627 23.821659 26.083977
v -27.983301 26.259340 12.778837
v -35.181873 25.891857 12.185951
v -27.491856 25.900923 27.708460
v -28.003571 26.271397 27.124416
v -32.868542 24.381741 10.654311
v -34.324421 24.307341 9.780499
v -34.728687 24.307552 9.779939
v -34.729187 23.852604 9.968829
v -34.730003 24.763554 10.878251
v -34.324921 23.852392 9.969399
v -34.325661 23.664267 10.424638
v -34.729927 23.664469 10.424067
v -34.326229 24.308422 11.067713
v -34.730480 23.853369 10.879015
v -34.730507 24.308634 11.067150
v -34.325325 24.307886 10.424102
v -34.326202 23.853157 10.879594
v -27.472483 25.406078 13.823483
v -28.988140 24.199045 26.081545
v -28.970190 25.406851 13.821367
v -32.848274 24.061861 10.335615
v -32.047771 24.221313 10.411201
v -31.405111 24.062290 11.733147
v -32.170605 24.221743 10.846196
v -32.152683 24.061878 10.782624
v -32.868710 24.062141 10.654583
v -32.872856 24.221998 10.720501
v -33.706429 24.062510 10.586076
v -33.703407 24.381847 10.266212
v -35.401016 24.222851 10.181553
v -33.702896 24.221998 10.200145
v -32.848114 24.381470 10.335352
v -32.843971 24.221603 10.269434
v -31.285704 24.221357 10.935510
v -31.370932 24.223301 13.187110
v -31.470089 24.222139 11.745274
v -31.404945 24.381891 11.732874
v -31.666672 24.221762 11.178786
v -33.706261 24.382120 10.585813
v -27.973143 25.396057 13.807948
v -27.990116 25.406149 25.819887
v -27.316357 25.154430 13.809082
v -27.333323 25.164522 25.821020
v -27.973263 25.160753 13.808150
v -27.990231 25.170855 25.820080
v -27.316481 24.919136 13.809275
v -27.333447 24.929228 25.821213
v -27.973379 24.943541 13.808326
v -27.990345 24.953632 25.820272
v -27.316586 24.701942 13.809459
v -27.333563 24.712032 25.821407
v -27.973511 24.690140 13.808546
v -27.990477 24.700230 25.820484
v -27.316717 24.448513 13.809669
v -27.333683 24.458603 25.821617
v -27.973616 24.472927 13.808722
v -27.990591 24.483017 25.820660
v -27.316832 24.231318 13.809855
v -27.333799 24.241407 25.821793
v -27.973719 24.273832 13.808887
v -27.990696 24.283922 25.820835
v -27.316938 24.032206 13.810020
v -27.333904 24.042305 25.821960
v -33.703583 24.062229 10.266484
v -35.401806 24.063089 10.247867
v -35.403519 23.997042 10.407750
v -31.341583 24.061613 10.971270
v -32.065838 24.061581 10.475046
v -31.145042 23.997175 13.187618
v -31.304840 24.063459 13.187338
v -31.248098 23.995987 11.703612
v -31.476290 23.995558 11.057342
v -31.610952 24.061905 11.143298
v -32.109291 23.995522 10.628880
v -32.858524 23.995794 10.495139
v -33.705032 23.996181 10.426332
v -35.405178 24.063370 10.567476
v -31.091026 24.062080 11.673983
v -30.985212 24.063303 13.187795
v -35.290680 0.091938 4.780885
v -35.279228 22.327789 4.762222
v -35.279869 22.328175 5.217354
v -35.291321 0.092325 5.236018
v -34.869789 0.092105 5.236615
v -34.858334 22.327953 5.217952
v -18.374733 0.088532 11.106820
v -9.944083 0.084193 11.118737
v -18.362814 0.081444 2.676180
v -9.920259 0.070027 -5.742551
v -35.247940 0.104287 19.513645
v -35.259842 0.111375 27.944283
v -35.236031 0.097208 11.082995
v -26.805380 0.092870 11.094912
v -35.224110 0.090120 2.652346
v -18.386641 0.095610 19.537470
v -26.829197 0.107036 27.956202
v -1.537251 0.094022 27.991953
v -9.932166 0.077106 2.688097
v -18.398550 0.102698 27.968117
v -9.967900 0.098360 27.980026
v -9.955992 0.091272 19.549385
v -26.817289 0.099949 19.525551
v -26.793465 0.085782 2.664263
v -26.781555 0.078703 -5.766376
v -35.212200 0.083042 -5.778294
v -34.857693 22.327578 4.762819
v -34.869148 0.091728 4.781491
v -34.877636 22.339540 19.010586
v -34.889107 0.103699 19.029257
v -35.193798 22.339706 19.010147
v -35.194118 22.339901 19.243965
v -35.205589 0.104059 19.262630
v -34.877972 22.339743 19.244413
v -34.889442 0.103892 19.263079
v -35.205257 0.103857 19.028809
v 15.371688 0.057012 -5.706809
v -1.501526 0.072767 2.700006
v 6.929122 0.068429 2.711923
v -1.513435 0.079855 11.130654
v 15.359771 0.064091 2.723840
v 23.790419 0.059752 2.735757
v -1.525343 0.086934 19.561302
v 6.905305 0.082596 19.573221
v 15.335955 0.078266 19.585129
v 23.778511 0.066840 11.166406
v 15.324038 0.085345 28.015778
v 6.893397 0.089683 28.003859
v 6.917214 0.075517 11.142571
v 15.347862 0.071178 11.154490
v 23.766602 0.073928 19.597046
v 23.754684 0.081007 28.027695
v -18.327080 0.060198 -22.615757
v -18.315172 0.053111 -31.046406
v -18.350908 0.074365 -5.754468
v -1.477701 0.058601 -14.161283
v -18.338989 0.067277 -14.185108
v -9.896432 0.055860 -22.603838
v -9.908350 0.062939 -14.173200
v -9.884524 0.048773 -31.034489
v -1.465784 0.051522 -22.591930
vn 0.0005 1.0000 -0.0008
vn 0.4899 -0.5812 0.6497
vn 0.8055 -0.5818 0.1128
vn 0.6481 0.5816 0.4916
vn 0.8063 0.5810 -0.1106
vn 0.6489 -0.5822 -0.4899
vn 0.4924 0.5807 -0.6483
vn -1.0000 0.0005 -0.0014
vn 0.4988 0.0004 0.8667
vn -0.5012 0.0010 0.8653
vn 1.0000 -0.0005 0.0014
vn 0.5012 -0.0010 -0.8653
vn -0.4988 -0.0005 -0.8667
vn -0.3546 0.3728 0.8575
vn 0.5940 0.6252 0.5062
vn -0.6375 0.7688 -0.0506
vn 0.6657 0.6244 -0.4086
vn -0.2169 0.3712 -0.9028
vn -0.0005 -1.0000 0.0008
vn -0.0996 -0.6951 0.7120
vn -0.5735 -0.6951 0.4335
vn -0.5889 -0.2292 0.7750
vn 0.1315 -0.2294 0.9644
vn -0.7118 -0.6954 -0.0986
vn -0.9643 -0.2296 0.1318
vn -0.4333 -0.6960 -0.5726
vn 0.0988 -0.6964 -0.7108
vn 0.4325 -0.6955 0.5738
vn -0.7750 -0.2303 -0.5886
vn 0.7747 -0.2301 0.5889
vn -0.1317 -0.2309 -0.9640
vn -0.6495 -0.5808 0.4908
vn -0.1126 -0.5808 0.8063
vn -0.4918 0.5823 0.6473
vn 0.1104 0.5821 0.8056
vn -0.6381 -0.7684 -0.0492
vn -0.5449 -0.7685 -0.3354
vn -0.1242 -0.8487 -0.5142
vn 0.1843 -0.6258 -0.7579
vn -0.2449 -0.7680 0.5917
vn -0.4883 -0.7679 0.4146
vn 0.7111 -0.6960 0.0998
vn 0.9641 -0.2308 -0.1314
vn 0.5729 -0.6964 -0.4323
vn 0.5886 -0.2312 -0.7746
vn 0.2961 -0.6246 0.7226
vn -0.5955 -0.6244 0.5056
vn -0.6646 -0.6251 -0.4094
vn 0.2426 -0.7681 0.5926
vn 0.4862 -0.7685 0.4159
vn 0.5276 -0.8486 -0.0390
vn 0.6649 -0.6259 -0.4076
vn 0.1120 -0.5823 -0.8052
vn -0.8060 -0.5812 -0.1119
vn -0.1098 0.5809 -0.8065
vn -0.4905 -0.5818 -0.6487
vn -0.6475 0.5815 -0.4926
vn -0.8057 0.5821 0.1096
vn 0.7780 -0.6256 -0.0582
vn -0.0466 0.0009 0.9989
vn -0.0289 0.7077 0.7059
vn -0.0107 0.1374 0.9905
vn -0.0062 0.7976 0.6032
vn 0.6947 0.7071 -0.1322
vn 0.9787 -0.0020 -0.2052
vn 0.5727 0.7119 -0.4064
vn 0.7917 -0.0035 -0.6109
vn 0.6039 0.7959 -0.0428
vn 0.9884 0.1352 -0.0693
vn 0.0053 1.0000 -0.0006
vn 0.0361 0.7065 -0.7068
vn 0.0019 0.9905 -0.1375
vn 0.0090 0.6032 -0.7975
vn 0.0070 1.0000 -0.0001
vn 0.0957 0.7060 -0.7017
vn 0.0304 0.9995 0.0062
vn 0.2890 0.7057 -0.6468
vn 0.0263 0.9990 0.0362
vn -0.7957 0.6032 0.0543
vn -0.1367 0.9906 0.0086
vn -0.6892 0.7080 0.1540
vn 0.0029 0.9998 0.0176
vn -0.5315 0.7140 0.4557
vn -0.2474 0.7065 0.6631
vn -0.0863 0.7073 0.7016
vn 0.8168 -0.4091 -0.4068
vn 0.4469 -0.8946 0.0014
vn -0.3329 -0.6670 -0.6666
vn -0.8946 -0.4469 -0.0009
vn 0.8258 0.2458 -0.5075
vn 0.8477 0.4711 0.2438
vn 0.5643 0.7337 -0.3785
vn 0.7097 0.3074 0.6340
vn 0.0004 -0.8325 -0.5541
vn -0.4478 -0.8942 0.0001
vn -0.5344 -0.8018 -0.2674
vn 0.6882 -0.6888 -0.2279
vn 0.8318 -0.5550 0.0016
vn 0.2676 -0.8025 -0.5333
vn 0.8942 -0.4476 0.0016
vn -0.1763 0.7568 -0.6295
vn -0.5855 0.8107 -0.0015
vn -0.4205 0.8862 -0.1944
vn 0.5809 0.4914 0.6489
vn 0.5818 0.8057 0.1114
vn -0.0005 0.7976 0.6032
vn 0.0007 0.9905 -0.1375
vn 0.5826 0.6478 -0.4909
vn 0.0014 0.6032 -0.7976
vn 0.6674 -0.3344 -0.6654
vn 0.8020 -0.5350 -0.2657
vn 0.4073 -0.8163 0.4095
vn 0.8010 -0.2672 0.5357
vn 0.7636 0.4499 -0.4632
vn 0.9755 0.2200 0.0012
vn 0.2118 0.8978 -0.3862
vn 0.5863 0.8101 0.0001
vn 0.5827 0.1103 -0.8052
vn 0.0013 -0.1374 -0.9905
vn 0.5822 -0.4920 -0.6473
vn 0.0004 -0.7976 -0.6032
vn 0.5803 -0.1109 0.8068
vn -0.0013 0.1375 0.9905
vn 0.5813 -0.8063 -0.1098
vn -0.0007 -0.9905 0.1374
vn 0.5805 -0.6484 0.4925
vn -0.0014 -0.6032 0.7976
vn 0.1276 -0.0008 -0.9918
vn 0.0857 -0.7073 -0.7017
vn 0.0454 -0.0009 -0.9990
vn 0.0287 -0.7077 -0.7059
vn 0.3801 0.0034 -0.9249
vn 0.2498 -0.7070 -0.6617
vn 0.5353 -0.7132 -0.4524
vn -0.6040 -0.7959 0.0423
vn -0.9885 -0.1352 0.0681
vn -0.6951 -0.7070 0.1303
vn -0.9797 0.0020 0.2005
vn -0.5721 -0.7128 0.4057
vn -0.7890 0.0031 0.6144
vn -0.2834 -0.7054 0.6497
vn -0.3725 -0.0039 0.9280
vn -0.0962 -0.7060 0.7016
vn -0.1298 0.0010 0.9915
vn -0.0365 -0.7064 0.7068
vn -0.0091 -0.6031 0.7976
vn 0.6884 -0.7081 -0.1573
vn 0.7957 -0.6032 -0.0552
vn 0.0108 -0.1374 -0.9905
vn 0.3453 0.9385 -0.0003
vn 0.3452 0.9385 -0.0003
vn -0.0054 -1.0000 0.0007
vn 0.0063 -0.7976 -0.6031
vn -0.0020 -0.9905 0.1376
vn -0.0071 -1.0000 0.0001
vn -0.0295 -0.9995 -0.0059
vn -0.0258 -0.9990 -0.0358
vn 0.1367 -0.9906 -0.0087
vn -0.0030 -0.9998 -0.0181
vn 0.0014 -0.0008 -1.0000
vn 0.0015 0.4467 -0.8947
vn 0.4486 -0.0010 -0.8937
vn 0.6674 0.6660 -0.3331
vn -0.0002 0.8947 0.4466
vn -0.0014 0.0008 1.0000
vn 0.4074 0.4088 0.8166
vn 0.8937 -0.0001 0.4486
vn 0.0015 0.4466 -0.8947
vn -0.0000 0.8947 0.4466
vt 0.155000 0.313000
vt 0.001000 0.313000
vt 0.155000 0.157000
vt 0.001000 0.157000
vt 0.155000 0.001000
vt 0.001000 0.001000
vt 0.464000 0.313000
vt 0.310000 0.313000
vt 0.464000 0.157000
vt 0.310000 0.157000
vt 0.155000 0.470000
vt 0.001000 0.470000
vt 0.310000 0.470000
vt 0.310000 0.001000
vt 0.464000 0.470000
vt 0.683000 0.722000
vt 0.647000 0.722000
vt 0.683000 0.694000
vt 0.647000 0.694000
vt 0.470000 0.657000
vt 0.470000 0.673000
vt 0.729000 0.657000
vt 0.729000 0.673000
vt 0.769000 0.827000
vt 0.784000 0.866000
vt 0.802000 0.796000
vt 0.819000 0.866000
vt 0.835000 0.825000
vt 0.802000 0.833000
vt 0.802000 0.808000
vt 0.784000 0.815000
vt 0.788000 0.819000
vt 0.804000 0.813000
vt 0.772000 0.804000
vt 0.804000 0.790000
vt 0.782000 0.833000
vt 0.761000 0.833000
vt 0.778000 0.833000
vt 0.784000 0.851000
vt 0.802000 0.858000
vt 0.819000 0.815000
vt 0.786000 0.847000
vt 0.772000 0.862000
vt 0.817000 0.821000
vt 0.831000 0.806000
vt 0.800000 0.854000
vt 0.800000 0.874000
vt 0.647000 0.702000
vt 0.702000 0.694000
vt 0.702000 0.702000
vt 0.821000 0.835000
vt 0.841000 0.835000
vt 0.815000 0.849000
vt 0.827000 0.864000
vt 0.819000 0.851000
vt 0.827000 0.833000
vt 0.784000 0.714000
vt 0.802000 0.690000
vt 0.769000 0.690000
vt 0.759000 0.720000
vt 0.696000 0.800000
vt 0.696000 0.874000
vt 0.749000 0.853000
vt 0.769000 0.800000
vt 0.749000 0.747000
vt 0.696000 0.724000
vt 0.644000 0.747000
vt 0.622000 0.800000
vt 0.644000 0.853000
vt 0.702000 0.722000
vt 0.812000 0.720000
vt 0.784000 0.741000
vt 0.675000 0.722000
vt 0.729000 0.722000
vt 0.675000 0.694000
vt 0.729000 0.694000
vt 0.583000 0.747000
vt 0.603000 0.800000
vt 0.530000 0.800000
vt 0.583000 0.853000
vt 0.530000 0.874000
vt 0.530000 0.724000
vt 0.478000 0.747000
vt 0.456000 0.800000
vt 0.478000 0.853000
vt 0.352000 0.816000
vt 0.329000 0.814000
vt 0.354000 0.650000
vt 0.332000 0.648000
vt 0.032000 0.811000
vt 0.281000 0.811000
vt 0.032000 0.626000
vt 0.281000 0.626000
vt 0.032000 0.905000
vt 0.032000 0.937000
vt 0.251000 0.905000
vt 0.251000 0.937000
vt 0.002000 0.629000
vt 0.002000 0.840000
vt 0.031000 0.634000
vt 0.031000 0.835000
vt 0.007000 0.815000
vt 0.310000 0.815000
vt 0.007000 0.849000
vt 0.310000 0.849000
vt 0.303000 0.815000
vt 0.296000 0.842000
vt 0.014000 0.842000
vt 0.312000 0.849000
vt 0.007000 0.813000
vt 0.312000 0.813000
vt 0.309000 0.846000
vt 0.309000 0.871000
vt 0.130000 0.846000
vt 0.130000 0.871000
vt 0.406000 0.842000
vt 0.390000 0.826000
vt 0.406000 0.820000
vt 0.029000 0.947000
vt 0.001000 0.964000
vt 0.001000 0.880000
vt 0.029000 0.900000
vt 0.317000 0.947000
vt 0.343000 0.964000
vt 0.003000 0.964000
vt 0.027000 0.947000
vt 0.027000 0.900000
vt 0.003000 0.880000
vt 0.343000 0.880000
vt 0.317000 0.900000
vt 0.383000 0.842000
vt 0.422000 0.826000
vt 0.390000 0.857000
vt 0.406000 0.864000
vt 0.429000 0.842000
vt 0.422000 0.857000
vt 0.005000 0.845000
vt 0.005000 0.872000
vt 0.279000 0.845000
vt 0.279000 0.872000
vt 0.683000 0.877000
vt 0.346000 0.877000
vt 0.683000 0.967000
vt 0.346000 0.967000
vt 0.002000 0.843000
vt 0.310000 0.843000
vt 0.002000 0.813000
vt 0.310000 0.813000
vt 0.999000 0.999000
vt 0.376000 0.999000
vt 0.999000 0.987000
vt 0.376000 0.987000
vt 0.985000 0.999000
vt 0.985000 0.987000
vt 0.624000 0.313000
vt 0.470000 0.313000
vt 0.624000 0.157000
vt 0.470000 0.157000
vt 0.313000 0.313000
vt 0.313000 0.157000
vt 0.624000 0.470000
vt 0.470000 0.470000
vt 0.157000 0.157000
vt 0.157000 0.001000
vt 0.157000 0.313000
vt 0.157000 0.470000
vt 0.313000 0.001000
vt 0.466000 0.157000
vt 0.624000 0.001000
vt 0.466000 0.001000
vt 0.313000 0.470000
vt 0.782000 0.001000
vt 0.937000 0.001000
vt 0.782000 0.153000
vt 0.937000 0.153000
vt 0.470000 0.001000
vt 0.313000 0.622000
vt 0.157000 0.622000
vt 0.001000 0.622000
vt 0.376000 0.972000
vt 0.999000 0.972000
vt 0.312000 0.313000
vt 0.312000 0.157000
vt 0.312000 0.470000
vt 0.312000 0.001000
vt 0.782000 0.466000
vt 0.937000 0.466000
vt 0.782000 0.624000
vt 0.937000 0.624000
vt 0.782000 0.310000
vt 0.937000 0.310000
vt 0.618000 0.313000
vt 0.618000 0.470000
vt 0.464000 0.001000
s 1
usemtl RefRep.19_SH_initial_loader.002
f 1/1/1 7/2/1 2/3/1
f 2/3/1 7/2/1 3/4/1
f 2/3/1 3/4/1 8/5/1
f 8/5/1 3/4/1 4/6/1
f 256/7/1 5/8/1 261/9/1
f 261/9/1 5/8/1 9/10/1
f 237/11/1 6/12/1 1/1/1
f 1/1/1 6/12/1 7/2/1
f 13/13/1 237/11/1 5/8/1
f 5/8/1 237/11/1 1/1/1
f 5/8/1 1/1/1 9/10/1
f 9/10/1 1/1/1 2/3/1
f 9/10/1 2/3/1 11/14/1
f 11/14/1 2/3/1 8/5/1
f 261/10/1 9/3/1 10/14/1
f 10/14/1 9/3/1 11/5/1
f 12/15/1 13/13/1 256/7/1
f 256/7/1 13/13/1 5/8/1
f 32/16/2 49/17/3 69/18/4
f 69/18/4 49/17/3 14/19/5
f 49/17/3 48/16/6 14/19/5
f 14/19/5 48/16/6 70/18/7
f 19/20/8 16/21/9 20/22/10
f 20/22/10 16/21/9 15/23/11
f 16/20/9 18/21/12 15/22/11
f 15/22/11 18/21/12 17/23/13
f 18/20/12 19/21/8 17/22/13
f 17/22/13 19/21/8 20/23/10
f 68/24/14 65/25/15 63/26/16
f 63/26/16 65/25/15 66/27/17
f 63/26/16 66/27/17 21/28/18
f 40/29/19 22/30/20 23/31/21
f 23/32/21 22/33/20 27/34/22
f 27/34/22 22/33/20 24/35/23
f 25/36/24 23/32/21 26/37/25
f 26/37/25 23/32/21 27/34/22
f 23/31/21 25/38/24 40/29/19
f 40/29/19 25/38/24 30/39/26
f 40/29/19 30/39/26 39/40/27
f 40/29/19 28/41/28 22/30/20
f 30/42/26 25/36/24 31/43/29
f 31/43/29 25/36/24 26/37/25
f 22/33/20 28/44/28 24/35/23
f 24/35/23 28/44/28 29/45/30
f 39/46/27 30/42/26 42/47/31
f 42/47/31 30/42/26 31/43/29
f 51/16/32 50/17/33 72/18/34
f 72/18/34 50/17/33 71/19/35
f 50/17/33 32/16/2 71/19/35
f 71/19/35 32/16/2 69/18/4
f 33/19/36 35/48/37 45/49/38
f 45/49/38 35/48/37 46/50/39
f 34/49/40 67/50/41 33/19/36
f 33/19/36 67/50/41 35/48/37
f 28/44/28 36/51/42 29/45/30
f 29/45/30 36/51/42 37/52/43
f 36/51/42 41/53/44 37/52/43
f 37/52/43 41/53/44 38/54/45
f 39/40/27 41/55/44 40/29/19
f 40/29/19 41/55/44 36/56/42
f 40/29/19 36/56/42 28/41/28
f 38/54/45 41/53/44 39/46/27
f 38/54/45 39/46/27 42/47/31
f 59/57/19 56/58/46 57/59/47
f 59/57/19 57/59/47 60/60/48
f 64/48/49 67/50/41 34/49/40
f 64/48/49 34/49/40 43/19/50
f 44/50/51 64/48/49 43/19/50
f 44/50/51 43/19/50 62/49/52
f 44/50/51 62/49/52 45/19/38
f 44/50/51 45/19/38 46/48/39
f 54/61/19 47/62/53 48/63/6
f 54/61/19 48/63/6 49/64/3
f 54/61/19 49/64/3 32/65/2
f 54/61/19 32/65/2 50/66/33
f 54/61/19 50/66/33 51/67/32
f 54/61/19 51/67/32 52/68/54
f 70/18/7 48/16/6 47/17/53
f 70/18/7 47/17/53 73/19/55
f 54/61/19 53/69/56 47/62/53
f 47/17/53 53/16/56 73/19/55
f 73/19/55 53/16/56 75/18/57
f 52/68/54 53/69/56 54/61/19
f 75/18/57 53/16/56 52/17/54
f 75/18/57 52/17/54 55/19/58
f 55/19/58 52/17/54 51/16/32
f 55/19/58 51/16/32 72/18/34
f 34/49/40 57/70/47 56/17/46
f 34/49/40 56/17/46 43/19/50
f 33/49/36 60/70/48 57/17/47
f 33/49/36 57/17/47 34/19/40
f 59/57/19 58/71/59 56/58/46
f 61/70/39 60/17/48 45/49/38
f 45/49/38 60/17/48 33/19/36
f 60/60/48 61/72/39 59/57/19
f 59/57/19 61/72/39 58/71/59
f 56/70/46 58/17/59 43/49/50
f 43/49/50 58/17/59 62/19/52
f 58/70/59 61/17/39 62/49/52
f 62/49/52 61/17/39 45/19/38
f 46/73/39 35/74/37 21/75/18
f 21/75/18 35/74/37 63/76/16
f 35/74/37 67/73/41 63/76/16
f 63/76/16 67/73/41 68/75/14
f 64/74/49 44/73/51 65/76/15
f 65/76/15 44/73/51 66/75/17
f 44/17/51 46/70/39 66/19/17
f 66/19/17 46/70/39 21/49/18
f 67/73/41 64/74/49 68/75/14
f 68/75/14 64/74/49 65/76/15
f 69/77/4 14/78/5 74/79/1
f 74/79/1 14/78/5 70/80/7
f 74/79/1 70/80/7 73/81/55
f 74/79/1 71/82/35 69/77/4
f 72/83/34 71/82/35 74/79/1
f 74/79/1 55/84/58 72/83/34
f 75/85/57 55/84/58 74/79/1
f 74/79/1 73/81/55 75/85/57
f 76/86/60 160/87/61 77/88/62
f 77/88/62 160/87/61 78/89/63
f 81/86/64 82/87/65 87/88/66
f 87/88/66 82/87/65 155/89/67
f 79/86/68 80/87/69 81/88/64
f 81/88/64 80/87/69 82/89/65
f 107/86/70 150/87/71 108/88/72
f 108/88/72 150/87/71 83/89/73
f 93/86/74 153/87/75 107/88/70
f 107/88/70 153/87/75 150/89/71
f 84/86/76 85/87/77 93/88/74
f 93/88/74 85/87/77 153/89/75
f 86/86/78 87/87/66 84/88/76
f 84/88/76 87/87/66 85/89/77
f 88/86/79 89/87/80 158/88/81
f 158/88/81 89/87/80 90/89/82
f 158/86/81 90/87/82 91/88/83
f 91/88/83 90/87/82 86/89/78
f 91/86/83 86/87/78 92/88/84
f 92/88/84 86/87/78 84/89/76
f 92/86/84 84/87/76 126/88/85
f 126/88/85 84/87/76 93/89/74
f 106/90/86 94/91/87 104/92/88
f 104/92/88 94/91/87 95/93/89
f 121/94/90 119/95/91 140/96/92
f 140/96/92 119/95/91 96/97/93
f 97/98/19 98/99/94 103/100/95
f 103/100/95 98/99/94 105/101/96
f 90/86/82 81/87/64 86/88/78
f 86/88/78 81/87/64 87/89/66
f 99/102/97 100/103/98 101/104/99
f 101/104/99 100/103/98 102/105/100
f 98/103/94 99/102/97 105/105/96
f 105/105/96 99/102/97 101/104/99
f 103/106/95 105/102/96 95/107/89
f 95/107/89 105/102/96 104/108/88
f 105/105/96 101/104/99 104/103/88
f 104/103/88 101/104/99 106/102/86
f 101/104/99 102/109/100 106/110/86
f 106/110/86 102/109/100 94/111/87
f 160/86/61 107/87/70 78/88/63
f 78/88/63 107/87/70 108/89/72
f 123/98/101 109/99/102 110/100/103
f 110/100/103 109/99/102 111/101/102
f 112/112/104 114/113/105 130/114/106
f 130/114/106 114/113/105 113/115/107
f 114/112/105 116/113/108 113/114/107
f 113/114/107 116/113/108 115/115/109
f 137/116/11 116/117/108 114/118/105
f 118/96/110 117/94/111 121/95/90
f 118/96/110 121/95/90 140/97/92
f 141/96/112 139/94/113 117/95/111
f 141/96/112 117/95/111 118/97/110
f 119/119/91 99/120/97 120/121/114
f 119/119/91 120/121/114 139/122/113
f 121/123/90 100/124/98 99/125/97
f 121/123/90 99/125/97 119/126/91
f 139/127/113 120/128/114 124/129/115
f 139/127/113 124/129/115 117/130/111
f 117/130/111 124/129/115 100/124/98
f 117/130/111 100/124/98 121/123/90
f 122/100/116 120/98/114 123/99/101
f 122/100/116 123/99/101 110/101/103
f 125/99/117 124/101/115 120/100/114
f 125/99/117 120/100/114 122/98/116
f 160/88/61 126/86/85 93/87/74
f 160/88/61 93/87/74 107/89/70
f 116/117/108 137/116/11 127/131/118
f 116/112/108 127/113/118 115/114/109
f 115/114/109 127/113/118 128/115/119
f 137/116/11 114/118/105 112/132/104
f 127/131/118 137/116/11 131/133/120
f 127/112/118 131/113/120 128/114/119
f 128/114/119 131/113/120 129/115/121
f 134/112/122 112/113/104 136/114/123
f 136/114/123 112/113/104 130/115/106
f 137/116/11 132/134/124 131/133/120
f 129/114/121 131/112/120 132/113/124
f 129/114/121 132/113/124 133/115/125
f 134/135/122 137/116/11 112/132/104
f 137/116/11 138/136/126 132/134/124
f 133/114/125 132/112/124 138/113/126
f 133/114/125 138/113/126 135/115/127
f 135/114/127 138/112/126 134/113/122
f 135/114/127 134/113/122 136/115/123
f 138/136/126 137/116/11 134/135/122
f 119/94/91 139/95/113 96/96/93
f 96/96/93 139/95/113 141/97/112
f 89/86/80 79/87/68 90/88/82
f 90/88/82 79/87/68 81/89/64
f 140/137/92 96/138/93 118/139/110
f 118/139/110 96/138/93 141/140/112
f 99/141/97 98/142/94 120/143/114
f 120/143/114 98/142/94 123/144/101
f 154/86/128 142/87/129 152/88/130
f 152/88/130 142/87/129 185/89/131
f 143/86/132 189/87/133 154/88/128
f 154/88/128 189/87/133 142/89/129
f 155/86/67 188/87/134 143/88/132
f 143/88/132 188/87/134 189/89/133
f 191/86/135 156/87/136 144/88/137
f 144/88/137 156/87/136 157/89/138
f 144/86/137 157/87/138 194/88/139
f 194/88/139 157/87/138 159/89/140
f 194/86/139 159/87/140 146/88/141
f 146/88/141 159/87/140 145/89/142
f 146/86/141 145/87/142 147/88/143
f 147/88/143 145/87/142 148/89/144
f 147/86/143 148/87/144 149/88/145
f 149/88/145 148/87/144 76/89/60
f 149/86/145 76/87/60 198/88/146
f 198/88/146 76/87/60 77/89/62
f 82/86/65 199/87/147 155/88/67
f 155/88/67 199/87/147 188/89/134
f 80/86/69 200/87/148 82/88/65
f 82/88/65 200/87/148 199/89/147
f 150/86/71 152/87/130 83/88/73
f 83/88/73 152/87/130 151/89/149
f 153/86/75 154/87/128 150/88/71
f 150/88/71 154/87/128 152/89/130
f 85/86/77 143/87/132 153/88/75
f 153/88/75 143/87/132 154/89/128
f 87/86/66 155/87/67 85/88/77
f 85/88/77 155/87/67 143/89/132
f 156/86/136 88/87/79 157/88/138
f 157/88/138 88/87/79 158/89/81
f 157/86/138 158/87/81 159/88/140
f 159/88/140 158/87/81 91/89/83
f 159/86/140 91/87/83 145/88/142
f 145/88/142 91/87/83 92/89/84
f 145/86/142 92/87/84 148/88/144
f 148/88/144 92/87/84 126/89/85
f 148/86/144 126/87/85 76/88/60
f 76/88/60 126/87/85 160/89/61
f 161/145/150 162/146/150 163/147/150
f 163/147/150 162/146/150 164/148/150
f 165/145/150 166/146/150 167/147/150
f 167/147/150 166/146/150 168/148/150
f 169/145/151 170/146/151 171/147/151
f 171/147/151 170/146/151 172/148/151
f 173/145/150 174/146/150 175/147/150
f 175/147/150 174/146/150 176/148/150
f 177/145/151 178/146/151 179/147/151
f 179/147/151 178/146/151 180/148/151
f 181/145/150 182/146/150 183/147/150
f 183/147/150 182/146/150 184/148/150
f 185/86/131 197/87/152 186/88/153
f 186/88/153 197/87/152 187/89/154
f 142/86/129 196/87/155 185/88/131
f 185/88/131 196/87/155 197/89/152
f 189/86/133 195/87/156 142/88/129
f 142/88/129 195/87/156 196/89/155
f 188/86/134 193/87/157 189/88/133
f 189/88/133 193/87/157 195/89/156
f 190/86/158 191/87/135 192/88/159
f 192/88/159 191/87/135 144/89/137
f 192/86/159 144/87/137 193/88/157
f 193/88/157 144/87/137 194/89/139
f 193/86/157 194/87/139 195/88/156
f 195/88/156 194/87/139 146/89/141
f 195/86/156 146/87/141 196/88/155
f 196/88/155 146/87/141 147/89/143
f 196/86/155 147/87/143 197/88/152
f 197/88/152 147/87/143 149/89/145
f 197/86/152 149/87/145 187/88/154
f 187/88/154 149/87/145 198/89/146
f 199/86/147 192/87/159 188/88/134
f 188/88/134 192/87/159 193/89/157
f 200/86/148 190/87/158 199/88/147
f 199/88/147 190/87/158 192/89/159
f 152/86/130 185/87/131 151/88/149
f 151/88/149 185/87/131 186/89/153
f 201/149/160 202/150/161 228/151/162
f 228/151/162 202/150/161 227/152/163
f 203/149/164 204/150/165 206/151/166
f 206/151/166 204/150/165 205/152/167
f 202/153/161 203/149/164 227/154/163
f 227/154/163 203/149/164 206/151/166
f 240/155/1 208/156/1 243/157/1
f 243/157/1 208/156/1 222/158/1
f 207/156/1 208/159/1 209/158/1
f 209/158/1 208/159/1 219/160/1
f 238/155/1 12/161/1 219/156/1
f 219/156/1 12/161/1 210/162/1
f 223/163/1 211/4/1 217/164/1
f 217/164/1 211/4/1 212/6/1
f 211/4/1 223/163/1 213/2/1
f 213/2/1 223/163/1 214/165/1
f 213/2/1 214/165/1 215/12/1
f 215/12/1 214/165/1 224/166/1
f 216/160/1 223/163/1 220/167/1
f 220/167/1 223/163/1 217/164/1
f 216/160/1 222/158/1 207/159/1
f 207/159/1 222/158/1 208/156/1
f 243/157/1 222/168/1 218/169/1
f 218/169/1 222/168/1 221/170/1
f 219/171/1 208/159/1 238/162/1
f 238/162/1 208/159/1 240/156/1
f 209/172/1 219/173/1 255/174/1
f 255/174/1 219/173/1 210/175/1
f 220/167/1 221/176/1 216/160/1
f 216/160/1 221/176/1 222/158/1
f 255/177/1 225/178/1 209/171/1
f 209/171/1 225/178/1 224/166/1
f 209/171/1 224/166/1 207/159/1
f 207/159/1 224/166/1 214/165/1
f 207/159/1 214/165/1 216/160/1
f 216/160/1 214/165/1 223/163/1
f 224/166/1 225/178/1 215/12/1
f 215/12/1 225/178/1 226/179/1
f 206/152/166 205/151/167 227/180/163
f 227/180/163 205/151/167 228/181/162
f 234/149/166 235/150/167 229/151/163
f 229/151/163 235/150/167 230/152/162
f 231/153/168 232/149/169 229/154/163
f 229/154/163 232/149/169 234/151/166
f 232/149/169 233/150/165 234/151/166
f 234/151/166 233/150/165 235/152/167
f 236/149/160 231/150/168 230/151/162
f 230/151/162 231/150/168 229/152/163
f 239/182/1 249/183/1 241/1/1
f 241/1/1 249/183/1 250/3/1
f 239/182/1 13/184/1 238/156/1
f 238/156/1 13/184/1 12/162/1
f 242/2/1 6/12/1 241/1/1
f 241/1/1 6/12/1 237/11/1
f 241/1/1 237/11/1 239/182/1
f 239/182/1 237/11/1 13/184/1
f 238/156/1 240/158/1 239/182/1
f 239/182/1 240/158/1 249/183/1
f 243/157/1 244/158/1 240/155/1
f 240/155/1 244/158/1 249/156/1
f 241/1/1 250/3/1 242/2/1
f 242/2/1 250/3/1 246/4/1
f 218/170/1 248/185/1 243/168/1
f 243/168/1 248/185/1 244/183/1
f 245/1/1 251/2/1 250/3/1
f 250/3/1 251/2/1 246/4/1
f 245/3/1 244/183/1 247/5/1
f 247/5/1 244/183/1 248/185/1
f 244/183/1 245/3/1 249/182/1
f 249/182/1 245/3/1 250/1/1
f 251/4/1 245/3/1 252/6/1
f 252/6/1 245/3/1 247/5/1
f 253/186/1 258/187/1 254/188/1
f 254/188/1 258/187/1 260/189/1
f 255/174/1 210/175/1 257/190/1
f 257/190/1 210/175/1 259/191/1
f 256/192/1 259/7/1 12/193/1
f 12/193/1 259/7/1 210/15/1
f 257/186/1 259/187/1 253/190/1
f 253/190/1 259/187/1 258/191/1
f 261/9/1 258/10/1 256/7/1
f 256/7/1 258/10/1 259/8/1
f 10/194/1 260/14/1 261/9/1
f 261/9/1 260/14/1 258/10/1
