# Blender 5.1.1
# www.blender.org
mtllib Heather_HAIR.mtl
o Heather_HAIR
v -11.158234 12.313299 15.488196
v -10.979765 12.372561 15.414009
v -11.143830 12.271647 15.489732
v -11.007726 12.414371 15.404216
v -11.313995 12.271454 15.589959
v -11.314896 12.238878 15.580920
v -11.301127 12.281108 15.612487
v -11.148767 12.325010 15.524705
v -11.000398 12.430979 15.451717
v -9.882690 12.278711 15.070747
v -10.031993 12.280531 15.071694
v -10.080668 12.400110 15.088511
v -9.842409 12.102171 15.105798
v -9.782558 12.198569 15.190112
v -9.740102 12.010286 15.241142
v -9.846653 12.354739 15.177525
v -9.957932 12.119785 15.078392
v -9.854882 11.943901 15.130198
v -9.822805 11.822297 15.191955
v -9.728052 11.873422 15.285764
v -9.805056 11.680549 15.271475
v -9.738351 11.724236 15.353335
v -10.034631 11.505233 16.254190
v -9.995468 11.701244 16.287930
v -10.097388 11.633564 16.323141
v -9.927956 11.583333 16.196009
v -10.030632 11.406226 16.117220
v -9.908035 11.518847 16.058868
v -9.812954 11.663796 15.994500
v -9.835132 11.706151 16.152899
v -9.748399 11.834723 15.945006
v -9.764810 11.859703 16.117447
v -9.875790 11.906590 16.216597
v -9.918024 11.796397 16.259090
v -10.280988 11.422849 16.362667
v -10.473031 11.541764 16.446692
v -10.437161 11.416447 16.382252
v -10.285799 11.536892 16.441214
v -10.207897 11.467556 16.289778
v -10.193318 11.560014 16.343500
v -10.436031 11.726777 16.492615
v -10.233809 11.705250 16.486128
v -10.349891 11.905913 16.497782
v -10.142535 11.886245 16.471193
v -10.037966 11.872432 16.372505
v -10.133128 11.662537 16.353846
v -10.013490 11.841241 16.223564
v -10.441809 11.868987 16.621666
v -10.294804 11.961740 16.533890
v -10.401320 12.013631 16.593172
v -10.386766 11.839499 16.553246
v -10.431652 11.692289 16.587103
v -10.436481 11.724602 16.662340
v -10.420484 11.588710 16.625505
v -10.387234 11.628051 16.692642
v -10.743504 11.487169 16.502846
v -10.781531 11.726162 16.433504
v -10.914793 11.638089 16.440901
v -10.581975 11.576426 16.468277
v -10.689767 11.854754 16.464071
v -10.466562 11.733160 16.466610
v -10.604774 12.092916 16.515640
v -10.384283 11.924860 16.490345
v -10.806045 11.760799 16.542767
v -10.848131 11.941936 16.535374
v -10.907467 11.724599 16.402399
v -10.609495 11.803638 16.543760
v -10.641771 11.949884 16.537760
v -10.821438 12.131777 16.518393
v -10.605408 12.093026 16.515463
v -10.922902 12.150323 16.387524
v -10.954184 11.933825 16.400465
v -10.953686 12.067810 16.457134
v -11.061603 11.950085 16.568035
v -10.949002 12.024895 16.547670
v -11.084208 11.996011 16.459711
v -11.120480 11.820664 16.508656
v -10.923447 12.150441 16.386684
v -11.072309 12.062735 16.400320
v -11.037844 12.186617 16.354368
v -11.133130 11.994020 16.246784
v -11.075681 12.157396 16.168076
v -11.138247 11.868853 16.362427
v -11.101608 11.818528 16.171495
v -11.156327 11.670398 16.047052
v -11.042324 11.698647 16.183199
v -11.218693 11.803259 16.020792
v -11.132934 11.623453 15.864697
v -11.115486 11.971754 16.170048
v -11.231446 11.978531 16.014381
v -11.175874 12.150920 15.822968
v -11.185372 12.179445 16.005011
v -11.168216 11.762163 15.858331
v -11.181151 11.963993 15.844352
v -11.341434 11.993855 15.769652
v -11.263152 12.030296 15.896029
v -11.296791 11.941299 15.831208
v -11.330184 12.077557 15.866290
v -11.226830 12.135410 15.919356
v -11.294159 12.163383 15.929541
v -11.182582 12.245073 15.904134
v -11.226756 12.263165 15.975461
v -11.129802 12.346716 15.876963
v -11.157350 12.356614 15.973156
v -11.198364 11.780299 15.358226
v -11.017132 11.814261 15.282604
v -11.076005 11.666846 15.242831
v -11.078234 11.837782 15.361177
v -10.832952 11.803998 15.240198
v -10.872940 12.063764 15.231781
v -10.764313 11.987945 15.211042
v -10.923072 11.897313 15.252510
v -10.935487 11.714511 15.250589
v -10.978090 11.941899 15.350133
v -10.909338 12.077380 15.349042
v -10.297460 12.290352 15.021996
v -10.274673 12.503673 15.077956
v -10.224509 12.381107 15.095503
v -10.365944 12.358581 15.020288
v -10.417641 12.241750 15.020573
v -10.346252 12.191463 14.996289
v -10.390276 12.088323 15.002725
v -10.431480 12.069374 15.067419
v -10.402652 11.938390 15.099779
v -10.375386 11.920320 15.042350
v -10.390201 11.799535 15.108694
v -10.404552 11.807245 15.052706
v -10.433452 11.700541 15.101847
v -10.429963 11.734330 15.048817
v -10.531761 11.626001 15.075309
v -10.518551 11.695572 15.025034
v -10.126632 12.613706 15.097184
v -10.256291 12.748990 15.249211
v -10.117962 12.762413 15.288154
v -10.261271 12.593206 15.079906
v -10.243844 12.387479 14.994736
v -10.110661 12.411305 14.999505
v -10.186728 12.162773 14.996767
v -10.052838 12.191169 15.003058
v -10.093576 11.935794 15.069967
v -9.978804 11.968942 15.087938
v -11.037949 11.653949 16.133202
v -11.131021 11.479499 15.928644
v -11.083419 11.502683 16.143700
v -11.077330 11.656051 15.922731
v -11.015594 11.818460 16.130383
v -11.060341 11.818925 15.917269
v -11.060675 11.818957 15.917924
v -11.012569 11.775850 15.711044
v -11.077752 11.656090 15.923619
v -10.999604 11.622840 15.727306
v -11.131448 11.479534 15.929662
v -11.044345 11.427322 15.734227
v -10.892742 11.749339 15.540460
v -11.045979 11.603019 15.724221
v -10.889358 11.599399 15.528463
v -11.069463 11.469828 15.663322
v -10.883836 11.504894 15.503267
v -11.071160 11.374434 15.533583
v -10.882545 11.408649 15.423377
v -10.928118 11.645622 16.279377
v -10.761724 11.755282 16.372971
v -10.903891 11.802338 16.280493
v -10.783216 11.615018 16.359631
v -10.827181 11.461584 16.376385
v -10.976358 11.487975 16.288170
v -10.760024 11.754969 16.373980
v -10.618128 11.557425 16.354918
v -10.591118 11.722130 16.369490
v -10.781893 11.614774 16.360413
v -10.676985 11.400053 16.381517
v -10.825150 11.461206 16.377653
v -10.991880 11.501387 16.286911
v -11.037987 11.653969 16.132809
v -11.110006 11.501347 16.161341
v -10.928350 11.645674 16.279022
v -11.015620 11.818478 16.130001
v -10.903858 11.802331 16.280544
v -10.311184 11.269248 16.177729
v -10.402135 11.501480 16.266985
v -10.445160 11.311060 16.330851
v -10.261057 11.448832 16.122091
v -10.343666 11.664287 16.282871
v -10.215730 11.608070 16.143801
v -10.402317 11.501506 16.267105
v -10.678527 11.371240 16.406946
v -10.445700 11.311139 16.331110
v -10.618517 11.557489 16.354895
v -10.591606 11.722211 16.369455
v -10.344031 11.664338 16.283125
v -10.038692 11.300981 16.024755
v -10.157960 11.449406 16.224836
v -10.133456 11.277679 16.191320
v -10.054119 11.456093 16.062836
v -9.998438 11.367815 15.882149
v -10.015152 11.489030 15.923186
v -11.080562 11.680274 15.412997
v -10.945606 11.637472 15.339820
v -11.062170 11.579013 15.351395
v -11.152513 11.636158 15.520170
v -11.127671 11.519808 15.419824
v -9.696049 11.616769 15.666084
v -9.658623 11.863774 15.655545
v -9.646040 11.784088 15.737871
v -9.719001 11.699058 15.514741
v -10.643622 12.639679 15.194669
v -10.439725 12.722815 15.128218
v -10.546106 12.570463 15.088984
v -10.548084 12.795249 15.226297
v -10.328457 12.808798 15.197036
v -10.412905 12.893211 15.305506
v -10.215594 12.822458 15.272501
v -10.294388 12.905509 15.385636
v -10.108035 12.764970 15.352912
v -10.195665 12.840977 15.457792
v -9.604403 12.423202 15.882652
v -9.792082 12.713929 16.057589
v -9.697903 12.396333 16.078859
v -9.683441 12.702237 15.848943
v -9.927692 12.899321 15.973483
v -9.821573 12.885489 15.763929
v -10.057374 12.969731 15.876508
v -9.955663 12.967221 15.667376
v -10.180079 12.966519 15.780201
v -10.085028 12.966599 15.592586
v -10.289854 12.925348 15.704658
v -10.233248 12.876986 15.550010
v -10.156281 11.846966 16.631071
v -10.060380 12.005110 16.520664
v -10.161580 11.893915 16.691288
v -10.044892 11.966129 16.460573
v -9.971663 12.158078 16.402092
v -9.955123 12.142435 16.325516
v -10.102702 12.017700 16.508251
v -10.199162 11.905026 16.668091
v -10.017750 12.177559 16.373451
v -10.010446 11.641937 16.080883
v -10.013225 11.841210 16.223166
v -9.882541 11.841329 16.066748
v -10.103982 11.649837 16.239044
v -9.967614 11.621533 15.931208
v -9.869848 11.828735 15.914669
v -10.963958 11.722984 15.387469
v -11.072562 11.868763 15.458470
v -10.947229 11.891023 15.409628
v -11.152550 11.841165 15.576363
v -11.090428 12.072608 15.594819
v -11.037977 12.090802 15.427048
v -10.912825 12.077775 15.350112
v -10.713778 11.718355 15.333448
v -10.915327 11.599385 15.403944
v -10.904104 11.749866 15.429615
v -10.725628 11.619037 15.337526
v -9.644614 12.118021 15.333489
v -9.690505 12.333270 15.267754
v -9.675263 12.179887 15.487562
v -9.668160 11.985103 15.575727
v -9.651844 11.910834 15.436094
v -9.749879 11.861337 15.356460
v -9.779602 12.107664 15.243981
v -9.846207 12.354645 15.178156
v -10.668406 11.770547 15.123237
v -10.672972 11.970601 15.113178
v -10.778180 11.775973 15.225679
v -10.745031 11.582037 15.244576
v -10.617461 11.607364 15.140680
v -10.672997 11.451769 15.244803
v -10.531366 11.477610 15.164252
v -10.501393 11.943843 15.128391
v -10.448224 12.127710 15.132391
v -10.518331 11.763965 15.127701
v -10.481482 11.619517 15.140575
v -10.416817 11.502742 15.154968
v -10.910181 11.492137 15.338786
v -10.724825 11.535109 15.304748
v -10.900918 11.415525 15.220410
v -10.708445 11.490813 15.218542
v -9.675974 12.289047 15.441504
v -9.714946 11.625162 15.790044
v -9.743627 11.670481 15.674599
v -9.697901 11.804564 15.662079
v -9.813305 11.525549 15.621799
v -9.791795 11.483811 15.713531
v -9.660304 11.782317 15.790277
v -9.661505 11.940996 15.618352
v -9.755421 11.819716 15.918917
v -9.797279 11.630770 15.907041
v -9.848058 11.447964 15.836785
v -11.264152 11.905615 15.864647
v -11.393332 11.836825 15.831737
v -11.319328 11.839485 15.904917
v -11.315755 11.877618 15.771927
v -11.361985 11.746564 15.729810
v -11.242696 11.969954 15.850859
v -11.264043 11.961906 15.735893
v -11.201903 12.130434 15.702229
v -11.092145 12.072850 15.595922
v -11.194984 11.890111 15.645071
v -11.275212 11.793707 15.678863
v -9.853899 11.880476 15.430484
v -9.841940 11.892504 15.401380
v -9.797635 11.907529 15.414989
v -9.817102 11.892034 15.438739
v -9.755584 11.910222 15.441815
v -9.876945 11.878184 15.400818
v -9.888014 11.867490 15.425345
v -9.894410 11.869144 15.447159
v -9.863371 11.884872 15.448853
v -9.828976 11.894603 15.457883
v -9.782102 11.894206 15.462396
v -9.760575 11.884438 15.497273
v -9.728433 11.899937 15.480695
v -9.751889 11.871285 15.532642
v -9.718765 11.880624 15.526119
v -9.718461 11.860638 15.567897
v -9.752348 11.859241 15.563330
v -9.731549 11.846516 15.598586
v -9.760469 11.847118 15.591126
v -9.780031 11.870457 15.563338
v -9.786405 11.862941 15.587779
v -9.776902 11.876277 15.538346
v -9.782916 11.887482 15.508603
v -9.803276 11.895530 15.480626
v -10.128634 11.974886 15.076396
v -10.090751 11.972997 15.103437
v -10.150577 11.957448 15.104239
v -10.185899 11.952544 15.094656
v -10.174652 11.966014 15.064863
v -10.216632 11.946171 15.094481
v -10.218513 11.954303 15.061672
v -10.086394 11.904668 15.224762
v -10.108497 11.909248 15.231149
v -10.106555 11.930419 15.203580
v -10.088014 11.924346 15.193810
v -10.059498 11.912407 15.215961
v -10.056322 11.932691 15.184308
v -10.066200 11.957853 15.143465
v -10.093519 11.943817 15.159634
v -10.116352 11.956790 15.125668
v -10.163086 11.958646 15.125898
v -10.192948 11.954143 15.119320
v -10.217852 11.952407 15.122173
v -10.243488 11.948479 15.127503
v -10.247341 11.938256 15.099907
v -10.252386 11.944048 15.072012
v -10.113181 11.947823 15.171482
v -10.134997 11.957634 15.146623
vn -0.5506 0.4293 -0.7159
vn -0.2951 -0.2653 -0.9179
vn -0.4529 -0.0373 -0.8908
vn -0.6653 0.5333 -0.5225
vn -0.5319 0.3984 -0.7472
vn -0.4922 0.2453 -0.8352
vn -0.3690 0.9100 -0.1892
vn -0.5338 0.8306 -0.1587
vn -0.6266 0.7607 -0.1693
vn 0.3066 0.0209 -0.9516
vn -0.0057 0.0478 -0.9988
vn -0.0046 0.1374 -0.9905
vn 0.6344 -0.0198 -0.7728
vn 0.7414 0.1181 -0.6606
vn 0.7531 -0.1096 -0.6487
vn 0.7173 0.0866 -0.6913
vn 0.1358 -0.1189 -0.9836
vn 0.5794 -0.1641 -0.7983
vn 0.7381 -0.1829 -0.6494
vn 0.7679 -0.2315 -0.5973
vn 0.7807 -0.2699 -0.5636
vn 0.8119 -0.2865 -0.5087
vn 0.5959 -0.3717 0.7118
vn 0.5795 -0.2491 0.7759
vn 0.4549 -0.2386 0.8580
vn 0.7409 -0.4466 0.5016
vn 0.6963 -0.5873 0.4126
vn 0.7893 -0.5035 0.3514
vn 0.8717 -0.4138 0.2625
vn 0.8026 -0.2817 0.5258
vn 0.9242 -0.3391 0.1758
vn 0.8311 -0.2681 0.4873
vn 0.7044 -0.0812 0.7051
vn 0.7026 -0.1683 0.6914
vn 0.3200 -0.4823 0.8154
vn 0.0544 -0.4173 0.9071
vn 0.1298 -0.4238 0.8964
vn 0.4051 -0.4083 0.8180
vn 0.7324 -0.3923 0.5565
vn 0.6869 -0.4185 0.5941
vn 0.0175 -0.1841 0.9827
vn 0.4412 -0.2690 0.8561
vn 0.0777 -0.0129 0.9969
vn 0.4084 -0.1317 0.9033
vn 0.7570 -0.3607 0.5449
vn 0.7510 -0.4179 0.5112
vn 0.8780 -0.4187 0.2320
vn 0.7955 -0.0996 0.5978
vn 0.5848 -0.1779 0.7914
vn 0.4977 0.0314 0.8668
vn 0.7063 -0.2334 0.6684
vn 0.9652 0.0289 0.2600
vn 0.9768 0.1369 -0.1647
vn 0.9443 0.1861 -0.2714
vn 0.8059 0.2414 -0.5406
vn -0.0352 0.2732 0.9613
vn -0.0985 0.1616 0.9819
vn -0.1182 0.2593 0.9585
vn -0.0620 0.0761 0.9952
vn -0.1114 -0.0777 0.9907
vn -0.0324 -0.0974 0.9947
vn -0.0458 -0.1521 0.9873
vn 0.0152 -0.1293 0.9915
vn -0.4438 -0.0667 0.8936
vn -0.5002 0.0249 0.8656
vn -0.7759 -0.1613 0.6099
vn -0.0131 0.0379 0.9992
vn 0.0037 0.0914 0.9958
vn -0.2707 0.1461 0.9515
vn 0.0392 0.1440 0.9888
vn -0.7749 0.1564 0.6124
vn -0.7859 -0.0088 0.6183
vn -0.3970 0.7396 0.5435
vn -0.6368 0.6588 0.4006
vn -0.4557 0.7950 0.4004
vn -0.8098 0.4609 0.3629
vn -0.9312 0.2631 0.2523
vn -0.2455 0.5415 0.8041
vn -0.5967 0.5385 0.5949
vn -0.7620 0.4233 0.4900
vn -0.9260 0.3254 0.1915
vn -0.8589 0.2637 0.4390
vn -0.9474 0.2443 0.2069
vn -0.7525 -0.1957 0.6288
vn -0.8335 -0.3330 0.4409
vn -0.7049 -0.2852 0.6494
vn -0.9495 -0.2011 0.2411
vn -0.9323 -0.3416 -0.1187
vn -0.7956 0.0252 0.6053
vn -0.8578 0.2628 0.4417
vn -0.9891 0.0633 0.1327
vn -0.9692 0.2451 -0.0230
vn -0.9397 0.2273 0.2555
vn -0.9553 -0.1376 -0.2617
vn -0.9590 -0.0429 -0.2800
vn 0.7599 0.3234 -0.5639
vn 0.6712 0.2401 -0.7014
vn 0.8374 0.0776 -0.5411
vn 0.4183 0.4108 -0.8101
vn 0.1309 0.1980 -0.9714
vn -0.2443 0.4216 -0.8733
vn -0.5717 0.3061 -0.7612
vn -0.7331 0.4983 -0.4630
vn -0.7988 0.4236 -0.4271
vn -0.7740 0.5679 -0.2801
vn -0.4011 0.6048 -0.6879
vn -0.4249 0.4412 -0.7904
vn -0.2306 0.3379 -0.9125
vn -0.4882 0.6550 -0.5767
vn -0.1801 -0.0362 -0.9830
vn -0.5194 0.0382 -0.8537
vn -0.5681 -0.0426 -0.8219
vn -0.5439 0.2040 -0.8140
vn -0.1610 0.1126 -0.9805
vn -0.6570 0.4623 -0.5955
vn -0.8380 0.3060 -0.4518
vn 0.3548 0.1781 -0.9178
vn 0.4374 0.1842 -0.8802
vn 0.6118 0.1389 -0.7787
vn 0.0603 0.1678 -0.9840
vn -0.4827 0.0307 -0.8753
vn -0.1189 0.1127 -0.9865
vn -0.7435 -0.1310 -0.6558
vn -0.7992 -0.1988 -0.5672
vn -0.8670 -0.2000 -0.4564
vn -0.9828 -0.0050 -0.1844
vn -0.9800 0.1902 0.0593
vn -0.9167 0.3194 0.2401
vn -0.8310 0.4776 0.2851
vn -0.7216 0.5533 0.4161
vn -0.5378 0.6406 0.5481
vn -0.4381 0.5797 0.6871
vn 0.0221 0.6001 -0.7996
vn 0.0359 0.7616 -0.6470
vn 0.0969 0.7831 -0.6142
vn 0.0175 0.5749 -0.8180
vn 0.0172 0.2784 -0.9603
vn 0.0131 0.1457 -0.9892
vn 0.0624 -0.0910 -0.9939
vn 0.1268 -0.1860 -0.9743
vn 0.1649 -0.2745 -0.9473
vn 0.2271 -0.2806 -0.9326
vn -0.9534 0.2413 0.1809
vn -0.9395 0.2925 0.1780
vn -0.9393 0.2946 0.1761
vn -0.9657 0.1788 0.1884
vn -0.9734 0.1225 0.1935
vn -0.9729 0.1083 0.2045
vn -0.9654 0.0927 -0.2438
vn -0.9154 0.0271 -0.4015
vn -0.9389 0.0784 -0.3351
vn -0.9100 0.1103 -0.3996
vn -0.8813 0.2210 -0.4178
vn -0.8782 0.1854 -0.4409
vn -0.7928 0.0701 -0.6054
vn -0.7759 0.1792 -0.6048
vn -0.9177 0.0345 -0.3958
vn -0.7291 0.1960 -0.6557
vn -0.6625 0.4210 -0.6196
vn -0.5888 0.4789 -0.6511
vn -0.5254 0.6187 -0.5841
vn -0.4931 0.5517 -0.6726
vn -0.4828 0.1210 0.8673
vn -0.5067 0.0336 0.8615
vn -0.5261 0.0753 0.8471
vn -0.4646 0.1057 0.8792
vn -0.4551 0.2069 0.8661
vn -0.4739 0.1929 0.8592
vn 0.0043 -0.0930 0.9957
vn 0.0292 -0.0166 0.9994
vn 0.0091 -0.0896 0.9959
vn 0.0341 0.0491 0.9982
vn 0.0497 0.1218 0.9913
vn 0.0180 0.1065 0.9941
vn -0.6995 0.3920 0.5975
vn -0.7359 0.3040 0.6050
vn -0.6588 0.4267 0.6196
vn -0.7795 0.1980 0.5943
vn -0.7914 0.1176 0.5999
vn -0.7912 0.1179 0.6000
vn 0.7387 0.0305 0.6734
vn 0.7127 -0.0785 0.6971
vn 0.7581 0.0469 0.6505
vn 0.6714 -0.1904 0.7162
vn 0.6375 -0.2887 0.7143
vn 0.6471 -0.2808 0.7088
vn 0.3507 0.0039 0.9365
vn 0.3779 0.1747 0.9092
vn 0.3537 0.2247 0.9080
vn 0.3749 -0.0060 0.9271
vn 0.3117 -0.1665 0.9355
vn 0.2824 -0.1935 0.9396
vn 0.8960 0.0006 0.4441
vn 0.8494 -0.0928 0.5195
vn 0.8673 0.0267 0.4972
vn 0.9106 -0.1233 0.3945
vn 0.9595 0.0320 0.2800
vn 0.9459 -0.1846 0.2669
vn -0.6150 0.2732 -0.7397
vn -0.3220 0.4282 -0.8443
vn -0.6853 0.3141 -0.6570
vn -0.8358 0.1934 -0.5139
vn -0.8031 0.2815 -0.5252
vn 0.9522 -0.1555 -0.2629
vn 0.9826 -0.1320 -0.1307
vn 0.9429 -0.1554 -0.2946
vn 0.9030 -0.3135 -0.2936
vn -0.4400 0.4654 -0.7680
vn -0.3448 0.5604 -0.7531
vn -0.4462 0.5023 -0.7407
vn -0.2389 0.6391 -0.7311
vn -0.0162 0.7802 -0.6253
vn 0.1074 0.8263 -0.5529
vn 0.3487 0.8525 -0.3894
vn 0.4747 0.8417 -0.2572
vn 0.5804 0.8022 -0.1400
vn 0.5897 0.8027 -0.0890
vn 0.8525 0.2877 0.4364
vn 0.8134 0.4167 0.4059
vn 0.8506 0.2820 0.4439
vn 0.7579 0.5447 0.3591
vn 0.6015 0.7554 0.2599
vn 0.5050 0.8361 0.2140
vn 0.2694 0.9572 0.1056
vn 0.1340 0.9893 0.0573
vn -0.0947 0.9942 -0.0515
vn -0.2256 0.9566 -0.1846
vn -0.3306 0.9039 -0.2713
vn -0.3868 0.8303 -0.4012
vn 0.8872 -0.2857 0.3623
vn 0.5956 0.3101 0.7410
vn 0.3812 0.6302 0.6764
vn 0.9038 -0.2541 0.3444
vn 0.7774 0.0671 0.6254
vn 0.9265 -0.2754 0.2564
vn -0.0114 0.7783 0.6278
vn -0.0851 0.8378 0.5392
vn -0.1006 0.6608 0.7438
vn 0.8446 -0.3511 0.4042
vn 0.7540 -0.3747 0.5396
vn 0.8249 -0.4522 0.3392
vn 0.8176 -0.2802 0.5030
vn 0.8747 -0.4216 0.2390
vn 0.9023 -0.4170 0.1098
vn -0.3360 0.2680 -0.9029
vn -0.6581 0.1522 -0.7374
vn -0.4251 -0.0290 -0.9047
vn -0.8373 0.1894 -0.5129
vn -0.8992 0.1861 -0.3960
vn -0.6674 -0.0503 -0.7430
vn -0.5289 -0.1677 -0.8320
vn -0.3760 0.0903 -0.9222
vn -0.3668 0.2234 -0.9031
vn -0.4191 0.1830 -0.8893
vn -0.3135 0.2867 -0.9053
vn 0.9256 -0.0800 -0.3701
vn 0.8706 -0.0109 -0.4919
vn 0.9930 0.1050 0.0546
vn 0.9913 0.0792 0.1049
vn 0.9477 -0.2101 -0.2404
vn 0.6470 -0.3587 -0.6728
vn 0.5309 -0.1763 -0.8289
vn 0.7167 0.0832 -0.6924
vn -0.3935 -0.1007 -0.9138
vn -0.5712 -0.0432 -0.8196
vn -0.2093 -0.0377 -0.9771
vn -0.6816 -0.0953 -0.7255
vn -0.6061 -0.2538 -0.7538
vn -0.2598 -0.2353 -0.9366
vn -0.4797 -0.3633 -0.7986
vn -0.1445 -0.2486 -0.9578
vn 0.0652 -0.0165 -0.9977
vn 0.0877 -0.0037 -0.9961
vn 0.0202 -0.0619 -0.9979
vn -0.0090 -0.1356 -0.9907
vn -0.0476 -0.1481 -0.9878
vn -0.2950 0.5571 -0.7763
vn -0.3014 0.6834 -0.6650
vn -0.3037 0.8056 -0.5087
vn -0.3235 0.8152 -0.4804
vn 0.9953 -0.0321 -0.0914
vn 0.9268 -0.3720 0.0511
vn 0.8835 -0.3178 -0.3443
vn 0.8864 -0.3267 -0.3279
vn 0.8900 -0.3023 -0.3414
vn 0.8717 -0.4629 0.1611
vn 0.9411 -0.3381 -0.0077
vn 0.8855 -0.3383 -0.3184
vn 0.7680 -0.2349 0.5958
vn 0.7916 -0.4030 0.4592
vn 0.8838 -0.3603 0.2986
vn -0.6547 0.6898 0.3092
vn -0.6320 0.7732 -0.0516
vn -0.5042 0.7153 0.4839
vn -0.7963 0.5482 -0.2556
vn -0.6512 0.4307 -0.6249
vn -0.8766 0.4329 0.2101
vn -0.9703 0.2409 -0.0221
vn -0.8685 0.3364 -0.3640
vn -0.9024 0.2648 -0.3400
vn -0.6812 0.1520 -0.7162
vn -0.6685 0.2451 -0.7022
vn -0.6871 0.3229 -0.6508
vn 0.3586 -0.9335 -0.0049
vn 0.3728 -0.9016 -0.2194
vn 0.3338 -0.8965 -0.2914
vn 0.2281 -0.9723 -0.0513
vn 0.2555 -0.8935 -0.3694
vn 0.3743 -0.9005 -0.2213
vn 0.3594 -0.9328 -0.0260
vn 0.3651 -0.8871 0.2823
vn 0.2742 -0.9019 0.3337
vn 0.0582 -0.9872 0.1485
vn 0.0186 -0.9889 -0.1472
vn -0.0065 -0.9452 -0.3266
vn 0.2079 -0.8923 -0.4007
vn -0.0281 -0.9312 -0.3634
vn 0.1681 -0.8912 -0.4214
vn 0.1144 -0.9127 -0.3923
vn -0.0875 -0.9143 -0.3955
vn 0.0844 -0.9203 -0.3819
vn -0.2381 -0.8781 -0.4150
vn -0.3465 -0.8678 -0.3561
vn -0.4493 -0.8143 -0.3676
vn -0.2546 -0.9273 -0.2743
vn -0.2202 -0.9561 -0.1933
vn -0.0997 -0.9941 -0.0438
vn 0.2366 -0.9020 -0.3611
vn 0.2017 -0.8862 -0.4171
vn 0.1483 -0.9763 -0.1578
vn 0.1822 -0.9770 -0.1107
vn 0.2392 -0.9228 -0.3020
vn 0.2308 -0.9729 -0.0151
vn 0.2286 -0.9428 -0.2426
vn -0.2543 -0.8002 -0.5432
vn -0.3237 -0.7393 -0.5905
vn -0.4190 -0.7874 -0.4521
vn -0.1064 -0.8534 -0.5102
vn 0.0641 -0.8417 -0.5361
vn 0.0618 -0.8431 -0.5342
vn 0.1284 -0.8581 -0.4971
vn -0.1160 -0.9066 -0.4058
vn -0.0353 -0.9798 -0.1969
vn 0.0183 -0.9980 0.0597
vn 0.1037 -0.9895 0.1002
vn 0.1576 -0.9709 0.1805
vn 0.2411 -0.9347 0.2613
vn 0.2469 -0.9674 -0.0572
vn 0.2150 -0.9478 -0.2357
vn -0.3090 -0.9210 -0.2374
vn -0.1381 -0.9869 -0.0832
vt 0.615337 2.636102
vt 0.553998 2.691176
vt 0.603413 2.621094
vt 0.569393 2.699449
vt 0.672433 2.571987
vt 0.662109 2.559710
vt 0.684989 2.585100
vt 0.626439 2.647204
vt 0.581473 2.707868
vt 0.284912 2.632812
vt 0.354688 2.641406
vt 0.354980 2.736572
vt 0.272656 2.534375
vt 0.211719 2.552344
vt 0.194661 2.479818
vt 0.224740 2.646354
vt 0.328552 2.537267
vt 0.295521 2.448712
vt 0.270507 2.379449
vt 0.176432 2.408203
vt 0.244530 2.310187
vt 0.157552 2.335286
vt 0.192148 2.043395
vt 0.181982 2.123027
vt 0.152044 2.086833
vt 0.230896 2.083009
vt 0.256612 2.003057
vt 0.299754 2.064189
vt 0.339583 2.124479
vt 0.260742 2.138997
vt 0.363932 2.200521
vt 0.285482 2.201497
vt 0.223633 2.208333
vt 0.200461 2.167581
vt 0.555076 2.293898
vt 0.469308 2.326451
vt 0.483005 2.267761
vt 0.541295 2.338170
vt 0.622887 2.319715
vt 0.609375 2.357813
vt 0.465402 2.390067
vt 0.537500 2.399219
vt 0.466974 2.451705
vt 0.546645 2.469669
vt 0.599609 2.478353
vt 0.607031 2.406250
vt 0.669643 2.483259
vt 0.419271 2.431858
vt 0.462674 2.495226
vt 0.423611 2.500434
vt 0.461372 2.430122
vt 0.460938 2.369531
vt 0.414844 2.371875
vt 0.456250 2.288281
vt 0.398438 2.291406
vt 0.327072 2.251824
vt 0.281966 2.342969
vt 0.242730 2.290121
vt 0.378906 2.310268
vt 0.310037 2.414380
vt 0.408482 2.383929
vt 0.325614 2.513951
vt 0.419085 2.489955
vt 0.484323 2.555040
vt 0.460449 2.614746
vt 0.406885 2.540857
vt 0.561704 2.582337
vt 0.537109 2.636230
vt 0.451172 2.702637
vt 0.528952 2.705423
vt 0.380859 2.700684
vt 0.387207 2.600586
vt 0.694824 2.939453
vt 0.700684 2.875000
vt 0.724121 2.919434
vt 0.663086 2.893066
vt 0.674316 2.823730
vt 0.681526 2.982307
vt 0.645833 2.924479
vt 0.635156 2.978125
vt 0.592285 2.895996
vt 0.580078 2.974254
vt 0.626953 2.848633
vt 0.596191 2.827148
vt 0.540527 2.759766
vt 0.614746 2.781250
vt 0.520996 2.802246
vt 0.478516 2.741699
vt 0.583008 2.886719
vt 0.504395 2.877930
vt 0.458984 2.966797
vt 0.504755 2.966882
vt 0.461426 2.795898
vt 0.452637 2.875488
vt 0.742188 2.618750
vt 0.693750 2.672656
vt 0.693750 2.621875
vt 0.743750 2.671094
vt 0.694531 2.724219
vt 0.745123 2.724544
vt 0.693537 2.775180
vt 0.745313 2.775781
vt 0.694010 2.832031
vt 0.743056 2.834201
vt 0.373996 2.763901
vt 0.297694 2.781295
vt 0.284871 2.727313
vt 0.346104 2.797190
vt 0.222034 2.807687
vt 0.261085 2.897058
vt 0.215896 2.885108
vt 0.266276 2.829580
vt 0.245116 2.756103
vt 0.321600 2.844613
vt 0.318493 2.900160
vt 0.772317 2.555943
vt 0.835156 2.642578
vt 0.772656 2.643359
vt 0.847224 2.559618
vt 0.848481 2.491313
vt 0.771337 2.482033
vt 0.772317 2.411116
vt 0.844711 2.415702
vt 0.843885 2.346315
vt 0.772317 2.346315
vt 0.844865 2.280547
vt 0.773298 2.280547
vt 0.844865 2.218647
vt 0.773298 2.216713
vt 0.842634 2.166853
vt 0.774554 2.166853
vt 0.861189 2.514071
vt 0.972220 2.631421
vt 0.865865 2.624153
vt 0.987175 2.531274
vt 0.991510 2.418892
vt 0.859825 2.403488
vt 0.984488 2.313510
vt 0.866718 2.294203
vt 0.971354 2.167969
vt 0.863142 2.164802
vt 0.395508 2.607422
vt 0.557813 2.557031
vt 0.406250 2.541992
vt 0.544531 2.624219
vt 0.388281 2.685677
vt 0.533548 2.704504
vt 0.330078 2.513393
vt 0.466146 2.463108
vt 0.290737 2.396205
vt 0.471540 2.362723
vt 0.244978 2.280134
vt 0.478795 2.263393
vt 0.603516 2.490234
vt 0.465625 2.397656
vt 0.591406 2.411719
vt 0.473437 2.330469
vt 0.609375 2.360937
vt 0.500977 2.273926
vt 0.635156 2.310156
vt 0.596094 2.829687
vt 0.466146 2.963542
vt 0.576302 2.970312
vt 0.461719 2.842969
vt 0.472656 2.734375
vt 0.612500 2.750000
vt 0.348958 2.871094
vt 0.341363 2.958984
vt 0.454688 2.876562
vt 0.376302 2.776042
vt 0.469531 2.782812
vt 0.615234 2.828613
vt 0.704948 2.927344
vt 0.740234 2.875000
vt 0.586914 2.901367
vt 0.685303 2.993164
vt 0.234375 2.728516
vt 0.336914 2.834961
vt 0.378906 2.764323
vt 0.217773 2.813477
vt 0.322428 2.904460
vt 0.212426 2.904762
vt 0.621094 2.334635
vt 0.777344 2.187500
vt 0.610352 2.214844
vt 0.759115 2.325521
vt 0.754427 2.403646
vt 0.638428 2.411377
vt 0.926339 2.656250
vt 0.812500 2.717969
vt 0.851563 2.634487
vt 0.903906 2.735156
vt 0.997656 2.681250
vt 0.982031 2.751562
vt 0.667959 2.242954
vt 0.580114 2.232446
vt 0.633354 2.196251
vt 0.726523 2.219602
vt 0.683931 2.168230
vt 0.110677 2.229167
vt 0.009115 2.350260
vt 0.002344 2.280469
vt 0.139323 2.304687
vt 0.984375 2.169271
vt 0.857525 2.286942
vt 0.856120 2.167969
vt 0.987328 2.289647
vt 0.857525 2.398243
vt 0.987328 2.398243
vt 0.855902 2.511436
vt 0.988951 2.511436
vt 0.855842 2.621296
vt 0.988951 2.622331
vt 0.857071 2.162891
vt 0.988928 2.260727
vt 0.988928 2.162891
vt 0.857071 2.259198
vt 0.992492 2.360092
vt 0.855289 2.360092
vt 0.992492 2.447227
vt 0.853507 2.447227
vt 0.994274 2.529776
vt 0.851725 2.529776
vt 0.994274 2.621498
vt 0.848162 2.621498
vt 0.067274 2.033854
vt 0.097222 2.121962
vt 0.055122 2.048611
vt 0.117188 2.109375
vt 0.130990 2.206250
vt 0.145936 2.201042
vt 0.081243 2.127571
vt 0.037760 2.056858
vt 0.114366 2.212457
vt 0.900000 2.821094
vt 0.820871 2.904576
vt 0.910156 2.938616
vt 0.805469 2.815625
vt 0.978906 2.821875
vt 0.987723 2.940848
vt 0.614720 2.262802
vt 0.683363 2.312514
vt 0.632106 2.333800
vt 0.747818 2.288488
vt 0.749512 2.386881
vt 0.689019 2.400391
vt 0.634570 2.406250
vt 0.494358 2.208767
vt 0.368750 2.126953
vt 0.369010 2.201042
vt 0.495793 2.156851
vt 0.122866 2.514037
vt 0.135200 2.630425
vt 0.044271 2.536458
vt 0.023438 2.426562
vt 0.102142 2.418350
vt 0.173177 2.395833
vt 0.206380 2.535807
vt 0.131730 2.812642
vt 0.147748 2.886393
vt 0.209287 2.798921
vt 0.186020 2.719094
vt 0.099258 2.741194
vt 0.151228 2.666853
vt 0.067608 2.685397
vt 0.065541 2.895788
vt 0.066849 2.987229
vt 0.053769 2.829748
vt 0.027609 2.767517
vt 0.000601 2.717849
vt 0.385938 2.061719
vt 0.507031 2.111719
vt 0.418750 2.014063
vt 0.526563 2.069531
vt 0.056396 2.611084
vt 0.427837 2.111637
vt 0.493170 2.127662
vt 0.497070 2.193359
vt 0.512868 2.053716
vt 0.457478 2.038292
vt 0.430339 2.185547
vt 0.505642 2.251519
vt 0.365885 2.189453
vt 0.366983 2.106659
vt 0.391436 2.017642
vt 0.459473 2.845215
vt 0.445438 2.805338
vt 0.467773 2.812988
vt 0.428429 2.830900
vt 0.388447 2.772713
vt 0.454590 2.884766
vt 0.416683 2.871534
vt 0.405349 2.958233
vt 0.335036 2.948918
vt 0.355718 2.849965
vt 0.370178 2.801472
vt 0.939174 1.096662
vt 0.938465 1.007503
vt 0.873680 1.008741
vt 0.872576 1.094668
vt 0.797233 1.007503
vt 0.995056 1.007503
vt 0.995056 1.097861
vt 0.995056 1.154799
vt 0.938730 1.156037
vt 0.872576 1.155332
vt 0.796036 1.092910
vt 0.719683 1.094148
vt 0.719755 1.009979
vt 0.647194 1.094940
vt 0.647196 1.009979
vt 0.581044 1.011999
vt 0.582608 1.096431
vt 0.526353 1.011999
vt 0.524461 1.094668
vt 0.581044 1.155332
vt 0.526353 1.157327
vt 0.647642 1.155332
vt 0.720935 1.153561
vt 0.797288 1.156037
s 1
usemtl HAIR
f 1/1/1 2/2/2 3/3/3
f 2/2/2 1/1/1 4/4/4
f 1/1/1 3/3/3 5/5/5
f 5/5/5 3/3/3 6/6/6
f 7/7/7 1/1/1 5/5/5
f 4/4/4 1/1/1 8/8/8
f 8/8/8 1/1/1 7/7/7
f 9/9/9 4/4/4 8/8/8
f 10/10/10 11/11/11 12/12/12
f 13/13/13 14/14/14 15/15/15
f 10/10/10 16/16/16 13/13/13
f 16/16/16 14/14/14 13/13/13
f 17/17/17 11/11/11 10/10/10
f 13/13/13 17/17/17 10/10/10
f 15/15/15 18/18/18 13/13/13
f 18/18/18 17/17/17 13/13/13
f 19/19/19 18/18/18 15/15/15
f 20/20/20 19/19/19 15/15/15
f 21/21/21 19/19/19 20/20/20
f 22/22/22 21/21/21 20/20/20
f 23/23/23 24/24/24 25/25/25
f 26/26/26 24/24/24 23/23/23
f 27/27/27 26/26/26 23/23/23
f 28/28/28 26/26/26 27/27/27
f 29/29/29 26/26/26 28/28/28
f 30/30/30 26/26/26 29/29/29
f 26/26/26 30/30/30 24/24/24
f 31/31/31 30/30/30 29/29/29
f 32/32/32 30/30/30 31/31/31
f 33/33/33 30/30/30 32/32/32
f 34/34/34 30/30/30 33/33/33
f 24/24/24 30/30/30 34/34/34
f 35/35/35 36/36/36 37/37/37
f 38/38/38 36/36/36 35/35/35
f 39/39/39 38/38/38 35/35/35
f 40/40/40 38/38/38 39/39/39
f 38/38/38 41/41/41 36/36/36
f 42/42/42 38/38/38 40/40/40
f 42/42/42 41/41/41 38/38/38
f 43/43/43 41/41/41 42/42/42
f 44/44/44 43/43/43 42/42/42
f 45/45/45 44/44/44 42/42/42
f 46/46/46 42/42/42 40/40/40
f 45/45/45 42/42/42 46/46/46
f 47/47/47 45/45/45 46/46/46
f 48/48/48 49/49/49 50/50/50
f 51/51/51 49/49/49 48/48/48
f 52/52/52 51/51/51 48/48/48
f 53/53/53 52/52/52 48/48/48
f 54/54/54 52/52/52 53/53/53
f 55/55/55 54/54/54 53/53/53
f 56/56/56 57/57/57 58/58/58
f 59/59/59 57/57/57 56/56/56
f 60/60/60 57/57/57 59/59/59
f 61/61/61 60/60/60 59/59/59
f 62/62/62 60/60/60 61/61/61
f 63/63/63 62/62/62 61/61/61
f 64/64/64 65/65/65 66/66/66
f 67/67/67 65/65/65 64/64/64
f 68/68/68 65/65/65 67/67/67
f 65/65/65 68/68/68 69/69/69
f 69/69/69 68/68/68 70/70/70
f 71/71/71 65/65/65 69/69/69
f 66/66/66 65/65/65 72/72/72
f 72/72/72 65/65/65 71/71/71
f 73/73/73 74/74/74 75/75/75
f 76/76/76 74/74/74 73/73/73
f 76/76/76 77/77/77 74/74/74
f 78/78/78 79/79/79 73/73/73
f 79/79/79 76/76/76 73/73/73
f 80/80/80 79/79/79 78/78/78
f 80/80/80 81/81/81 79/79/79
f 81/81/81 76/76/76 79/79/79
f 82/82/82 81/81/81 80/80/80
f 83/83/83 77/77/77 76/76/76
f 81/81/81 83/83/83 76/76/76
f 84/84/84 85/85/85 86/86/86
f 87/87/87 85/85/85 84/84/84
f 85/85/85 87/87/87 88/88/88
f 89/89/89 87/87/87 84/84/84
f 82/82/90 90/90/91 89/89/89
f 90/90/91 87/87/87 89/89/89
f 91/91/92 90/90/91 92/92/93
f 92/92/93 90/90/91 82/82/90
f 88/88/88 87/87/87 93/93/94
f 87/87/87 90/90/91 93/93/94
f 94/94/95 90/90/91 91/91/92
f 93/93/94 90/90/91 94/94/95
f 95/95/96 96/96/97 97/97/98
f 98/98/99 96/96/97 95/95/96
f 99/99/100 96/96/97 98/98/99
f 100/100/101 99/99/100 98/98/99
f 101/101/102 99/99/100 100/100/101
f 102/102/103 101/101/102 100/100/101
f 103/103/104 101/101/102 102/102/103
f 104/104/105 103/103/104 102/102/103
f 105/105/106 106/106/107 107/107/108
f 108/108/109 106/106/107 105/105/106
f 109/109/110 110/110/111 111/111/112
f 112/112/113 110/110/111 109/109/110
f 106/106/107 112/112/113 113/113/114
f 107/107/108 106/106/107 113/113/114
f 113/113/114 112/112/113 109/109/110
f 112/112/113 106/106/107 114/114/115
f 114/114/115 106/106/107 108/108/109
f 115/115/116 112/112/113 114/114/115
f 110/110/111 112/112/113 115/115/116
f 116/116/117 117/117/118 118/118/119
f 119/119/120 117/117/118 116/116/117
f 120/120/121 119/119/120 121/121/122
f 121/121/122 119/119/120 116/116/117
f 122/122/123 120/120/121 121/121/122
f 123/123/124 120/120/121 122/122/123
f 124/124/125 123/123/124 122/122/123
f 125/125/126 124/124/125 122/122/123
f 126/126/127 124/124/125 125/125/126
f 127/127/128 126/126/127 125/125/126
f 128/128/129 126/126/127 127/127/128
f 129/129/130 128/128/129 127/127/128
f 130/130/131 128/128/129 129/129/130
f 131/131/132 130/130/131 129/129/130
f 132/132/133 133/133/134 134/134/135
f 135/135/136 133/133/134 132/132/133
f 136/136/137 135/135/136 132/132/133
f 137/137/138 136/136/137 132/132/133
f 138/138/139 136/136/137 137/137/138
f 139/139/140 138/138/139 137/137/138
f 140/140/141 138/138/139 139/139/140
f 141/141/142 140/140/141 139/139/140
f 142/142/143 143/143/144 144/144/145
f 145/145/146 143/143/144 142/142/143
f 146/146/147 145/145/146 142/142/143
f 147/147/148 145/145/146 146/146/147
f 148/148/149 149/149/150 150/150/151
f 151/151/152 150/150/151 149/149/150
f 152/152/153 150/150/151 151/151/152
f 153/153/154 152/152/153 151/151/152
f 154/154/155 155/155/156 149/149/157
f 156/156/158 155/155/156 154/154/155
f 157/157/159 155/155/156 156/156/158
f 158/158/160 157/157/159 156/156/158
f 159/159/161 157/157/159 158/158/160
f 160/160/162 159/159/161 158/158/160
f 161/161/163 162/162/164 163/163/165
f 164/164/166 162/162/164 161/161/163
f 165/165/167 164/164/166 161/161/163
f 166/166/168 165/165/167 161/161/163
f 167/162/169 168/167/170 169/168/171
f 170/169/172 168/167/170 167/162/169
f 171/170/173 168/167/170 170/169/172
f 172/171/174 171/170/173 170/169/172
f 173/172/175 174/173/176 175/174/177
f 176/175/178 174/173/176 173/172/175
f 177/176/179 174/173/176 176/175/178
f 178/163/180 177/176/179 176/175/178
f 179/177/181 180/178/182 181/179/183
f 182/180/184 180/178/182 179/177/181
f 183/181/185 180/178/182 182/180/184
f 184/182/186 183/181/185 182/180/184
f 185/183/187 186/184/188 187/185/189
f 188/186/190 186/184/188 185/183/187
f 189/187/191 188/186/190 185/183/187
f 190/188/192 189/187/191 185/183/187
f 191/189/193 192/190/194 193/191/195
f 194/192/196 192/190/194 191/189/193
f 195/193/197 194/192/196 191/189/193
f 196/194/198 194/192/196 195/193/197
f 197/195/199 198/196/200 199/197/201
f 197/195/199 199/197/201 200/198/202
f 200/198/202 199/197/201 201/199/203
f 202/200/204 203/201/205 204/202/206
f 205/203/207 203/201/205 202/200/204
f 206/204/208 207/205/209 208/206/210
f 209/207/211 207/205/209 206/204/208
f 210/208/212 207/205/209 209/207/211
f 211/209/213 210/208/212 209/207/211
f 212/210/214 210/208/212 211/209/213
f 213/211/215 212/210/214 211/209/213
f 214/212/216 212/210/214 213/211/215
f 215/213/217 214/212/216 213/211/215
f 216/214/218 217/215/219 218/216/220
f 219/217/221 217/215/219 216/214/218
f 220/218/222 217/215/219 219/217/221
f 221/219/223 220/218/222 219/217/221
f 222/220/224 220/218/222 221/219/223
f 223/221/225 222/220/224 221/219/223
f 224/222/226 222/220/224 223/221/225
f 225/223/227 224/222/226 223/221/225
f 226/224/228 224/222/226 225/223/227
f 227/225/229 226/224/228 225/223/227
f 228/226/230 229/227/231 230/228/232
f 231/229/233 229/227/231 228/226/230
f 232/230/234 229/227/231 231/229/233
f 233/231/235 232/230/234 231/229/233
f 229/227/231 234/232/236 230/228/232
f 230/228/232 234/232/236 235/233/237
f 232/230/234 236/234/238 229/227/231
f 236/234/238 234/232/236 229/227/231
f 237/235/239 194/192/196 196/194/198
f 238/236/240 237/235/239 239/237/241
f 192/190/194 194/192/196 240/238/242
f 194/192/196 237/235/239 240/238/242
f 240/238/242 237/235/239 238/236/240
f 241/239/243 237/235/239 196/194/198
f 239/237/241 237/235/239 241/239/243
f 242/240/244 239/237/241 241/239/243
f 243/241/245 198/196/200 197/195/199
f 244/242/246 243/241/245 197/195/199
f 245/243/247 243/241/245 244/242/246
f 246/244/248 197/195/199 200/198/202
f 244/242/246 197/195/199 246/244/248
f 247/245/249 244/242/246 246/244/248
f 245/243/247 244/242/246 248/246/250
f 248/246/250 244/242/246 247/245/249
f 249/247/251 245/243/247 248/246/250
f 250/248/252 251/249/253 252/250/254
f 253/251/255 251/249/253 250/248/252
f 254/252/256 255/253/257 256/254/258
f 257/255/259 254/252/256 256/254/258
f 258/256/260 203/201/205 205/203/207
f 203/201/205 258/256/260 257/255/259
f 258/256/260 254/252/256 257/255/259
f 259/257/261 258/256/260 205/203/207
f 254/252/256 258/256/260 259/257/261
f 255/253/257 254/252/256 260/258/262
f 260/258/262 254/252/256 259/257/261
f 261/16/263 255/253/257 260/258/262
f 262/259/264 111/111/265 263/260/266
f 264/261/267 111/111/265 262/259/264
f 265/262/268 264/261/267 262/259/264
f 266/263/269 265/262/268 262/259/264
f 267/264/270 265/262/268 266/263/269
f 268/265/271 267/264/270 266/263/269
f 262/259/264 263/260/266 269/266/272
f 269/266/272 263/260/266 270/267/273
f 266/263/269 262/259/264 271/268/274
f 271/268/274 262/259/264 269/266/272
f 268/265/271 266/263/269 272/269/275
f 272/269/275 266/263/269 271/268/274
f 273/270/276 268/265/271 272/269/275
f 274/271/277 251/249/253 253/251/255
f 275/272/278 274/271/277 253/251/255
f 276/273/279 274/271/277 275/272/278
f 277/274/280 276/273/279 275/272/278
f 256/254/258 255/253/257 278/275/281
f 279/276/282 280/277/283 281/278/284
f 282/279/285 280/277/283 279/276/282
f 283/280/286 282/279/285 279/276/282
f 279/276/282 281/278/284 284/281/287
f 284/281/287 281/278/284 285/282/288
f 286/283/289 279/276/282 284/281/287
f 283/280/286 279/276/282 287/284/290
f 287/284/290 279/276/282 286/283/289
f 288/285/291 283/280/286 287/284/290
f 289/286/292 290/287/293 291/288/294
f 292/289/295 290/287/293 289/286/292
f 290/287/293 292/289/295 293/290/296
f 294/291/297 292/289/295 289/286/292
f 91/91/298 295/292/299 294/291/297
f 295/292/299 292/289/295 294/291/297
f 296/293/300 295/292/299 91/91/298
f 297/294/301 295/292/299 296/293/300
f 298/295/302 295/292/299 297/294/301
f 292/289/295 295/292/299 299/296/303
f 299/296/303 295/292/299 298/295/302
f 293/290/296 292/289/295 299/296/303
f 300/297/304 301/298/305 302/299/306
f 303/300/307 300/297/304 302/299/306
f 304/301/308 303/300/307 302/299/306
f 300/297/304 305/302/309 301/298/305
f 305/302/309 300/297/304 306/303/310
f 306/303/310 300/297/304 307/304/311
f 308/305/312 300/297/304 303/300/307
f 307/304/311 300/297/304 308/305/312
f 309/306/313 308/305/312 303/300/307
f 304/301/308 310/307/314 303/300/307
f 310/307/314 309/306/313 303/300/307
f 311/308/315 310/307/314 304/301/308
f 312/309/316 311/308/315 304/301/308
f 313/310/317 311/308/315 312/309/316
f 314/311/318 313/310/317 312/309/316
f 315/312/319 313/310/317 314/311/318
f 316/313/320 313/310/317 315/312/319
f 317/314/321 316/313/320 315/312/319
f 318/315/322 316/313/320 317/314/321
f 319/316/323 316/313/320 318/315/322
f 313/310/317 316/313/320 319/316/323
f 320/317/324 319/316/323 318/315/322
f 321/318/325 313/310/317 319/316/323
f 311/308/315 313/310/317 321/318/325
f 322/319/326 311/308/315 321/318/325
f 310/307/314 311/308/315 322/319/326
f 323/320/327 310/307/314 322/319/326
f 309/306/313 310/307/314 323/320/327
f 324/309/328 325/301/329 326/308/330
f 327/310/331 324/309/328 326/308/330
f 328/311/332 324/309/328 327/310/331
f 329/313/333 328/311/332 327/310/331
f 330/312/334 328/311/332 329/313/333
f 331/303/335 332/304/336 333/305/337
f 334/297/338 331/303/335 333/305/337
f 335/302/339 331/303/335 334/297/338
f 336/298/340 335/302/339 334/297/338
f 337/299/341 336/298/340 334/297/338
f 338/300/342 337/299/341 334/297/338
f 325/301/329 337/299/341 338/300/342
f 338/300/342 334/297/338 333/305/337
f 326/308/330 325/301/329 339/307/343
f 339/307/343 325/301/329 338/300/342
f 340/319/344 326/308/330 339/307/343
f 341/318/345 326/308/330 340/319/344
f 327/310/331 326/308/330 341/318/345
f 342/316/346 327/310/331 341/318/345
f 329/313/333 327/310/331 342/316/346
f 343/317/347 329/313/333 342/316/346
f 344/315/348 329/313/333 343/317/347
f 330/312/334 329/313/333 344/315/348
f 345/314/349 330/312/334 344/315/348
f 346/306/350 338/300/342 333/305/337
f 339/307/343 338/300/342 346/306/350
f 347/320/351 339/307/343 346/306/350
f 340/319/344 339/307/343 347/320/351
