# Blender 5.1.1
# www.blender.org
mtllib Room8.mtl
o Room8
v -22.565718 1.130384 -5.740232
v -18.339859 1.128206 -5.734261
v -35.211685 1.136882 -5.758104
v -30.996367 1.134722 -5.752150
v -18.327915 1.121109 -14.185977
v -18.310043 1.110482 -26.831945
v -18.315998 1.114022 -22.616625
v -18.321953 1.117561 -18.401297
v -18.305696 9.541131 -26.839025
v -18.316526 11.655884 -18.410149
v -18.313259 17.978867 -18.415457
v -18.305136 22.193432 -22.634323
v -18.291584 25.349958 -31.067623
v -18.326809 26.425755 -5.755497
v -18.297003 26.408024 -26.853182
v -18.328924 22.310225 -5.752038
v -18.334415 11.666529 -5.743105
v -18.322481 11.659422 -14.194830
v -18.335503 9.558864 -5.741331
v -18.319784 5.332890 -18.404844
v -18.317606 9.548220 -18.408375
v -18.323568 9.551758 -14.193057
v -18.307865 5.325803 -26.835484
v -18.311651 9.544679 -22.623705
v -18.301922 5.322263 -31.050814
v -18.304090 1.106934 -31.047274
v -18.310572 11.652335 -22.625469
v -18.315437 13.763548 -18.411915
v -18.321390 13.767087 -14.196595
v -18.319212 17.982405 -14.200135
v -18.309483 13.759999 -22.627245
v -18.303518 13.756460 -26.842566
v -18.301350 17.971788 -26.846104
v -18.307312 17.975328 -22.630785
v -18.304607 11.648795 -26.840797
v -18.299171 22.189892 -26.849644
v -18.311090 22.196980 -18.418995
v -18.317043 22.200520 -14.203674
v -18.314865 26.418650 -14.207222
v -18.302958 26.411562 -22.637861
v -18.308910 26.415108 -18.422543
v -18.313829 5.329350 -22.620165
v -18.325739 5.336430 -14.189516
v -26.770113 22.314562 -5.763972
v -26.767996 26.430094 -5.767424
v -30.983316 26.432262 -5.773386
v -30.985441 22.316740 -5.769926
v -35.198643 26.434431 -5.779340
v -22.552666 26.427925 -5.761469
v -22.554792 22.312393 -5.758018
v -18.331158 17.989513 -5.748410
v -18.333334 13.774183 -5.744871
v -22.559193 13.776362 -5.750851
v -22.557024 17.991692 -5.754382
v -22.560282 11.668697 -5.749077
v -35.200771 22.318901 -5.775889
v -35.207340 9.567540 -5.765183
v -22.563540 5.345713 -5.743772
v -18.337681 5.343534 -5.737801
v -35.202988 17.998198 -5.772262
v -30.987663 17.996029 -5.766299
v -30.992010 9.565372 -5.759220
v -22.561371 9.561033 -5.747312
v -18.295395 17.968241 -31.061424
v -18.293217 22.186378 -31.064962
v -18.298653 11.645256 -31.056118
v -18.299744 9.537593 -31.054354
v -18.297575 13.752920 -31.057886
v -18.291040 26.404482 -31.068512
vn 0.7061 0.0002 0.7081
vn 0.6665 0.6667 0.3337
vn 1.0000 -0.0005 0.0014
vn 0.6004 0.7997 0.0001
vn 0.7061 0.0003 0.7081
vn 0.7061 0.0002 0.7082
vn 0.4460 0.0005 0.8950
vn 0.4461 0.0005 0.8950
vn 0.7075 0.7068 0.0004
vn 0.4081 0.8166 0.4082
vn -0.0014 0.0008 1.0000
vn 0.7062 0.0002 0.7081
vn 0.5768 0.5776 0.5776
vn -0.3341 0.6674 0.6656
vt 0.001000 0.625000
vt 0.001000 0.749000
vt 0.253000 0.625000
vt 0.253000 0.749000
vt 0.501000 0.439000
vt 0.501000 0.501000
vt 0.625000 0.439000
vt 0.625000 0.501000
vt 0.749000 0.625000
vt 0.749000 0.501000
vt 0.625000 0.625000
vt 0.253000 0.439000
vt 0.253000 0.501000
vt 0.377000 0.439000
vt 0.377000 0.501000
vt 0.253000 0.128000
vt 0.253000 0.253000
vt 0.377000 0.128000
vt 0.377000 0.253000
vt 0.501000 0.128000
vt 0.501000 0.253000
vt 0.625000 0.128000
vt 0.625000 0.253000
vt 0.501000 0.625000
vt 0.377000 0.625000
vt 0.501000 0.377000
vt 0.377000 0.377000
vt 0.749000 0.377000
vt 0.749000 0.253000
vt 0.625000 0.377000
vt 0.626000 0.003000
vt 0.749000 0.003000
vt 0.749000 0.036000
vt 0.001000 0.128000
vt 0.253000 0.005000
vt 0.001000 0.005000
vt 0.749000 0.439000
vt 0.625000 0.003000
vt 0.624000 0.128000
vt 0.749000 0.128000
vt 0.253000 0.129000
vt 0.001000 0.253000
vt 0.001000 0.377000
vt 0.253000 0.377000
vt 0.001000 0.439000
vt 0.001000 0.501000
vt 0.377000 0.749000
vt 0.501000 0.749000
vt 0.625000 0.749000
vt 0.749000 0.749000
vt 0.501000 0.003000
vt 0.377000 0.003000
vt 0.253000 0.003000
vt 0.991000 0.124000
vt 0.845000 0.124000
vt 0.991000 0.003000
vt 0.845000 0.003000
vt 0.905000 0.124000
vt 0.905000 0.003000
vt 0.751000 0.124000
vt 0.751000 0.003000
vt 0.905000 0.253000
vt 0.751000 0.253000
vt 0.751000 0.377000
vt 0.905000 0.377000
vt 0.751000 0.439000
vt 0.905000 0.439000
vt 0.751000 0.501000
vt 0.751000 0.749000
vt 0.905000 0.501000
vt 0.905000 0.749000
vt 0.905000 0.625000
vt 0.751000 0.625000
s 1
usemtl RefRep.21_SH_initial_loader.002
f 59/1/1 2/2/2 43/3/3
f 43/3/3 2/2/2 5/4/4
f 27/5/3 24/6/3 35/7/3
f 35/7/3 24/6/3 9/8/3
f 25/9/1 67/10/5 23/11/3
f 23/11/3 67/10/5 9/8/3
f 18/12/3 22/13/3 10/14/3
f 10/14/3 22/13/3 21/15/3
f 38/16/3 30/17/3 37/18/3
f 37/18/3 30/17/3 11/19/3
f 12/20/3 34/21/3 36/22/3
f 36/22/3 34/21/3 33/23/3
f 42/24/3 24/6/3 20/25/3
f 20/25/3 24/6/3 21/15/3
f 31/26/3 34/21/3 28/27/3
f 28/27/3 34/21/3 11/19/3
f 68/28/6 64/29/1 32/30/3
f 32/30/3 64/29/1 33/23/3
f 13/31/1 69/32/7 15/33/3
f 16/34/1 39/35/3 14/36/8
f 66/37/6 68/28/6 35/7/3
f 35/7/3 68/28/6 32/30/3
f 15/38/3 36/39/3 13/33/1
f 13/33/1 36/39/3 65/40/1
f 38/41/3 39/35/3 16/34/1
f 38/41/3 16/34/1 51/42/1
f 38/41/3 51/42/1 30/17/3
f 30/17/3 51/42/1 52/43/1
f 30/17/3 52/43/1 29/44/3
f 29/44/3 52/43/1 17/45/1
f 29/44/3 17/45/1 18/12/3
f 18/12/3 17/45/1 19/46/1
f 18/12/3 19/46/1 22/13/3
f 22/13/3 19/46/1 59/1/1
f 22/13/3 59/1/1 43/3/3
f 43/3/3 20/25/3 21/15/3
f 43/3/3 21/15/3 22/13/3
f 42/24/3 20/25/3 8/47/9
f 42/24/3 8/47/9 7/48/9
f 42/24/3 23/11/3 9/8/3
f 42/24/3 9/8/3 24/6/3
f 25/9/1 23/11/3 6/49/9
f 25/9/1 6/49/9 26/50/10
f 27/5/3 10/14/3 21/15/3
f 27/5/3 21/15/3 24/6/3
f 18/12/3 10/14/3 28/27/3
f 18/12/3 28/27/3 29/44/3
f 29/44/3 28/27/3 11/19/3
f 29/44/3 11/19/3 30/17/3
f 10/14/3 27/5/3 31/26/3
f 10/14/3 31/26/3 28/27/3
f 27/5/3 35/7/3 32/30/3
f 27/5/3 32/30/3 31/26/3
f 31/26/3 32/30/3 33/23/3
f 31/26/3 33/23/3 34/21/3
f 66/37/6 35/7/3 9/8/3
f 66/37/6 9/8/3 67/10/5
f 65/40/1 36/39/3 33/23/3
f 65/40/1 33/23/3 64/29/1
f 12/20/3 36/22/3 15/38/3
f 12/20/3 15/38/3 40/51/3
f 12/20/3 37/18/3 11/19/3
f 12/20/3 11/19/3 34/21/3
f 38/16/3 37/18/3 41/52/3
f 38/16/3 41/52/3 39/53/3
f 37/18/3 12/20/3 40/51/3
f 37/18/3 40/51/3 41/52/3
f 23/11/3 42/24/3 7/48/9
f 23/11/3 7/48/9 6/49/9
f 20/25/3 43/3/3 5/4/4
f 20/25/3 5/4/4 8/47/9
f 44/54/11 50/55/11 45/56/11
f 45/56/11 50/55/11 49/57/11
f 45/56/11 46/57/11 44/54/11
f 44/54/11 46/57/11 47/55/11
f 47/58/11 46/59/11 56/60/1
f 56/60/1 46/59/11 48/61/1
f 16/60/1 14/61/8 50/58/11
f 50/58/11 14/61/8 49/59/11
f 50/58/11 54/62/11 16/60/1
f 16/60/1 54/62/11 51/63/1
f 52/64/1 51/63/1 53/65/11
f 53/65/11 51/63/1 54/62/11
f 17/66/1 52/64/1 55/67/11
f 55/67/11 52/64/1 53/65/11
f 56/60/1 60/63/5 47/58/11
f 47/58/11 60/63/5 61/62/11
f 57/68/12 3/69/13 62/70/11
f 62/70/11 3/69/13 4/71/10
f 58/72/11 1/71/14 59/73/1
f 59/73/1 1/71/14 2/69/2
f 60/63/5 57/68/12 61/62/11
f 61/62/11 57/68/12 62/70/11
f 55/67/11 63/70/11 17/66/1
f 17/66/1 63/70/11 19/68/1
f 59/73/1 19/68/1 58/72/11
f 58/72/11 19/68/1 63/70/11
