# Blender 5.1.1
# www.blender.org
mtllib Room7.mtl
o Room7
v 23.804138 26.616314 2.713458
v 23.799675 17.974899 2.720712
v 23.814808 1.099427 -14.126418
v -1.453630 1.098442 -30.812693
v 6.977019 1.094104 -30.800774
v 10.138506 1.092479 -30.796305
v 10.137971 0.038647 -30.795427
v 6.976474 0.040272 -30.799896
v 20.718428 0.033202 -30.780470
v 23.627005 0.031709 -30.776361
v 23.627548 1.085541 -30.777248
v 20.718973 1.087043 -30.781357
v 23.838614 1.085260 -30.987707
v 23.556398 1.127865 19.595869
v 23.555853 0.074033 19.596746
v 23.795338 9.544242 2.727791
v 23.771513 9.558410 19.589088
v 23.783421 9.551330 11.158439
v 23.790981 1.113593 2.734870
v 23.779074 1.120672 11.165519
v 23.580223 1.113699 2.734571
v 23.592133 1.106611 -5.696068
v 23.604040 1.099532 -14.126717
v 23.603504 0.045700 -14.125830
v 23.591587 0.052779 -5.695190
v 23.802898 1.106506 -5.695770
v 23.826715 1.092339 -22.557068
v 23.615950 1.092453 -22.557356
v 23.615414 0.038612 -22.556479
v 23.780310 26.630482 19.574755
v 23.768404 26.637568 28.005404
v 23.792229 26.623402 11.144106
v 23.787766 17.981977 11.151361
v 23.775860 17.989067 19.582008
v 23.567772 0.066946 11.166098
v 23.767166 1.127760 19.596157
v 23.568308 1.120778 11.165219
v 23.579670 0.059867 2.735458
v -18.397705 1.156346 27.756462
v -14.182930 0.100344 27.763313
v -18.393656 9.587179 27.960152
v -14.176159 13.800338 27.962574
v -9.958661 18.013496 27.964989
v -9.959750 15.905833 27.966763
v -14.182385 1.154186 27.762417
v -9.967057 1.152016 27.768381
v -9.967610 0.098184 27.769268
v -14.182684 1.154361 27.973194
v -22.566551 0.076727 -5.528579
v -22.566261 0.076552 -5.739346
v -22.565718 1.130384 -5.740232
v -35.218948 1.141212 -0.615412
v -35.226246 1.145551 4.548357
v -35.015480 1.145437 4.548656
v -35.016022 0.091605 4.549543
v -7.859401 1.150927 27.771358
v -14.173982 18.015667 27.959034
v -14.169634 26.451900 27.951958
v -18.384962 26.454069 27.945993
v -35.008331 1.141186 -0.509730
v -35.008877 0.087354 -0.508843
v -18.391487 13.802506 27.956619
v -18.389309 18.017828 27.953081
v -22.566017 1.130559 -5.529466
v -18.339859 1.128206 -5.734261
v -18.394745 7.479514 27.961926
v -26.828651 1.160860 27.955313
v -7.859700 1.151103 27.982124
v -5.752036 1.150023 27.985109
v -3.644073 1.148758 27.777313
v -5.751737 1.149847 27.774336
v -5.752282 0.096015 27.775221
v -3.644617 0.094926 27.778198
v -1.536953 0.093846 27.781185
v -14.177248 11.692675 27.964342
v -9.960839 13.798169 27.968527
v -14.178329 9.585010 27.966114
v -7.859937 0.097095 27.772245
v -30.996655 1.134898 -5.541383
v -35.001217 1.136953 -5.547039
v -35.001762 0.083121 -5.546152
v -35.211685 1.136882 -5.758104
v -18.398005 1.156530 27.967232
v -26.828354 1.160684 27.744547
v -26.828899 0.106852 27.745434
v -18.398251 0.102514 27.757351
v -14.179417 7.477345 27.967880
v -14.180506 5.369689 27.969654
v -18.395824 5.371859 27.963690
v -18.392567 11.694843 27.958387
v -30.996367 1.134722 -5.752150
v -30.996901 0.080890 -5.751263
v -30.997208 0.081066 -5.540496
v -35.036625 1.158005 19.513056
v -35.037170 0.104182 19.513933
v -35.048782 0.111085 27.733814
v -35.259300 1.165198 27.943405
v -35.048237 1.164917 27.732937
v 2.678367 0.091677 27.787140
v 6.893696 0.089508 27.793093
v 2.678613 1.145684 27.997019
v 2.678911 1.145509 27.786253
v 15.324345 0.085169 27.805012
v 6.894231 1.143340 27.792213
v 15.324881 1.139001 27.804123
v 23.544764 1.134769 27.815742
v 23.544218 0.080945 27.816629
v 0.570703 0.092757 27.784163
v 0.571247 1.146589 27.783276
v -1.536417 1.147678 27.780298
v -18.327915 1.121109 -14.185977
v -18.117695 0.067163 -14.184800
v -18.129927 0.074444 -5.522309
v -18.129381 1.128276 -5.523196
v -18.093622 1.107004 -30.836208
v -13.988955 1.104897 -30.830406
v -18.094166 0.053172 -30.835321
v -1.454174 0.044619 -30.811804
v -9.884278 1.102780 -30.824598
v -1.453331 1.098266 -31.023458
v -16.199060 1.105854 -31.044296
v -18.105232 1.113917 -22.616327
v -18.111731 0.063624 -18.400120
v -18.117149 1.120995 -14.185688
v -18.310043 1.110482 -26.831945
v -18.099426 1.110456 -26.726273
v -18.099970 0.056633 -26.725386
v -18.105776 0.060084 -22.615440
v -18.315998 1.114022 -22.616625
v -18.321953 1.117561 -18.401297
v -18.111195 1.117456 -18.401007
v -13.989491 0.051065 -30.829525
v -9.884823 0.048948 -30.823723
v -14.094039 1.104774 -31.041319
v -9.883979 1.102605 -31.035376
v -18.304090 1.106934 -31.047274
v 10.138805 1.092303 -31.007071
v 6.977317 1.093937 -31.011539
v 20.719273 1.086859 -30.992117
v -26.823217 11.699182 27.946480
v -26.822136 13.806845 27.944695
v -26.824305 9.591517 27.948235
v -26.815613 26.458406 27.934076
v -26.819960 18.022175 27.941164
v -26.825394 7.483852 27.950010
v -26.826483 5.376197 27.951775
v -35.247395 1.158119 19.512756
v 23.755230 1.134839 28.026808
v 15.324582 1.139177 28.014889
v 23.763924 17.996143 28.012657
v 0.570949 1.146765 27.994041
v 6.893933 1.143515 28.002983
v 23.759579 9.565495 28.019728
v -3.644371 1.148934 27.988087
v -1.536716 1.147854 27.991064
v -9.961919 11.690505 27.970304
v -9.954314 26.449730 27.957912
v -9.967356 1.152192 27.979147
v -9.965186 5.367520 27.975609
v -9.964098 7.475176 27.973843
v -9.963009 9.582841 27.972069
vn -0.0006 0.7076 0.7066
vn -0.0006 0.7077 0.7065
vn -0.0014 0.0008 1.0000
vn -0.0002 0.8947 0.4466
vn -0.4486 0.0010 0.8937
vn -0.0010 0.4481 0.8940
vn -0.5344 0.8024 0.2659
vn -0.0002 0.8948 0.4465
vn -0.4854 0.7282 0.4839
vn -0.2661 0.8014 -0.5356
vn -0.7068 0.7075 -0.0016
vn -0.2661 0.8015 -0.5355
vn -0.7067 0.7075 -0.0016
vn -0.8937 0.0001 -0.4486
vn -1.0000 0.0005 -0.0014
vn -0.7997 0.6005 -0.0016
vn -0.7068 0.7074 -0.0016
vn -0.5543 0.8323 -0.0015
vn -0.7060 -0.0002 -0.7082
vn 0.0014 0.7065 -0.7077
vn 0.0014 -0.0009 -1.0000
vn 0.0014 -0.0008 -1.0000
vn 0.8937 -0.0001 0.4486
vn 0.2181 0.8731 0.4360
vn -0.8167 0.4091 0.4069
vn 0.0041 -0.0008 -1.0000
vn 0.0014 0.5994 -0.8004
vn -0.3340 0.6674 0.6657
vn 0.7075 0.7067 0.0004
vn 0.4477 0.8942 -0.0001
vn 0.8946 0.4469 0.0009
vn 1.0000 -0.0005 0.0014
vn 0.0013 0.7065 -0.7077
vn 0.2181 0.8732 0.4359
vn 0.5769 0.5775 0.5776
vn 0.6666 0.6666 0.3337
vn 0.4461 0.0005 0.8950
vn 0.8161 0.4083 0.4091
vn 0.4081 0.8166 0.4082
vn 0.4478 0.8941 -0.0001
vn 0.5352 0.8014 -0.2672
vn 0.4486 -0.0010 -0.8937
vn 0.5354 0.8012 -0.2672
vn 0.0012 0.8315 -0.5555
vn 0.8946 0.4469 0.0008
vn 0.6005 0.7996 0.0001
vn -0.0007 0.7077 0.7065
vn -0.0008 0.6007 0.7995
vn 0.7075 0.7068 0.0004
vt 0.808000 0.753000
vt 0.560000 0.753000
vt 0.808000 0.751000
vt 0.560000 0.751000
vt 0.063000 0.753000
vt 0.312000 0.753000
vt 0.063000 0.780000
vt 0.312000 0.780000
vt 0.001000 0.753000
vt 0.124000 0.753000
vt 0.001000 0.751000
vt 0.124000 0.751000
vt 0.001000 0.780000
vt 0.124000 0.780000
vt 0.999000 0.780000
vt 0.884000 0.780000
vt 0.999000 0.753000
vt 0.884000 0.753000
vt 0.884000 0.751000
vt 0.999000 0.751000
vt 0.255000 0.753000
vt 0.255000 0.751000
vt 0.255000 0.780000
vt 0.503000 0.749000
vt 0.503000 0.501000
vt 0.255000 0.749000
vt 0.255000 0.501000
vt 0.751000 0.749000
vt 0.751000 0.501000
vt 0.503000 0.751000
vt 0.503000 0.753000
vt 0.503000 0.780000
vt 0.751000 0.753000
vt 0.751000 0.780000
vt 0.999000 0.749000
vt 0.999000 0.501000
vt 0.751000 0.253000
vt 0.999000 0.253000
vt 0.751000 0.003000
vt 0.999000 0.003000
vt 0.503000 0.003000
vt 0.503000 0.253000
vt 0.255000 0.003000
vt 0.255000 0.253000
vt 0.751000 0.751000
vt 0.379000 0.751000
vt 0.379000 0.753000
vt 0.379000 0.780000
vt 0.671000 0.780000
vt 0.671000 0.753000
vt 0.379000 0.439000
vt 0.379000 0.501000
vt 0.503000 0.439000
vt 0.379000 0.377000
vt 0.379000 0.253000
vt 0.255000 0.377000
vt 0.255000 0.315000
vt 0.379000 0.625000
vt 0.255000 0.625000
vt 0.379000 0.749000
vt 0.935000 0.780000
vt 0.935000 0.753000
vt 0.940000 0.753000
vt 0.940000 0.780000
vt 0.659000 0.751000
vt 0.659000 0.753000
vt 0.798000 0.753000
vt 0.798000 0.751000
vt 0.659000 0.780000
vt 0.798000 0.780000
vt 0.379000 0.563000
vt 0.503000 0.563000
vt 0.751000 0.563000
vt 0.751000 0.439000
vt 0.751000 0.377000
vt 0.503000 0.377000
vt 0.441000 0.753000
vt 0.441000 0.751000
vt 0.317000 0.751000
vt 0.317000 0.753000
vt 0.379000 0.003000
vt 0.671000 0.751000
vt 0.503000 0.625000
vt 0.751000 0.625000
vt 0.441000 0.780000
vt 0.317000 0.780000
vt 0.255000 0.439000
vt 0.255000 0.563000
vt 0.919000 0.780000
vt 0.919000 0.753000
vt 0.919000 0.751000
vt 0.622000 0.753000
vt 0.684000 0.780000
vt 0.684000 0.753000
vt 0.808000 0.780000
vt 0.560000 0.780000
vt 0.684000 0.751000
vt 0.436000 0.780000
vt 0.436000 0.753000
s 1
usemtl RefRep.20_SH_initial_loader.002
f 138/1/1 120/2/2 5/3/2
f 5/3/2 120/2/2 4/4/2
f 5/5/2 4/6/2 8/7/3
f 8/7/3 4/6/2 118/8/3
f 137/9/2 138/10/1 6/11/4
f 6/11/4 138/10/1 5/12/2
f 6/9/4 5/10/2 7/13/3
f 7/13/3 5/10/2 8/14/3
f 9/15/3 10/16/5 12/17/6
f 12/17/6 10/16/5 11/18/7
f 12/19/6 11/20/7 139/18/8
f 139/18/8 11/20/7 13/17/9
f 148/9/10 36/21/11 106/11/12
f 106/11/12 36/21/11 14/22/13
f 106/9/12 14/21/13 107/13/14
f 107/13/14 14/21/13 15/23/15
f 20/24/11 18/25/15 19/26/16
f 19/26/16 18/25/15 16/27/15
f 36/28/11 17/29/15 20/24/11
f 20/24/11 17/29/15 18/25/15
f 22/22/13 21/30/13 26/21/17
f 26/21/17 21/30/13 19/31/16
f 20/21/11 19/31/16 37/22/13
f 37/22/13 19/31/16 21/30/13
f 22/31/13 23/21/13 25/32/15
f 25/32/15 23/21/13 24/23/15
f 25/32/15 38/23/15 22/31/13
f 22/31/13 38/23/15 21/21/13
f 26/31/17 3/21/18 22/30/13
f 22/30/13 3/21/18 23/22/13
f 3/21/18 27/31/17 23/22/13
f 23/22/13 27/31/17 28/30/13
f 23/31/13 28/33/13 24/32/15
f 24/32/15 28/33/13 29/34/15
f 148/35/10 153/36/19 36/28/11
f 36/28/11 153/36/19 17/29/15
f 34/37/15 17/29/15 150/38/19
f 150/38/19 17/29/15 153/36/19
f 30/39/15 34/37/15 31/40/15
f 31/40/15 34/37/15 150/38/19
f 32/41/15 33/42/15 30/39/15
f 30/39/15 33/42/15 34/37/15
f 1/43/15 2/44/15 32/41/15
f 32/41/15 2/44/15 33/42/15
f 2/44/15 16/27/15 33/42/15
f 33/42/15 16/27/15 18/25/15
f 33/42/15 18/25/15 34/37/15
f 34/37/15 18/25/15 17/29/15
f 14/21/13 37/31/13 15/23/15
f 15/23/15 37/31/13 35/32/15
f 36/21/11 20/31/11 14/22/13
f 14/22/13 20/31/11 37/30/13
f 37/31/13 21/21/13 35/32/15
f 35/32/15 21/21/13 38/23/15
f 27/33/17 13/17/9 28/45/13
f 28/45/13 13/17/9 11/20/7
f 28/33/13 11/17/7 29/34/15
f 29/34/15 11/17/7 10/15/5
f 45/46/20 39/22/20 48/47/20
f 48/47/20 39/22/20 83/21/20
f 40/48/21 86/32/22 45/47/20
f 45/47/20 86/32/22 39/31/20
f 113/34/23 114/33/24 49/49/5
f 49/49/5 114/33/24 64/50/25
f 75/51/22 77/52/22 90/53/22
f 90/53/22 77/52/22 41/25/22
f 42/54/22 57/55/22 76/56/22
f 76/56/22 57/55/22 43/44/22
f 76/56/22 43/44/22 44/57/26
f 40/48/21 45/47/20 46/21/20
f 40/48/21 46/21/20 47/23/22
f 45/46/20 48/47/20 158/31/27
f 45/46/20 158/31/27 46/30/20
f 88/58/22 159/59/22 158/26/27
f 88/58/22 158/26/27 48/60/20
f 50/61/15 49/62/5 64/63/25
f 50/61/15 64/63/25 51/64/28
f 60/65/29 52/66/29 53/67/30
f 60/65/29 53/67/30 54/68/31
f 61/69/32 60/66/29 54/67/31
f 61/69/32 54/67/31 55/70/32
f 87/71/22 66/72/22 41/25/22
f 87/71/22 41/25/22 77/52/22
f 66/72/22 145/73/22 142/29/22
f 66/72/22 142/29/22 41/25/22
f 41/25/22 142/29/22 140/74/22
f 41/25/22 140/74/22 90/53/22
f 90/53/22 140/74/22 141/75/22
f 90/53/22 141/75/22 62/76/22
f 62/76/22 141/75/22 144/37/22
f 62/76/22 144/37/22 63/42/22
f 63/42/22 144/37/22 143/39/22
f 63/42/22 143/39/22 59/41/22
f 68/77/33 56/78/20 46/30/20
f 68/77/33 46/30/20 158/31/27
f 70/79/20 154/80/33 155/21/33
f 70/79/20 155/21/33 110/22/20
f 57/55/22 58/81/22 157/43/22
f 57/55/22 157/43/22 43/44/22
f 58/81/22 57/55/22 63/42/22
f 58/81/22 63/42/22 59/41/22
f 52/66/29 60/65/29 80/68/34
f 52/66/29 80/68/34 82/67/35
f 60/66/29 61/69/32 81/70/23
f 60/66/29 81/70/23 80/67/34
f 42/54/22 62/76/22 63/42/22
f 42/54/22 63/42/22 57/55/22
f 51/33/28 64/45/25 114/82/24
f 51/33/28 114/82/24 65/50/36
f 145/73/22 66/72/22 89/83/22
f 145/73/22 89/83/22 146/84/22
f 146/84/22 89/83/22 83/24/20
f 146/84/22 83/24/20 67/28/33
f 56/78/20 68/77/33 69/47/20
f 56/78/20 69/47/20 71/46/20
f 71/46/20 69/47/20 154/80/33
f 71/46/20 154/80/33 70/79/20
f 78/85/22 56/77/20 71/47/20
f 78/85/22 71/47/20 72/48/22
f 72/48/22 71/47/20 70/80/20
f 72/48/22 70/80/20 73/86/22
f 73/86/22 70/80/20 110/21/20
f 73/86/22 110/21/20 74/23/22
f 89/83/22 88/58/22 48/60/20
f 89/83/22 48/60/20 83/24/20
f 156/87/22 75/51/22 42/54/22
f 156/87/22 42/54/22 76/56/22
f 75/51/22 156/87/22 161/27/22
f 75/51/22 161/27/22 77/52/22
f 77/52/22 161/27/22 160/88/22
f 77/52/22 160/88/22 87/71/22
f 87/71/22 160/88/22 159/59/22
f 87/71/22 159/59/22 88/58/22
f 56/77/20 78/85/22 47/32/22
f 56/77/20 47/32/22 46/31/20
f 93/89/37 79/90/38 80/17/34
f 93/89/37 80/17/34 81/15/23
f 91/90/39 82/17/35 80/20/34
f 91/90/39 80/20/34 79/91/38
f 84/45/20 67/33/33 83/31/20
f 84/45/20 83/31/20 39/30/20
f 85/34/22 84/33/20 39/31/20
f 85/34/22 39/31/20 86/32/22
f 66/72/22 87/71/22 88/58/22
f 66/72/22 88/58/22 89/83/22
f 75/51/22 90/53/22 62/76/22
f 75/51/22 62/76/22 42/54/22
f 92/61/32 91/62/39 79/63/38
f 92/61/32 79/63/38 93/64/37
f 95/34/32 94/33/40 98/17/41
f 95/34/32 98/17/41 96/15/42
f 94/45/40 147/33/29 97/17/43
f 94/45/40 97/17/43 98/20/41
f 98/20/41 97/17/43 67/33/33
f 98/20/41 67/33/33 84/45/20
f 96/15/42 98/17/41 84/33/20
f 96/15/42 84/33/20 85/34/22
f 109/79/20 110/22/20 151/80/33
f 151/80/33 110/22/20 155/21/33
f 102/47/20 104/31/20 99/48/22
f 99/48/22 104/31/20 100/32/22
f 101/47/44 152/31/20 102/46/20
f 102/46/20 152/31/20 104/30/20
f 104/31/20 105/21/20 100/32/22
f 100/32/22 105/21/20 103/23/22
f 152/31/20 149/21/33 104/30/20
f 104/30/20 149/21/33 105/22/20
f 105/21/20 106/9/12 103/23/22
f 103/23/22 106/9/12 107/13/14
f 149/21/33 148/9/10 105/22/20
f 105/22/20 148/9/10 106/11/12
f 108/86/22 74/23/22 109/80/20
f 109/80/20 74/23/22 110/21/20
f 151/80/33 101/47/44 109/79/20
f 109/79/20 101/47/44 102/46/20
f 109/80/20 102/47/20 108/86/22
f 108/86/22 102/47/20 99/48/22
f 124/3/45 111/1/46 114/4/24
f 114/4/24 111/1/46 65/2/36
f 112/8/32 124/6/45 113/7/23
f 113/7/23 124/6/45 114/5/24
f 121/92/2 136/2/39 115/4/34
f 132/93/3 116/94/2 115/1/34
f 132/93/3 115/1/34 117/95/23
f 119/2/2 133/96/3 118/8/3
f 119/2/2 118/8/3 4/6/2
f 135/2/47 119/4/2 4/3/2
f 135/2/47 4/3/2 120/1/2
f 121/92/2 115/4/34 116/97/2
f 116/97/2 134/94/48 121/92/2
f 130/94/29 131/97/49 122/3/49
f 130/94/29 122/3/49 129/1/29
f 123/98/32 131/99/49 124/6/45
f 123/98/32 124/6/45 112/8/32
f 125/94/29 126/97/29 115/3/34
f 125/94/29 115/3/34 136/1/39
f 126/94/29 127/93/32 117/95/23
f 126/94/29 117/95/23 115/1/34
f 127/93/32 126/94/29 122/2/49
f 127/93/32 122/2/49 128/96/32
f 128/96/32 122/2/49 131/99/49
f 128/96/32 131/99/49 123/98/32
f 126/97/29 125/94/29 129/2/29
f 126/97/29 129/2/29 122/4/49
f 131/97/49 130/94/29 111/2/46
f 131/97/49 111/2/46 124/4/45
f 116/94/2 132/93/3 133/96/3
f 116/94/2 133/96/3 119/2/2
f 134/94/48 116/97/2 119/3/2
f 134/94/48 119/3/2 135/1/47
