# Blender 5.1.1
# www.blender.org
mtllib Room5.mtl
o Room5
v -4.084539 25.950378 -30.431690
v -0.625186 17.986595 -30.380550
v -0.637006 16.512205 -30.379322
v -0.642636 15.371406 -30.378374
v -17.480038 16.516842 -30.575495
v -0.803942 10.822319 -30.344957
v -0.642328 14.004400 -30.377232
v -0.971879 10.822144 -30.328289
v -16.063835 25.954908 -30.450516
v -16.126196 25.952435 -30.456814
v -16.368086 23.308754 -30.438520
v -15.846790 25.959223 -30.433287
v -15.717485 25.955885 -30.432682
v -15.387653 25.950966 -30.437609
v -15.215176 25.951178 -30.442331
v -14.178837 25.956833 -30.470259
v -9.942529 25.953356 -30.457104
v -10.211511 21.125732 -30.413448
v -9.848158 25.954584 -30.463823
v -9.643610 20.441313 -30.517515
v -9.658986 25.954603 -30.473948
v -13.060081 10.822099 -30.275692
v -12.537608 20.430424 -30.477671
v -13.876564 25.950502 -30.467466
v -14.095128 19.606678 -30.479744
v -13.629766 25.949650 -30.458008
v -13.588200 22.040230 -30.422865
v -13.522537 25.951010 -30.451984
v -13.252089 19.388227 -30.360828
v -13.042596 25.955973 -30.426691
v -12.835791 25.950281 -30.427570
v -12.939399 25.953152 -30.425718
v -12.738012 25.949184 -30.432285
v -12.465219 25.952398 -30.456306
v -12.376328 25.954136 -30.465069
v -12.286023 25.955473 -30.473017
v -3.808391 10.821871 -30.360773
v -3.917823 25.949282 -30.430065
v -4.001251 25.949850 -30.429785
v -3.160583 20.988945 -30.449928
v -3.016542 10.821555 -30.424679
v -2.652355 10.822363 -30.467430
v -2.481503 10.822468 -30.514360
v -7.136631 22.483999 -30.426788
v -6.425654 25.948200 -30.417690
v 7.332547 10.815610 -30.369511
v 7.437289 10.819772 -30.375921
v 7.463309 10.818929 -30.385046
v 7.658550 10.809260 -30.454756
v -8.729358 20.729948 -30.359722
v -0.668121 22.997417 -30.384777
v -17.367075 24.051012 -30.554899
v -0.746473 24.046482 -30.385777
v -17.410360 24.636347 -30.539408
v -0.956836 23.031710 -30.356489
v -17.337137 25.286411 -30.516691
v -0.657099 25.281818 -30.386709
v -16.598665 25.951370 -30.477091
v -16.376974 25.950062 -30.469418
v -2.163895 18.805748 -30.476513
v -2.198610 10.821660 -30.578943
v -2.076734 10.821011 -30.572672
v -1.477754 10.821098 -30.424084
v -1.141616 10.821845 -30.341364
v -1.427187 23.890127 -30.364771
v -6.993151 10.822091 -30.366982
v -6.506193 10.821572 -30.237686
v -6.151394 10.819807 -30.293434
v -5.865410 10.820642 -30.380199
v -5.719112 10.821195 -30.427525
v -5.082729 10.819728 -30.559729
v -4.820114 18.172043 -30.490669
v -9.352919 10.821291 -30.515301
v -9.602317 10.824162 -30.589384
v -9.701299 10.826121 -30.573736
v -9.509799 10.822091 -30.585390
v -9.427328 10.821230 -30.558779
v -9.801263 10.826657 -30.547091
v -10.099980 10.823434 -30.427963
v -10.382645 10.820536 -30.306597
v -10.670762 19.726269 -30.358730
v -7.616765 20.482325 -30.505941
v -7.923448 10.823400 -30.568649
v -7.809959 10.821959 -30.578609
v -8.039993 10.823855 -30.544157
v 2.634782 25.944618 -30.450211
v 2.570148 25.945320 -30.453529
v 2.506777 25.945900 -30.456675
v 2.288827 25.944424 -30.462910
v 1.803511 20.843191 -30.451405
v 2.074433 25.944916 -30.459370
v 1.994992 25.945591 -30.457420
v 1.778948 25.947332 -30.451677
v -14.653748 10.829660 -30.507475
v -14.313395 10.825357 -30.519999
v -11.073071 10.824936 -30.365076
v -11.371508 10.823443 -30.419209
v -11.726877 10.820844 -30.527235
v -12.168091 10.824172 -30.618830
v -12.574124 10.825788 -30.502171
v -8.192561 20.375219 -30.473492
v -13.169609 10.824988 -30.263987
v -13.278707 10.827799 -30.269045
v -10.806688 25.954409 -30.432234
v -10.385823 25.949606 -30.425138
v -10.303132 25.948824 -30.429810
v -10.127476 25.950281 -30.442648
v -10.035854 25.951811 -30.449903
v 3.596229 25.946348 -30.459728
v 3.648376 25.945971 -30.457235
v 3.491188 20.165901 -30.476730
v 3.442202 25.943237 -30.461777
v 3.494543 25.944643 -30.462206
v 3.149184 22.478678 -30.442930
v 3.133307 25.945223 -30.448515
v -9.565441 25.952679 -30.476469
v -9.203732 25.951378 -30.444380
v -9.365829 19.891651 -30.490421
v -9.264625 25.950396 -30.454506
v -9.085869 25.953171 -30.425331
v -9.025115 25.953400 -30.418358
v -9.081961 19.997246 -30.367212
v -12.095411 25.955156 -30.483326
v -11.731708 25.949017 -30.476046
v -11.857465 18.725023 -30.511885
v -11.408559 25.950291 -30.459345
v 1.294159 25.948288 -30.461153
v 1.070852 25.949045 -30.435368
v 0.822314 18.804218 -30.467194
v 0.959874 25.947981 -30.440533
v 0.723122 23.285702 -30.459345
v 0.835373 25.947769 -30.436756
v 0.694950 25.948393 -30.429985
v 0.546263 25.949316 -30.424629
v 3.072412 25.945934 -30.445459
v 2.963271 25.946039 -30.441006
v 3.015233 25.946287 -30.442867
v 4.117928 25.944504 -30.449192
v 3.893743 25.942097 -30.441261
v 4.004290 25.946093 -30.437424
v 4.056437 19.990438 -30.415312
v 6.399317 19.596140 -30.454233
v 4.463251 25.945927 -30.453405
v 4.591406 25.941526 -30.444492
v 4.631742 25.941113 -30.441990
v 4.798800 19.718252 -30.409822
v 4.749411 25.946232 -30.438669
v 4.670400 25.941824 -30.440006
v 5.010814 25.943398 -30.448963
v 3.617823 10.817551 -30.468651
v 3.672825 10.816716 -30.450981
v 3.726992 10.815644 -30.431440
v 5.671988 20.421043 -30.455715
v 5.726129 25.940016 -30.442867
v 5.815468 25.940649 -30.437977
v 5.912130 25.946180 -30.437361
v 5.863882 25.943449 -30.437090
v 0.100799 19.395401 -30.431257
v 0.235698 19.076408 -30.417461
v 0.108589 15.370983 -30.427868
v 6.599624 25.946680 -30.450764
v 6.680866 25.945143 -30.448542
v 6.763126 25.943142 -30.446049
v 7.134400 19.803059 -30.417032
v 7.008177 25.939419 -30.438864
v 6.927559 25.939753 -30.440990
v 0.261192 23.031025 -30.422522
v 0.199859 24.631252 -30.435518
v 0.126258 22.996960 -30.434254
v 7.976228 15.362991 -30.486067
v 7.985054 17.978163 -30.488253
v 7.942513 20.698124 -30.490599
v 0.258979 10.821441 -30.405052
v 0.964766 10.820721 -30.478012
v 1.129014 10.819974 -30.444290
v 2.112705 10.815803 -30.489006
v 1.710185 10.818604 -30.433285
v 1.584735 10.819043 -30.414623
v 1.543566 10.818560 -30.410400
v 2.180572 10.816040 -30.493073
v 2.273819 19.676054 -30.472832
v 2.614057 10.815618 -30.401258
v 2.679728 10.815169 -30.384659
v 4.585259 21.118084 -30.433094
v 2.741378 10.815065 -30.371567
v 2.845487 10.816646 -30.361792
v 2.893375 10.817691 -30.367332
v 2.948368 10.817945 -30.378784
v 3.372175 20.476677 -30.473175
v 3.399900 10.814819 -30.494320
v 3.455252 10.816216 -30.497314
v 3.562726 10.817927 -30.483175
v 1.298295 10.818745 -30.442278
v 3.982783 21.023283 -30.402718
v 3.959309 10.816084 -30.353342
v 4.055857 10.818007 -30.378986
v 4.084996 10.817172 -30.400291
v 4.189167 19.884687 -30.464491
v 4.209603 25.942720 -30.459721
v 4.249719 10.815065 -30.497963
v 4.432708 10.818797 -30.468010
v 6.572515 10.817717 -30.465742
v 6.359043 10.810542 -30.450903
v 4.657332 10.812720 -30.384747
v 5.119648 10.814933 -30.428825
v -16.642908 10.822397 -30.464497
v -16.495714 17.050079 -30.428087
v -17.157398 10.823179 -30.544605
v 5.814291 10.811587 -30.397552
v 5.860378 10.811219 -30.380753
v 5.908670 10.812238 -30.369030
v -8.198998 25.952074 -30.461275
v -8.087433 25.952362 -30.467150
v -7.757874 25.949009 -30.471235
v -7.871898 20.171734 -30.515970
v -7.634979 25.948402 -30.467072
v -7.368974 25.948946 -30.453188
v -7.504295 25.948446 -30.460846
v -7.097068 25.950510 -30.436239
v -6.636385 25.949913 -30.413967
v 5.363400 10.811763 -30.489595
v 5.352870 18.716179 -30.469469
v -8.420136 25.950317 -30.446117
v -1.401500 25.950754 -30.357569
v -0.908676 19.077057 -30.348692
v -0.728848 25.950783 -30.368671
v -5.877863 20.272760 -30.414740
v -5.402480 25.949228 -30.466368
v -5.268072 19.679928 -30.498915
v -4.831425 25.948481 -30.456322
v -4.997544 25.948076 -30.461029
v -3.161979 25.950598 -30.455639
v -2.991101 25.951002 -30.420095
v -2.829627 25.951170 -30.391195
v -2.562226 25.950422 -30.394058
v -16.217405 20.033226 -30.379305
v -16.243216 10.831127 -30.288919
v -16.386213 10.831276 -30.325699
v -16.427698 10.829283 -30.355452
v -16.472555 10.826754 -30.389946
v -16.106543 10.827772 -30.286198
v 7.353360 25.940332 -30.445688
v 7.304348 25.945398 -30.440935
v 6.164163 22.030035 -30.433191
v 6.186583 25.939436 -30.449236
v 6.136456 25.940876 -30.446943
v 6.045168 25.944847 -30.442192
v 6.001513 25.946392 -30.440102
v 6.198702 10.814389 -30.410023
v 6.151552 10.816408 -30.395752
v 0.338315 10.821019 -30.410101
v 7.519312 17.037699 -30.429230
v 7.482718 10.816926 -30.396973
v 7.391429 20.021027 -30.411430
v 7.503751 10.814371 -30.410786
v 7.583438 10.809918 -30.440557
v -4.937546 10.819386 -30.549191
v -6.283378 10.819816 -30.261265
v -13.480902 10.828124 -30.311594
v -13.579558 10.826632 -30.343700
v -9.031605 10.825121 -30.247152
v -5.201496 10.820632 -30.558033
v -5.439117 10.821783 -30.511839
v -5.313079 10.821503 -30.541523
v -5.575747 10.821633 -30.472637
v -6.010777 10.820114 -30.334295
v -12.956699 10.820984 -30.304523
v -11.892602 10.820588 -30.571899
v -12.041824 10.821572 -30.603996
v -12.277127 10.826718 -30.612780
v -12.668160 10.824093 -30.449278
v -10.001280 10.824953 -30.471514
v -6.384414 20.392353 -30.345793
v -6.402935 10.820360 -30.241478
v -6.693151 20.387821 -30.355568
v -6.726189 10.823022 -30.280575
v -6.855468 10.822740 -30.320271
v -7.135963 10.821265 -30.416880
v -7.280522 10.820475 -30.466042
v -7.423528 10.819939 -30.510681
v -11.081932 19.722494 -30.414213
v -11.551045 10.821933 -30.474754
v -9.901464 10.826147 -30.512121
v -6.966779 25.951126 -30.428238
v -6.844456 25.951387 -30.421423
v -6.538713 25.948700 -30.414503
v -5.756479 25.950159 -30.452433
v -5.627271 25.950342 -30.458868
v 1.289768 20.986643 -30.456375
v 1.528162 25.946604 -30.452932
v 1.454288 25.947092 -30.455339
v 1.375233 25.947681 -30.458149
v 1.214260 25.948805 -30.447083
v 1.138745 25.949089 -30.435633
v 1.013787 25.948542 -30.437117
v -4.338373 25.950142 -30.439909
v -4.494796 25.949621 -30.445309
v -4.199275 25.950430 -30.435228
v -4.260064 20.846327 -30.441095
v -3.802683 25.949131 -30.432514
v -3.510464 10.820598 -30.367641
v -3.662664 25.949289 -30.436720
v -3.504642 25.949667 -30.442255
v -7.691561 10.820475 -30.570810
v -7.869825 25.950502 -30.472683
v -7.232195 25.949711 -30.444773
v -5.152792 25.948008 -30.464579
v -5.290123 25.948332 -30.466501
v -5.508056 25.950089 -30.463718
v -7.561632 10.819878 -30.546898
v -8.157969 10.823592 -30.508432
v -8.889373 10.822811 -30.223925
v -8.806217 10.821045 -30.244940
v -8.922814 21.029991 -30.334112
v -8.963458 10.824540 -30.223776
v 0.900078 25.947735 -30.439285
v 0.766654 25.948017 -30.433462
v 0.621155 25.948841 -30.426859
v 0.471230 25.949738 -30.423874
v 0.396996 25.950054 -30.425110
v 0.156863 25.950281 -30.429159
v -2.684348 25.951010 -30.390089
v -2.446884 25.949762 -30.402182
v -2.318958 25.949429 -30.398712
v -2.180493 25.949360 -30.391968
v -2.033536 25.949509 -30.383345
v -1.944496 23.287079 -30.450727
v 5.469512 25.946119 -30.461319
v 5.421282 25.943651 -30.461802
v 5.365472 25.941141 -30.460897
v 3.892180 20.723396 -30.413107
v 3.829872 10.813923 -30.392282
v 3.641166 20.369123 -30.459345
v 3.508278 10.817568 -30.493177
v 4.176679 25.942781 -30.456841
v 6.241339 25.939024 -30.451220
v 5.957594 25.946997 -30.438433
v 6.004982 19.378250 -30.407328
v 5.769775 25.939636 -30.439987
v 5.873946 20.496752 -30.412352
v 4.339224 10.818947 -30.493029
v 4.385900 10.819394 -30.482203
v 4.292970 10.817067 -30.499439
v 4.144309 10.815065 -30.448101
v 4.114178 10.816110 -30.424109
v 3.993945 10.817743 -30.353193
v 1.502361 10.818077 -30.411409
v 3.339146 10.814309 -30.484852
v 3.384768 25.942720 -30.460257
v 2.940244 20.382807 -30.413773
v 2.917982 25.944960 -30.440119
v 4.698177 10.813449 -30.373209
v 4.736914 10.815671 -30.365929
v 4.570620 10.814301 -30.416180
v 4.525375 10.815890 -30.433918
v 4.479305 10.817497 -30.451542
v 6.520147 25.947208 -30.452477
v 6.595532 20.062775 -30.457691
v 0.106815 16.511774 -30.428827
v 0.102406 17.986174 -30.430073
v 0.149846 20.706072 -30.432295
v 0.172504 21.897163 -30.433262
v 3.323690 25.942869 -30.457903
v 7.574208 25.938927 -30.453266
v 7.470590 25.937775 -30.450457
v 7.086679 25.940693 -30.437300
v 6.845614 25.941166 -30.443457
v 4.991020 19.714195 -30.431637
v 4.707029 25.944046 -30.438725
v 4.319465 20.434147 -30.475300
v 4.419167 25.947235 -30.456226
v 4.374887 25.947840 -30.458649
v 4.287024 25.945547 -30.461662
v 4.246109 25.943529 -30.461441
v 0.163686 24.045971 -30.435080
v 0.122842 25.281378 -30.436176
v 7.918908 25.273430 -30.467941
v 7.952674 24.623322 -30.476662
v 7.932019 24.038023 -30.482649
v 7.921358 21.889235 -30.491625
v 7.967972 22.988995 -30.486752
v 7.708071 19.207222 -30.457657
v 7.988162 19.387384 -30.489429
v 5.226208 25.940577 -30.455927
v 5.148436 25.941763 -30.452520
v -14.021378 25.953672 -30.469986
v -14.513456 25.957561 -30.464516
v -14.343403 25.957958 -30.468258
v -14.833530 10.829283 -30.483974
v -14.687320 25.956158 -30.459528
v -15.039853 25.952452 -30.447927
v -15.555634 25.952362 -30.434200
v -15.929445 25.960215 -30.435720
v -15.982111 25.959387 -30.439638
v -9.144770 25.952391 -30.434322
v -13.746906 25.949326 -30.463322
v 1.686377 25.946899 -30.449718
v -1.242644 25.950949 -30.360188
v -1.722252 25.950098 -30.365965
v -1.880107 25.949774 -30.374210
v -11.872851 25.950010 -30.481596
v -12.192856 25.955973 -30.479359
v -12.644625 25.949490 -30.439146
v -12.969855 20.506500 -30.371084
v 0.107421 14.003970 -30.426718
v 7.979134 16.503792 -30.487024
v 2.797222 10.815514 -30.363461
v 2.795931 20.387558 -30.410227
v 2.819493 25.943415 -30.441875
v 2.546173 10.816268 -30.419893
v 2.288221 10.817629 -30.485477
v 2.236091 10.816848 -30.492256
v 2.063307 18.168520 -30.469311
v 1.376349 10.818271 -30.428385
v 1.214726 10.819360 -30.441303
v 1.044558 10.820466 -30.458929
v 0.775656 10.819596 -30.501968
v 0.712452 10.819360 -30.499783
v 0.180495 10.821749 -30.411945
v -10.956325 25.953232 -30.440382
v -11.114126 25.951714 -30.449631
v -11.992242 25.952618 -30.484230
v -12.182879 20.711935 -30.541368
v -7.977193 25.951923 -30.471146
v -8.310397 25.951319 -30.454082
v 1.641440 10.819008 -30.422615
v 1.787510 10.817963 -30.445543
v 1.869893 10.817234 -30.458330
v 1.953884 10.816532 -30.470564
v 1.546587 20.405659 -30.434027
v 1.725325 25.947365 -30.450386
v 1.445506 10.817999 -30.417751
v -10.216788 25.949165 -30.435799
v 4.090379 25.945557 -30.445230
v 5.543149 10.817620 -30.505560
v 5.506484 20.702866 -30.481920
v 4.146408 25.943476 -30.453197
v 2.390689 25.946022 -30.461521
v 2.446393 25.946180 -30.459414
v 2.559179 20.268389 -30.438513
v 2.699022 25.943951 -30.446997
v 2.761155 25.943502 -30.444151
v -15.667763 19.814837 -30.391792
v -15.935471 10.824260 -30.296402
v 3.544723 25.945995 -30.461470
v 3.700426 25.945118 -30.454206
v 3.934799 25.942738 -30.438953
v 3.971534 25.944424 -30.437485
v 5.959860 10.815039 -30.364199
v 6.010848 10.817769 -30.366085
v 6.105403 10.817963 -30.382965
v -17.475637 15.376050 -30.574526
v 7.399562 25.938452 -30.448154
v 7.261395 25.948254 -30.437460
v 7.286011 25.947392 -30.438969
v 7.464407 23.296469 -30.436712
v 0.455545 17.573141 -30.429985
v 0.481680 23.889091 -30.425709
v 0.571370 10.819650 -30.464172
v 0.644014 10.819404 -30.484196
v 0.495529 10.820062 -30.442945
v 0.417502 10.820528 -30.423819
v 2.872325 25.943827 -30.440462
v 3.196484 25.944326 -30.451773
v 5.433155 10.812641 -30.502321
v 5.492204 10.815162 -30.508133
v 5.285873 10.812114 -30.471838
v 5.203621 10.813309 -30.450937
v -16.538439 10.824250 -30.427006
v -16.803503 10.821836 -30.500284
v 7.084404 10.811289 -30.394707
v 6.789516 18.728273 -30.445213
v 6.997797 10.812694 -30.408775
v 6.823687 10.816664 -30.437992
v 6.910627 10.814670 -30.423616
v 6.737816 10.818192 -30.450630
v 6.653817 10.818709 -30.460299
v 7.169598 10.810964 -30.382629
v 7.396435 10.818868 -30.370434
v 7.534584 10.811833 -30.425619
v -16.330605 10.832085 -30.302786
v -13.680323 10.824673 -30.379505
v -14.160247 10.822179 -30.505947
v -14.479786 10.828519 -30.520508
v -14.514175 20.073631 -30.489061
v -15.017364 10.827904 -30.453123
v -15.203479 10.826077 -30.417980
v -15.575473 10.823022 -30.347223
v -15.757855 10.822845 -30.317778
v -14.931415 18.739462 -30.460934
v 6.248127 10.812412 -30.424696
v 6.301135 10.810964 -30.438679
v -17.482882 10.826859 -30.680735
v 1.843969 25.946943 -30.453373
v 1.917088 25.946312 -30.455366
v 2.152083 25.944399 -30.461073
v 2.224631 25.944204 -30.462294
v -0.768823 21.897692 -30.384003
v -0.822929 24.631813 -30.386374
v -16.895880 19.219877 -30.497290
v -16.225039 25.950624 -30.463215
v -3.711184 20.408398 -30.396790
v -3.720352 10.821326 -30.349989
v -3.362427 10.820746 -30.393635
v -2.833122 10.822029 -30.431564
v -0.619434 19.395815 -30.381710
v -0.722288 20.706553 -30.382931
v -10.914935 10.826139 -30.317514
v -10.470086 10.821353 -30.278189
v -10.553004 10.823645 -30.260290
v -10.291348 10.820870 -30.342804
v -10.196915 10.821941 -30.384178
v -1.941510 10.820677 -30.566797
v -1.795194 10.820624 -30.527639
v -1.639886 10.820782 -30.477345
v -1.381433 17.574125 -30.383152
v -1.310958 10.821459 -30.376026
vn -0.0328 0.0023 0.9995
vn -0.0267 -0.0009 0.9996
vn -0.0867 -0.0005 0.9962
vn 0.1130 0.0001 0.9936
vn 0.1118 -0.0000 0.9937
vn 0.0575 0.0019 0.9983
vn 0.1186 0.0005 0.9929
vn 0.1972 -0.0011 0.9804
vn -0.1363 0.0006 0.9907
vn -0.1961 -0.0077 0.9806
vn -0.1333 0.0001 0.9911
vn 0.1893 -0.0008 0.9819
vn -0.1203 0.0017 0.9927
vn 0.0109 0.0024 0.9999
vn -0.1218 0.0127 0.9925
vn -0.1194 0.0182 0.9927
vn -0.0831 0.0145 0.9964
vn -0.0529 0.0122 0.9985
vn -0.0898 0.0070 0.9959
vn -0.0646 0.0120 0.9978
vn -0.1445 0.0103 0.9895
vn -0.1011 0.0151 0.9948
vn -0.1444 0.0104 0.9895
vn 0.0028 0.0088 1.0000
vn -0.0165 0.0101 0.9998
vn 0.0184 0.0071 0.9998
vn 0.0240 0.0064 0.9997
vn 0.0184 0.0070 0.9998
vn 0.0606 0.0060 0.9981
vn 0.0325 0.0058 0.9995
vn 0.0297 0.0060 0.9995
vn 0.0252 -0.0010 0.9997
vn 0.0499 0.0005 0.9988
vn 0.1128 -0.0011 0.9936
vn 0.0402 -0.0035 0.9992
vn 0.0406 -0.0033 0.9992
vn 0.0407 -0.0033 0.9992
vn 0.1230 -0.0022 0.9924
vn 0.1024 -0.0035 0.9947
vn 0.0050 -0.0035 1.0000
vn 0.1965 0.0039 0.9805
vn 0.0656 0.0055 0.9978
vn 0.0738 0.0049 0.9973
vn 0.1210 0.0075 0.9926
vn 0.1886 0.0079 0.9820
vn 0.2996 0.0046 0.9541
vn -0.0248 -0.0011 0.9997
vn -0.0143 -0.0019 0.9999
vn -0.1060 -0.0012 0.9944
vn -0.1290 0.0074 0.9916
vn -0.0705 0.0041 0.9975
vn -0.0596 0.0084 0.9982
vn -0.0508 0.0084 0.9987
vn -0.1289 0.0074 0.9916
vn -0.0736 0.0108 0.9972
vn 0.0047 0.0097 0.9999
vn -0.0411 0.0094 0.9991
vn 0.0204 0.0095 0.9997
vn 0.0610 0.0086 0.9981
vn 0.2523 -0.0041 0.9676
vn 0.1348 0.0003 0.9909
vn 0.0929 -0.0050 0.9957
vn 0.0988 -0.0051 0.9951
vn 0.0538 -0.0031 0.9985
vn 0.0775 -0.0044 0.9970
vn -0.0061 0.0053 1.0000
vn -0.1211 0.0033 0.9926
vn -0.0479 0.0049 0.9988
vn 0.1861 0.0017 0.9825
vn 0.0594 0.0006 0.9982
vn 0.1492 0.0028 0.9888
vn 0.0464 0.0050 0.9989
vn 0.0121 0.0065 0.9999
vn -0.0323 -0.0008 0.9995
vn -0.0340 -0.0008 0.9994
vn -0.0340 -0.0007 0.9994
vn 0.1164 0.0055 0.9932
vn 0.0106 0.0026 0.9999
vn 0.2299 0.0098 0.9732
vn 0.2462 0.0103 0.9692
vn -0.2659 0.0051 0.9640
vn -0.1508 0.0019 0.9886
vn -0.3259 0.0008 0.9454
vn 0.0351 0.0132 0.9993
vn 0.0167 0.0128 0.9998
vn 0.0352 0.0117 0.9993
vn -0.1000 0.0001 0.9950
vn -0.1545 0.0002 0.9880
vn -0.1655 0.0002 0.9862
vn -0.1640 0.0002 0.9865
vn -0.1305 0.0022 0.9914
vn -0.0547 0.0029 0.9985
vn -0.1230 0.0033 0.9924
vn -0.0218 0.0044 0.9998
vn 0.1242 0.0046 0.9923
vn 0.1243 0.0046 0.9922
vn 0.0736 0.0045 0.9973
vn 0.2334 0.0049 0.9724
vn 0.4301 0.0059 0.9028
vn 0.4376 0.0038 0.8991
vn 0.1712 -0.0029 0.9852
vn 0.2104 0.0001 0.9776
vn 0.1454 -0.0005 0.9894
vn 0.1168 0.0075 0.9931
vn 0.1317 0.0006 0.9913
vn 0.0975 -0.0000 0.9952
vn 0.1233 -0.0025 0.9924
vn 0.0903 0.0100 0.9959
vn -0.5440 -0.0431 0.8380
vn -0.1959 -0.0077 0.9806
vn -0.5727 -0.0480 0.8183
vn -0.0952 -0.0126 0.9954
vn 0.9908 -0.1323 -0.0290
vn 0.1233 -0.0026 0.9924
vn 0.9964 -0.0832 0.0134
vn -0.0393 -0.0092 0.9992
vn -0.0016 -0.0103 0.9999
vn 0.0831 -0.0132 0.9965
vn -0.0474 -0.0125 0.9988
vn -0.1486 -0.0108 0.9888
vn -0.1928 -0.0030 0.9812
vn -0.2834 -0.0031 0.9590
vn -0.3100 -0.0014 0.9507
vn -0.2947 -0.0016 0.9556
vn -0.2392 -0.0015 0.9710
vn -0.0788 -0.0063 0.9969
vn -0.1397 0.0089 0.9902
vn -0.1397 0.0090 0.9901
vn -0.3076 0.0087 0.9515
vn -0.2659 0.0085 0.9640
vn 0.0353 0.0116 0.9993
vn -0.0498 0.0119 0.9987
vn 0.1005 0.0106 0.9949
vn 0.1421 0.0053 0.9898
vn 0.1793 0.0087 0.9838
vn 0.2575 0.0049 0.9663
vn 0.0353 0.0117 0.9993
vn 0.2900 0.0041 0.9570
vn 0.3044 0.0039 0.9525
vn 0.0985 -0.0050 0.9951
vn 0.2876 -0.0071 0.9577
vn 0.2528 -0.0063 0.9675
vn 0.2494 -0.0009 0.9684
vn 0.1879 -0.0057 0.9822
vn 0.0801 -0.0060 0.9968
vn -0.0343 -0.0071 0.9994
vn -0.0726 -0.0056 0.9973
vn -0.0966 -0.0064 0.9953
vn -0.3279 0.0039 0.9447
vn -0.0709 -0.0177 0.9973
vn 0.1083 0.0047 0.9941
vn -0.2914 -0.0031 0.9566
vn -0.4080 -0.0030 0.9130
vn -0.5657 -0.0030 0.8246
vn -0.1557 -0.0071 0.9878
vn -0.2913 -0.0031 0.9566
vn 0.0703 -0.0068 0.9975
vn 0.0566 -0.0072 0.9984
vn 0.2068 -0.0070 0.9784
vn 0.0704 -0.0067 0.9975
vn 0.2937 -0.0078 0.9559
vn 0.2951 -0.0033 0.9555
vn 0.1966 0.0040 0.9805
vn 0.3902 0.0028 0.9207
vn 0.4077 0.0031 0.9131
vn 0.4064 0.0032 0.9137
vn 0.3848 0.0033 0.9230
vn 0.3391 0.0041 0.9407
vn 0.2601 0.0061 0.9656
vn 0.0978 0.0103 0.9952
vn -0.1040 -0.0060 0.9946
vn -0.2339 -0.0024 0.9722
vn -0.3099 0.0006 0.9508
vn -0.2176 -0.0054 0.9760
vn -0.1236 -0.0057 0.9923
vn -0.0031 -0.0064 1.0000
vn 0.0612 -0.0066 0.9981
vn 0.1466 -0.0064 0.9892
vn 0.2083 -0.0048 0.9781
vn 0.1954 -0.0016 0.9807
vn -0.0474 0.0028 0.9989
vn -0.1256 0.0027 0.9921
vn -0.0503 0.0027 0.9987
vn -0.0478 0.0027 0.9989
vn -0.0687 0.0044 0.9976
vn -0.0878 -0.0014 0.9961
vn -0.0608 0.0003 0.9982
vn -0.0416 0.0029 0.9991
vn 0.0178 -0.0014 0.9998
vn -0.0879 -0.0014 0.9961
vn 0.0026 -0.0016 1.0000
vn 0.0599 -0.0018 0.9982
vn 0.0302 -0.0008 0.9995
vn 0.0232 0.0003 0.9997
vn 0.0722 0.0002 0.9974
vn 0.0256 0.0002 0.9997
vn 0.0268 0.0002 0.9996
vn 0.0267 0.0002 0.9996
vn 0.0250 0.0002 0.9997
vn 0.0205 0.0001 0.9998
vn 0.0255 0.0014 0.9997
vn -0.0472 -0.0034 0.9989
vn -0.1313 -0.0020 0.9913
vn 0.0151 -0.0037 0.9999
vn 0.1751 -0.0008 0.9846
vn 0.1129 -0.0011 0.9936
vn 0.1884 -0.0011 0.9821
vn -0.2232 0.0082 0.9747
vn -0.1344 0.0054 0.9909
vn -0.2335 0.0054 0.9723
vn -0.2362 0.0008 0.9717
vn -0.2377 0.0072 0.9713
vn -0.1387 -0.0048 0.9903
vn -0.2732 -0.0065 0.9619
vn -0.2353 -0.0063 0.9719
vn -0.1387 -0.0047 0.9903
vn -0.1634 -0.0077 0.9865
vn 0.0488 -0.0092 0.9988
vn -0.0669 -0.0082 0.9977
vn 0.1431 -0.0085 0.9897
vn 0.4695 -0.0040 0.8829
vn 0.2524 -0.0041 0.9676
vn 0.4924 -0.0041 0.8703
vn 0.3186 -0.0024 0.9479
vn 0.2907 0.0088 0.9568
vn 0.1906 0.0097 0.9816
vn 0.1325 0.0105 0.9911
vn -0.1632 0.0113 0.9865
vn -0.0684 0.0132 0.9976
vn -0.3820 0.0103 0.9241
vn -0.1035 0.0110 0.9946
vn 0.0174 0.0103 0.9998
vn -0.2258 0.0096 0.9741
vn -0.0737 0.0108 0.9972
vn -0.3224 0.0064 0.9466
vn -0.3320 0.0064 0.9433
vn -0.0458 0.0054 0.9989
vn -0.0710 0.0007 0.9975
vn -0.0564 0.0053 0.9984
vn -0.0502 0.0051 0.9987
vn 0.0647 0.0065 0.9979
vn -0.0496 0.0100 0.9987
vn 0.0627 0.0046 0.9980
vn 0.0728 0.0047 0.9973
vn 0.0777 0.0047 0.9970
vn 0.0778 0.0047 0.9970
vn -0.0530 -0.0003 0.9986
vn -0.1725 -0.0000 0.9850
vn -0.0616 -0.0002 0.9981
vn -0.1724 -0.0000 0.9850
vn -0.0407 -0.0003 0.9992
vn -0.0538 -0.0014 0.9985
vn -0.0556 -0.0021 0.9985
vn -0.0034 -0.0025 1.0000
vn 0.0194 -0.0024 0.9998
vn 0.1280 0.0011 0.9918
vn 0.0512 0.0018 0.9987
vn 0.0508 0.0018 0.9987
vn 0.0477 0.0018 0.9989
vn 0.0089 -0.0075 0.9999
vn 0.0365 -0.0078 0.9993
vn 0.0703 -0.0067 0.9975
vn -0.2454 0.0033 0.9694
vn -0.3789 0.0082 0.9254
vn -0.1529 -0.0033 0.9882
vn -0.1597 0.0094 0.9871
vn -0.1326 0.0096 0.9911
vn -0.0880 0.0094 0.9961
vn -0.0814 -0.0006 0.9967
vn -0.1091 -0.0004 0.9940
vn -0.0145 0.0015 0.9999
vn 0.0791 -0.0092 0.9968
vn -0.0070 -0.0106 0.9999
vn 0.0790 -0.0092 0.9968
vn -0.0595 -0.0065 0.9982
vn -0.0441 -0.0042 0.9990
vn -0.0538 0.0008 0.9986
vn -0.0304 0.0008 0.9995
vn -0.0340 0.0009 0.9994
vn 0.0026 0.0026 1.0000
vn 0.0690 0.0009 0.9976
vn -0.0365 0.0010 0.9993
vn 0.1615 0.0006 0.9869
vn -0.0539 0.0008 0.9985
vn 0.0770 -0.0018 0.9970
vn -0.0135 -0.0048 0.9999
vn -0.0212 -0.0033 0.9998
vn -0.0014 -0.0036 1.0000
vn -0.0326 -0.0041 0.9995
vn -0.0017 -0.0058 1.0000
vn 0.0583 -0.0067 0.9983
vn 0.0433 -0.0103 0.9990
vn 0.0481 -0.0105 0.9988
vn 0.0453 -0.0105 0.9989
vn 0.0638 -0.0065 0.9979
vn 0.0653 -0.0021 0.9979
vn 0.0584 -0.0067 0.9983
vn 0.0200 -0.0012 0.9998
vn 0.1184 0.0040 0.9930
vn 0.0604 0.0034 0.9982
vn 0.0278 0.0048 0.9996
vn 0.0122 0.0050 0.9999
vn 0.0261 -0.0022 0.9997
vn -0.0638 -0.0022 0.9980
vn -0.0105 -0.0025 0.9999
vn 0.0738 -0.0013 0.9973
vn 0.1352 0.0042 0.9908
vn 0.3348 0.0036 0.9423
vn 0.2111 0.0017 0.9775
vn -0.1678 0.0045 0.9858
vn -0.0767 0.0058 0.9970
vn -0.0606 0.0054 0.9982
vn 0.0572 0.0058 0.9983
vn -0.0214 0.0070 0.9997
vn 0.0985 0.0057 0.9951
vn 0.3347 0.0036 0.9423
vn -0.1737 0.0022 0.9848
vn -0.0835 -0.0002 0.9965
vn -0.0590 0.0028 0.9983
vn -0.1736 0.0022 0.9848
vn -0.0662 0.0025 0.9978
vn -0.0650 0.0024 0.9979
vn -0.1735 0.0022 0.9848
vn -0.0565 0.0024 0.9984
vn -0.0180 0.0044 0.9998
vn 0.0402 0.0045 0.9992
vn 0.0115 0.0047 0.9999
vn -0.0585 0.0030 0.9983
vn -0.1832 -0.0008 0.9831
vn -0.2806 -0.0002 0.9598
vn -0.3225 -0.0002 0.9466
vn -0.3477 -0.0004 0.9376
vn -0.2941 0.0017 0.9558
vn -0.1191 0.0007 0.9929
vn -0.1072 0.0036 0.9942
vn -0.0550 0.0040 0.9985
vn -0.0201 0.0044 0.9998
vn 0.0609 0.0048 0.9981
vn -0.0063 0.0044 1.0000
vn -0.1073 0.0036 0.9942
vn -0.1033 0.0036 0.9946
vn -0.0960 0.0025 0.9954
vn -0.0522 0.0013 0.9986
vn -0.1163 0.0008 0.9932
vn 0.0132 -0.0000 0.9999
vn -0.1000 0.0006 0.9950
vn -0.0991 0.0006 0.9951
vn -0.1049 0.0008 0.9945
vn -0.0373 -0.0007 0.9993
vn -0.0244 0.0001 0.9997
vn -0.0456 0.0007 0.9990
vn -0.0308 0.0029 0.9995
vn -0.0307 0.0029 0.9995
vn -0.0282 0.0029 0.9996
vn -0.0231 0.0031 0.9997
vn -0.0546 0.0029 0.9985
vn -0.0185 0.0033 0.9998
vn 0.0369 0.0027 0.9993
vn 0.1136 0.0026 0.9935
vn 0.0585 0.0007 0.9983
vn -0.9977 -0.0616 -0.0285
vn -0.9992 -0.0381 0.0079
vn -0.0805 0.0046 0.9967
vn -0.0867 0.0004 0.9962
vn -0.1736 0.0002 0.9848
vn 0.1151 0.0007 0.9934
vn 0.1126 0.0005 0.9936
vn 0.1115 0.0004 0.9938
vn 0.1110 0.0027 0.9938
vn 0.1151 0.0038 0.9933
vn 0.2727 -0.0095 0.9621
vn 0.2683 -0.0110 0.9633
vn 0.5049 -0.0190 0.8630
vn 0.5308 -0.0209 0.8472
vn 0.0796 -0.0046 0.9968
vn 0.0311 -0.0032 0.9995
vn -0.1667 0.0003 0.9860
vn -0.0117 0.0015 0.9999
vn 0.1011 0.0011 0.9949
vn 0.1259 -0.0042 0.9920
vn 0.0379 -0.0046 0.9993
vn -0.2163 0.0048 0.9763
vn -0.2022 0.0046 0.9793
vn -0.1034 0.0028 0.9946
vn -0.0116 0.0016 0.9999
vn -0.0821 0.0013 0.9966
vn 0.1101 -0.0009 0.9939
vn 0.1487 0.0003 0.9889
vn 0.1549 0.0003 0.9879
vn 0.1464 0.0005 0.9892
vn 0.1017 0.0017 0.9948
vn 0.0389 0.0024 0.9992
vn -0.0720 0.0024 0.9974
vn -0.1312 0.0018 0.9914
vn -0.0719 0.0024 0.9974
vn 0.0268 -0.0023 0.9996
vn 0.0808 -0.0022 0.9967
vn -0.0717 -0.0019 0.9974
vn -0.1650 -0.0017 0.9863
vn -0.2677 0.0023 0.9635
vn -0.2548 0.0023 0.9670
vn -0.3453 0.0019 0.9385
vn -0.3612 0.0020 0.9325
vn -0.3599 0.0020 0.9330
vn -0.2263 0.0027 0.9741
vn -0.1576 0.0040 0.9875
vn -0.0332 0.0052 0.9994
vn -0.0331 0.0052 0.9994
vn -0.0896 0.0049 0.9960
vn 0.0399 0.0053 0.9992
vn -0.0327 0.0058 0.9994
vn -0.0330 0.0052 0.9994
vn -0.0169 0.0057 0.9998
vn 0.1148 0.0047 0.9934
vn 0.2284 0.0038 0.9736
vn 0.0871 -0.0020 0.9962
vn 0.1859 -0.0015 0.9826
vn 0.1040 -0.0019 0.9946
vn 0.0679 -0.0007 0.9977
vn 0.0324 -0.0024 0.9995
vn 0.0001 -0.0021 1.0000
vn -0.0555 -0.0021 0.9985
vn -0.1290 -0.0020 0.9916
vn -0.1634 0.0013 0.9866
vn -0.1172 0.0048 0.9931
vn 0.1393 0.0050 0.9902
vn 0.5373 0.0033 0.8434
vn 0.6115 0.0032 0.7912
vn 0.6276 0.0032 0.7786
vn 0.5161 0.0006 0.8565
vn 0.2112 0.0017 0.9774
vn 0.2539 -0.0009 0.9672
vn 0.1297 -0.0009 0.9915
vn 0.1035 -0.0010 0.9946
vn 0.2537 -0.0009 0.9673
vn 0.1322 -0.0025 0.9912
vn -0.0516 -0.0024 0.9987
vn -0.0637 -0.0022 0.9980
vn -0.1816 -0.0022 0.9834
vn -0.2581 -0.0025 0.9661
vn -0.2599 -0.0007 0.9656
vn 0.0889 -0.0001 0.9960
vn -0.0157 -0.0008 0.9999
vn -0.0376 -0.0008 0.9993
vn 0.0890 -0.0001 0.9960
vn 0.2308 -0.0009 0.9730
vn 0.1759 -0.0004 0.9844
vn 0.2156 0.0011 0.9765
vn -0.0907 -0.0011 0.9959
vn -0.1087 -0.0003 0.9941
vn -0.2990 0.0024 0.9542
vn -0.2286 0.0031 0.9735
vn -0.0870 0.0048 0.9962
vn -0.5514 0.0031 0.8342
vn -0.3280 0.0038 0.9447
vn -0.4156 0.0030 0.9095
vn -0.1961 -0.0077 0.9805
vn -0.1714 -0.0026 0.9852
vn -0.2452 -0.0006 0.9695
vn -0.2574 0.0026 0.9663
vn -0.1962 -0.0077 0.9805
vn -0.1117 -0.0139 0.9936
vn -0.2233 -0.0010 0.9747
vn -0.3763 -0.0000 0.9265
vn -0.2637 0.0026 0.9646
vn -0.1655 0.0038 0.9862
vn -0.0177 0.0046 0.9998
vn 0.0864 0.0049 0.9962
vn 0.1954 -0.0015 0.9807
vn 0.0585 -0.0021 0.9983
vn 0.0685 -0.0020 0.9977
vn 0.0443 -0.0020 0.9990
vn 0.0595 -0.0049 0.9982
vn 0.0613 -0.0066 0.9981
vn 0.0007 -0.0075 1.0000
vn -0.0257 -0.0073 0.9996
vn -0.0407 -0.0072 0.9991
vn -0.0818 -0.0029 0.9966
vn -0.0589 0.0037 0.9983
vn -0.0622 0.0035 0.9981
vn -0.0622 0.0034 0.9981
vn -0.0584 0.0033 0.9983
vn -0.0732 0.0074 0.9973
vn -0.0172 0.0114 0.9998
vn 0.2036 0.0032 0.9791
vn 0.2024 0.0006 0.9793
vn 0.1173 -0.0015 0.9931
vn 0.2348 -0.0023 0.9721
vn 0.2015 -0.0022 0.9795
vn 0.0417 -0.0011 0.9991
vn 0.1394 -0.0027 0.9902
vn -0.0449 -0.0031 0.9990
vn 0.0549 -0.0028 0.9985
vn -0.1266 -0.0028 0.9920
vn -0.0448 -0.0031 0.9990
vn 0.0487 -0.0020 0.9988
vn 0.0030 -0.0038 1.0000
vn -0.0709 -0.0031 0.9975
vn 0.1198 0.0046 0.9928
vn 0.1907 0.0097 0.9816
vn -0.0585 -0.0272 0.9979
vn -0.0533 -0.0268 0.9982
vn -0.0708 -0.0177 0.9973
vn -0.0011 -0.0157 0.9999
vn 0.0216 -0.0095 0.9997
vn 0.0348 -0.0113 0.9993
vn -0.0770 -0.0173 0.9969
vn -0.0556 -0.0273 0.9981
vn 0.0137 0.0025 0.9999
vn -0.0183 -0.0012 0.9998
vn 0.0913 -0.0030 0.9958
vn 0.0451 0.0058 0.9990
vn 0.0521 0.0055 0.9986
vn 0.1420 0.0053 0.9898
vn 0.0674 0.0003 0.9977
vn -0.0064 -0.0052 1.0000
vn 0.0133 -0.0049 0.9999
vn 0.0984 -0.0050 0.9951
vn -0.0237 -0.0048 0.9997
vn -0.0382 -0.0032 0.9993
vn -0.0298 -0.0004 0.9996
vn 0.0365 0.0010 0.9993
vn 0.0323 0.0006 0.9995
vn -0.1896 0.0006 0.9819
vn -0.0826 0.0011 0.9966
vn 0.0126 -0.0133 0.9998
vn -0.0922 -0.0056 0.9957
vn 0.0894 0.0079 0.9960
vn 0.0222 0.0097 0.9997
vn -0.1445 0.0104 0.9895
vn -0.4854 0.0140 0.8742
vn -0.2707 0.0113 0.9626
vn -0.0882 0.0100 0.9960
vn -0.4921 0.0089 0.8705
vn 0.1393 0.0068 0.9902
vn 0.1481 0.0039 0.9890
vn 0.0607 0.0060 0.9981
vn 0.0748 0.0032 0.9972
vn 0.1025 0.0055 0.9947
vn 0.0694 0.0063 0.9976
vn 0.0431 0.0054 0.9991
vn 0.1029 0.0055 0.9947
vn 0.1116 0.0083 0.9937
vn 0.0849 0.0065 0.9964
vn 0.0532 0.0053 0.9986
vn 0.1092 0.0034 0.9940
vn 0.0582 0.0021 0.9983
vn 0.0411 0.0039 0.9991
vn 0.0486 0.0039 0.9988
vn 0.0427 0.0035 0.9991
vn 0.1091 0.0034 0.9940
vn 0.0501 0.0038 0.9987
vn 0.0306 0.0029 0.9995
vn 0.0329 0.0042 0.9994
vn 0.2871 0.0029 0.9579
vn 0.2787 0.0029 0.9604
vn 0.1934 0.0041 0.9811
vn 0.1645 -0.0008 0.9864
vn 0.2676 -0.0003 0.9635
vn 0.2438 -0.0010 0.9698
vn 0.2539 -0.0004 0.9672
vn 0.2045 -0.0003 0.9789
vn 0.1644 -0.0008 0.9864
vn -0.0013 -0.0036 1.0000
vn 0.2860 0.0018 0.9582
vn 0.2861 0.0018 0.9582
vn 0.4923 0.0013 0.8704
vn 0.3641 0.0014 0.9314
vt 0.178000 0.009000
vt 0.182000 0.009000
vt 0.190000 0.206000
vt 0.008000 0.339000
vt 0.008000 0.295000
vt 0.031000 0.261000
vt 0.008000 0.385000
vt 0.008000 0.431000
vt 0.808000 0.386000
vt 0.789000 0.256000
vt 0.808000 0.340000
vt 0.027000 0.560000
vt 0.043000 0.560000
vt 0.035000 0.560000
vt 0.764000 0.131000
vt 0.750000 0.009000
vt 0.753000 0.009000
vt 0.758000 0.009000
vt 0.765000 0.009000
vt 0.744000 0.009000
vt 0.757000 0.231000
vt 0.746000 0.009000
vt 0.734000 0.009000
vt 0.740000 0.009000
vt 0.726000 0.009000
vt 0.718000 0.009000
vt 0.731000 0.238000
vt 0.702000 0.009000
vt 0.710000 0.009000
vt 0.677000 0.009000
vt 0.685000 0.009000
vt 0.696000 0.271000
vt 0.668000 0.009000
vt 0.676000 0.230000
vt 0.693000 0.560000
vt 0.684000 0.560000
vt 0.661000 0.009000
vt 0.472000 0.198000
vt 0.455000 0.009000
vt 0.460000 0.009000
vt 0.603000 0.217000
vt 0.609000 0.560000
vt 0.604000 0.560000
vt 0.646000 0.009000
vt 0.653000 0.009000
vt 0.657000 0.245000
vt 0.633000 0.170000
vt 0.640000 0.009000
vt 0.630000 0.009000
vt 0.635000 0.009000
vt 0.617000 0.251000
vt 0.602000 0.009000
vt 0.607000 0.009000
vt 0.597000 0.009000
vt 0.592000 0.009000
vt 0.583000 0.219000
vt 0.588000 0.009000
vt 0.575000 0.009000
vt 0.579000 0.009000
vt 0.566000 0.009000
vt 0.571000 0.009000
vt 0.164000 0.220000
vt 0.170000 0.560000
vt 0.166000 0.560000
vt 0.149000 0.560000
vt 0.138000 0.202000
vt 0.156000 0.560000
vt 0.168000 0.009000
vt 0.174000 0.009000
vt 0.187000 0.009000
vt 0.194000 0.009000
vt 0.201000 0.009000
vt 0.124000 0.560000
vt 0.132000 0.560000
vt 0.115000 0.560000
vt 0.107000 0.560000
vt 0.321000 0.560000
vt 0.327000 0.156000
vt 0.328000 0.560000
vt 0.293000 0.009000
vt 0.298000 0.009000
vt 0.291000 0.220000
vt 0.689000 0.271000
vt 0.695000 0.560000
vt 0.703000 0.560000
vt 0.712000 0.560000
vt 0.721000 0.560000
vt 0.724000 0.238000
vt 0.730000 0.560000
vt 0.746000 0.560000
vt 0.750000 0.231000
vt 0.752000 0.560000
vt 0.757000 0.560000
vt 0.759000 0.560000
vt 0.761000 0.560000
vt 0.782000 0.256000
vt 0.771000 0.560000
vt 0.779000 0.560000
vt 0.008000 0.212000
vt 0.008000 0.173000
vt 0.008000 0.141000
vt 0.033000 0.139000
vt 0.008000 0.107000
vt 0.809000 0.106000
vt 0.809000 0.077000
vt 0.809000 0.045000
vt 0.008000 0.009000
vt 0.008000 0.064000
vt 0.775000 0.009000
vt 0.091000 0.269000
vt 0.094000 0.560000
vt 0.088000 0.560000
vt 0.081000 0.560000
vt 0.053000 0.307000
vt 0.074000 0.560000
vt 0.067000 0.560000
vt 0.059000 0.560000
vt 0.051000 0.560000
vt 0.056000 0.113000
vt 0.305000 0.220000
vt 0.314000 0.560000
vt 0.308000 0.560000
vt 0.298000 0.560000
vt 0.293000 0.560000
vt 0.267000 0.224000
vt 0.287000 0.560000
vt 0.281000 0.560000
vt 0.274000 0.560000
vt 0.267000 0.560000
vt 0.238000 0.242000
vt 0.254000 0.560000
vt 0.247000 0.560000
vt 0.261000 0.560000
vt 0.241000 0.560000
vt 0.236000 0.560000
vt 0.230000 0.560000
vt 0.217000 0.289000
vt 0.223000 0.560000
vt 0.770000 0.332000
vt 0.080000 0.131000
vt 0.008000 0.250000
vt 0.432000 0.236000
vt 0.436000 0.560000
vt 0.433000 0.560000
vt 0.440000 0.560000
vt 0.445000 0.219000
vt 0.445000 0.560000
vt 0.449000 0.560000
vt 0.454000 0.560000
vt 0.459000 0.560000
vt 0.464000 0.560000
vt 0.468000 0.560000
vt 0.473000 0.560000
vt 0.477000 0.560000
vt 0.482000 0.560000
vt 0.486000 0.560000
vt 0.490000 0.560000
vt 0.349000 0.218000
vt 0.341000 0.560000
vt 0.335000 0.560000
vt 0.348000 0.560000
vt 0.354000 0.560000
vt 0.360000 0.560000
vt 0.361000 0.227000
vt 0.365000 0.560000
vt 0.371000 0.560000
vt 0.377000 0.221000
vt 0.257000 0.009000
vt 0.262000 0.224000
vt 0.263000 0.009000
vt 0.270000 0.009000
vt 0.276000 0.009000
vt 0.283000 0.009000
vt 0.234000 0.242000
vt 0.245000 0.009000
vt 0.251000 0.009000
vt 0.228000 0.009000
vt 0.235000 0.009000
vt 0.213000 0.289000
vt 0.221000 0.009000
vt 0.213000 0.009000
vt 0.186000 0.206000
vt 0.205000 0.009000
vt 0.197000 0.009000
vt 0.190000 0.009000
vt 0.183000 0.009000
vt 0.668000 0.560000
vt 0.661000 0.560000
vt 0.676000 0.560000
vt 0.702000 0.560000
vt 0.710000 0.560000
vt 0.507000 0.560000
vt 0.514000 0.241000
vt 0.515000 0.560000
vt 0.537000 0.560000
vt 0.529000 0.560000
vt 0.550000 0.272000
vt 0.546000 0.560000
vt 0.553000 0.560000
vt 0.561000 0.560000
vt 0.566000 0.211000
vt 0.566000 0.560000
vt 0.572000 0.560000
vt 0.586000 0.560000
vt 0.590000 0.560000
vt 0.376000 0.560000
vt 0.407000 0.560000
vt 0.402000 0.210000
vt 0.411000 0.560000
vt 0.414000 0.560000
vt 0.411000 0.201000
vt 0.418000 0.560000
vt 0.619000 0.560000
vt 0.614000 0.560000
vt 0.629000 0.560000
vt 0.633000 0.560000
vt 0.638000 0.560000
vt 0.515000 0.009000
vt 0.529000 0.009000
vt 0.508000 0.009000
vt 0.501000 0.009000
vt 0.481000 0.009000
vt 0.494000 0.241000
vt 0.477000 0.009000
vt 0.473000 0.009000
vt 0.468000 0.009000
vt 0.464000 0.009000
vt 0.372000 0.009000
vt 0.372000 0.221000
vt 0.377000 0.009000
vt 0.367000 0.009000
vt 0.362000 0.009000
vt 0.356000 0.227000
vt 0.356000 0.009000
vt 0.351000 0.009000
vt 0.322000 0.156000
vt 0.326000 0.009000
vt 0.320000 0.009000
vt 0.314000 0.009000
vt 0.442000 0.009000
vt 0.446000 0.009000
vt 0.425000 0.009000
vt 0.419000 0.232000
vt 0.428000 0.009000
vt 0.422000 0.009000
vt 0.419000 0.009000
vt 0.416000 0.009000
vt 0.037000 0.008000
vt 0.031000 0.139000
vt 0.044000 0.008000
vt 0.562000 0.009000
vt 0.557000 0.009000
vt 0.551000 0.009000
vt 0.545000 0.009000
vt 0.134000 0.202000
vt 0.158000 0.009000
vt 0.151000 0.009000
vt 0.160000 0.220000
vt 0.135000 0.009000
vt 0.143000 0.009000
vt 0.126000 0.009000
vt 0.119000 0.009000
vt 0.112000 0.009000
vt 0.101000 0.009000
vt 0.087000 0.269000
vt 0.106000 0.009000
vt 0.095000 0.009000
vt 0.077000 0.131000
vt 0.088000 0.009000
vt 0.081000 0.009000
vt 0.074000 0.009000
vt 0.067000 0.009000
vt 0.053000 0.112000
vt 0.059000 0.009000
vt 0.301000 0.220000
vt 0.308000 0.009000
vt 0.303000 0.009000
vt 0.432000 0.009000
vt 0.440000 0.219000
vt 0.436000 0.009000
vt 0.429000 0.009000
vt 0.417000 0.009000
vt 0.413000 0.232000
vt 0.397000 0.210000
vt 0.401000 0.009000
vt 0.397000 0.009000
vt 0.406000 0.201000
vt 0.405000 0.009000
vt 0.408000 0.009000
vt 0.467000 0.198000
vt 0.445000 0.008000
vt 0.450000 0.009000
vt 0.454000 0.009000
vt 0.467000 0.009000
vt 0.471000 0.009000
vt 0.479000 0.009000
vt 0.488000 0.241000
vt 0.483000 0.009000
vt 0.475000 0.009000
vt 0.366000 0.560000
vt 0.377000 0.560000
vt 0.382000 0.560000
vt 0.393000 0.560000
vt 0.582000 0.009000
vt 0.597000 0.217000
vt 0.586000 0.009000
vt 0.591000 0.009000
vt 0.610000 0.251000
vt 0.595000 0.009000
vt 0.005000 0.212000
vt 0.005000 0.250000
vt 0.028000 0.261000
vt 0.005000 0.172000
vt 0.052000 0.009000
vt 0.005000 0.339000
vt 0.005000 0.295000
vt 0.005000 0.385000
vt 0.662000 0.008000
vt 0.670000 0.008000
vt 0.678000 0.009000
vt 0.686000 0.009000
vt 0.694000 0.009000
vt 0.703000 0.009000
vt 0.711000 0.009000
vt 0.719000 0.009000
vt 0.509000 0.009000
vt 0.508000 0.241000
vt 0.523000 0.009000
vt 0.005000 0.009000
vt 0.005000 0.063000
vt 0.005000 0.107000
vt 0.005000 0.141000
vt 0.005000 0.432000
vt 0.800000 0.386000
vt 0.801000 0.340000
vt 0.801000 0.294000
vt 0.801000 0.251000
vt 0.801000 0.212000
vt 0.801000 0.174000
vt 0.801000 0.138000
vt 0.801000 0.106000
vt 0.801000 0.077000
vt 0.801000 0.045000
vt 0.768000 0.009000
vt 0.025000 0.560000
vt 0.032000 0.560000
vt 0.040000 0.560000
vt 0.078000 0.560000
vt 0.085000 0.560000
vt 0.104000 0.560000
vt 0.112000 0.560000
vt 0.120000 0.560000
vt 0.129000 0.560000
vt 0.137000 0.560000
vt 0.203000 0.560000
vt 0.195000 0.560000
vt 0.187000 0.560000
vt 0.179000 0.560000
vt 0.172000 0.560000
vt 0.162000 0.560000
vt 0.158000 0.560000
vt 0.152000 0.560000
vt 0.226000 0.560000
vt 0.219000 0.560000
vt 0.232000 0.560000
vt 0.237000 0.560000
vt 0.263000 0.560000
vt 0.270000 0.560000
vt 0.458000 0.560000
vt 0.463000 0.560000
vt 0.467000 0.560000
vt 0.277000 0.560000
vt 0.283000 0.560000
vt 0.286000 0.220000
vt 0.289000 0.560000
vt 0.288000 0.009000
vt 0.294000 0.009000
vt 0.304000 0.560000
vt 0.344000 0.217000
vt 0.343000 0.560000
vt 0.349000 0.560000
vt 0.339000 0.009000
vt 0.345000 0.009000
vt 0.355000 0.560000
vt 0.145000 0.560000
vt 0.406000 0.560000
vt 0.409000 0.560000
vt 0.415000 0.560000
vt 0.421000 0.560000
vt 0.424000 0.560000
vt 0.427000 0.236000
vt 0.435000 0.560000
vt 0.439000 0.560000
vt 0.444000 0.560000
vt 0.453000 0.560000
vt 0.650000 0.244000
vt 0.669000 0.560000
vt 0.670000 0.230000
vt 0.642000 0.560000
vt 0.648000 0.560000
vt 0.637000 0.560000
vt 0.677000 0.560000
vt 0.686000 0.560000
vt 0.476000 0.560000
vt 0.480000 0.560000
vt 0.484000 0.560000
vt 0.774000 0.560000
vt 0.786000 0.560000
vt 0.797000 0.560000
vt 0.810000 0.560000
vt 0.576000 0.219000
vt 0.593000 0.560000
vt 0.597000 0.560000
vt 0.602000 0.560000
vt 0.607000 0.560000
vt 0.613000 0.560000
vt 0.382000 0.009000
vt 0.366000 0.009000
vt 0.361000 0.009000
vt 0.350000 0.009000
vt 0.344000 0.009000
vt 0.338000 0.009000
vt 0.331000 0.009000
vt 0.325000 0.009000
vt 0.319000 0.009000
vt 0.313000 0.009000
vt 0.523000 0.560000
vt 0.531000 0.560000
vt 0.544000 0.272000
vt 0.539000 0.560000
vt 0.547000 0.560000
vt 0.531000 0.009000
vt 0.554000 0.560000
vt 0.560000 0.210000
vt 0.560000 0.560000
vt 0.565000 0.560000
vt 0.556000 0.009000
vt 0.387000 0.009000
vt 0.085000 0.009000
vt 0.091000 0.009000
vt 0.098000 0.009000
vt 0.104000 0.009000
vt 0.110000 0.009000
vt 0.070000 0.009000
vt 0.077000 0.009000
vt 0.047000 0.009000
vt 0.055000 0.009000
vt 0.040000 0.009000
vt 0.255000 0.009000
vt 0.261000 0.009000
vt 0.249000 0.009000
vt 0.239000 0.009000
vt 0.244000 0.009000
vt 0.232000 0.009000
vt 0.225000 0.009000
vt 0.217000 0.009000
vt 0.154000 0.009000
vt 0.162000 0.009000
vt 0.130000 0.009000
vt 0.138000 0.009000
vt 0.115000 0.009000
vt 0.122000 0.009000
vt 0.745000 0.560000
vt 0.753000 0.560000
vt 0.767000 0.560000
vt 0.764000 0.559000
vt 0.760000 0.560000
vt 0.769000 0.560000
vt 0.737000 0.560000
vt 0.728000 0.560000
vt 0.757000 0.131000
vt 0.741000 0.009000
vt 0.739000 0.008000
vt 0.736000 0.008000
vt 0.626000 0.170000
vt 0.634000 0.009000
vt 0.628000 0.009000
vt 0.623000 0.009000
vt 0.609000 0.009000
vt 0.614000 0.009000
vt 0.605000 0.008000
vt 0.600000 0.009000
vt 0.632000 0.560000
vt 0.627000 0.560000
vt 0.622000 0.560000
vt 0.050000 0.307000
vt 0.064000 0.560000
vt 0.071000 0.560000
vt 0.056000 0.560000
vt 0.048000 0.560000
vt 0.763000 0.332000
vt 0.763000 0.560000
vt 0.766000 0.560000
s 1
usemtl RefRep.18_SH_initial_loader.002
f 39/1/1 1/2/2 299/3/3
f 3/4/4 2/5/5 225/6/6
f 3/4/4 225/6/6 4/7/7
f 4/7/7 225/6/6 7/8/8
f 452/9/9 500/10/10 5/11/11
f 7/8/8 225/6/6 6/12/12
f 225/6/6 64/13/13 8/14/14
f 11/15/15 9/16/16 10/17/17
f 11/15/15 10/17/17 501/18/18
f 11/15/15 501/18/18 59/19/19
f 393/20/20 11/15/15 236/21/21
f 11/15/15 393/20/20 394/22/22
f 236/21/23 13/23/24 12/24/25
f 236/21/23 392/25/26 13/23/24
f 14/26/27 392/25/28 443/27/29
f 391/28/30 15/29/31 443/27/29
f 387/30/32 390/31/33 490/32/34
f 490/32/34 388/33/35 387/30/32
f 388/33/35 490/32/34 485/34/36
f 485/34/37 389/35/38 94/36/39
f 485/34/36 16/37/40 388/33/35
f 18/38/41 19/39/42 17/40/43
f 404/41/44 22/42/45 267/43/46
f 24/44/47 386/45/48 25/46/49
f 27/47/50 396/48/51 25/46/49
f 396/48/51 24/44/47 25/46/49
f 28/49/52 26/50/53 27/47/54
f 29/51/55 32/52/56 30/53/57
f 31/54/58 29/51/55 404/41/44
f 29/51/55 31/54/58 32/52/56
f 33/55/59 31/54/58 404/41/44
f 23/56/60 403/57/61 404/41/44
f 403/57/61 33/55/59 404/41/44
f 23/56/60 35/58/62 34/59/63
f 23/56/60 402/60/64 36/61/65
f 502/62/66 37/63/67 503/64/68
f 37/63/67 502/62/66 299/3/3
f 39/1/1 299/3/3 502/62/66
f 504/65/69 40/66/70 301/67/71
f 502/62/66 300/68/72 38/69/73
f 1/2/2 298/70/74 299/3/3
f 296/71/75 297/72/76 299/3/3
f 505/73/77 40/66/70 41/74/78
f 40/66/70 505/73/77 42/75/79
f 43/76/80 40/66/70 42/75/79
f 66/77/81 44/78/82 278/79/83
f 45/80/84 286/81/85 273/82/86
f 472/83/87 474/84/88 475/85/89
f 475/85/89 473/86/90 472/83/87
f 472/83/87 473/86/90 471/87/91
f 471/87/91 164/88/92 472/83/87
f 164/88/92 471/87/91 478/89/93
f 164/88/92 46/90/94 254/91/95
f 254/91/96 479/92/97 47/93/98
f 254/91/96 48/94/99 253/95/100
f 382/96/101 256/97/102 49/98/103
f 507/99/104 498/100/105 225/6/6
f 498/100/105 51/101/106 55/102/107
f 53/103/108 55/102/107 51/101/106
f 52/104/109 500/10/110 54/105/111
f 54/105/111 500/10/110 56/106/112
f 57/107/113 55/102/114 499/108/115
f 500/10/110 58/109/116 56/106/112
f 11/15/15 59/19/19 500/10/10
f 60/110/117 61/111/118 62/112/119
f 513/113/120 60/110/117 62/112/119
f 513/113/120 516/114/121 60/110/117
f 516/114/121 514/115/122 515/116/123
f 63/117/124 516/114/121 515/116/123
f 64/13/13 516/114/121 517/118/125
f 225/6/6 516/114/121 64/13/13
f 516/114/121 225/6/6 65/119/126
f 66/77/81 275/120/127 44/78/82
f 275/120/128 277/121/129 276/122/130
f 273/82/131 67/123/132 274/124/133
f 227/125/134 258/126/135 68/127/136
f 258/126/135 227/125/134 273/82/137
f 266/128/138 227/125/134 68/127/136
f 227/125/134 266/128/138 69/129/139
f 229/130/140 265/131/141 263/132/142
f 265/131/141 229/130/140 70/133/143
f 229/130/140 227/125/134 70/133/143
f 264/134/144 229/130/140 263/132/142
f 229/130/140 264/134/144 262/135/145
f 71/136/146 229/130/140 262/135/145
f 72/137/147 229/130/140 71/136/146
f 257/138/148 72/137/147 71/136/146
f 11/15/15 500/10/10 207/139/149
f 516/114/121 65/119/126 327/140/150
f 507/99/104 225/6/6 506/141/151
f 118/142/152 77/143/153 73/144/154
f 76/145/155 118/142/156 20/146/157
f 76/145/155 20/146/157 74/147/158
f 75/148/159 20/146/160 78/149/161
f 20/146/160 283/150/162 78/149/161
f 283/150/162 20/146/160 18/38/163
f 283/150/162 18/38/163 272/151/164
f 272/151/164 18/38/163 79/152/165
f 18/38/163 512/153/166 79/152/165
f 512/153/166 18/38/163 511/154/167
f 18/38/163 80/155/168 511/154/167
f 80/155/168 18/38/163 509/156/169
f 18/38/163 510/157/170 509/156/169
f 44/78/82 82/158/171 280/159/172
f 279/160/173 44/78/82 280/159/172
f 310/161/174 82/158/171 304/162/175
f 82/158/171 84/163/176 304/162/175
f 84/163/176 215/164/177 83/165/178
f 82/158/171 215/164/177 84/163/176
f 85/166/179 215/164/177 101/167/180
f 215/164/177 85/166/179 83/165/178
f 88/168/181 440/169/182 87/170/183
f 86/171/183 440/169/182 441/172/184
f 440/169/182 442/173/185 441/172/184
f 181/174/186 440/169/182 438/175/187
f 438/175/187 440/169/182 439/176/188
f 497/177/189 181/174/190 89/178/191
f 413/179/192 497/177/189 496/180/193
f 91/181/194 90/182/195 496/180/193
f 90/182/195 413/179/192 496/180/193
f 90/182/195 92/183/196 495/184/197
f 494/185/198 90/182/195 495/184/197
f 90/182/195 494/185/198 93/186/199
f 431/1/200 90/182/195 93/186/199
f 90/182/195 431/1/200 397/69/201
f 25/46/49 95/187/202 483/188/203
f 484/189/204 25/46/49 485/34/36
f 95/187/202 25/46/49 484/189/204
f 486/190/205 490/32/206 487/191/207
f 508/192/208 281/193/209 96/194/210
f 281/193/209 282/195/211 97/196/212
f 282/195/211 125/197/213 98/198/214
f 268/199/215 125/197/216 269/200/217
f 125/197/216 423/201/218 99/202/219
f 99/202/219 423/201/218 270/203/220
f 125/197/216 99/202/219 269/200/217
f 100/204/221 23/56/222 271/205/223
f 85/166/179 101/167/180 311/206/224
f 313/207/225 50/208/226 312/209/227
f 315/210/228 314/211/229 261/212/230
f 29/51/55 103/213/231 102/214/232
f 259/215/233 29/51/234 27/47/50
f 259/215/233 27/47/50 260/216/235
f 260/216/235 27/47/50 482/217/236
f 281/193/209 421/218/237 126/219/238
f 420/220/239 421/218/237 281/193/209
f 281/193/209 104/221/240 420/220/239
f 105/222/241 81/223/242 18/38/163
f 106/224/243 105/222/241 18/38/163
f 18/38/163 433/225/244 106/224/243
f 107/226/245 433/225/244 18/38/163
f 18/38/163 108/227/246 107/226/245
f 110/228/247 333/229/248 446/230/249
f 333/229/250 109/231/251 445/232/252
f 445/232/252 111/233/253 333/229/250
f 111/233/253 445/232/252 113/234/254
f 112/235/255 111/233/253 113/234/254
f 114/236/256 464/237/257 115/238/258
f 135/239/259 114/236/256 115/238/258
f 116/240/260 21/241/261 20/146/262
f 117/242/263 118/142/152 122/243/264
f 118/142/152 117/242/263 119/244/265
f 395/245/266 117/242/263 122/243/264
f 122/243/264 120/246/267 395/245/266
f 121/247/268 120/246/267 122/243/264
f 321/248/269 167/249/270 320/250/271
f 23/56/60 123/251/272 402/60/64
f 422/252/273 123/251/274 423/201/218
f 401/253/275 422/252/273 423/201/218
f 125/197/213 124/254/276 401/253/275
f 289/255/277 290/256/278 291/257/279
f 397/69/201 430/258/280 90/182/195
f 127/259/281 289/255/277 292/260/282
f 289/255/277 127/259/281 293/261/283
f 289/255/284 294/262/285 128/263/286
f 130/264/287 129/265/288 295/266/289
f 316/267/290 129/265/288 130/264/287
f 131/268/291 316/267/290 132/269/292
f 317/270/293 131/268/291 132/269/292
f 131/268/291 317/270/293 133/271/294
f 318/272/295 458/273/296 131/268/297
f 134/274/298 458/273/296 318/272/295
f 350/275/299 114/236/256 137/276/300
f 136/277/301 350/275/299 137/276/300
f 350/275/299 136/277/301 351/81/302
f 374/278/303 370/279/304 373/280/305
f 370/279/304 374/278/303 199/281/306
f 434/282/307 141/283/308 138/246/309
f 331/284/310 447/285/311 139/286/312
f 194/287/313 448/288/314 447/285/311
f 448/288/314 194/287/313 140/289/315
f 194/287/313 141/283/316 140/289/315
f 370/279/304 184/290/317 372/291/318
f 371/292/319 184/290/320 143/293/321
f 144/294/322 184/290/323 145/295/324
f 369/296/325 146/297/326 147/298/327
f 146/297/326 369/296/325 148/299/328
f 148/299/328 184/290/320 146/297/326
f 333/229/248 192/300/329 150/166/330
f 150/166/330 151/301/331 333/229/248
f 333/229/248 151/301/331 152/302/332
f 333/229/248 152/302/332 332/303/333
f 154/304/334 340/305/335 339/306/336
f 155/307/337 338/308/338 157/309/339
f 340/305/340 338/308/338 155/307/337
f 361/310/341 158/311/342 159/312/343
f 361/310/341 159/312/343 362/313/344
f 362/313/344 159/312/343 167/249/270
f 167/249/270 159/312/343 320/250/271
f 320/250/271 159/312/343 319/314/345
f 159/312/343 458/273/296 319/314/345
f 359/315/346 159/312/343 360/316/347
f 359/315/346 160/317/348 159/312/343
f 357/318/349 472/83/87 161/319/350
f 162/320/351 164/88/92 163/321/352
f 164/88/92 367/322/353 163/321/352
f 367/322/353 164/88/92 166/323/354
f 165/324/355 164/88/356 366/325/357
f 149/326/358 368/327/359 385/328/360
f 376/329/361 168/330/362 167/249/270
f 375/331/363 169/332/364 167/249/270
f 362/313/344 167/249/270 169/332/364
f 160/317/348 405/333/365 159/312/343
f 382/96/101 170/334/366 406/335/367
f 382/96/101 406/335/367 171/336/368
f 382/96/101 383/337/369 172/338/370
f 382/96/101 380/339/371 381/340/372
f 382/96/101 381/340/372 379/341/373
f 382/96/101 378/342/374 377/343/375
f 382/96/101 377/343/375 364/344/376
f 405/333/365 419/345/377 159/312/343
f 419/345/377 173/346/378 159/312/343
f 159/312/343 173/346/378 251/347/379
f 418/348/380 417/349/381 129/265/288
f 289/255/284 174/350/382 416/351/383
f 289/255/284 416/351/383 175/352/384
f 289/255/284 175/352/384 415/353/385
f 289/255/284 415/353/385 193/354/386
f 90/182/195 429/355/387 413/179/192
f 428/356/388 429/355/387 90/182/195
f 90/182/195 427/357/389 428/356/388
f 177/358/389 427/357/389 90/182/195
f 90/182/195 426/359/390 177/358/389
f 178/64/391 426/359/390 90/182/195
f 430/258/280 178/64/391 90/182/195
f 179/360/392 178/64/391 430/258/280
f 430/258/280 347/361/393 179/360/392
f 432/362/394 347/361/395 289/255/277
f 180/363/396 181/174/186 413/179/192
f 413/179/192 176/364/397 180/363/396
f 180/363/396 412/365/398 181/174/186
f 181/174/186 412/365/398 411/366/399
f 440/169/182 410/367/400 182/368/401
f 184/290/317 356/369/402 355/370/403
f 355/370/403 354/371/404 184/290/317
f 440/169/182 183/372/405 185/373/406
f 440/169/182 185/373/406 408/374/407
f 408/374/408 407/375/409 186/124/410
f 442/173/185 440/169/182 408/374/407
f 409/376/411 408/374/412 463/377/413
f 351/81/302 408/374/408 350/275/299
f 408/374/408 187/123/414 350/275/299
f 187/123/414 188/378/415 350/275/299
f 189/379/416 348/380/417 190/381/418
f 363/382/419 189/379/416 349/383/420
f 190/381/418 191/384/421 189/379/416
f 189/379/416 191/384/421 111/233/422
f 191/384/421 334/163/423 111/233/422
f 414/385/424 432/362/394 289/255/277
f 194/287/313 195/386/425 346/387/426
f 141/283/308 196/388/427 197/212/428
f 141/283/308 197/212/428 345/389/429
f 141/283/308 345/389/429 344/390/430
f 138/246/431 198/391/432 437/245/433
f 437/245/433 198/391/432 335/242/434
f 199/281/306 198/391/435 370/279/304
f 200/392/436 343/393/437 370/279/438
f 370/279/438 343/393/437 341/394/439
f 341/394/439 342/148/440 370/279/438
f 370/279/304 201/395/441 184/290/317
f 142/396/442 202/397/443 358/398/444
f 142/396/445 492/399/446 203/400/447
f 491/401/448 492/399/446 142/396/445
f 358/398/444 477/402/449 476/403/450
f 358/398/444 476/403/450 472/83/87
f 472/83/87 476/403/450 474/84/88
f 204/404/451 352/405/452 184/290/317
f 184/290/317 352/405/452 353/406/453
f 240/97/454 207/139/455 469/407/456
f 500/10/457 470/408/458 206/98/459
f 208/409/460 500/10/461 493/410/462
f 153/411/463 209/412/464 210/413/465
f 153/411/463 210/413/465 340/305/340
f 340/305/340 210/413/465 211/414/466
f 340/305/340 211/414/466 449/415/467
f 449/415/467 450/416/468 338/308/338
f 101/167/469 212/230/470 425/417/471
f 213/228/472 212/230/470 101/167/469
f 424/418/473 213/228/472 101/167/469
f 215/164/474 305/419/475 424/418/473
f 215/164/474 214/234/476 305/419/475
f 216/420/477 214/234/476 82/158/171
f 44/78/82 218/421/478 82/158/171
f 44/78/82 217/422/479 218/421/478
f 306/423/480 217/422/479 44/78/82
f 44/78/82 219/424/481 306/423/480
f 284/425/482 219/424/481 44/78/82
f 275/120/127 285/426/483 44/78/82
f 285/426/483 284/425/482 44/78/82
f 286/81/85 220/277/484 273/82/86
f 368/327/359 205/427/485 468/428/486
f 368/327/359 468/428/486 222/429/487
f 222/429/487 468/428/486 467/430/488
f 222/429/487 467/430/488 221/431/489
f 385/328/360 368/327/359 222/429/487
f 385/328/360 222/429/487 384/432/490
f 222/429/487 221/431/489 465/433/491
f 436/434/492 466/435/493 435/436/494
f 222/429/487 436/434/495 330/254/496
f 436/434/495 329/253/497 330/254/496
f 329/253/497 436/434/495 328/437/498
f 101/167/469 223/438/499 50/208/500
f 101/167/469 425/417/471 223/438/499
f 326/439/501 325/440/502 327/140/503
f 327/140/503 325/440/502 324/441/504
f 327/140/503 324/441/504 60/110/117
f 60/110/117 324/441/504 323/442/505
f 60/110/117 323/442/505 235/443/506
f 327/140/503 399/444/507 400/445/508
f 398/446/509 224/447/510 225/6/6
f 57/107/113 226/448/511 55/102/114
f 288/449/512 287/450/513 227/125/514
f 227/125/514 309/451/515 288/449/512
f 308/452/516 228/453/517 229/130/518
f 307/454/519 308/452/516 229/130/518
f 299/3/3 231/455/520 72/137/147
f 299/3/3 230/456/521 231/455/520
f 40/66/70 303/457/522 302/458/523
f 233/459/524 232/460/525 40/66/70
f 322/461/526 234/462/527 40/66/70
f 444/463/528 443/27/29 241/464/529
f 236/21/530 238/465/531 481/466/532
f 237/467/533 236/21/530 481/466/532
f 236/21/530 237/467/533 241/464/529
f 239/468/534 207/139/455 240/97/454
f 443/27/29 236/21/530 241/464/529
f 489/469/535 443/27/29 444/463/528
f 488/470/536 490/32/206 443/27/537
f 365/18/538 456/471/539 382/96/101
f 242/22/540 456/471/539 453/16/541
f 456/471/542 243/472/543 455/473/544
f 254/91/96 456/471/539 454/474/545
f 244/475/546 491/401/448 142/396/445
f 244/475/546 142/396/445 336/476/547
f 245/477/548 244/475/546 336/476/547
f 244/475/546 245/477/548 246/478/549
f 248/479/550 244/475/551 247/480/552
f 244/475/551 248/479/550 337/481/553
f 156/482/554 244/475/551 337/481/553
f 338/308/338 244/475/551 156/482/554
f 244/475/546 249/483/555 491/401/448
f 250/484/556 249/483/555 244/475/546
f 244/475/546 451/485/557 250/484/556
f 457/486/558 459/487/559 460/488/560
f 461/489/561 459/487/559 457/486/558
f 251/347/379 462/490/562 457/486/558
f 457/486/563 129/265/564 131/268/291
f 456/471/539 252/491/565 382/96/101
f 252/491/565 456/471/539 254/91/96
f 254/91/96 253/95/100 252/491/565
f 252/491/566 255/492/567 480/493/568
f 252/491/565 256/97/102 382/96/101
