# Blender 5.1.1
# www.blender.org
mtllib Room3.mtl
o Room3
v 21.801979 26.378252 -31.032917
v 23.862221 26.377199 -31.030003
v 13.295472 26.393259 -18.377869
v 15.403136 26.392179 -18.374891
v 11.172921 26.403202 -7.842542
v 13.277609 26.403887 -5.731901
v 6.981497 26.391161 -24.762476
v 4.855892 26.402914 -12.066802
v -1.473047 26.409710 -7.860413
v -1.470070 26.407936 -9.968078
v 6.957602 26.405373 -7.848496
v 13.298457 26.391495 -20.485533
v 4.867809 26.395834 -20.497440
v 4.864832 26.397598 -18.389786
v 9.092210 26.388254 -26.919855
v 6.990385 26.385876 -31.053844
v 23.829437 26.396696 -7.824653
v 21.766218 26.399525 -5.719904
v -1.467093 26.406172 -12.075733
v -1.464115 26.404394 -14.183397
v 4.858878 26.401148 -14.174466
v -1.455175 26.399082 -20.506380
v -1.440264 26.390213 -31.065762
v 9.065267 26.404284 -7.845519
v 9.062289 26.406057 -5.737855
v 11.184839 26.396114 -16.273182
v 9.074198 26.398977 -14.168503
v 11.193770 26.390810 -22.596174
v 9.086106 26.391890 -22.599152
v 11.199874 26.387173 -26.916878
v 13.292495 26.395033 -16.270205
v 11.178885 26.399664 -12.057861
v 13.289517 26.396809 -14.162549
v 11.175907 26.401430 -9.950207
v 13.280586 26.402122 -7.839565
v 13.283564 26.400349 -9.947221
v 15.388250 26.401033 -7.836579
v 0.646526 26.401541 -16.288084
v 2.757168 26.398678 -18.392763
v 4.861855 26.399372 -16.282122
v 6.969510 26.398283 -16.279144
v 9.077175 26.397202 -16.276167
v 9.089162 26.390072 -24.759499
v 0.661569 26.392591 -26.931772
v 0.658513 26.394409 -24.771416
v 0.655457 26.396229 -22.611059
v 0.649503 26.399767 -18.395739
v 15.394205 26.397495 -12.051908
v 13.286541 26.398575 -12.054885
v 0.634618 26.408621 -7.857436
v 0.637595 26.406857 -9.965092
v 2.742282 26.407541 -7.854459
v 2.745259 26.405767 -9.962114
v 4.882720 26.386955 -31.056829
v 6.984554 26.389343 -26.922832
v 6.978442 26.392979 -22.602129
v 4.873833 26.392241 -24.765461
v 2.763122 26.395149 -22.608082
v 9.098049 26.384787 -31.050867
v 11.205713 26.383705 -31.047892
v 4.876889 26.390430 -26.925817
v 2.760144 26.396914 -20.500429
v 4.870786 26.394060 -22.605104
v 6.966533 26.400057 -14.171480
v 6.963556 26.401834 -12.063825
v 0.652480 26.398003 -20.503403
v 2.766178 26.393332 -24.768438
v 0.667401 26.389124 -31.062784
v 2.775065 26.388044 -31.059807
v 2.769225 26.391512 -26.928795
v 2.739296 26.409306 -5.746795
v 0.640572 26.405083 -12.072757
v 2.748236 26.404003 -12.069779
v 2.754190 26.400452 -16.285099
v 2.751213 26.402225 -14.177434
v 0.643549 26.403315 -14.180420
v 23.832415 26.394922 -9.932317
v 21.769196 26.397749 -7.827569
v 17.548597 26.399918 -7.833532
v 17.545620 26.401693 -5.725867
v 13.313370 26.382618 -31.044914
v 15.412146 26.386824 -24.750568
v 15.406122 26.390406 -20.482548
v 4.849938 26.406452 -7.851473
v 4.846961 26.408226 -5.743817
v 17.557537 26.394604 -14.156516
v 15.400159 26.393944 -16.267227
v 15.397182 26.395718 -14.159563
v 6.954625 26.407137 -5.740840
v 6.960579 26.403599 -9.956160
v 11.196818 26.388992 -24.756521
v 13.304482 26.387901 -24.753546
v 13.307538 26.386093 -26.913900
v 11.190793 26.392574 -20.488510
v 13.301435 26.389721 -22.593189
v 4.852915 26.404688 -9.959137
v 17.563492 26.391064 -18.371838
v 23.844324 26.387833 -18.362957
v 23.847309 26.386068 -20.470621
v 21.787067 26.387121 -20.473537
v 23.850277 26.384295 -22.578285
v 23.841347 26.389606 -16.255302
v 21.775148 26.394211 -12.042889
v 21.778126 26.392435 -14.150553
v 23.835392 26.393147 -12.039973
v 23.838369 26.391380 -14.147637
v 17.551582 26.398153 -9.941187
v 15.391228 26.399260 -9.944243
v 19.708954 26.398813 -7.830475
v 19.711939 26.397039 -9.938140
v 21.772171 26.395975 -9.935225
v 17.554552 26.396379 -12.048852
v 19.714909 26.395264 -12.045804
v 21.781103 26.390671 -16.258207
v 19.720871 26.391724 -16.261124
v 19.717884 26.393496 -14.153460
v 17.560514 26.392839 -16.264172
v 11.181862 26.397886 -14.165525
v 9.071220 26.400745 -12.060839
v 9.068243 26.402519 -9.953183
v 19.741745 26.379313 -31.035833
v 21.784081 26.388895 -18.365873
v 19.723846 26.389957 -18.368788
v 19.726824 26.388184 -20.476444
v 21.790045 26.385355 -22.581192
v 9.083129 26.393663 -20.491488
v 6.972487 26.396509 -18.386808
v 23.856390 26.380665 -26.898989
v 19.732851 26.384600 -24.744465
v 21.796148 26.381721 -26.901896
v 19.729801 26.386419 -22.584108
v 17.572502 26.385708 -24.747511
v 23.853333 26.382475 -24.738634
v 21.793091 26.383539 -24.741549
v 15.409100 26.388641 -22.590212
v 17.566469 26.389297 -20.479502
v 17.569445 26.387526 -22.587154
v 11.187816 26.394348 -18.380846
v 9.080152 26.395430 -18.383831
v 6.975464 26.394745 -20.494465
v 15.415203 26.385004 -26.910913
v 17.575548 26.383898 -26.907867
v 17.581390 26.380421 -31.038879
v 19.735905 26.382782 -26.904812
v 15.421034 26.381536 -31.041937
v -5.733190 26.438524 23.853928
v -3.622469 26.435627 21.696560
v -31.121429 26.446192 17.389669
v -26.800726 26.443972 17.395773
v -18.370077 26.439632 17.407698
v -18.373055 26.441406 19.515352
v -12.050071 26.438148 19.524294
v -14.157725 26.439238 19.521307
v -1.505803 26.429192 15.323860
v -7.831764 26.434214 17.422585
v -9.939428 26.435293 17.419607
v -3.616445 26.432045 17.428547
v -5.724100 26.433125 17.425562
v -5.727086 26.434898 19.533226
v -31.115475 26.442654 13.174349
v -35.246513 26.444778 13.168509
v -35.249493 26.446552 15.276174
v -26.794762 26.440432 13.180452
v -26.791786 26.438654 11.072788
v -26.797749 26.442205 15.288116
v -7.834742 26.435978 19.530249
v -5.730133 26.436707 21.693583
v -7.837798 26.437796 21.690596
v -7.840845 26.439606 23.850950
v -9.948509 26.440695 23.847975
v -14.160783 26.441046 21.681664
v -18.379158 26.445032 23.836058
v -22.591431 26.445385 21.669746
v -18.376102 26.443214 21.675709
v -31.127462 26.449785 21.657690
v -26.806751 26.447554 21.663794
v -12.061996 26.445244 27.965481
v -14.169652 26.446323 27.962496
v -14.154749 26.437464 17.413652
v -12.047093 26.436382 17.416630
v -14.148794 26.433926 13.198324
v -12.038153 26.431067 11.093645
v -9.933475 26.431755 13.204287
v -9.930498 26.429977 11.096622
v -14.130933 26.423298 0.552355
v -12.020290 26.420441 -1.552323
v -3.598573 26.421417 4.782578
v -5.706238 26.422497 4.779601
v -3.595596 26.419651 2.674914
v -22.567533 26.431173 4.755767
v -22.564558 26.429409 2.648103
v -31.103558 26.435564 4.743701
v -35.237576 26.439463 6.845525
v -31.100580 26.433800 2.636036
v -26.776899 26.429804 0.534484
v -26.773922 26.428028 -1.573171
v -22.561571 26.427635 0.540447
v -31.097605 26.432026 0.528381
v -35.228642 26.434151 0.522541
v -35.231621 26.435925 2.630205
v -9.912626 26.419352 -1.549346
v -14.124978 26.419756 -3.662965
v -14.127955 26.421530 -1.555300
v -18.340298 26.421926 -3.668919
v -18.343275 26.423691 -1.561263
v -22.555618 26.424095 -3.674873
v -22.558594 26.425859 -1.567217
v -26.770945 26.426264 -3.680836
v -31.091650 26.428486 -3.686939
v -7.819856 26.427124 8.991944
v -9.936451 26.433529 15.311952
v -5.715169 26.427809 11.102586
v -1.490918 26.420336 4.785555
v -14.142841 26.430382 8.983005
v -9.924535 26.426439 6.881302
v -9.927521 26.428213 8.988958
v -35.240551 26.441229 8.953189
v -31.109512 26.439112 8.959021
v -31.106535 26.437338 6.851365
v -26.785831 26.435116 6.857469
v -22.573488 26.434711 8.971096
v -18.358160 26.432552 8.977050
v -7.825810 26.430676 13.207264
v -12.041130 26.432837 13.201309
v -12.044107 26.434610 15.308966
v -14.151772 26.435698 15.305988
v -35.234596 26.437689 4.737861
v -26.803703 26.445744 19.503437
v -31.124407 26.447966 19.497334
v -35.258492 26.451900 21.651840
v -35.255447 26.450090 19.491495
v -35.222687 26.430611 -3.692779
v -35.219711 26.428837 -5.800444
v -31.088673 26.426712 -5.794603
v -26.767971 26.424490 -5.788491
v -12.035176 26.429293 8.985981
v -14.145817 26.432148 11.090659
v -9.942406 26.437067 19.527271
v -3.625525 26.437447 23.856913
v -1.517861 26.436367 23.859890
v -7.801985 26.416508 -3.654024
v -5.718146 26.429586 13.210240
v -1.499849 26.425640 11.108540
v -5.721123 26.431360 15.317905
v -7.828787 26.432440 15.314929
v -1.511757 26.432730 19.539188
v -3.619422 26.433809 19.536203
v -35.110054 22.150000 19.044502
v -35.121399 0.103848 19.063007
v -34.778339 0.102706 17.919310
v -34.778614 0.102873 18.113926
v -34.767277 22.149023 18.095421
v -34.758747 22.143955 12.062170
v -34.770367 0.097963 12.275310
v -34.756001 22.142323 10.115961
v -34.756271 22.142490 10.310586
v -34.764587 0.094529 8.188258
v -34.764870 0.094696 8.382875
v -34.753521 22.140856 8.364369
v -34.761848 0.092896 6.242041
v -34.750500 22.139055 6.223536
v -34.750774 22.139214 6.418152
v -34.761780 22.145758 14.203012
v -34.761497 22.145601 14.008388
v -34.764526 22.147390 16.149229
v -34.775864 0.101239 16.167736
v -35.101807 0.092193 5.197149
v -35.090469 22.138351 5.178644
v -34.753250 22.140688 8.169744
v -34.767345 0.096163 10.134467
v -35.107548 0.095610 9.258197
v -35.096203 22.141762 9.239682
v -34.770096 0.097805 12.080684
v -34.773125 0.099597 14.221518
v -3.631348 26.440905 27.977390
v -7.846667 26.443075 27.971428
v -5.739012 26.441986 27.974413
v -7.822834 26.428900 11.099608
v -5.709215 26.424271 6.887257
v -7.816879 26.425360 6.884280
v -9.921557 26.424675 4.773638
v -12.032199 26.427521 6.878326
v -14.136887 26.426844 4.767684
v -14.139864 26.428608 6.875349
v -18.355192 26.430779 6.869385
v -22.570511 26.432947 6.863431
v -7.804962 26.418272 -1.546369
v -14.163829 26.442863 23.842020
v -22.600300 26.450663 27.950588
v -26.815628 26.452831 27.944624
v -26.809807 26.449371 23.824148
v -31.136332 26.455053 27.938520
v -35.267372 26.457178 27.932671
v -31.130510 26.451593 23.818037
v -35.261547 26.453720 23.812197
v -3.610491 26.428507 13.213218
v -3.613468 26.430271 15.320883
v -5.712192 26.426044 8.994921
v -3.604528 26.424955 8.997898
v -3.601551 26.423191 6.890234
v -34.772842 0.099439 14.026893
v -34.775593 0.101072 15.973083
v -35.115795 0.100510 15.096830
v -34.764248 22.147234 15.954587
v -35.104450 22.146671 15.078325
v -34.759022 22.144123 12.256796
v -35.101700 22.145029 13.132108
v -35.113049 0.098877 13.150622
v -35.098953 22.143402 11.185900
v -34.767616 0.096330 10.329092
v -35.110298 0.097243 11.204405
v -35.093452 22.140127 7.293465
v -34.762123 0.093063 6.436657
v -35.104801 0.093967 7.311971
v -34.766994 22.148867 17.900797
v -35.107201 22.148306 17.024542
v -35.118546 0.102153 17.043047
v -22.588373 26.443575 19.509401
v -22.585396 26.441801 17.401735
v -22.576466 26.436485 11.078752
v -26.788809 26.436882 8.965133
v -31.112490 26.440878 11.066685
v -35.243530 26.443003 11.060854
v -26.782854 26.433352 4.749813
v -26.779877 26.431578 2.642149
v -22.552641 26.422321 -5.782537
v -12.017313 26.418667 -3.659987
v -9.906672 26.415813 -5.764666
v -9.909649 26.417587 -3.657010
v -3.586665 26.414330 -3.648070
v -3.583688 26.412563 -5.755726
v -5.691352 26.413645 -5.758712
v -5.694330 26.415419 -3.651047
v -5.697307 26.417192 -1.543383
v -22.594488 26.447201 23.830103
v -18.384979 26.448494 27.956541
v -35.252468 26.448317 17.383829
v -31.118452 26.444427 15.282005
v -22.582420 26.440037 15.294071
v -9.945462 26.438885 21.687618
v -12.053118 26.439966 21.684641
v -12.056174 26.441784 23.844997
v -9.954332 26.444155 27.968451
v -7.807939 26.420048 0.561295
v -3.589642 26.416103 -1.540406
v -1.487932 26.418564 2.677891
v -3.592619 26.417879 0.567250
v -5.700284 26.418959 0.564272
v -5.703260 26.420732 2.671937
v -9.915604 26.421127 0.558318
v -12.023268 26.422216 0.555341
v -14.133909 26.425070 2.660020
v -18.346252 26.425467 0.546401
v -18.349228 26.427240 2.654066
v -9.918581 26.422901 2.665983
v -7.813902 26.423586 4.776616
v -7.810925 26.421812 2.668960
v -3.607505 26.426731 11.105563
v -35.225666 26.432375 -1.585115
v -31.094627 26.430262 -1.579284
v -12.029222 26.425755 4.770661
v -12.026244 26.423981 2.662997
v -18.352205 26.429012 4.761722
v -18.367102 26.437868 15.300034
v -22.579443 26.438263 13.186416
v -18.364124 26.436094 13.192370
v -18.361147 26.434317 11.084705
v 0.613769 26.421021 6.896197
v 2.715480 26.423481 11.114502
v 2.712502 26.425249 13.222158
v 0.595907 26.431641 19.542166
v 2.691637 26.437656 27.986328
v 2.724411 26.418167 4.791510
v 2.730365 26.414619 0.576190
v 17.503792 26.426573 23.886782
v 19.658318 26.428919 28.010303
v 19.664139 26.425457 23.889820
v 17.506840 26.424757 21.726416
v 21.718559 26.427866 28.013210
v 21.724380 26.424404 23.892736
v 21.727428 26.422586 21.732388
v 19.667196 26.423649 21.729473
v 19.682159 26.414751 11.138477
v 21.739426 26.415455 13.249049
v 21.742393 26.413689 11.141384
v 19.700022 26.404125 -1.507491
v 0.619724 26.417482 2.680868
v 2.727388 26.416393 2.683854
v 0.583981 26.438736 27.983351
v -1.523683 26.439825 27.980366
v 0.589804 26.435278 23.862867
v 9.041441 26.418447 9.015769
v 23.784624 26.423344 23.895651
v 23.778801 26.426802 28.016127
v 17.509895 26.422947 19.566071
v 23.793705 26.417940 17.467283
v 23.790728 26.419706 19.574947
v 23.805613 26.410852 9.036644
v 23.802635 26.412624 11.144300
v 19.685137 26.412977 9.030812
v 17.524780 26.414083 9.027757
v 15.361448 26.416973 11.132374
v 15.364426 26.415197 9.024710
v 17.527758 26.412319 6.920101
v 19.688114 26.411203 6.923157
v 21.745369 26.411915 9.033729
v 21.748346 26.410151 6.926064
v 23.808590 26.409086 6.928980
v 17.542652 26.403467 -3.618203
v 13.274632 26.405661 -3.624236
v 15.382297 26.404572 -3.621259
v 15.385273 26.402800 -5.728923
v 11.169945 26.404968 -5.734878
v 21.751331 26.408375 4.818400
v 17.530735 26.410543 4.812437
v 15.367402 26.413425 6.917045
v 6.939731 26.415998 4.797472
v 4.832075 26.417078 4.794495
v 4.808179 26.431290 21.708475
v 4.805124 26.433107 23.868832
v 4.826121 26.420616 9.009815
v 4.829098 26.418852 6.902151
v 4.820158 26.424168 13.225135
v 6.930799 26.421301 11.120457
v 2.706540 26.428787 17.437477
v 2.700515 26.432377 21.705498
v 2.703571 26.430559 19.545143
v 4.811227 26.429472 19.548128
v 4.799301 26.436567 27.989305
v 2.697459 26.434187 23.865845
v 9.020452 26.430939 23.874786
v 11.128107 26.429859 23.877764
v 9.014629 26.434399 27.995260
v 11.122285 26.433317 27.998238
v 9.023499 26.429119 21.714430
v 13.238828 26.426950 21.720385
v 11.143142 26.420910 13.234076
v 13.259747 26.414513 6.914068
v 13.262714 26.412741 4.806404
v 15.370379 26.411659 4.809390
v 13.271655 26.407427 -1.516581
v 15.379319 26.406347 -1.513595
v 11.166968 26.406742 -3.627222
v 9.035487 26.421999 13.231090
v 9.032510 26.423773 15.338754
v 11.163991 26.408518 -1.519558
v 9.056326 26.409595 -1.522535
v 9.053358 26.411371 0.585130
v 6.945694 26.412451 0.582144
v 9.047395 26.414909 4.800449
v 11.149105 26.417368 9.018746
v 9.038465 26.420223 11.123433
v 0.601861 26.428102 15.326836
v 6.921868 26.426617 17.443441
v 11.137188 26.424458 17.449394
v 11.140165 26.422684 15.341731
v -1.479001 26.413248 -3.645093
v 0.631641 26.410395 -5.749772
v 21.730484 26.420778 19.572031
v 23.787670 26.421524 21.735296
v 0.616746 26.419247 4.788532
v 6.933777 26.419537 9.012793
v -1.502826 26.427418 13.216204
v 4.814204 26.427706 17.440454
v -1.514805 26.434547 21.699535
v 6.906965 26.435486 27.992283
v 2.718457 26.421705 9.006838
v 2.721434 26.419931 6.899174
v 4.823144 26.422392 11.117479
v 15.349540 26.424053 19.563013
v 9.029532 26.425537 17.446419
v 0.598884 26.429876 17.434500
v 2.709525 26.427021 15.329813
v -1.508780 26.430956 17.431524
v 17.536690 26.407005 0.597117
v 17.539667 26.405231 -1.510547
v 11.158037 26.412056 2.695762
v 11.161014 26.410282 0.588107
v 4.838029 26.413540 0.579167
v 4.841006 26.411764 -1.528498
v 0.622709 26.415709 0.573213
v -1.484955 26.416790 0.570235
v 17.521805 26.415857 11.135421
v 17.518827 26.417633 13.243086
v 15.352517 26.422279 17.455349
v 17.515850 26.419397 15.350750
v 13.250806 26.419830 13.237053
v 15.358471 26.418741 13.240030
v 13.247830 26.421602 15.344717
v 11.146129 26.419144 11.126410
v 6.924845 26.424852 15.335776
v 0.607815 26.424562 11.111517
v 0.604838 26.426336 13.219181
v 11.155060 26.413830 4.803427
v 11.152082 26.415594 6.911091
v 21.757278 26.404837 0.603080
v 23.820507 26.401999 -1.501669
v 21.733461 26.419004 17.464376
v 21.736439 26.417229 15.356713
v 23.796682 26.416168 15.359619
v 0.592851 26.433458 21.702520
v 0.628664 26.412169 -3.642116
v 0.625678 26.413933 -1.534452
v -1.481978 26.415014 -1.537429
v 2.736319 26.411079 -3.639130
v 4.843984 26.410000 -3.636153
v 2.733342 26.412855 -1.531475
v -1.496872 26.423876 9.000875
v -1.493886 26.422102 6.893220
v 0.610792 26.422787 9.003852
v 13.244853 26.423368 17.452372
v 15.355494 26.420515 15.347693
v 23.799658 26.414402 13.251965
v 9.044418 26.416683 6.908114
v 6.936753 26.417763 6.905128
v 4.835052 26.415314 2.686831
v 6.951648 26.408911 -3.633176
v 6.948671 26.410686 -1.525512
v 6.927823 26.423079 13.228112
v 4.817190 26.425932 15.332799
v 9.059312 26.407831 -3.630199
v 15.376342 26.408121 0.594061
v 13.268678 26.409203 0.591084
v 13.265700 26.410975 2.698748
v 6.942708 26.414225 2.689808
v 9.050372 26.413145 2.692785
v 13.229949 26.432228 28.001215
v 15.337613 26.431149 28.004202
v 13.235772 26.428770 23.880739
v 17.497971 26.430035 28.007256
v 15.343436 26.427679 23.883717
v 15.346484 26.425871 21.723370
v 11.131164 26.428040 21.717415
v 11.134211 26.426222 19.557058
v 6.912787 26.432018 23.871809
v 19.670242 26.421831 19.569126
v 19.679182 26.416519 13.246141
v 13.256761 26.416286 9.021724
v 13.253783 26.418055 11.129388
v 13.241876 26.425133 19.560036
v 6.915835 26.430208 21.711452
v 6.918891 26.428391 19.551096
v 9.026556 26.427311 19.554081
v 17.512863 26.421173 17.458405
v 19.673220 26.420067 17.461460
v 19.676197 26.418293 15.353798
v 23.823484 26.400234 -3.609333
v 21.760263 26.403063 -1.504576
v 19.702999 26.402351 -3.615155
v 19.705976 26.400585 -5.722811
v 21.763241 26.401299 -3.612240
v 23.826460 26.398460 -5.716989
v 15.373364 26.409885 2.701725
v 19.691092 26.409439 4.815493
v 21.754309 26.406601 2.710744
v 23.811565 26.407312 4.821316
v 23.814543 26.405540 2.713651
v 23.817520 26.403774 0.605995
v 19.697044 26.405899 0.600164
v 19.694069 26.407665 2.707829
v 17.533712 26.408779 2.704781
v -3.565817 26.401936 -18.401693
v -5.673481 26.403025 -18.404671
v -3.559863 26.398397 -22.617023
v -1.452198 26.397308 -22.614046
v -7.778168 26.402332 -20.515322
v -7.781145 26.404106 -18.407658
v -7.775192 26.400568 -22.622978
v -11.993488 26.404501 -20.521276
v -9.885824 26.403421 -20.518299
v -9.882847 26.401648 -22.625963
v -11.996466 26.406275 -18.413612
v -18.316473 26.407759 -20.530216
v -18.319450 26.409533 -18.422552
v -9.894764 26.408733 -14.195315
v -1.461138 26.402620 -16.291061
v -12.005397 26.411591 -12.090627
v -12.008383 26.413355 -9.982972
v -9.903695 26.414049 -7.872330
v -7.769088 26.396931 -26.943680
v -1.449151 26.395500 -24.774393
v -3.556807 26.396578 -24.777370
v -3.553759 26.394760 -26.937725
v -9.876743 26.398020 -26.946665
v -18.307392 26.402357 -26.958584
v -14.086232 26.396721 -31.083633
v -18.301561 26.398890 -31.089596
v -9.879799 26.399839 -24.786308
v -11.990511 26.402737 -22.628941
v -18.313496 26.405985 -22.637871
v -14.101152 26.405590 -20.524254
v -9.891787 26.406960 -16.302969
v -18.328381 26.414839 -12.099567
v -14.110084 26.410902 -14.201268
v -9.897740 26.410500 -12.087650
v -12.014338 26.416903 -5.767643
v -14.119015 26.416218 -7.878284
v -14.121992 26.417982 -5.770628
v -18.337320 26.420153 -5.776583
v -11.978568 26.395630 -31.080658
v -9.870912 26.394552 -31.077681
v -9.888809 26.405195 -18.410635
v -18.334343 26.418386 -7.884247
v -18.331358 26.416615 -9.991902
v -14.116038 26.414444 -9.985950
v -12.011351 26.415129 -7.875308
v -1.458161 26.400856 -18.398716
v -3.562840 26.400171 -20.509357
v -18.322435 26.411297 -16.314886
v -14.104130 26.407364 -18.416597
v -14.092064 26.400188 -26.952620
v -3.547919 26.391302 -31.068748
v -1.446095 26.393681 -26.934750
v -3.568794 26.403709 -16.294039
v -5.679435 26.406563 -14.189352
v -11.999442 26.408039 -16.305956
v -12.002419 26.409813 -14.198291
v -14.107106 26.409128 -16.308933
v -18.325403 26.413071 -14.207232
v -7.793054 26.411186 -9.977009
v -5.688366 26.411880 -7.866376
v -7.796031 26.412960 -7.869353
v -5.682412 26.408340 -12.081696
v -5.685390 26.410107 -9.974031
v -5.676458 26.404791 -16.297016
v -7.784122 26.405880 -16.299994
v -5.670504 26.401251 -20.512335
v -5.664471 26.397669 -24.780357
v -7.772135 26.398748 -24.783335
v -11.984407 26.399107 -26.949642
v -11.987464 26.400917 -24.789286
v -14.098175 26.403816 -22.631918
v -14.095119 26.401997 -24.792263
v -18.310438 26.404167 -24.798227
v -7.763247 26.393461 -31.074703
v -5.661424 26.395849 -26.940702
v -5.655584 26.392382 -31.071726
v -7.790077 26.409422 -12.084673
v -7.787099 26.407644 -14.192338
v -3.571771 26.405483 -14.186375
v -3.574757 26.407253 -12.078710
v -1.476024 26.411476 -5.752749
v -7.799008 26.414734 -5.761689
v -3.577734 26.409025 -9.971054
v -9.900718 26.412275 -9.979995
v -14.113061 26.412680 -12.093604
v -3.580711 26.410791 -7.863390
v -5.667527 26.399479 -22.620001
vn -0.0005 -1.0000 0.0008
vn 0.9849 -0.0004 0.1731
vn 0.9405 -0.0002 0.3397
vn 0.9830 -0.0007 -0.1834
vn 0.9825 -0.0003 0.1862
vn 0.9878 -0.0006 -0.1559
vn 0.9509 -0.0007 -0.3094
vn 0.9919 -0.0006 -0.1273
vn 0.9915 -0.0004 0.1301
vt 0.885000 0.001000
vt 0.923000 0.001000
vt 0.885000 0.079000
vt 0.923000 0.079000
vt 0.732000 0.353000
vt 0.732000 0.313000
vt 0.771000 0.353000
vt 0.771000 0.313000
vt 0.771000 0.392000
vt 0.732000 0.392000
vt 0.694000 0.353000
vt 0.694000 0.392000
vt 0.694000 0.313000
vt 0.656000 0.118000
vt 0.656000 0.157000
vt 0.618000 0.118000
vt 0.618000 0.157000
vt 0.618000 0.431000
vt 0.618000 0.392000
vt 0.656000 0.431000
vt 0.656000 0.392000
vt 0.656000 0.353000
vt 0.618000 0.353000
vt 0.732000 0.196000
vt 0.732000 0.235000
vt 0.694000 0.196000
vt 0.694000 0.235000
vt 0.732000 0.157000
vt 0.771000 0.196000
vt 0.771000 0.157000
vt 0.656000 0.196000
vt 0.694000 0.157000
vt 0.732000 0.431000
vt 0.732000 0.470000
vt 0.771000 0.431000
vt 0.771000 0.470000
vt 0.656000 0.079000
vt 0.618000 0.079000
vt 0.656000 0.001000
vt 0.618000 0.001000
vt 0.809000 0.353000
vt 0.809000 0.313000
vt 0.923000 0.431000
vt 0.923000 0.470000
vt 0.885000 0.431000
vt 0.885000 0.470000
vt 0.618000 0.313000
vt 0.656000 0.313000
vt 0.771000 0.274000
vt 0.732000 0.274000
vt 0.618000 0.196000
vt 0.504000 0.079000
vt 0.466000 0.079000
vt 0.504000 0.001000
vt 0.466000 0.001000
vt 0.694000 0.118000
vt 0.694000 0.079000
vt 0.732000 0.079000
vt 0.732000 0.001000
vt 0.694000 0.001000
vt 0.694000 0.431000
vt 0.694000 0.470000
vt 0.656000 0.274000
vt 0.618000 0.274000
vt 0.656000 0.235000
vt 0.694000 0.274000
vt 0.771000 0.235000
vt 0.466000 0.118000
vt 0.504000 0.118000
vt 0.504000 0.157000
vt 0.466000 0.157000
vt 0.618000 0.235000
vt 0.656000 0.470000
vt 0.618000 0.470000
vt 0.580000 0.001000
vt 0.580000 0.079000
vt 0.580000 0.118000
vt 0.580000 0.157000
vt 0.542000 0.118000
vt 0.542000 0.157000
vt 0.542000 0.079000
vt 0.542000 0.001000
vt 0.885000 0.392000
vt 0.923000 0.392000
vt 0.847000 0.431000
vt 0.847000 0.470000
vt 0.809000 0.431000
vt 0.809000 0.470000
vt 0.771000 0.001000
vt 0.771000 0.079000
vt 0.732000 0.118000
vt 0.771000 0.118000
vt 0.809000 0.274000
vt 0.809000 0.235000
vt 0.847000 0.274000
vt 0.847000 0.235000
vt 0.885000 0.274000
vt 0.885000 0.235000
vt 0.923000 0.274000
vt 0.923000 0.235000
vt 0.923000 0.196000
vt 0.885000 0.196000
vt 0.885000 0.157000
vt 0.923000 0.157000
vt 0.923000 0.313000
vt 0.885000 0.313000
vt 0.885000 0.353000
vt 0.923000 0.353000
vt 0.847000 0.353000
vt 0.847000 0.392000
vt 0.809000 0.392000
vt 0.847000 0.313000
vt 0.847000 0.079000
vt 0.847000 0.001000
vt 0.847000 0.196000
vt 0.809000 0.196000
vt 0.847000 0.157000
vt 0.809000 0.157000
vt 0.885000 0.118000
vt 0.923000 0.118000
vt 0.847000 0.118000
vt 0.809000 0.118000
vt 0.809000 0.079000
vt 0.809000 0.001000
vt 0.580000 0.819000
vt 0.580000 0.858000
vt 0.542000 0.819000
vt 0.542000 0.858000
vt 0.504000 0.819000
vt 0.504000 0.858000
vt 0.580000 0.780000
vt 0.618000 0.819000
vt 0.618000 0.780000
vt 0.079000 0.743000
vt 0.079000 0.782000
vt 0.001000 0.743000
vt 0.001000 0.782000
vt 0.235000 0.743000
vt 0.235000 0.782000
vt 0.157000 0.743000
vt 0.157000 0.782000
vt 0.235000 0.704000
vt 0.313000 0.743000
vt 0.313000 0.704000
vt 0.390000 0.743000
vt 0.390000 0.782000
vt 0.313000 0.782000
vt 0.428000 0.743000
vt 0.428000 0.782000
vt 0.428000 0.704000
vt 0.466000 0.743000
vt 0.466000 0.704000
vt 0.504000 0.743000
vt 0.504000 0.704000
vt 0.542000 0.743000
vt 0.542000 0.704000
vt 0.580000 0.743000
vt 0.580000 0.704000
vt 0.618000 0.743000
vt 0.618000 0.704000
vt 0.504000 0.782000
vt 0.466000 0.782000
vt 0.580000 0.782000
vt 0.542000 0.782000
vt 0.580000 0.665000
vt 0.580000 0.626000
vt 0.542000 0.665000
vt 0.542000 0.626000
vt 0.079000 0.665000
vt 0.079000 0.704000
vt 0.001000 0.665000
vt 0.001000 0.704000
vt 0.079000 0.626000
vt 0.157000 0.665000
vt 0.157000 0.626000
vt 0.235000 0.665000
vt 0.157000 0.704000
vt 0.504000 0.780000
vt 0.542000 0.780000
vt 0.466000 0.819000
vt 0.466000 0.858000
vt 0.428000 0.819000
vt 0.428000 0.780000
vt 0.466000 0.780000
vt 0.428000 0.858000
vt 0.390000 0.819000
vt 0.390000 0.858000
vt 0.313000 0.819000
vt 0.313000 0.858000
vt 0.235000 0.819000
vt 0.235000 0.780000
vt 0.313000 0.780000
vt 0.390000 0.780000
vt 0.235000 0.858000
vt 0.157000 0.819000
vt 0.157000 0.858000
vt 0.079000 0.819000
vt 0.079000 0.858000
vt 0.079000 0.780000
vt 0.157000 0.780000
vt 0.001000 0.819000
vt 0.001000 0.858000
vt 0.428000 0.937000
vt 0.390000 0.937000
vt 0.390000 0.704000
vt 0.390000 0.665000
vt 0.390000 0.626000
vt 0.428000 0.665000
vt 0.428000 0.626000
vt 0.466000 0.665000
vt 0.466000 0.626000
vt 0.390000 0.587000
vt 0.390000 0.548000
vt 0.428000 0.587000
vt 0.428000 0.548000
vt 0.466000 0.587000
vt 0.466000 0.548000
vt 0.504000 0.587000
vt 0.504000 0.548000
vt 0.504000 0.665000
vt 0.504000 0.626000
vt 0.618000 0.665000
vt 0.618000 0.626000
vt 0.235000 0.626000
vt 0.313000 0.665000
vt 0.313000 0.626000
vt 0.079000 0.587000
vt 0.079000 0.548000
vt 0.157000 0.587000
vt 0.157000 0.548000
vt 0.235000 0.587000
vt 0.235000 0.548000
vt 0.313000 0.587000
vt 0.313000 0.548000
vt 0.001000 0.587000
vt 0.001000 0.626000
vt 0.466000 0.509000
vt 0.428000 0.509000
vt 0.390000 0.509000
vt 0.313000 0.509000
vt 0.235000 0.509000
vt 0.157000 0.509000
vt 0.079000 0.509000
vt 0.001000 0.509000
vt 0.001000 0.548000
vt 0.001000 0.780000
vt 0.001000 0.470000
vt 0.079000 0.470000
vt 0.157000 0.470000
vt 0.618000 0.858000
vt 0.580000 0.937000
vt 0.618000 0.937000
vt 0.618000 0.509000
vt 0.580000 0.509000
vt 0.580000 0.470000
vt 0.542000 0.509000
vt 0.542000 0.470000
vt 0.618000 0.782000
vt 0.968000 0.001000
vt 0.938000 0.001000
vt 0.968000 0.780000
vt 0.938000 0.780000
vt 0.970000 0.780000
vt 0.970000 0.001000
vt 0.972000 0.780000
vt 0.999000 0.780000
vt 0.972000 0.001000
vt 0.999000 0.001000
vt 0.542000 0.937000
vt 0.504000 0.937000
vt 0.542000 0.548000
vt 0.580000 0.548000
vt 0.313000 0.937000
vt 0.235000 0.937000
vt 0.157000 0.937000
vt 0.079000 0.937000
vt 0.001000 0.937000
vt 0.235000 0.470000
vt 0.313000 0.470000
vt 0.390000 0.470000
vt 0.428000 0.470000
vt 0.466000 0.470000
vt 0.618000 0.548000
vt 0.466000 0.937000
vt 0.542000 0.587000
vt 0.580000 0.587000
vt 0.618000 0.587000
vt 0.732000 0.509000
vt 0.771000 0.509000
vt 0.732000 0.548000
vt 0.771000 0.548000
vt 0.694000 0.665000
vt 0.694000 0.704000
vt 0.656000 0.665000
vt 0.656000 0.704000
vt 0.694000 0.626000
vt 0.656000 0.626000
vt 0.542000 0.663000
vt 0.542000 0.702000
vt 0.504000 0.663000
vt 0.504000 0.702000
vt 0.542000 0.741000
vt 0.504000 0.741000
vt 0.732000 0.587000
vt 0.771000 0.587000
vt 0.694000 0.587000
vt 0.694000 0.548000
vt 0.694000 0.509000
vt 0.656000 0.587000
vt 0.656000 0.548000
vt 0.809000 0.857000
vt 0.847000 0.857000
vt 0.809000 0.935000
vt 0.847000 0.935000
vt 0.847000 0.819000
vt 0.809000 0.819000
vt 0.771000 0.819000
vt 0.771000 0.857000
vt 0.885000 0.935000
vt 0.885000 0.857000
vt 0.885000 0.819000
vt 0.885000 0.780000
vt 0.847000 0.780000
vt 0.885000 0.741000
vt 0.847000 0.741000
vt 0.885000 0.702000
vt 0.847000 0.702000
vt 0.885000 0.663000
vt 0.847000 0.663000
vt 0.847000 0.624000
vt 0.885000 0.624000
vt 0.694000 0.585000
vt 0.694000 0.624000
vt 0.656000 0.585000
vt 0.656000 0.624000
vt 0.618000 0.585000
vt 0.618000 0.624000
vt 0.923000 0.857000
vt 0.923000 0.935000
vt 0.771000 0.780000
vt 0.809000 0.780000
vt 0.923000 0.741000
vt 0.923000 0.780000
vt 0.771000 0.663000
vt 0.771000 0.624000
vt 0.809000 0.663000
vt 0.809000 0.624000
vt 0.923000 0.587000
vt 0.923000 0.626000
vt 0.885000 0.587000
vt 0.885000 0.626000
vt 0.847000 0.587000
vt 0.847000 0.626000
vt 0.809000 0.587000
vt 0.809000 0.626000
vt 0.771000 0.626000
vt 0.809000 0.548000
vt 0.847000 0.548000
vt 0.885000 0.548000
vt 0.923000 0.548000
vt 0.923000 0.509000
vt 0.885000 0.509000
vt 0.847000 0.509000
vt 0.809000 0.509000
vt 0.923000 0.819000
vt 0.732000 0.626000
vt 0.618000 0.546000
vt 0.580000 0.585000
vt 0.580000 0.546000
vt 0.542000 0.585000
vt 0.542000 0.546000
vt 0.542000 0.624000
vt 0.580000 0.663000
vt 0.580000 0.624000
vt 0.618000 0.663000
vt 0.580000 0.741000
vt 0.618000 0.741000
vt 0.656000 0.858000
vt 0.694000 0.858000
vt 0.656000 0.937000
vt 0.694000 0.937000
vt 0.694000 0.819000
vt 0.656000 0.819000
vt 0.732000 0.937000
vt 0.732000 0.858000
vt 0.732000 0.819000
vt 0.732000 0.780000
vt 0.694000 0.780000
vt 0.732000 0.741000
vt 0.694000 0.741000
vt 0.732000 0.702000
vt 0.694000 0.702000
vt 0.694000 0.663000
vt 0.732000 0.663000
vt 0.732000 0.624000
vt 0.694000 0.546000
vt 0.732000 0.585000
vt 0.732000 0.546000
vt 0.771000 0.585000
vt 0.771000 0.546000
vt 0.656000 0.663000
vt 0.656000 0.702000
vt 0.656000 0.741000
vt 0.656000 0.780000
vt 0.656000 0.546000
vt 0.466000 0.741000
vt 0.466000 0.702000
vt 0.618000 0.702000
vt 0.656000 0.509000
vt 0.466000 0.663000
vt 0.466000 0.624000
vt 0.504000 0.624000
vt 0.580000 0.702000
vt 0.809000 0.741000
vt 0.771000 0.741000
vt 0.809000 0.702000
vt 0.771000 0.702000
vt 0.923000 0.663000
vt 0.923000 0.624000
vt 0.923000 0.702000
vt 0.771000 0.858000
vt 0.771000 0.937000
vt 0.771000 0.935000
vt 0.580000 0.196000
vt 0.580000 0.235000
vt 0.542000 0.196000
vt 0.542000 0.235000
vt 0.504000 0.196000
vt 0.504000 0.235000
vt 0.466000 0.196000
vt 0.466000 0.235000
vt 0.428000 0.196000
vt 0.428000 0.157000
vt 0.428000 0.235000
vt 0.390000 0.196000
vt 0.390000 0.235000
vt 0.313000 0.196000
vt 0.313000 0.235000
vt 0.466000 0.353000
vt 0.466000 0.313000
vt 0.504000 0.353000
vt 0.504000 0.313000
vt 0.580000 0.274000
vt 0.580000 0.313000
vt 0.466000 0.392000
vt 0.428000 0.353000
vt 0.428000 0.392000
vt 0.390000 0.353000
vt 0.390000 0.392000
vt 0.466000 0.431000
vt 0.504000 0.431000
vt 0.504000 0.392000
vt 0.390000 0.079000
vt 0.313000 0.079000
vt 0.390000 0.001000
vt 0.313000 0.001000
vt 0.428000 0.118000
vt 0.313000 0.157000
vt 0.390000 0.157000
vt 0.466000 0.274000
vt 0.428000 0.274000
vt 0.428000 0.313000
vt 0.313000 0.353000
vt 0.313000 0.313000
vt 0.390000 0.313000
vt 0.428000 0.431000
vt 0.390000 0.431000
vt 0.313000 0.431000
vt 0.428000 0.001000
vt 0.428000 0.079000
vt 0.504000 0.274000
vt 0.313000 0.392000
vt 0.313000 0.274000
vt 0.390000 0.274000
vt 0.313000 0.118000
vt 0.390000 0.118000
vt 0.542000 0.274000
vt 0.542000 0.313000
vt 0.542000 0.431000
vt 0.542000 0.392000
vt 0.504000 0.470000
vt 0.542000 0.353000
vt 0.580000 0.353000
vt 0.580000 0.392000
vt 0.580000 0.431000
s 1
usemtl RefRep.16_SH_initial_loader.003
f 1/1/1 2/2/1 130/3/1
f 130/3/1 2/2/1 128/4/1
f 24/5/1 25/6/1 11/7/1
f 11/7/1 25/6/1 89/8/1
f 31/5/1 3/6/1 87/7/1
f 87/7/1 3/6/1 4/8/1
f 87/7/1 88/9/1 31/5/1
f 31/5/1 88/9/1 33/10/1
f 31/5/1 33/10/1 26/11/1
f 26/11/1 33/10/1 118/12/1
f 35/5/1 6/6/1 5/11/1
f 5/11/1 6/6/1 413/13/1
f 37/7/1 412/8/1 35/5/1
f 35/5/1 412/8/1 6/6/1
f 43/14/1 29/15/1 7/16/1
f 7/16/1 29/15/1 56/17/1
f 8/5/1 96/10/1 73/11/1
f 73/11/1 96/10/1 53/12/1
f 9/18/1 10/19/1 50/20/1
f 50/20/1 10/19/1 51/21/1
f 72/22/1 51/21/1 19/23/1
f 19/23/1 51/21/1 10/19/1
f 11/7/1 90/9/1 24/5/1
f 24/5/1 90/9/1 120/10/1
f 12/24/1 3/25/1 94/26/1
f 94/26/1 3/25/1 138/27/1
f 13/24/1 63/28/1 140/29/1
f 140/29/1 63/28/1 56/30/1
f 13/24/1 14/25/1 62/26/1
f 62/26/1 14/25/1 39/27/1
f 66/31/1 46/15/1 62/26/1
f 62/26/1 46/15/1 58/32/1
f 49/33/1 33/34/1 48/35/1
f 48/35/1 33/34/1 88/36/1
f 15/37/1 55/38/1 59/39/1
f 59/39/1 55/38/1 16/40/1
f 48/7/1 88/8/1 112/41/1
f 112/41/1 88/8/1 86/42/1
f 17/43/1 552/44/1 78/45/1
f 78/45/1 552/44/1 18/46/1
f 19/23/1 20/47/1 72/22/1
f 72/22/1 20/47/1 76/48/1
f 41/49/1 64/8/1 40/50/1
f 40/50/1 64/8/1 21/6/1
f 22/51/1 565/17/1 66/31/1
f 66/31/1 565/17/1 46/15/1
f 44/52/1 613/53/1 68/54/1
f 68/54/1 613/53/1 23/55/1
f 5/11/1 413/13/1 24/5/1
f 24/5/1 413/13/1 25/6/1
f 24/5/1 120/10/1 5/11/1
f 5/11/1 120/10/1 34/12/1
f 26/11/1 118/12/1 42/5/1
f 42/5/1 118/12/1 27/10/1
f 91/56/1 28/32/1 43/14/1
f 43/14/1 28/32/1 29/15/1
f 43/14/1 15/37/1 91/56/1
f 91/56/1 15/37/1 30/57/1
f 93/58/1 30/57/1 81/59/1
f 81/59/1 30/57/1 60/60/1
f 26/11/1 138/13/1 31/5/1
f 31/5/1 138/13/1 3/6/1
f 32/61/1 118/62/1 49/33/1
f 49/33/1 118/62/1 33/34/1
f 49/33/1 36/10/1 32/61/1
f 32/61/1 36/10/1 34/12/1
f 5/11/1 34/12/1 35/5/1
f 35/5/1 34/12/1 36/10/1
f 35/5/1 36/10/1 37/7/1
f 37/7/1 36/10/1 108/9/1
f 38/63/1 76/48/1 576/64/1
f 576/64/1 76/48/1 20/47/1
f 38/63/1 47/65/1 74/66/1
f 74/66/1 47/65/1 39/27/1
f 40/50/1 21/6/1 74/66/1
f 74/66/1 21/6/1 75/13/1
f 40/50/1 14/25/1 41/49/1
f 41/49/1 14/25/1 127/67/1
f 42/5/1 27/10/1 41/7/1
f 41/7/1 27/10/1 64/9/1
f 42/5/1 139/6/1 26/11/1
f 26/11/1 139/6/1 138/13/1
f 7/16/1 55/38/1 43/14/1
f 43/14/1 55/38/1 15/37/1
f 581/68/1 613/53/1 45/69/1
f 45/69/1 613/53/1 44/52/1
f 45/69/1 46/70/1 581/68/1
f 581/68/1 46/70/1 565/71/1
f 66/31/1 47/65/1 22/51/1
f 22/51/1 47/65/1 607/72/1
f 48/35/1 108/9/1 49/33/1
f 49/33/1 108/9/1 36/10/1
f 83/29/1 4/67/1 12/24/1
f 12/24/1 4/67/1 3/25/1
f 140/29/1 127/67/1 13/24/1
f 13/24/1 127/67/1 14/25/1
f 50/20/1 458/73/1 9/18/1
f 9/18/1 458/73/1 642/74/1
f 50/20/1 51/21/1 52/61/1
f 52/61/1 51/21/1 53/12/1
f 54/75/1 16/40/1 61/76/1
f 61/76/1 16/40/1 55/38/1
f 61/76/1 55/38/1 57/77/1
f 57/77/1 55/38/1 7/16/1
f 57/77/1 7/16/1 63/78/1
f 63/78/1 7/16/1 56/17/1
f 57/77/1 63/78/1 67/79/1
f 67/79/1 63/78/1 58/80/1
f 59/39/1 60/60/1 15/37/1
f 15/37/1 60/60/1 30/57/1
f 61/76/1 70/81/1 54/75/1
f 54/75/1 70/81/1 69/82/1
f 67/79/1 70/81/1 57/77/1
f 57/77/1 70/81/1 61/76/1
f 62/26/1 58/32/1 13/24/1
f 13/24/1 58/32/1 63/28/1
f 74/66/1 39/27/1 40/50/1
f 40/50/1 39/27/1 14/25/1
f 73/11/1 75/13/1 8/5/1
f 8/5/1 75/13/1 21/6/1
f 8/5/1 21/6/1 65/7/1
f 65/7/1 21/6/1 64/8/1
f 65/7/1 90/9/1 8/5/1
f 8/5/1 90/9/1 96/10/1
f 62/26/1 39/27/1 66/31/1
f 66/31/1 39/27/1 47/65/1
f 67/79/1 58/80/1 45/69/1
f 45/69/1 58/80/1 46/70/1
f 45/69/1 44/52/1 67/79/1
f 67/79/1 44/52/1 70/81/1
f 68/54/1 69/82/1 44/52/1
f 44/52/1 69/82/1 70/81/1
f 52/61/1 71/62/1 50/20/1
f 50/20/1 71/62/1 458/73/1
f 73/11/1 53/12/1 72/22/1
f 72/22/1 53/12/1 51/21/1
f 72/22/1 76/48/1 73/11/1
f 73/11/1 76/48/1 75/13/1
f 41/7/1 127/8/1 42/5/1
f 42/5/1 127/8/1 139/6/1
f 576/64/1 607/72/1 38/63/1
f 38/63/1 607/72/1 47/65/1
f 74/66/1 75/13/1 38/63/1
f 38/63/1 75/13/1 76/48/1
f 78/45/1 111/83/1 17/43/1
f 17/43/1 111/83/1 77/84/1
f 78/45/1 18/46/1 109/85/1
f 109/85/1 18/46/1 550/86/1
f 109/85/1 550/86/1 79/87/1
f 79/87/1 550/86/1 80/88/1
f 79/87/1 80/88/1 37/35/1
f 37/35/1 80/88/1 412/36/1
f 81/59/1 145/89/1 93/58/1
f 93/58/1 145/89/1 141/90/1
f 93/58/1 141/90/1 92/91/1
f 92/91/1 141/90/1 82/92/1
f 92/91/1 82/92/1 95/28/1
f 95/28/1 82/92/1 135/30/1
f 95/28/1 135/30/1 12/24/1
f 12/24/1 135/30/1 83/29/1
f 84/33/1 85/34/1 52/61/1
f 52/61/1 85/34/1 71/62/1
f 117/93/1 86/42/1 87/49/1
f 87/49/1 86/42/1 88/8/1
f 11/35/1 89/36/1 84/33/1
f 84/33/1 89/36/1 85/34/1
f 84/33/1 96/10/1 11/35/1
f 11/35/1 96/10/1 90/9/1
f 91/56/1 30/57/1 92/91/1
f 92/91/1 30/57/1 93/58/1
f 92/91/1 95/28/1 91/56/1
f 91/56/1 95/28/1 28/32/1
f 94/26/1 28/32/1 12/24/1
f 12/24/1 28/32/1 95/28/1
f 52/61/1 53/12/1 84/33/1
f 84/33/1 53/12/1 96/10/1
f 87/49/1 4/67/1 117/93/1
f 117/93/1 4/67/1 97/94/1
f 117/93/1 97/94/1 115/95/1
f 115/95/1 97/94/1 123/96/1
f 115/95/1 123/96/1 114/97/1
f 114/97/1 123/96/1 122/98/1
f 114/97/1 122/98/1 102/99/1
f 102/99/1 122/98/1 98/100/1
f 99/101/1 98/100/1 100/102/1
f 100/102/1 98/100/1 122/98/1
f 100/102/1 125/103/1 99/101/1
f 99/101/1 125/103/1 101/104/1
f 102/99/1 106/105/1 114/97/1
f 114/97/1 106/105/1 104/106/1
f 103/107/1 104/106/1 105/108/1
f 105/108/1 104/106/1 106/105/1
f 105/108/1 77/84/1 103/107/1
f 103/107/1 77/84/1 111/83/1
f 103/107/1 111/83/1 113/109/1
f 113/109/1 111/83/1 110/110/1
f 113/109/1 110/110/1 112/41/1
f 112/41/1 110/110/1 107/111/1
f 112/41/1 107/111/1 48/7/1
f 48/7/1 107/111/1 108/9/1
f 37/35/1 108/9/1 79/87/1
f 79/87/1 108/9/1 107/111/1
f 79/87/1 107/111/1 109/85/1
f 109/85/1 107/111/1 110/110/1
f 109/85/1 110/110/1 78/45/1
f 78/45/1 110/110/1 111/83/1
f 112/41/1 86/42/1 113/109/1
f 113/109/1 86/42/1 116/112/1
f 113/109/1 116/112/1 103/107/1
f 103/107/1 116/112/1 104/106/1
f 114/97/1 104/106/1 115/95/1
f 115/95/1 104/106/1 116/112/1
f 115/95/1 116/112/1 117/93/1
f 117/93/1 116/112/1 86/42/1
f 65/35/1 64/36/1 119/33/1
f 119/33/1 64/36/1 27/34/1
f 119/33/1 27/34/1 32/61/1
f 32/61/1 27/34/1 118/62/1
f 119/33/1 120/10/1 65/35/1
f 65/35/1 120/10/1 90/9/1
f 130/3/1 144/113/1 1/1/1
f 1/1/1 144/113/1 121/114/1
f 100/102/1 122/98/1 124/115/1
f 124/115/1 122/98/1 123/96/1
f 124/115/1 123/96/1 136/116/1
f 136/116/1 123/96/1 97/94/1
f 136/116/1 97/94/1 83/29/1
f 83/29/1 97/94/1 4/67/1
f 124/115/1 131/117/1 100/102/1
f 100/102/1 131/117/1 125/103/1
f 136/116/1 137/118/1 124/115/1
f 124/115/1 137/118/1 131/117/1
f 126/24/1 29/28/1 94/26/1
f 94/26/1 29/28/1 28/32/1
f 126/24/1 139/25/1 140/29/1
f 140/29/1 139/25/1 127/67/1
f 134/119/1 130/3/1 133/120/1
f 133/120/1 130/3/1 128/4/1
f 129/121/1 144/113/1 134/119/1
f 134/119/1 144/113/1 130/3/1
f 134/119/1 125/103/1 129/121/1
f 129/121/1 125/103/1 131/117/1
f 129/121/1 131/117/1 132/122/1
f 132/122/1 131/117/1 137/118/1
f 132/122/1 137/118/1 82/92/1
f 82/92/1 137/118/1 135/30/1
f 133/120/1 101/104/1 134/119/1
f 134/119/1 101/104/1 125/103/1
f 83/29/1 135/30/1 136/116/1
f 136/116/1 135/30/1 137/118/1
f 32/61/1 34/12/1 119/33/1
f 119/33/1 34/12/1 120/10/1
f 94/26/1 138/27/1 126/24/1
f 126/24/1 138/27/1 139/25/1
f 140/29/1 56/30/1 126/24/1
f 126/24/1 56/30/1 29/28/1
f 82/92/1 141/90/1 132/122/1
f 132/122/1 141/90/1 142/123/1
f 132/122/1 142/123/1 129/121/1
f 129/121/1 142/123/1 144/113/1
f 143/124/1 121/114/1 142/123/1
f 142/123/1 121/114/1 144/113/1
f 142/123/1 141/90/1 143/124/1
f 143/124/1 141/90/1 145/89/1
f 147/125/1 239/126/1 167/127/1
f 167/127/1 239/126/1 146/128/1
f 167/127/1 146/128/1 168/129/1
f 168/129/1 146/128/1 169/130/1
f 147/125/1 247/131/1 465/132/1
f 465/132/1 247/131/1 246/133/1
f 148/134/1 229/135/1 337/136/1
f 337/136/1 229/135/1 231/137/1
f 319/138/1 318/139/1 149/140/1
f 149/140/1 318/139/1 228/141/1
f 319/138/1 339/142/1 150/143/1
f 150/143/1 339/142/1 364/144/1
f 179/145/1 153/146/1 150/143/1
f 150/143/1 153/146/1 151/147/1
f 180/148/1 152/149/1 179/145/1
f 179/145/1 152/149/1 153/146/1
f 180/148/1 225/150/1 156/151/1
f 156/151/1 225/150/1 211/152/1
f 156/151/1 211/152/1 155/153/1
f 155/153/1 211/152/1 245/154/1
f 155/153/1 245/154/1 158/155/1
f 158/155/1 245/154/1 244/156/1
f 158/155/1 244/156/1 157/157/1
f 157/157/1 244/156/1 297/158/1
f 157/157/1 297/158/1 474/159/1
f 474/159/1 297/158/1 154/160/1
f 155/153/1 166/161/1 156/151/1
f 156/151/1 166/161/1 238/162/1
f 157/157/1 247/163/1 158/155/1
f 158/155/1 247/163/1 159/164/1
f 158/155/1 159/164/1 155/153/1
f 155/153/1 159/164/1 166/161/1
f 299/165/1 300/166/1 508/167/1
f 508/167/1 300/166/1 509/168/1
f 160/169/1 338/170/1 161/171/1
f 161/171/1 338/170/1 162/172/1
f 160/169/1 322/173/1 163/174/1
f 163/174/1 322/173/1 164/175/1
f 365/176/1 339/142/1 163/174/1
f 163/174/1 339/142/1 165/177/1
f 168/129/1 166/178/1 167/127/1
f 167/127/1 166/178/1 159/179/1
f 167/127/1 159/179/1 147/125/1
f 147/125/1 159/179/1 247/131/1
f 168/129/1 169/130/1 340/180/1
f 340/180/1 169/130/1 170/181/1
f 341/182/1 152/183/1 340/180/1
f 340/180/1 152/183/1 238/184/1
f 341/182/1 342/185/1 171/186/1
f 171/186/1 342/185/1 288/187/1
f 171/186/1 288/187/1 174/188/1
f 174/188/1 288/187/1 172/189/1
f 173/190/1 318/191/1 174/188/1
f 174/188/1 318/191/1 151/192/1
f 174/188/1 151/192/1 171/186/1
f 171/186/1 151/192/1 153/193/1
f 171/186/1 153/193/1 341/182/1
f 341/182/1 153/193/1 152/183/1
f 173/190/1 335/194/1 176/195/1
f 176/195/1 335/194/1 291/196/1
f 176/195/1 291/196/1 175/197/1
f 175/197/1 291/196/1 294/198/1
f 175/197/1 229/199/1 176/195/1
f 176/195/1 229/199/1 228/200/1
f 175/197/1 294/198/1 230/201/1
f 230/201/1 294/198/1 295/202/1
f 177/203/1 178/204/1 342/185/1
f 342/185/1 178/204/1 288/187/1
f 179/145/1 226/205/1 180/148/1
f 180/148/1 226/205/1 225/150/1
f 181/206/1 237/207/1 224/208/1
f 224/208/1 237/207/1 182/209/1
f 224/208/1 182/209/1 183/210/1
f 183/210/1 182/209/1 184/211/1
f 185/212/1 203/213/1 351/214/1
f 351/214/1 203/213/1 186/215/1
f 351/214/1 186/215/1 350/216/1
f 350/216/1 186/215/1 201/217/1
f 350/216/1 201/217/1 344/218/1
f 344/218/1 201/217/1 287/219/1
f 187/165/1 300/158/1 188/167/1
f 188/167/1 300/158/1 279/156/1
f 356/220/1 357/221/1 188/167/1
f 188/167/1 357/221/1 349/168/1
f 188/167/1 349/168/1 187/165/1
f 187/165/1 349/168/1 189/166/1
f 187/165/1 189/166/1 213/222/1
f 213/222/1 189/166/1 346/223/1
f 190/176/1 191/224/1 363/225/1
f 363/225/1 191/224/1 354/226/1
f 190/176/1 286/142/1 324/174/1
f 324/174/1 286/142/1 220/177/1
f 324/174/1 220/177/1 192/169/1
f 192/169/1 220/177/1 219/170/1
f 192/169/1 219/170/1 227/171/1
f 227/171/1 219/170/1 193/172/1
f 192/169/1 194/173/1 324/174/1
f 324/174/1 194/173/1 325/175/1
f 198/227/1 360/228/1 195/229/1
f 195/229/1 360/228/1 196/230/1
f 195/229/1 196/230/1 197/231/1
f 197/231/1 196/230/1 207/232/1
f 197/231/1 207/232/1 353/233/1
f 353/233/1 207/232/1 205/234/1
f 353/233/1 205/234/1 185/212/1
f 185/212/1 205/234/1 203/213/1
f 198/227/1 194/173/1 199/235/1
f 199/235/1 194/173/1 200/236/1
f 329/237/1 201/217/1 327/238/1
f 327/238/1 201/217/1 186/215/1
f 327/238/1 186/215/1 202/239/1
f 202/239/1 186/215/1 203/213/1
f 202/239/1 203/213/1 204/240/1
f 204/240/1 203/213/1 205/234/1
f 204/240/1 205/234/1 206/241/1
f 206/241/1 205/234/1 207/232/1
f 206/241/1 207/232/1 208/242/1
f 208/242/1 207/232/1 196/230/1
f 208/242/1 196/230/1 209/243/1
f 209/243/1 196/230/1 360/228/1
f 209/243/1 360/228/1 232/244/1
f 232/244/1 360/228/1 359/245/1
f 216/210/1 215/152/1 210/220/1
f 210/220/1 215/152/1 280/154/1
f 183/210/1 211/152/1 224/208/1
f 224/208/1 211/152/1 225/150/1
f 299/165/1 358/158/1 298/222/1
f 298/222/1 358/158/1 212/160/1
f 210/220/1 280/154/1 298/167/1
f 298/167/1 280/154/1 279/156/1
f 213/222/1 509/160/1 187/165/1
f 187/165/1 509/160/1 300/158/1
f 222/225/1 285/144/1 214/206/1
f 214/206/1 285/144/1 284/205/1
f 214/206/1 284/205/1 236/208/1
f 236/208/1 284/205/1 282/150/1
f 236/208/1 282/150/1 216/210/1
f 216/210/1 282/150/1 215/152/1
f 210/220/1 278/221/1 216/210/1
f 216/210/1 278/221/1 184/211/1
f 217/171/1 193/172/1 218/169/1
f 218/169/1 193/172/1 219/170/1
f 218/169/1 219/170/1 321/174/1
f 321/174/1 219/170/1 220/177/1
f 321/174/1 220/177/1 221/176/1
f 221/176/1 220/177/1 286/142/1
f 221/176/1 286/142/1 222/225/1
f 222/225/1 286/142/1 285/144/1
f 223/220/1 245/154/1 183/210/1
f 183/210/1 245/154/1 211/152/1
f 224/208/1 225/150/1 181/206/1
f 181/206/1 225/150/1 226/205/1
f 227/171/1 200/236/1 192/169/1
f 192/169/1 200/236/1 194/173/1
f 161/171/1 323/236/1 160/169/1
f 160/169/1 323/236/1 322/173/1
f 149/140/1 228/141/1 148/134/1
f 148/134/1 228/141/1 229/135/1
f 230/201/1 231/246/1 175/197/1
f 175/197/1 231/246/1 229/199/1
f 195/229/1 325/175/1 198/227/1
f 198/227/1 325/175/1 194/173/1
f 232/244/1 233/247/1 209/243/1
f 209/243/1 233/247/1 234/248/1
f 209/243/1 234/248/1 208/242/1
f 208/242/1 234/248/1 235/249/1
f 216/210/1 184/211/1 236/208/1
f 236/208/1 184/211/1 182/209/1
f 236/208/1 182/209/1 214/206/1
f 214/206/1 182/209/1 237/207/1
f 214/206/1 237/207/1 222/225/1
f 222/225/1 237/207/1 367/226/1
f 156/151/1 238/162/1 180/148/1
f 180/148/1 238/162/1 152/149/1
f 239/126/1 240/250/1 275/251/1
f 275/251/1 240/250/1 390/252/1
f 329/253/1 328/74/1 241/254/1
f 241/254/1 328/74/1 643/255/1
f 241/254/1 643/255/1 333/256/1
f 333/256/1 643/255/1 332/257/1
f 183/210/1 184/211/1 223/220/1
f 223/220/1 184/211/1 278/221/1
f 223/220/1 278/221/1 242/167/1
f 242/167/1 278/221/1 212/168/1
f 242/167/1 212/168/1 296/165/1
f 296/165/1 212/168/1 358/166/1
f 296/165/1 358/166/1 463/222/1
f 463/222/1 358/166/1 243/223/1
f 296/165/1 297/158/1 242/167/1
f 242/167/1 297/158/1 244/156/1
f 242/167/1 244/156/1 223/220/1
f 223/220/1 244/156/1 245/154/1
f 474/159/1 246/258/1 157/157/1
f 157/157/1 246/258/1 247/163/1
f 340/180/1 238/184/1 168/129/1
f 168/129/1 238/184/1 166/178/1
f 252/259/2 248/260/3 251/261/2
f 251/261/2 248/260/3 249/262/3
f 250/263/4 315/264/4 251/261/2
f 251/261/2 315/264/4 252/259/2
f 273/263/4 253/264/4 254/261/5
f 254/261/5 253/264/4 306/259/5
f 270/263/4 255/264/4 310/261/5
f 310/261/5 255/264/4 256/259/5
f 257/263/4 269/264/4 258/261/5
f 258/261/5 269/264/4 259/259/5
f 260/263/6 261/264/6 313/261/5
f 313/261/5 261/264/6 262/259/5
f 263/264/5 274/263/5 264/259/4
f 264/259/4 274/263/5 301/261/4
f 265/264/5 266/263/5 304/259/4
f 304/259/4 266/263/5 302/261/4
f 260/261/6 267/262/7 261/259/6
f 261/259/6 267/262/7 268/260/7
f 257/265/4 314/266/8 269/267/4
f 269/267/4 314/266/8 312/268/9
f 270/265/4 271/266/8 255/267/4
f 255/267/4 271/266/8 272/268/9
f 273/265/4 311/266/8 253/267/4
f 253/267/4 311/266/8 309/268/9
f 263/267/5 305/268/9 274/265/5
f 274/265/5 305/268/9 303/266/8
f 275/251/1 277/269/1 239/126/1
f 239/126/1 277/269/1 146/128/1
f 169/130/1 146/128/1 276/270/1
f 276/270/1 146/128/1 277/269/1
f 298/167/1 212/168/1 210/220/1
f 210/220/1 212/168/1 278/221/1
f 188/167/1 279/156/1 356/220/1
f 356/220/1 279/156/1 280/154/1
f 356/220/1 280/154/1 281/210/1
f 281/210/1 280/154/1 215/152/1
f 281/210/1 215/152/1 361/208/1
f 361/208/1 215/152/1 282/150/1
f 361/208/1 282/150/1 283/206/1
f 283/206/1 282/150/1 284/205/1
f 283/206/1 284/205/1 363/225/1
f 363/225/1 284/205/1 285/144/1
f 363/225/1 285/144/1 190/176/1
f 190/176/1 285/144/1 286/142/1
f 333/256/1 334/271/1 241/254/1
f 241/254/1 334/271/1 287/272/1
f 178/204/1 336/273/1 288/187/1
f 288/187/1 336/273/1 172/189/1
f 289/274/1 290/275/1 335/194/1
f 335/194/1 290/275/1 291/196/1
f 292/276/1 293/277/1 294/198/1
f 294/198/1 293/277/1 295/202/1
f 163/174/1 165/177/1 160/169/1
f 160/169/1 165/177/1 338/170/1
f 150/143/1 364/144/1 179/145/1
f 179/145/1 364/144/1 226/205/1
f 463/222/1 154/160/1 296/165/1
f 296/165/1 154/160/1 297/158/1
f 298/222/1 279/223/1 299/165/1
f 299/165/1 279/223/1 300/166/1
f 465/132/1 240/250/1 147/125/1
f 147/125/1 240/250/1 239/126/1
f 301/265/4 308/266/8 264/267/4
f 264/267/4 308/266/8 307/268/9
f 302/265/4 303/266/8 304/267/4
f 304/267/4 303/266/8 305/268/9
f 306/267/5 307/268/9 254/265/5
f 254/265/5 307/268/9 308/266/8
f 256/267/5 309/268/9 310/265/5
f 310/265/5 309/268/9 311/266/8
f 259/267/5 272/268/9 258/265/5
f 258/265/5 272/268/9 271/266/8
f 262/267/5 312/268/9 313/265/5
f 313/265/5 312/268/9 314/266/8
f 250/263/4 317/266/8 315/264/4
f 315/264/4 317/266/8 316/268/9
f 265/264/5 316/268/9 266/263/5
f 266/263/5 316/268/9 317/266/8
f 176/195/1 228/200/1 173/190/1
f 173/190/1 228/200/1 318/191/1
f 150/143/1 151/147/1 319/138/1
f 319/138/1 151/147/1 318/139/1
f 163/174/1 164/175/1 365/176/1
f 365/176/1 164/175/1 320/224/1
f 221/176/1 320/224/1 321/174/1
f 321/174/1 320/224/1 164/175/1
f 321/174/1 164/175/1 218/169/1
f 218/169/1 164/175/1 322/173/1
f 218/169/1 322/173/1 217/171/1
f 217/171/1 322/173/1 323/236/1
f 222/225/1 367/226/1 221/176/1
f 221/176/1 367/226/1 320/224/1
f 324/174/1 325/175/1 190/176/1
f 190/176/1 325/175/1 191/224/1
f 353/233/1 354/226/1 197/231/1
f 197/231/1 354/226/1 191/224/1
f 197/231/1 191/224/1 195/229/1
f 195/229/1 191/224/1 325/175/1
f 208/242/1 235/249/1 206/241/1
f 206/241/1 235/249/1 326/278/1
f 206/241/1 326/278/1 204/240/1
f 204/240/1 326/278/1 599/279/1
f 204/240/1 599/279/1 202/239/1
f 202/239/1 599/279/1 598/280/1
f 202/239/1 598/280/1 327/238/1
f 327/238/1 598/280/1 596/281/1
f 327/238/1 596/281/1 329/237/1
f 329/237/1 596/281/1 328/282/1
f 241/254/1 287/272/1 329/253/1
f 329/253/1 287/272/1 201/283/1
f 330/254/1 331/255/1 457/256/1
f 457/256/1 331/255/1 642/257/1
f 333/253/1 332/74/1 330/254/1
f 330/254/1 332/74/1 331/255/1
f 330/254/1 345/272/1 333/253/1
f 333/253/1 345/272/1 334/283/1
f 335/194/1 172/189/1 289/274/1
f 289/274/1 172/189/1 336/273/1
f 294/198/1 291/196/1 292/276/1
f 292/276/1 291/196/1 290/275/1
f 337/136/1 162/172/1 148/134/1
f 148/134/1 162/172/1 338/170/1
f 148/134/1 338/170/1 149/140/1
f 149/140/1 338/170/1 165/177/1
f 149/140/1 165/177/1 319/138/1
f 319/138/1 165/177/1 339/142/1
f 340/180/1 170/181/1 341/182/1
f 341/182/1 170/181/1 342/185/1
f 342/185/1 170/181/1 177/203/1
f 177/203/1 170/181/1 343/284/1
f 457/256/1 504/271/1 330/254/1
f 330/254/1 504/271/1 345/272/1
f 276/270/1 343/284/1 169/130/1
f 169/130/1 343/284/1 170/181/1
f 344/218/1 287/219/1 348/285/1
f 348/285/1 287/219/1 334/271/1
f 348/285/1 334/271/1 347/286/1
f 347/286/1 334/271/1 345/272/1
f 347/286/1 345/272/1 482/287/1
f 482/287/1 345/272/1 504/283/1
f 482/287/1 346/223/1 347/286/1
f 347/286/1 346/223/1 189/166/1
f 347/286/1 189/166/1 348/285/1
f 348/285/1 189/166/1 349/168/1
f 348/285/1 349/168/1 344/218/1
f 344/218/1 349/168/1 357/221/1
f 344/218/1 357/221/1 350/216/1
f 350/216/1 357/221/1 355/211/1
f 350/216/1 355/211/1 351/214/1
f 351/214/1 355/211/1 362/209/1
f 351/214/1 362/209/1 185/212/1
f 185/212/1 362/209/1 352/207/1
f 185/212/1 352/207/1 353/233/1
f 353/233/1 352/207/1 354/226/1
f 281/210/1 355/211/1 356/220/1
f 356/220/1 355/211/1 357/221/1
f 508/167/1 243/156/1 299/165/1
f 299/165/1 243/156/1 358/158/1
f 174/188/1 172/189/1 173/190/1
f 173/190/1 172/189/1 335/194/1
f 199/235/1 359/245/1 198/227/1
f 198/227/1 359/245/1 360/228/1
f 361/208/1 362/209/1 281/210/1
f 281/210/1 362/209/1 355/211/1
f 283/206/1 352/207/1 361/208/1
f 361/208/1 352/207/1 362/209/1
f 363/225/1 354/226/1 283/206/1
f 283/206/1 354/226/1 352/207/1
f 366/225/1 364/144/1 365/176/1
f 365/176/1 364/144/1 339/142/1
f 181/206/1 226/205/1 366/225/1
f 366/225/1 226/205/1 364/144/1
f 366/225/1 367/226/1 181/206/1
f 181/206/1 367/226/1 237/207/1
f 365/176/1 320/224/1 366/225/1
f 366/225/1 320/224/1 367/226/1
f 521/288/1 447/289/1 517/290/1
f 517/290/1 447/289/1 518/291/1
f 373/292/1 468/293/1 461/294/1
f 461/294/1 468/293/1 368/295/1
f 461/294/1 368/295/1 213/222/1
f 213/222/1 368/295/1 509/160/1
f 467/292/1 369/296/1 510/294/1
f 510/294/1 369/296/1 492/297/1
f 510/294/1 492/297/1 508/222/1
f 508/222/1 492/297/1 243/223/1
f 370/298/1 473/299/1 493/300/1
f 493/300/1 473/299/1 453/301/1
f 425/302/1 427/179/1 472/303/1
f 472/303/1 427/179/1 371/178/1
f 426/127/1 430/128/1 501/129/1
f 501/129/1 430/128/1 391/130/1
f 391/130/1 430/128/1 389/270/1
f 389/270/1 430/128/1 372/269/1
f 373/290/1 388/291/1 418/304/1
f 418/304/1 388/291/1 516/305/1
f 374/306/1 507/307/1 479/304/1
f 479/304/1 507/307/1 480/290/1
f 449/308/1 518/62/1 448/288/1
f 448/288/1 518/62/1 447/34/1
f 522/35/1 442/9/1 475/87/1
f 475/87/1 442/9/1 476/111/1
f 482/287/1 504/283/1 481/309/1
f 481/309/1 504/283/1 503/310/1
f 375/311/1 377/312/1 530/313/1
f 530/313/1 377/312/1 376/314/1
f 382/315/1 377/312/1 378/316/1
f 378/316/1 377/312/1 375/311/1
f 378/316/1 375/311/1 532/317/1
f 532/317/1 375/311/1 531/318/1
f 379/319/1 376/314/1 380/320/1
f 380/320/1 376/314/1 377/312/1
f 380/320/1 377/312/1 381/321/1
f 381/321/1 377/312/1 382/315/1
f 381/321/1 382/315/1 459/322/1
f 459/322/1 382/315/1 536/323/1
f 459/322/1 536/323/1 498/324/1
f 498/324/1 536/323/1 545/325/1
f 498/324/1 545/325/1 499/326/1
f 499/326/1 545/325/1 546/327/1
f 499/326/1 546/327/1 384/328/1
f 384/328/1 546/327/1 537/329/1
f 537/329/1 383/330/1 384/328/1
f 384/328/1 383/330/1 385/331/1
f 559/85/1 386/110/1 496/45/1
f 496/45/1 386/110/1 548/83/1
f 461/294/1 387/297/1 373/292/1
f 373/292/1 387/297/1 388/296/1
f 374/306/1 388/296/1 481/309/1
f 481/309/1 388/296/1 387/297/1
f 389/270/1 390/284/1 391/130/1
f 391/130/1 390/284/1 240/181/1
f 391/130/1 240/181/1 501/129/1
f 501/129/1 240/181/1 465/180/1
f 462/332/1 515/333/1 392/334/1
f 392/334/1 515/333/1 514/335/1
f 392/334/1 514/335/1 451/336/1
f 451/336/1 514/335/1 495/337/1
f 380/320/1 393/338/1 379/319/1
f 379/319/1 393/338/1 394/339/1
f 532/317/1 470/340/1 378/316/1
f 378/316/1 470/340/1 395/341/1
f 396/342/1 397/343/1 498/324/1
f 498/324/1 397/343/1 459/322/1
f 488/344/1 402/345/1 484/346/1
f 484/346/1 402/345/1 483/347/1
f 398/348/1 399/349/1 406/350/1
f 406/350/1 399/349/1 385/351/1
f 406/350/1 385/351/1 400/352/1
f 400/352/1 385/351/1 383/353/1
f 400/352/1 383/353/1 401/354/1
f 401/354/1 383/353/1 483/355/1
f 401/354/1 483/355/1 403/305/1
f 403/305/1 483/355/1 402/356/1
f 403/305/1 416/291/1 401/354/1
f 401/354/1 416/291/1 404/357/1
f 401/354/1 404/357/1 400/352/1
f 400/352/1 404/357/1 405/358/1
f 400/352/1 405/358/1 406/350/1
f 406/350/1 405/358/1 407/359/1
f 406/350/1 407/359/1 398/348/1
f 398/348/1 407/359/1 408/360/1
f 409/87/1 476/111/1 411/35/1
f 411/35/1 476/111/1 442/9/1
f 411/35/1 442/9/1 410/33/1
f 410/33/1 442/9/1 441/10/1
f 410/33/1 441/10/1 443/61/1
f 443/61/1 441/10/1 446/12/1
f 410/33/1 6/34/1 411/35/1
f 411/35/1 6/34/1 412/36/1
f 411/35/1 412/36/1 409/87/1
f 409/87/1 412/36/1 80/88/1
f 521/288/1 25/308/1 443/34/1
f 443/34/1 25/308/1 413/62/1
f 556/361/1 408/360/1 414/362/1
f 414/362/1 408/360/1 407/359/1
f 414/362/1 407/359/1 554/363/1
f 554/363/1 407/359/1 405/358/1
f 554/363/1 405/358/1 415/364/1
f 415/364/1 405/358/1 404/357/1
f 415/364/1 404/357/1 440/289/1
f 440/289/1 404/357/1 416/291/1
f 460/365/1 393/338/1 381/321/1
f 381/321/1 393/338/1 380/320/1
f 417/366/1 515/296/1 418/304/1
f 418/304/1 515/296/1 422/306/1
f 418/304/1 422/306/1 373/290/1
f 373/290/1 422/306/1 468/307/1
f 541/132/1 535/250/1 419/125/1
f 419/125/1 535/250/1 420/126/1
f 419/125/1 420/126/1 426/127/1
f 426/127/1 420/126/1 430/128/1
f 467/336/1 468/367/1 421/368/1
f 421/368/1 468/367/1 422/369/1
f 421/368/1 422/369/1 462/370/1
f 462/370/1 422/369/1 515/371/1
f 370/298/1 369/372/1 423/373/1
f 423/373/1 369/372/1 469/374/1
f 423/373/1 469/374/1 519/375/1
f 519/375/1 469/374/1 424/337/1
f 425/302/1 473/179/1 464/376/1
f 464/376/1 473/179/1 520/131/1
f 464/376/1 520/131/1 454/377/1
f 454/377/1 520/131/1 491/133/1
f 426/127/1 427/179/1 419/125/1
f 419/125/1 427/179/1 428/131/1
f 419/125/1 428/131/1 541/132/1
f 541/132/1 428/131/1 542/133/1
f 429/251/1 372/269/1 420/126/1
f 420/126/1 372/269/1 430/128/1
f 431/378/1 432/379/1 433/380/1
f 433/380/1 432/379/1 434/381/1
f 533/382/1 432/379/1 435/383/1
f 435/383/1 432/379/1 431/378/1
f 527/384/1 434/381/1 529/385/1
f 529/385/1 434/381/1 432/379/1
f 529/385/1 432/379/1 436/386/1
f 436/386/1 432/379/1 533/382/1
f 436/386/1 533/382/1 540/387/1
f 540/387/1 533/382/1 534/388/1
f 540/387/1 534/388/1 511/389/1
f 511/389/1 534/388/1 455/390/1
f 511/389/1 455/390/1 489/391/1
f 489/391/1 455/390/1 456/392/1
f 437/393/1 490/333/1 487/394/1
f 487/394/1 490/333/1 539/395/1
f 451/332/1 495/396/1 538/397/1
f 538/397/1 495/396/1 438/398/1
f 538/397/1 438/398/1 403/399/1
f 403/399/1 438/398/1 416/400/1
f 494/308/1 477/307/1 439/288/1
f 439/288/1 477/307/1 524/290/1
f 439/288/1 524/290/1 440/289/1
f 440/289/1 524/290/1 553/291/1
f 478/61/1 446/12/1 523/33/1
f 523/33/1 446/12/1 441/10/1
f 523/33/1 441/10/1 522/35/1
f 522/35/1 441/10/1 442/9/1
f 443/61/1 413/62/1 410/33/1
f 410/33/1 413/62/1 6/34/1
f 437/393/1 456/392/1 444/401/1
f 444/401/1 456/392/1 445/402/1
f 443/34/1 446/36/1 521/288/1
f 521/288/1 446/36/1 447/289/1
f 478/289/1 477/291/1 448/288/1
f 448/288/1 477/291/1 526/290/1
f 448/288/1 526/290/1 449/308/1
f 449/308/1 526/290/1 525/307/1
f 494/290/1 495/307/1 450/304/1
f 450/304/1 495/307/1 514/306/1
f 455/390/1 534/388/1 471/403/1
f 471/403/1 534/388/1 543/404/1
f 451/336/1 490/367/1 392/334/1
f 392/334/1 490/367/1 452/405/1
f 474/406/1 154/407/1 472/303/1
f 472/303/1 154/407/1 453/301/1
f 454/377/1 491/408/1 471/403/1
f 471/403/1 491/408/1 445/402/1
f 471/403/1 445/402/1 455/390/1
f 455/390/1 445/402/1 456/392/1
f 440/289/1 416/36/1 439/288/1
f 439/288/1 416/36/1 438/34/1
f 457/253/1 642/74/1 502/409/1
f 502/409/1 642/74/1 458/73/1
f 502/409/1 458/73/1 505/308/1
f 505/308/1 458/73/1 71/62/1
f 505/308/1 71/62/1 506/288/1
f 506/288/1 71/62/1 85/34/1
f 506/288/1 85/34/1 517/289/1
f 517/289/1 85/34/1 89/36/1
f 381/321/1 459/322/1 460/365/1
f 460/365/1 459/322/1 397/343/1
f 449/305/1 525/356/1 479/304/1
f 479/304/1 525/356/1 516/366/1
f 213/222/1 346/223/1 461/294/1
f 461/294/1 346/223/1 387/297/1
f 462/370/1 424/372/1 421/368/1
f 421/368/1 424/372/1 469/374/1
f 463/410/1 243/411/1 493/300/1
f 493/300/1 243/411/1 492/412/1
f 454/377/1 542/408/1 464/376/1
f 464/376/1 542/408/1 428/413/1
f 464/376/1 428/413/1 425/302/1
f 425/302/1 428/413/1 427/299/1
f 465/180/1 246/184/1 501/129/1
f 501/129/1 246/184/1 371/178/1
f 420/126/1 535/250/1 429/251/1
f 429/251/1 535/250/1 466/252/1
f 510/294/1 368/295/1 467/292/1
f 467/292/1 368/295/1 468/293/1
f 421/368/1 469/374/1 467/336/1
f 467/336/1 469/374/1 369/337/1
f 392/334/1 452/405/1 462/332/1
f 462/332/1 452/405/1 424/396/1
f 538/397/1 539/395/1 451/332/1
f 451/332/1 539/395/1 490/333/1
f 544/414/1 395/341/1 485/415/1
f 485/415/1 395/341/1 470/340/1
f 471/403/1 543/404/1 454/377/1
f 454/377/1 543/404/1 542/133/1
f 472/303/1 453/301/1 425/302/1
f 425/302/1 453/301/1 473/299/1
f 472/303/1 371/178/1 474/406/1
f 474/406/1 371/178/1 246/184/1
f 475/87/1 476/111/1 559/85/1
f 559/85/1 476/111/1 386/110/1
f 523/33/1 524/34/1 478/61/1
f 478/61/1 524/34/1 477/62/1
f 448/288/1 447/34/1 478/289/1
f 478/289/1 447/34/1 446/36/1
f 479/304/1 480/290/1 449/305/1
f 449/305/1 480/290/1 518/291/1
f 479/304/1 516/366/1 374/306/1
f 374/306/1 516/366/1 388/296/1
f 481/309/1 503/310/1 374/306/1
f 374/306/1 503/310/1 507/307/1
f 481/309/1 387/297/1 482/287/1
f 482/287/1 387/297/1 346/223/1
f 484/346/1 483/347/1 537/329/1
f 537/329/1 483/347/1 383/330/1
f 484/346/1 486/416/1 488/344/1
f 488/344/1 486/416/1 512/417/1
f 485/415/1 512/417/1 544/414/1
f 544/414/1 512/417/1 486/416/1
f 487/394/1 539/395/1 488/344/1
f 488/344/1 539/395/1 402/345/1
f 487/394/1 489/391/1 437/393/1
f 437/393/1 489/391/1 456/392/1
f 444/401/1 452/335/1 437/393/1
f 437/393/1 452/335/1 490/333/1
f 444/401/1 445/402/1 519/375/1
f 519/375/1 445/402/1 491/408/1
f 423/373/1 520/413/1 370/298/1
f 370/298/1 520/413/1 473/299/1
f 493/300/1 492/412/1 370/298/1
f 370/298/1 492/412/1 369/372/1
f 493/300/1 453/301/1 463/410/1
f 463/410/1 453/301/1 154/407/1
f 384/328/1 385/331/1 513/418/1
f 513/418/1 385/331/1 399/419/1
f 439/288/1 438/34/1 494/308/1
f 494/308/1 438/34/1 495/62/1
f 496/45/1 548/83/1 558/43/1
f 558/43/1 548/83/1 497/84/1
f 498/324/1 499/326/1 396/342/1
f 396/342/1 499/326/1 500/420/1
f 501/129/1 371/178/1 426/127/1
f 426/127/1 371/178/1 427/179/1
f 502/409/1 503/310/1 457/253/1
f 457/253/1 503/310/1 504/283/1
f 505/308/1 507/307/1 502/409/1
f 502/409/1 507/307/1 503/310/1
f 506/288/1 480/290/1 505/308/1
f 505/308/1 480/290/1 507/307/1
f 508/222/1 509/160/1 510/294/1
f 510/294/1 509/160/1 368/295/1
f 488/344/1 512/417/1 487/394/1
f 487/394/1 512/417/1 489/391/1
f 511/389/1 489/391/1 485/415/1
f 485/415/1 489/391/1 512/417/1
f 513/418/1 500/420/1 384/328/1
f 384/328/1 500/420/1 499/326/1
f 450/304/1 526/305/1 494/290/1
f 494/290/1 526/305/1 477/291/1
f 450/304/1 514/306/1 417/366/1
f 417/366/1 514/306/1 515/296/1
f 418/304/1 516/305/1 417/366/1
f 417/366/1 516/305/1 525/356/1
f 517/289/1 518/291/1 506/288/1
f 506/288/1 518/291/1 480/290/1
f 519/375/1 491/408/1 423/373/1
f 423/373/1 491/408/1 520/413/1
f 433/380/1 466/252/1 431/378/1
f 431/378/1 466/252/1 535/250/1
f 517/290/1 89/307/1 521/288/1
f 521/288/1 89/307/1 25/308/1
f 522/35/1 553/36/1 523/33/1
f 523/33/1 553/36/1 524/34/1
f 417/366/1 525/356/1 450/304/1
f 450/304/1 525/356/1 526/305/1
f 529/385/1 531/421/1 527/384/1
f 527/384/1 531/421/1 528/422/1
f 532/317/1 531/421/1 436/386/1
f 436/386/1 531/421/1 529/385/1
f 530/313/1 528/423/1 375/311/1
f 375/311/1 528/423/1 531/318/1
f 378/316/1 395/341/1 382/315/1
f 382/315/1 395/341/1 536/323/1
f 436/386/1 540/387/1 532/317/1
f 532/317/1 540/387/1 470/340/1
f 435/383/1 543/404/1 533/382/1
f 533/382/1 543/404/1 534/388/1
f 435/383/1 431/378/1 541/132/1
f 541/132/1 431/378/1 535/250/1
f 545/325/1 536/323/1 544/414/1
f 544/414/1 536/323/1 395/341/1
f 537/329/1 546/327/1 484/346/1
f 484/346/1 546/327/1 486/416/1
f 403/399/1 402/345/1 538/397/1
f 538/397/1 402/345/1 539/395/1
f 519/375/1 424/337/1 444/401/1
f 444/401/1 424/337/1 452/335/1
f 485/415/1 470/340/1 511/389/1
f 511/389/1 470/340/1 540/387/1
f 541/132/1 542/133/1 435/383/1
f 435/383/1 542/133/1 543/404/1
f 544/414/1 486/416/1 545/325/1
f 545/325/1 486/416/1 546/327/1
f 547/43/1 497/84/1 551/45/1
f 551/45/1 497/84/1 548/83/1
f 551/45/1 548/83/1 549/85/1
f 549/85/1 548/83/1 386/110/1
f 549/85/1 386/110/1 409/87/1
f 409/87/1 386/110/1 476/111/1
f 549/85/1 550/86/1 551/45/1
f 551/45/1 550/86/1 18/46/1
f 551/45/1 18/46/1 547/43/1
f 547/43/1 18/46/1 552/44/1
f 440/289/1 553/36/1 415/364/1
f 415/364/1 553/36/1 561/88/1
f 415/364/1 561/88/1 554/363/1
f 554/363/1 561/88/1 560/86/1
f 554/363/1 560/86/1 414/362/1
f 414/362/1 560/86/1 555/46/1
f 414/362/1 555/46/1 556/361/1
f 556/361/1 555/46/1 557/44/1
f 558/43/1 557/44/1 496/45/1
f 496/45/1 557/44/1 555/46/1
f 496/45/1 555/46/1 559/85/1
f 559/85/1 555/46/1 560/86/1
f 559/85/1 560/86/1 475/87/1
f 475/87/1 560/86/1 561/88/1
f 475/87/1 561/88/1 522/35/1
f 522/35/1 561/88/1 553/36/1
f 409/87/1 80/88/1 549/85/1
f 549/85/1 80/88/1 550/86/1
f 608/424/1 562/425/1 627/426/1
f 627/426/1 562/425/1 563/427/1
f 608/424/1 564/78/1 22/51/1
f 22/51/1 564/78/1 565/17/1
f 566/428/1 567/429/1 570/430/1
f 570/430/1 567/429/1 602/431/1
f 566/428/1 568/70/1 627/426/1
f 627/426/1 568/70/1 648/80/1
f 569/432/1 589/433/1 570/430/1
f 570/430/1 589/433/1 571/71/1
f 569/432/1 572/434/1 591/435/1
f 591/435/1 572/434/1 610/436/1
f 591/435/1 610/436/1 573/437/1
f 573/437/1 610/436/1 574/438/1
f 595/439/1 575/440/1 638/441/1
f 638/441/1 575/440/1 639/442/1
f 576/64/1 20/47/1 614/443/1
f 614/443/1 20/47/1 640/444/1
f 595/439/1 645/445/1 577/446/1
f 577/446/1 645/445/1 578/447/1
f 577/446/1 578/447/1 646/448/1
f 646/448/1 578/447/1 605/449/1
f 570/430/1 602/431/1 569/432/1
f 569/432/1 602/431/1 572/434/1
f 579/450/1 645/445/1 622/451/1
f 622/451/1 645/445/1 620/452/1
f 588/68/1 584/53/1 629/69/1
f 629/69/1 584/53/1 580/52/1
f 570/430/1 571/71/1 566/428/1
f 566/428/1 571/71/1 568/70/1
f 581/16/1 565/17/1 582/77/1
f 582/77/1 565/17/1 564/78/1
f 582/77/1 583/76/1 581/16/1
f 581/16/1 583/76/1 613/38/1
f 580/52/1 584/53/1 635/54/1
f 635/54/1 584/53/1 601/55/1
f 611/453/1 585/454/1 586/455/1
f 586/455/1 585/454/1 587/456/1
f 588/68/1 571/71/1 631/457/1
f 631/457/1 571/71/1 589/433/1
f 573/437/1 590/458/1 591/435/1
f 591/435/1 590/458/1 632/459/1
f 592/460/1 575/440/1 616/461/1
f 616/461/1 575/440/1 617/462/1
f 593/463/1 619/464/1 646/448/1
f 646/448/1 619/464/1 594/465/1
f 646/448/1 594/465/1 577/446/1
f 577/446/1 594/465/1 617/462/1
f 577/446/1 617/462/1 595/439/1
f 595/439/1 617/462/1 575/440/1
f 579/450/1 328/282/1 606/466/1
f 606/466/1 328/282/1 596/281/1
f 606/466/1 596/281/1 597/467/1
f 597/467/1 596/281/1 598/280/1
f 597/467/1 598/280/1 603/468/1
f 603/468/1 598/280/1 599/279/1
f 600/469/1 601/55/1 630/470/1
f 630/470/1 601/55/1 584/53/1
f 592/460/1 602/431/1 626/471/1
f 626/471/1 602/431/1 567/429/1
f 603/468/1 604/472/1 597/467/1
f 597/467/1 604/472/1 605/449/1
f 597/467/1 605/449/1 606/466/1
f 606/466/1 605/449/1 578/447/1
f 606/466/1 578/447/1 579/450/1
f 579/450/1 578/447/1 645/445/1
f 22/51/1 607/72/1 608/424/1
f 608/424/1 607/72/1 562/425/1
f 609/473/1 574/438/1 618/474/1
f 618/474/1 574/438/1 610/436/1
f 618/474/1 610/436/1 616/461/1
f 616/461/1 610/436/1 572/434/1
f 634/475/1 585/454/1 633/476/1
f 633/476/1 585/454/1 611/453/1
f 612/75/1 23/40/1 583/76/1
f 583/76/1 23/40/1 613/38/1
f 614/443/1 562/425/1 576/64/1
f 576/64/1 562/425/1 607/72/1
f 614/443/1 640/444/1 625/477/1
f 625/477/1 640/444/1 615/478/1
f 626/471/1 639/442/1 592/460/1
f 592/460/1 639/442/1 575/440/1
f 616/461/1 572/434/1 592/460/1
f 592/460/1 572/434/1 602/431/1
f 616/461/1 617/462/1 618/474/1
f 618/474/1 617/462/1 594/465/1
f 618/474/1 594/465/1 609/473/1
f 609/473/1 594/465/1 619/464/1
f 622/451/1 620/452/1 621/479/1
f 621/479/1 620/452/1 624/480/1
f 622/451/1 643/481/1 579/450/1
f 579/450/1 643/481/1 328/282/1
f 623/482/1 624/480/1 638/441/1
f 638/441/1 624/480/1 620/452/1
f 625/477/1 615/478/1 626/471/1
f 626/471/1 615/478/1 639/442/1
f 626/471/1 567/429/1 625/477/1
f 625/477/1 567/429/1 563/427/1
f 627/426/1 563/427/1 566/428/1
f 566/428/1 563/427/1 567/429/1
f 628/79/1 648/80/1 629/69/1
f 629/69/1 648/80/1 568/70/1
f 629/69/1 580/52/1 628/79/1
f 628/79/1 580/52/1 636/81/1
f 629/69/1 568/70/1 588/68/1
f 588/68/1 568/70/1 571/71/1
f 631/457/1 630/470/1 588/68/1
f 588/68/1 630/470/1 584/53/1
f 631/457/1 589/433/1 633/476/1
f 633/476/1 589/433/1 632/459/1
f 633/476/1 632/459/1 634/475/1
f 634/475/1 632/459/1 590/458/1
f 591/435/1 632/459/1 569/432/1
f 569/432/1 632/459/1 589/433/1
f 633/476/1 611/453/1 631/457/1
f 631/457/1 611/453/1 630/470/1
f 630/470/1 611/453/1 600/469/1
f 600/469/1 611/453/1 586/455/1
f 635/54/1 637/82/1 580/52/1
f 580/52/1 637/82/1 636/81/1
f 583/76/1 636/81/1 612/75/1
f 612/75/1 636/81/1 637/82/1
f 628/79/1 636/81/1 582/77/1
f 582/77/1 636/81/1 583/76/1
f 582/77/1 564/78/1 628/79/1
f 628/79/1 564/78/1 648/80/1
f 638/441/1 639/442/1 623/482/1
f 623/482/1 639/442/1 615/478/1
f 623/482/1 615/478/1 641/483/1
f 641/483/1 615/478/1 640/444/1
f 641/483/1 644/484/1 623/482/1
f 623/482/1 644/484/1 624/480/1
f 641/483/1 640/444/1 19/23/1
f 19/23/1 640/444/1 20/47/1
f 9/18/1 642/74/1 647/485/1
f 647/485/1 642/74/1 331/255/1
f 647/485/1 331/255/1 621/479/1
f 621/479/1 331/255/1 332/257/1
f 621/479/1 332/257/1 622/451/1
f 622/451/1 332/257/1 643/481/1
f 19/23/1 10/19/1 641/483/1
f 641/483/1 10/19/1 644/484/1
f 647/485/1 644/484/1 9/18/1
f 9/18/1 644/484/1 10/19/1
f 638/441/1 620/452/1 595/439/1
f 595/439/1 620/452/1 645/445/1
f 646/448/1 605/449/1 593/463/1
f 593/463/1 605/449/1 604/472/1
f 621/479/1 624/480/1 647/485/1
f 647/485/1 624/480/1 644/484/1
f 625/477/1 563/427/1 614/443/1
f 614/443/1 563/427/1 562/425/1
f 627/426/1 648/80/1 608/424/1
f 608/424/1 648/80/1 564/78/1
